%TF.GenerationSoftware,KiCad,Pcbnew,7.0.5-7.0.5~ubuntu23.04.1*%
%TF.CreationDate,2023-07-09T19:20:04+02:00*%
%TF.ProjectId,omega-pico,6f6d6567-612d-4706-9963-6f2e6b696361,rev?*%
%TF.SameCoordinates,Original*%
%TF.FileFunction,Drillmap*%
%TF.FilePolarity,Positive*%
%FSLAX45Y45*%
G04 Gerber Fmt 4.5, Leading zero omitted, Abs format (unit mm)*
G04 Created by KiCad (PCBNEW 7.0.5-7.0.5~ubuntu23.04.1) date 2023-07-09 19:20:04*
%MOMM*%
%LPD*%
G01*
G04 APERTURE LIST*
%ADD10C,0.100000*%
%ADD11C,0.200000*%
%ADD12C,0.030000*%
%ADD13C,0.040000*%
%ADD14C,0.050000*%
%ADD15C,0.080000*%
%ADD16C,0.110000*%
%ADD17C,0.152000*%
G04 APERTURE END LIST*
D10*
X6758100Y-6281070D02*
X16658100Y-6281070D01*
X16658100Y-10774200D01*
X6758100Y-10774200D01*
X6758100Y-6281070D01*
D11*
D12*
X14429000Y-8634050D02*
X14459000Y-8664050D01*
X14459000Y-8634050D02*
X14429000Y-8664050D01*
X14429000Y-8833950D02*
X14459000Y-8863950D01*
X14459000Y-8833950D02*
X14429000Y-8863950D01*
D13*
X8567100Y-9423400D02*
G75*
G03*
X8567100Y-9423400I-20000J0D01*
G01*
X8732200Y-9423400D02*
G75*
G03*
X8732200Y-9423400I-20000J0D01*
G01*
X8808400Y-10261600D02*
G75*
G03*
X8808400Y-10261600I-20000J0D01*
G01*
X8992800Y-10444250D02*
G75*
G03*
X8992800Y-10444250I-20000J0D01*
G01*
X10166000Y-8826500D02*
G75*
G03*
X10166000Y-8826500I-20000J0D01*
G01*
X10167300Y-8280400D02*
G75*
G03*
X10167300Y-8280400I-20000J0D01*
G01*
X10321000Y-8826500D02*
G75*
G03*
X10321000Y-8826500I-20000J0D01*
G01*
X10497500Y-8102600D02*
G75*
G03*
X10497500Y-8102600I-20000J0D01*
G01*
X10649900Y-8102600D02*
G75*
G03*
X10649900Y-8102600I-20000J0D01*
G01*
X10675300Y-8280400D02*
G75*
G03*
X10675300Y-8280400I-20000J0D01*
G01*
X10700700Y-9588500D02*
G75*
G03*
X10700700Y-9588500I-20000J0D01*
G01*
X11032200Y-8102600D02*
G75*
G03*
X11032200Y-8102600I-20000J0D01*
G01*
X11417600Y-8191500D02*
G75*
G03*
X11417600Y-8191500I-20000J0D01*
G01*
X11437300Y-8369300D02*
G75*
G03*
X11437300Y-8369300I-20000J0D01*
G01*
X11591000Y-8369300D02*
G75*
G03*
X11591000Y-8369300I-20000J0D01*
G01*
X11867800Y-7620000D02*
G75*
G03*
X11867800Y-7620000I-20000J0D01*
G01*
X11932600Y-8182750D02*
G75*
G03*
X11932600Y-8182750I-20000J0D01*
G01*
X11945300Y-7810500D02*
G75*
G03*
X11945300Y-7810500I-20000J0D01*
G01*
X12021500Y-7620000D02*
G75*
G03*
X12021500Y-7620000I-20000J0D01*
G01*
X12288200Y-7563100D02*
G75*
G03*
X12288200Y-7563100I-20000J0D01*
G01*
X12288200Y-7753100D02*
G75*
G03*
X12288200Y-7753100I-20000J0D01*
G01*
X13650181Y-8016240D02*
G75*
G03*
X13650181Y-8016240I-20000J0D01*
G01*
X13650181Y-8171240D02*
G75*
G03*
X13650181Y-8171240I-20000J0D01*
G01*
X13685200Y-8522000D02*
G75*
G03*
X13685200Y-8522000I-20000J0D01*
G01*
X13685200Y-8825200D02*
G75*
G03*
X13685200Y-8825200I-20000J0D01*
G01*
X13685200Y-8980200D02*
G75*
G03*
X13685200Y-8980200I-20000J0D01*
G01*
X13837600Y-8518700D02*
G75*
G03*
X13837600Y-8518700I-20000J0D01*
G01*
X13837600Y-8985200D02*
G75*
G03*
X13837600Y-8985200I-20000J0D01*
G01*
X13935881Y-8347740D02*
G75*
G03*
X13935881Y-8347740I-20000J0D01*
G01*
X14024000Y-8634050D02*
G75*
G03*
X14024000Y-8634050I-20000J0D01*
G01*
X14024000Y-8863950D02*
G75*
G03*
X14024000Y-8863950I-20000J0D01*
G01*
X14039200Y-7277100D02*
G75*
G03*
X14039200Y-7277100I-20000J0D01*
G01*
X14145481Y-8276490D02*
G75*
G03*
X14145481Y-8276490I-20000J0D01*
G01*
X14199550Y-8704550D02*
G75*
G03*
X14199550Y-8704550I-20000J0D01*
G01*
X14199550Y-8793450D02*
G75*
G03*
X14199550Y-8793450I-20000J0D01*
G01*
X14205900Y-7823200D02*
G75*
G03*
X14205900Y-7823200I-20000J0D01*
G01*
X14218600Y-7410500D02*
G75*
G03*
X14218600Y-7410500I-20000J0D01*
G01*
X14288450Y-8704550D02*
G75*
G03*
X14288450Y-8704550I-20000J0D01*
G01*
X14288450Y-8793450D02*
G75*
G03*
X14288450Y-8793450I-20000J0D01*
G01*
X14323281Y-8206740D02*
G75*
G03*
X14323281Y-8206740I-20000J0D01*
G01*
X14324281Y-8115300D02*
G75*
G03*
X14324281Y-8115300I-20000J0D01*
G01*
X14408101Y-8206740D02*
G75*
G03*
X14408101Y-8206740I-20000J0D01*
G01*
X14409100Y-8115300D02*
G75*
G03*
X14409100Y-8115300I-20000J0D01*
G01*
X14445900Y-7886700D02*
G75*
G03*
X14445900Y-7886700I-20000J0D01*
G01*
X14551800Y-10013800D02*
G75*
G03*
X14551800Y-10013800I-20000J0D01*
G01*
X14585481Y-8276490D02*
G75*
G03*
X14585481Y-8276490I-20000J0D01*
G01*
X14589981Y-8046590D02*
G75*
G03*
X14589981Y-8046590I-20000J0D01*
G01*
X14637700Y-8658800D02*
G75*
G03*
X14637700Y-8658800I-20000J0D01*
G01*
X14764700Y-8037800D02*
G75*
G03*
X14764700Y-8037800I-20000J0D01*
G01*
X15806100Y-9353700D02*
G75*
G03*
X15806100Y-9353700I-20000J0D01*
G01*
X16060100Y-9848700D02*
G75*
G03*
X16060100Y-9848700I-20000J0D01*
G01*
D14*
X7956300Y-9588900D02*
X7956300Y-9638900D01*
X7931300Y-9613900D02*
X7981300Y-9613900D01*
X10795000Y-10184500D02*
X10795000Y-10234500D01*
X10770000Y-10209500D02*
X10820000Y-10209500D01*
X12319000Y-8433200D02*
X12319000Y-8483200D01*
X12294000Y-8458200D02*
X12344000Y-8458200D01*
X14147800Y-9353750D02*
X14147800Y-9403750D01*
X14122800Y-9378750D02*
X14172800Y-9378750D01*
X14414500Y-9328350D02*
X14414500Y-9378350D01*
X14389500Y-9353350D02*
X14439500Y-9353350D01*
D15*
X8377284Y-7793084D02*
X8377284Y-7736515D01*
X8320715Y-7736515D01*
X8320715Y-7793084D01*
X8377284Y-7793084D01*
X8377284Y-8275684D02*
X8377284Y-8219115D01*
X8320715Y-8219115D01*
X8320715Y-8275684D01*
X8377284Y-8275684D01*
X8631285Y-8825791D02*
X8631285Y-8769222D01*
X8574716Y-8769222D01*
X8574716Y-8825791D01*
X8631285Y-8825791D01*
X8791285Y-8892885D02*
X8791285Y-8836316D01*
X8734716Y-8836316D01*
X8734716Y-8892885D01*
X8791285Y-8892885D01*
X8791285Y-9142885D02*
X8791285Y-9086316D01*
X8734716Y-9086316D01*
X8734716Y-9142885D01*
X8791285Y-9142885D01*
X8951285Y-9209978D02*
X8951285Y-9153409D01*
X8894716Y-9153409D01*
X8894716Y-9209978D01*
X8951285Y-9209978D01*
X9139285Y-7793084D02*
X9139285Y-7736515D01*
X9082716Y-7736515D01*
X9082716Y-7793084D01*
X9139285Y-7793084D01*
X9139285Y-8275684D02*
X9139285Y-8219115D01*
X9082716Y-8219115D01*
X9082716Y-8275684D01*
X9139285Y-8275684D01*
X9799685Y-8813091D02*
X9799685Y-8756522D01*
X9743116Y-8756522D01*
X9743116Y-8813091D01*
X9799685Y-8813091D01*
X9959685Y-8880185D02*
X9959685Y-8823616D01*
X9903116Y-8823616D01*
X9903116Y-8880185D01*
X9959685Y-8880185D01*
X9959685Y-9130185D02*
X9959685Y-9073616D01*
X9903116Y-9073616D01*
X9903116Y-9130185D01*
X9959685Y-9130185D01*
X10119685Y-9197278D02*
X10119685Y-9140709D01*
X10063116Y-9140709D01*
X10063116Y-9197278D01*
X10119685Y-9197278D01*
X10175585Y-10010485D02*
X10175585Y-9953916D01*
X10119016Y-9953916D01*
X10119016Y-10010485D01*
X10175585Y-10010485D01*
X10467685Y-7711784D02*
X10467685Y-7655215D01*
X10411116Y-7655215D01*
X10411116Y-7711784D01*
X10467685Y-7711784D01*
X10683585Y-10010485D02*
X10683585Y-9953916D01*
X10627016Y-9953916D01*
X10627016Y-10010485D01*
X10683585Y-10010485D01*
X10721685Y-7711784D02*
X10721685Y-7655215D01*
X10665116Y-7655215D01*
X10665116Y-7711784D01*
X10721685Y-7711784D01*
X10975685Y-7711784D02*
X10975685Y-7655215D01*
X10919116Y-7655215D01*
X10919116Y-7711784D01*
X10975685Y-7711784D01*
X11077285Y-9388185D02*
X11077285Y-9331616D01*
X11020716Y-9331616D01*
X11020716Y-9388185D01*
X11077285Y-9388185D01*
X11077285Y-9642185D02*
X11077285Y-9585616D01*
X11020716Y-9585616D01*
X11020716Y-9642185D01*
X11077285Y-9642185D01*
X11077285Y-9896185D02*
X11077285Y-9839616D01*
X11020716Y-9839616D01*
X11020716Y-9896185D01*
X11077285Y-9896185D01*
X12080584Y-7191084D02*
X12080584Y-7134515D01*
X12024015Y-7134515D01*
X12024015Y-7191084D01*
X12080584Y-7191084D01*
X12334584Y-7191084D02*
X12334584Y-7134515D01*
X12278015Y-7134515D01*
X12278015Y-7191084D01*
X12334584Y-7191084D01*
X12588584Y-7191084D02*
X12588584Y-7134515D01*
X12532015Y-7134515D01*
X12532015Y-7191084D01*
X12588584Y-7191084D01*
X13647784Y-9765591D02*
X13647784Y-9709022D01*
X13591215Y-9709022D01*
X13591215Y-9765591D01*
X13647784Y-9765591D01*
X13807784Y-9832685D02*
X13807784Y-9776116D01*
X13751215Y-9776116D01*
X13751215Y-9832685D01*
X13807784Y-9832685D01*
X13807784Y-10082685D02*
X13807784Y-10026116D01*
X13751215Y-10026116D01*
X13751215Y-10082685D01*
X13807784Y-10082685D01*
X13967784Y-10149778D02*
X13967784Y-10093209D01*
X13911215Y-10093209D01*
X13911215Y-10149778D01*
X13967784Y-10149778D01*
X15745684Y-8930985D02*
X15745684Y-8874416D01*
X15689115Y-8874416D01*
X15689115Y-8930985D01*
X15745684Y-8930985D01*
X15999684Y-8930985D02*
X15999684Y-8874416D01*
X15943115Y-8874416D01*
X15943115Y-8930985D01*
X15999684Y-8930985D01*
X16253684Y-8930985D02*
X16253684Y-8874416D01*
X16197115Y-8874416D01*
X16197115Y-8930985D01*
X16253684Y-8930985D01*
D10*
X7721600Y-9956000D02*
X7771600Y-9906000D01*
X7721600Y-9856000D01*
X7671600Y-9906000D01*
X7721600Y-9956000D01*
X7721600Y-10210000D02*
X7771600Y-10160000D01*
X7721600Y-10110000D01*
X7671600Y-10160000D01*
X7721600Y-10210000D01*
X7721600Y-10464000D02*
X7771600Y-10414000D01*
X7721600Y-10364000D01*
X7671600Y-10414000D01*
X7721600Y-10464000D01*
X7810500Y-8800300D02*
X7860500Y-8750300D01*
X7810500Y-8700300D01*
X7760500Y-8750300D01*
X7810500Y-8800300D01*
X7975600Y-9956000D02*
X8025600Y-9906000D01*
X7975600Y-9856000D01*
X7925600Y-9906000D01*
X7975600Y-9956000D01*
X7975600Y-10210000D02*
X8025600Y-10160000D01*
X7975600Y-10110000D01*
X7925600Y-10160000D01*
X7975600Y-10210000D01*
X7975600Y-10464000D02*
X8025600Y-10414000D01*
X7975600Y-10364000D01*
X7925600Y-10414000D01*
X7975600Y-10464000D01*
X8064500Y-8800300D02*
X8114500Y-8750300D01*
X8064500Y-8700300D01*
X8014500Y-8750300D01*
X8064500Y-8800300D01*
X9552406Y-9907131D02*
X9602406Y-9857131D01*
X9552406Y-9807131D01*
X9502406Y-9857131D01*
X9552406Y-9907131D01*
X9552406Y-10161131D02*
X9602406Y-10111131D01*
X9552406Y-10061131D01*
X9502406Y-10111131D01*
X9552406Y-10161131D01*
X9552406Y-10415131D02*
X9602406Y-10365131D01*
X9552406Y-10315131D01*
X9502406Y-10365131D01*
X9552406Y-10415131D01*
X9806406Y-9907131D02*
X9856406Y-9857131D01*
X9806406Y-9807131D01*
X9756406Y-9857131D01*
X9806406Y-9907131D01*
X9806406Y-10161131D02*
X9856406Y-10111131D01*
X9806406Y-10061131D01*
X9756406Y-10111131D01*
X9806406Y-10161131D01*
X9806406Y-10415131D02*
X9856406Y-10365131D01*
X9806406Y-10315131D01*
X9756406Y-10365131D01*
X9806406Y-10415131D01*
X11557000Y-9486100D02*
X11607000Y-9436100D01*
X11557000Y-9386100D01*
X11507000Y-9436100D01*
X11557000Y-9486100D01*
X11557000Y-9740100D02*
X11607000Y-9690100D01*
X11557000Y-9640100D01*
X11507000Y-9690100D01*
X11557000Y-9740100D01*
X11811000Y-9486100D02*
X11861000Y-9436100D01*
X11811000Y-9386100D01*
X11761000Y-9436100D01*
X11811000Y-9486100D01*
X11811000Y-9740100D02*
X11861000Y-9690100D01*
X11811000Y-9640100D01*
X11761000Y-9690100D01*
X11811000Y-9740100D01*
X12065000Y-9486100D02*
X12115000Y-9436100D01*
X12065000Y-9386100D01*
X12015000Y-9436100D01*
X12065000Y-9486100D01*
X12065000Y-9740100D02*
X12115000Y-9690100D01*
X12065000Y-9640100D01*
X12015000Y-9690100D01*
X12065000Y-9740100D01*
X12966700Y-8622500D02*
X13016700Y-8572500D01*
X12966700Y-8522500D01*
X12916700Y-8572500D01*
X12966700Y-8622500D01*
X12966700Y-8876500D02*
X13016700Y-8826500D01*
X12966700Y-8776500D01*
X12916700Y-8826500D01*
X12966700Y-8876500D01*
X12966700Y-9130500D02*
X13016700Y-9080500D01*
X12966700Y-9030500D01*
X12916700Y-9080500D01*
X12966700Y-9130500D01*
X12979400Y-7746200D02*
X13029400Y-7696200D01*
X12979400Y-7646200D01*
X12929400Y-7696200D01*
X12979400Y-7746200D01*
X12979400Y-8000200D02*
X13029400Y-7950200D01*
X12979400Y-7900200D01*
X12929400Y-7950200D01*
X12979400Y-8000200D01*
X13157200Y-9575000D02*
X13207200Y-9525000D01*
X13157200Y-9475000D01*
X13107200Y-9525000D01*
X13157200Y-9575000D01*
X13157200Y-9829000D02*
X13207200Y-9779000D01*
X13157200Y-9729000D01*
X13107200Y-9779000D01*
X13157200Y-9829000D01*
X13220700Y-8622500D02*
X13270700Y-8572500D01*
X13220700Y-8522500D01*
X13170700Y-8572500D01*
X13220700Y-8622500D01*
X13220700Y-8876500D02*
X13270700Y-8826500D01*
X13220700Y-8776500D01*
X13170700Y-8826500D01*
X13220700Y-8876500D01*
X13220700Y-9130500D02*
X13270700Y-9080500D01*
X13220700Y-9030500D01*
X13170700Y-9080500D01*
X13220700Y-9130500D01*
X13335000Y-7682700D02*
X13385000Y-7632700D01*
X13335000Y-7582700D01*
X13285000Y-7632700D01*
X13335000Y-7682700D01*
X13335000Y-7936700D02*
X13385000Y-7886700D01*
X13335000Y-7836700D01*
X13285000Y-7886700D01*
X13335000Y-7936700D01*
X13601700Y-9308300D02*
X13651700Y-9258300D01*
X13601700Y-9208300D01*
X13551700Y-9258300D01*
X13601700Y-9308300D01*
X13855700Y-9308300D02*
X13905700Y-9258300D01*
X13855700Y-9208300D01*
X13805700Y-9258300D01*
X13855700Y-9308300D01*
X15011400Y-8089100D02*
X15061400Y-8039100D01*
X15011400Y-7989100D01*
X14961400Y-8039100D01*
X15011400Y-8089100D01*
X15011400Y-8343100D02*
X15061400Y-8293100D01*
X15011400Y-8243100D01*
X14961400Y-8293100D01*
X15011400Y-8343100D01*
X15011400Y-8597100D02*
X15061400Y-8547100D01*
X15011400Y-8497100D01*
X14961400Y-8547100D01*
X15011400Y-8597100D01*
X15011400Y-8851100D02*
X15061400Y-8801100D01*
X15011400Y-8751100D01*
X14961400Y-8801100D01*
X15011400Y-8851100D01*
X15303500Y-9473400D02*
X15353500Y-9423400D01*
X15303500Y-9373400D01*
X15253500Y-9423400D01*
X15303500Y-9473400D01*
X15303500Y-9727400D02*
X15353500Y-9677400D01*
X15303500Y-9627400D01*
X15253500Y-9677400D01*
X15303500Y-9727400D01*
X15303500Y-9981400D02*
X15353500Y-9931400D01*
X15303500Y-9881400D01*
X15253500Y-9931400D01*
X15303500Y-9981400D01*
X15303500Y-10235400D02*
X15353500Y-10185400D01*
X15303500Y-10135400D01*
X15253500Y-10185400D01*
X15303500Y-10235400D01*
X15443200Y-8470100D02*
X15493200Y-8420100D01*
X15443200Y-8370100D01*
X15393200Y-8420100D01*
X15443200Y-8470100D01*
X15697200Y-8470100D02*
X15747200Y-8420100D01*
X15697200Y-8370100D01*
X15647200Y-8420100D01*
X15697200Y-8470100D01*
D16*
X7539600Y-9089000D02*
X7649600Y-9199000D01*
X7649600Y-9089000D02*
X7539600Y-9199000D01*
X7649600Y-9144000D02*
G75*
G03*
X7649600Y-9144000I-55000J0D01*
G01*
X7793600Y-9089000D02*
X7903600Y-9199000D01*
X7903600Y-9089000D02*
X7793600Y-9199000D01*
X7903600Y-9144000D02*
G75*
G03*
X7903600Y-9144000I-55000J0D01*
G01*
X8047600Y-9089000D02*
X8157600Y-9199000D01*
X8157600Y-9089000D02*
X8047600Y-9199000D01*
X8157600Y-9144000D02*
G75*
G03*
X8157600Y-9144000I-55000J0D01*
G01*
X8441300Y-9736700D02*
X8551300Y-9846700D01*
X8551300Y-9736700D02*
X8441300Y-9846700D01*
X8551300Y-9791700D02*
G75*
G03*
X8551300Y-9791700I-55000J0D01*
G01*
X8695300Y-9736700D02*
X8805300Y-9846700D01*
X8805300Y-9736700D02*
X8695300Y-9846700D01*
X8805300Y-9791700D02*
G75*
G03*
X8805300Y-9791700I-55000J0D01*
G01*
X8949300Y-9736700D02*
X9059300Y-9846700D01*
X9059300Y-9736700D02*
X8949300Y-9846700D01*
X9059300Y-9791700D02*
G75*
G03*
X9059300Y-9791700I-55000J0D01*
G01*
X9462400Y-7709800D02*
X9572400Y-7819800D01*
X9572400Y-7709800D02*
X9462400Y-7819800D01*
X9572400Y-7764800D02*
G75*
G03*
X9572400Y-7764800I-55000J0D01*
G01*
X9462400Y-7963800D02*
X9572400Y-8073800D01*
X9572400Y-7963800D02*
X9462400Y-8073800D01*
X9572400Y-8018800D02*
G75*
G03*
X9572400Y-8018800I-55000J0D01*
G01*
X9462400Y-8217800D02*
X9572400Y-8327800D01*
X9572400Y-8217800D02*
X9462400Y-8327800D01*
X9572400Y-8272800D02*
G75*
G03*
X9572400Y-8272800I-55000J0D01*
G01*
X11476600Y-8708000D02*
X11586600Y-8818000D01*
X11586600Y-8708000D02*
X11476600Y-8818000D01*
X11586600Y-8763000D02*
G75*
G03*
X11586600Y-8763000I-55000J0D01*
G01*
X11730600Y-8708000D02*
X11840600Y-8818000D01*
X11840600Y-8708000D02*
X11730600Y-8818000D01*
X11840600Y-8763000D02*
G75*
G03*
X11840600Y-8763000I-55000J0D01*
G01*
X11984600Y-8708000D02*
X12094600Y-8818000D01*
X12094600Y-8708000D02*
X11984600Y-8818000D01*
X12094600Y-8763000D02*
G75*
G03*
X12094600Y-8763000I-55000J0D01*
G01*
X12492600Y-9520800D02*
X12602600Y-9630800D01*
X12602600Y-9520800D02*
X12492600Y-9630800D01*
X12602600Y-9575800D02*
G75*
G03*
X12602600Y-9575800I-55000J0D01*
G01*
X12492600Y-9774800D02*
X12602600Y-9884800D01*
X12602600Y-9774800D02*
X12492600Y-9884800D01*
X12602600Y-9829800D02*
G75*
G03*
X12602600Y-9829800I-55000J0D01*
G01*
X12492600Y-10028800D02*
X12602600Y-10138800D01*
X12602600Y-10028800D02*
X12492600Y-10138800D01*
X12602600Y-10083800D02*
G75*
G03*
X12602600Y-10083800I-55000J0D01*
G01*
D17*
X8654000Y-6926800D02*
X8806000Y-7078800D01*
X8806000Y-6926800D02*
X8654000Y-7078800D01*
X8730000Y-6926800D02*
X8730000Y-7078800D01*
X8654000Y-7002800D02*
X8806000Y-7002800D01*
X9162000Y-6926800D02*
X9314000Y-7078800D01*
X9314000Y-6926800D02*
X9162000Y-7078800D01*
X9238000Y-6926800D02*
X9238000Y-7078800D01*
X9162000Y-7002800D02*
X9314000Y-7002800D01*
D11*
X7013877Y-11090684D02*
X7013877Y-10890684D01*
X7013877Y-10890684D02*
X7061496Y-10890684D01*
X7061496Y-10890684D02*
X7090067Y-10900208D01*
X7090067Y-10900208D02*
X7109115Y-10919255D01*
X7109115Y-10919255D02*
X7118639Y-10938303D01*
X7118639Y-10938303D02*
X7128162Y-10976398D01*
X7128162Y-10976398D02*
X7128162Y-11004970D01*
X7128162Y-11004970D02*
X7118639Y-11043065D01*
X7118639Y-11043065D02*
X7109115Y-11062112D01*
X7109115Y-11062112D02*
X7090067Y-11081160D01*
X7090067Y-11081160D02*
X7061496Y-11090684D01*
X7061496Y-11090684D02*
X7013877Y-11090684D01*
X7213877Y-11090684D02*
X7213877Y-10957350D01*
X7213877Y-10995446D02*
X7223401Y-10976398D01*
X7223401Y-10976398D02*
X7232924Y-10966874D01*
X7232924Y-10966874D02*
X7251972Y-10957350D01*
X7251972Y-10957350D02*
X7271020Y-10957350D01*
X7337686Y-11090684D02*
X7337686Y-10957350D01*
X7337686Y-10890684D02*
X7328162Y-10900208D01*
X7328162Y-10900208D02*
X7337686Y-10909731D01*
X7337686Y-10909731D02*
X7347210Y-10900208D01*
X7347210Y-10900208D02*
X7337686Y-10890684D01*
X7337686Y-10890684D02*
X7337686Y-10909731D01*
X7461496Y-11090684D02*
X7442448Y-11081160D01*
X7442448Y-11081160D02*
X7432924Y-11062112D01*
X7432924Y-11062112D02*
X7432924Y-10890684D01*
X7566258Y-11090684D02*
X7547210Y-11081160D01*
X7547210Y-11081160D02*
X7537686Y-11062112D01*
X7537686Y-11062112D02*
X7537686Y-10890684D01*
X7794829Y-11090684D02*
X7794829Y-10890684D01*
X7794829Y-10890684D02*
X7861496Y-11033541D01*
X7861496Y-11033541D02*
X7928162Y-10890684D01*
X7928162Y-10890684D02*
X7928162Y-11090684D01*
X8109115Y-11090684D02*
X8109115Y-10985922D01*
X8109115Y-10985922D02*
X8099591Y-10966874D01*
X8099591Y-10966874D02*
X8080543Y-10957350D01*
X8080543Y-10957350D02*
X8042448Y-10957350D01*
X8042448Y-10957350D02*
X8023401Y-10966874D01*
X8109115Y-11081160D02*
X8090067Y-11090684D01*
X8090067Y-11090684D02*
X8042448Y-11090684D01*
X8042448Y-11090684D02*
X8023401Y-11081160D01*
X8023401Y-11081160D02*
X8013877Y-11062112D01*
X8013877Y-11062112D02*
X8013877Y-11043065D01*
X8013877Y-11043065D02*
X8023401Y-11024017D01*
X8023401Y-11024017D02*
X8042448Y-11014493D01*
X8042448Y-11014493D02*
X8090067Y-11014493D01*
X8090067Y-11014493D02*
X8109115Y-11004970D01*
X8204353Y-10957350D02*
X8204353Y-11157350D01*
X8204353Y-10966874D02*
X8223401Y-10957350D01*
X8223401Y-10957350D02*
X8261496Y-10957350D01*
X8261496Y-10957350D02*
X8280543Y-10966874D01*
X8280543Y-10966874D02*
X8290067Y-10976398D01*
X8290067Y-10976398D02*
X8299591Y-10995446D01*
X8299591Y-10995446D02*
X8299591Y-11052589D01*
X8299591Y-11052589D02*
X8290067Y-11071636D01*
X8290067Y-11071636D02*
X8280543Y-11081160D01*
X8280543Y-11081160D02*
X8261496Y-11090684D01*
X8261496Y-11090684D02*
X8223401Y-11090684D01*
X8223401Y-11090684D02*
X8204353Y-11081160D01*
X8385305Y-11071636D02*
X8394829Y-11081160D01*
X8394829Y-11081160D02*
X8385305Y-11090684D01*
X8385305Y-11090684D02*
X8375782Y-11081160D01*
X8375782Y-11081160D02*
X8385305Y-11071636D01*
X8385305Y-11071636D02*
X8385305Y-11090684D01*
X8385305Y-10966874D02*
X8394829Y-10976398D01*
X8394829Y-10976398D02*
X8385305Y-10985922D01*
X8385305Y-10985922D02*
X8375782Y-10976398D01*
X8375782Y-10976398D02*
X8385305Y-10966874D01*
X8385305Y-10966874D02*
X8385305Y-10985922D01*
D12*
X6723100Y-11404200D02*
X6753100Y-11434200D01*
X6753100Y-11404200D02*
X6723100Y-11434200D01*
D11*
X7051972Y-11310684D02*
X7071020Y-11310684D01*
X7071020Y-11310684D02*
X7090067Y-11320208D01*
X7090067Y-11320208D02*
X7099591Y-11329731D01*
X7099591Y-11329731D02*
X7109115Y-11348779D01*
X7109115Y-11348779D02*
X7118639Y-11386874D01*
X7118639Y-11386874D02*
X7118639Y-11434493D01*
X7118639Y-11434493D02*
X7109115Y-11472588D01*
X7109115Y-11472588D02*
X7099591Y-11491636D01*
X7099591Y-11491636D02*
X7090067Y-11501160D01*
X7090067Y-11501160D02*
X7071020Y-11510684D01*
X7071020Y-11510684D02*
X7051972Y-11510684D01*
X7051972Y-11510684D02*
X7032924Y-11501160D01*
X7032924Y-11501160D02*
X7023401Y-11491636D01*
X7023401Y-11491636D02*
X7013877Y-11472588D01*
X7013877Y-11472588D02*
X7004353Y-11434493D01*
X7004353Y-11434493D02*
X7004353Y-11386874D01*
X7004353Y-11386874D02*
X7013877Y-11348779D01*
X7013877Y-11348779D02*
X7023401Y-11329731D01*
X7023401Y-11329731D02*
X7032924Y-11320208D01*
X7032924Y-11320208D02*
X7051972Y-11310684D01*
X7204353Y-11491636D02*
X7213877Y-11501160D01*
X7213877Y-11501160D02*
X7204353Y-11510684D01*
X7204353Y-11510684D02*
X7194829Y-11501160D01*
X7194829Y-11501160D02*
X7204353Y-11491636D01*
X7204353Y-11491636D02*
X7204353Y-11510684D01*
X7280543Y-11310684D02*
X7404353Y-11310684D01*
X7404353Y-11310684D02*
X7337686Y-11386874D01*
X7337686Y-11386874D02*
X7366258Y-11386874D01*
X7366258Y-11386874D02*
X7385305Y-11396398D01*
X7385305Y-11396398D02*
X7394829Y-11405922D01*
X7394829Y-11405922D02*
X7404353Y-11424969D01*
X7404353Y-11424969D02*
X7404353Y-11472588D01*
X7404353Y-11472588D02*
X7394829Y-11491636D01*
X7394829Y-11491636D02*
X7385305Y-11501160D01*
X7385305Y-11501160D02*
X7366258Y-11510684D01*
X7366258Y-11510684D02*
X7309115Y-11510684D01*
X7309115Y-11510684D02*
X7290067Y-11501160D01*
X7290067Y-11501160D02*
X7280543Y-11491636D01*
X7528162Y-11310684D02*
X7547210Y-11310684D01*
X7547210Y-11310684D02*
X7566258Y-11320208D01*
X7566258Y-11320208D02*
X7575782Y-11329731D01*
X7575782Y-11329731D02*
X7585305Y-11348779D01*
X7585305Y-11348779D02*
X7594829Y-11386874D01*
X7594829Y-11386874D02*
X7594829Y-11434493D01*
X7594829Y-11434493D02*
X7585305Y-11472588D01*
X7585305Y-11472588D02*
X7575782Y-11491636D01*
X7575782Y-11491636D02*
X7566258Y-11501160D01*
X7566258Y-11501160D02*
X7547210Y-11510684D01*
X7547210Y-11510684D02*
X7528162Y-11510684D01*
X7528162Y-11510684D02*
X7509115Y-11501160D01*
X7509115Y-11501160D02*
X7499591Y-11491636D01*
X7499591Y-11491636D02*
X7490067Y-11472588D01*
X7490067Y-11472588D02*
X7480543Y-11434493D01*
X7480543Y-11434493D02*
X7480543Y-11386874D01*
X7480543Y-11386874D02*
X7490067Y-11348779D01*
X7490067Y-11348779D02*
X7499591Y-11329731D01*
X7499591Y-11329731D02*
X7509115Y-11320208D01*
X7509115Y-11320208D02*
X7528162Y-11310684D01*
X7718639Y-11310684D02*
X7737686Y-11310684D01*
X7737686Y-11310684D02*
X7756734Y-11320208D01*
X7756734Y-11320208D02*
X7766258Y-11329731D01*
X7766258Y-11329731D02*
X7775782Y-11348779D01*
X7775782Y-11348779D02*
X7785305Y-11386874D01*
X7785305Y-11386874D02*
X7785305Y-11434493D01*
X7785305Y-11434493D02*
X7775782Y-11472588D01*
X7775782Y-11472588D02*
X7766258Y-11491636D01*
X7766258Y-11491636D02*
X7756734Y-11501160D01*
X7756734Y-11501160D02*
X7737686Y-11510684D01*
X7737686Y-11510684D02*
X7718639Y-11510684D01*
X7718639Y-11510684D02*
X7699591Y-11501160D01*
X7699591Y-11501160D02*
X7690067Y-11491636D01*
X7690067Y-11491636D02*
X7680543Y-11472588D01*
X7680543Y-11472588D02*
X7671020Y-11434493D01*
X7671020Y-11434493D02*
X7671020Y-11386874D01*
X7671020Y-11386874D02*
X7680543Y-11348779D01*
X7680543Y-11348779D02*
X7690067Y-11329731D01*
X7690067Y-11329731D02*
X7699591Y-11320208D01*
X7699591Y-11320208D02*
X7718639Y-11310684D01*
X7871020Y-11510684D02*
X7871020Y-11377350D01*
X7871020Y-11396398D02*
X7880543Y-11386874D01*
X7880543Y-11386874D02*
X7899591Y-11377350D01*
X7899591Y-11377350D02*
X7928163Y-11377350D01*
X7928163Y-11377350D02*
X7947210Y-11386874D01*
X7947210Y-11386874D02*
X7956734Y-11405922D01*
X7956734Y-11405922D02*
X7956734Y-11510684D01*
X7956734Y-11405922D02*
X7966258Y-11386874D01*
X7966258Y-11386874D02*
X7985305Y-11377350D01*
X7985305Y-11377350D02*
X8013877Y-11377350D01*
X8013877Y-11377350D02*
X8032924Y-11386874D01*
X8032924Y-11386874D02*
X8042448Y-11405922D01*
X8042448Y-11405922D02*
X8042448Y-11510684D01*
X8137686Y-11510684D02*
X8137686Y-11377350D01*
X8137686Y-11396398D02*
X8147210Y-11386874D01*
X8147210Y-11386874D02*
X8166258Y-11377350D01*
X8166258Y-11377350D02*
X8194829Y-11377350D01*
X8194829Y-11377350D02*
X8213877Y-11386874D01*
X8213877Y-11386874D02*
X8223401Y-11405922D01*
X8223401Y-11405922D02*
X8223401Y-11510684D01*
X8223401Y-11405922D02*
X8232924Y-11386874D01*
X8232924Y-11386874D02*
X8251972Y-11377350D01*
X8251972Y-11377350D02*
X8280543Y-11377350D01*
X8280543Y-11377350D02*
X8299591Y-11386874D01*
X8299591Y-11386874D02*
X8309115Y-11405922D01*
X8309115Y-11405922D02*
X8309115Y-11510684D01*
X8699591Y-11301160D02*
X8528163Y-11558303D01*
X8956734Y-11310684D02*
X8975782Y-11310684D01*
X8975782Y-11310684D02*
X8994829Y-11320208D01*
X8994829Y-11320208D02*
X9004353Y-11329731D01*
X9004353Y-11329731D02*
X9013877Y-11348779D01*
X9013877Y-11348779D02*
X9023401Y-11386874D01*
X9023401Y-11386874D02*
X9023401Y-11434493D01*
X9023401Y-11434493D02*
X9013877Y-11472588D01*
X9013877Y-11472588D02*
X9004353Y-11491636D01*
X9004353Y-11491636D02*
X8994829Y-11501160D01*
X8994829Y-11501160D02*
X8975782Y-11510684D01*
X8975782Y-11510684D02*
X8956734Y-11510684D01*
X8956734Y-11510684D02*
X8937687Y-11501160D01*
X8937687Y-11501160D02*
X8928163Y-11491636D01*
X8928163Y-11491636D02*
X8918639Y-11472588D01*
X8918639Y-11472588D02*
X8909115Y-11434493D01*
X8909115Y-11434493D02*
X8909115Y-11386874D01*
X8909115Y-11386874D02*
X8918639Y-11348779D01*
X8918639Y-11348779D02*
X8928163Y-11329731D01*
X8928163Y-11329731D02*
X8937687Y-11320208D01*
X8937687Y-11320208D02*
X8956734Y-11310684D01*
X9109115Y-11491636D02*
X9118639Y-11501160D01*
X9118639Y-11501160D02*
X9109115Y-11510684D01*
X9109115Y-11510684D02*
X9099591Y-11501160D01*
X9099591Y-11501160D02*
X9109115Y-11491636D01*
X9109115Y-11491636D02*
X9109115Y-11510684D01*
X9242448Y-11310684D02*
X9261496Y-11310684D01*
X9261496Y-11310684D02*
X9280544Y-11320208D01*
X9280544Y-11320208D02*
X9290068Y-11329731D01*
X9290068Y-11329731D02*
X9299591Y-11348779D01*
X9299591Y-11348779D02*
X9309115Y-11386874D01*
X9309115Y-11386874D02*
X9309115Y-11434493D01*
X9309115Y-11434493D02*
X9299591Y-11472588D01*
X9299591Y-11472588D02*
X9290068Y-11491636D01*
X9290068Y-11491636D02*
X9280544Y-11501160D01*
X9280544Y-11501160D02*
X9261496Y-11510684D01*
X9261496Y-11510684D02*
X9242448Y-11510684D01*
X9242448Y-11510684D02*
X9223401Y-11501160D01*
X9223401Y-11501160D02*
X9213877Y-11491636D01*
X9213877Y-11491636D02*
X9204353Y-11472588D01*
X9204353Y-11472588D02*
X9194829Y-11434493D01*
X9194829Y-11434493D02*
X9194829Y-11386874D01*
X9194829Y-11386874D02*
X9204353Y-11348779D01*
X9204353Y-11348779D02*
X9213877Y-11329731D01*
X9213877Y-11329731D02*
X9223401Y-11320208D01*
X9223401Y-11320208D02*
X9242448Y-11310684D01*
X9499591Y-11510684D02*
X9385306Y-11510684D01*
X9442448Y-11510684D02*
X9442448Y-11310684D01*
X9442448Y-11310684D02*
X9423401Y-11339255D01*
X9423401Y-11339255D02*
X9404353Y-11358303D01*
X9404353Y-11358303D02*
X9385306Y-11367827D01*
X9690068Y-11510684D02*
X9575782Y-11510684D01*
X9632925Y-11510684D02*
X9632925Y-11310684D01*
X9632925Y-11310684D02*
X9613877Y-11339255D01*
X9613877Y-11339255D02*
X9594829Y-11358303D01*
X9594829Y-11358303D02*
X9575782Y-11367827D01*
X9804353Y-11396398D02*
X9785306Y-11386874D01*
X9785306Y-11386874D02*
X9775782Y-11377350D01*
X9775782Y-11377350D02*
X9766258Y-11358303D01*
X9766258Y-11358303D02*
X9766258Y-11348779D01*
X9766258Y-11348779D02*
X9775782Y-11329731D01*
X9775782Y-11329731D02*
X9785306Y-11320208D01*
X9785306Y-11320208D02*
X9804353Y-11310684D01*
X9804353Y-11310684D02*
X9842449Y-11310684D01*
X9842449Y-11310684D02*
X9861496Y-11320208D01*
X9861496Y-11320208D02*
X9871020Y-11329731D01*
X9871020Y-11329731D02*
X9880544Y-11348779D01*
X9880544Y-11348779D02*
X9880544Y-11358303D01*
X9880544Y-11358303D02*
X9871020Y-11377350D01*
X9871020Y-11377350D02*
X9861496Y-11386874D01*
X9861496Y-11386874D02*
X9842449Y-11396398D01*
X9842449Y-11396398D02*
X9804353Y-11396398D01*
X9804353Y-11396398D02*
X9785306Y-11405922D01*
X9785306Y-11405922D02*
X9775782Y-11415446D01*
X9775782Y-11415446D02*
X9766258Y-11434493D01*
X9766258Y-11434493D02*
X9766258Y-11472588D01*
X9766258Y-11472588D02*
X9775782Y-11491636D01*
X9775782Y-11491636D02*
X9785306Y-11501160D01*
X9785306Y-11501160D02*
X9804353Y-11510684D01*
X9804353Y-11510684D02*
X9842449Y-11510684D01*
X9842449Y-11510684D02*
X9861496Y-11501160D01*
X9861496Y-11501160D02*
X9871020Y-11491636D01*
X9871020Y-11491636D02*
X9880544Y-11472588D01*
X9880544Y-11472588D02*
X9880544Y-11434493D01*
X9880544Y-11434493D02*
X9871020Y-11415446D01*
X9871020Y-11415446D02*
X9861496Y-11405922D01*
X9861496Y-11405922D02*
X9842449Y-11396398D01*
X9956734Y-11310684D02*
X9956734Y-11348779D01*
X10032925Y-11310684D02*
X10032925Y-11348779D01*
X10328163Y-11586874D02*
X10318639Y-11577350D01*
X10318639Y-11577350D02*
X10299591Y-11548779D01*
X10299591Y-11548779D02*
X10290068Y-11529731D01*
X10290068Y-11529731D02*
X10280544Y-11501160D01*
X10280544Y-11501160D02*
X10271020Y-11453541D01*
X10271020Y-11453541D02*
X10271020Y-11415446D01*
X10271020Y-11415446D02*
X10280544Y-11367827D01*
X10280544Y-11367827D02*
X10290068Y-11339255D01*
X10290068Y-11339255D02*
X10299591Y-11320208D01*
X10299591Y-11320208D02*
X10318639Y-11291636D01*
X10318639Y-11291636D02*
X10328163Y-11282112D01*
X10394830Y-11329731D02*
X10404353Y-11320208D01*
X10404353Y-11320208D02*
X10423401Y-11310684D01*
X10423401Y-11310684D02*
X10471020Y-11310684D01*
X10471020Y-11310684D02*
X10490068Y-11320208D01*
X10490068Y-11320208D02*
X10499591Y-11329731D01*
X10499591Y-11329731D02*
X10509115Y-11348779D01*
X10509115Y-11348779D02*
X10509115Y-11367827D01*
X10509115Y-11367827D02*
X10499591Y-11396398D01*
X10499591Y-11396398D02*
X10385306Y-11510684D01*
X10385306Y-11510684D02*
X10509115Y-11510684D01*
X10747211Y-11510684D02*
X10747211Y-11310684D01*
X10832925Y-11510684D02*
X10832925Y-11405922D01*
X10832925Y-11405922D02*
X10823401Y-11386874D01*
X10823401Y-11386874D02*
X10804353Y-11377350D01*
X10804353Y-11377350D02*
X10775782Y-11377350D01*
X10775782Y-11377350D02*
X10756734Y-11386874D01*
X10756734Y-11386874D02*
X10747211Y-11396398D01*
X10956734Y-11510684D02*
X10937687Y-11501160D01*
X10937687Y-11501160D02*
X10928163Y-11491636D01*
X10928163Y-11491636D02*
X10918639Y-11472588D01*
X10918639Y-11472588D02*
X10918639Y-11415446D01*
X10918639Y-11415446D02*
X10928163Y-11396398D01*
X10928163Y-11396398D02*
X10937687Y-11386874D01*
X10937687Y-11386874D02*
X10956734Y-11377350D01*
X10956734Y-11377350D02*
X10985306Y-11377350D01*
X10985306Y-11377350D02*
X11004353Y-11386874D01*
X11004353Y-11386874D02*
X11013877Y-11396398D01*
X11013877Y-11396398D02*
X11023401Y-11415446D01*
X11023401Y-11415446D02*
X11023401Y-11472588D01*
X11023401Y-11472588D02*
X11013877Y-11491636D01*
X11013877Y-11491636D02*
X11004353Y-11501160D01*
X11004353Y-11501160D02*
X10985306Y-11510684D01*
X10985306Y-11510684D02*
X10956734Y-11510684D01*
X11137687Y-11510684D02*
X11118639Y-11501160D01*
X11118639Y-11501160D02*
X11109115Y-11482112D01*
X11109115Y-11482112D02*
X11109115Y-11310684D01*
X11290068Y-11501160D02*
X11271020Y-11510684D01*
X11271020Y-11510684D02*
X11232925Y-11510684D01*
X11232925Y-11510684D02*
X11213877Y-11501160D01*
X11213877Y-11501160D02*
X11204353Y-11482112D01*
X11204353Y-11482112D02*
X11204353Y-11405922D01*
X11204353Y-11405922D02*
X11213877Y-11386874D01*
X11213877Y-11386874D02*
X11232925Y-11377350D01*
X11232925Y-11377350D02*
X11271020Y-11377350D01*
X11271020Y-11377350D02*
X11290068Y-11386874D01*
X11290068Y-11386874D02*
X11299591Y-11405922D01*
X11299591Y-11405922D02*
X11299591Y-11424969D01*
X11299591Y-11424969D02*
X11204353Y-11444017D01*
X11375782Y-11501160D02*
X11394830Y-11510684D01*
X11394830Y-11510684D02*
X11432925Y-11510684D01*
X11432925Y-11510684D02*
X11451972Y-11501160D01*
X11451972Y-11501160D02*
X11461496Y-11482112D01*
X11461496Y-11482112D02*
X11461496Y-11472588D01*
X11461496Y-11472588D02*
X11451972Y-11453541D01*
X11451972Y-11453541D02*
X11432925Y-11444017D01*
X11432925Y-11444017D02*
X11404353Y-11444017D01*
X11404353Y-11444017D02*
X11385306Y-11434493D01*
X11385306Y-11434493D02*
X11375782Y-11415446D01*
X11375782Y-11415446D02*
X11375782Y-11405922D01*
X11375782Y-11405922D02*
X11385306Y-11386874D01*
X11385306Y-11386874D02*
X11404353Y-11377350D01*
X11404353Y-11377350D02*
X11432925Y-11377350D01*
X11432925Y-11377350D02*
X11451972Y-11386874D01*
X11528163Y-11586874D02*
X11537687Y-11577350D01*
X11537687Y-11577350D02*
X11556734Y-11548779D01*
X11556734Y-11548779D02*
X11566258Y-11529731D01*
X11566258Y-11529731D02*
X11575782Y-11501160D01*
X11575782Y-11501160D02*
X11585306Y-11453541D01*
X11585306Y-11453541D02*
X11585306Y-11415446D01*
X11585306Y-11415446D02*
X11575782Y-11367827D01*
X11575782Y-11367827D02*
X11566258Y-11339255D01*
X11566258Y-11339255D02*
X11556734Y-11320208D01*
X11556734Y-11320208D02*
X11537687Y-11291636D01*
X11537687Y-11291636D02*
X11528163Y-11282112D01*
D13*
X6753100Y-11683200D02*
G75*
G03*
X6753100Y-11683200I-20000J0D01*
G01*
D11*
X7051972Y-11574684D02*
X7071020Y-11574684D01*
X7071020Y-11574684D02*
X7090067Y-11584208D01*
X7090067Y-11584208D02*
X7099591Y-11593731D01*
X7099591Y-11593731D02*
X7109115Y-11612779D01*
X7109115Y-11612779D02*
X7118639Y-11650874D01*
X7118639Y-11650874D02*
X7118639Y-11698493D01*
X7118639Y-11698493D02*
X7109115Y-11736588D01*
X7109115Y-11736588D02*
X7099591Y-11755636D01*
X7099591Y-11755636D02*
X7090067Y-11765160D01*
X7090067Y-11765160D02*
X7071020Y-11774684D01*
X7071020Y-11774684D02*
X7051972Y-11774684D01*
X7051972Y-11774684D02*
X7032924Y-11765160D01*
X7032924Y-11765160D02*
X7023401Y-11755636D01*
X7023401Y-11755636D02*
X7013877Y-11736588D01*
X7013877Y-11736588D02*
X7004353Y-11698493D01*
X7004353Y-11698493D02*
X7004353Y-11650874D01*
X7004353Y-11650874D02*
X7013877Y-11612779D01*
X7013877Y-11612779D02*
X7023401Y-11593731D01*
X7023401Y-11593731D02*
X7032924Y-11584208D01*
X7032924Y-11584208D02*
X7051972Y-11574684D01*
X7204353Y-11755636D02*
X7213877Y-11765160D01*
X7213877Y-11765160D02*
X7204353Y-11774684D01*
X7204353Y-11774684D02*
X7194829Y-11765160D01*
X7194829Y-11765160D02*
X7204353Y-11755636D01*
X7204353Y-11755636D02*
X7204353Y-11774684D01*
X7385305Y-11641350D02*
X7385305Y-11774684D01*
X7337686Y-11565160D02*
X7290067Y-11708017D01*
X7290067Y-11708017D02*
X7413877Y-11708017D01*
X7528162Y-11574684D02*
X7547210Y-11574684D01*
X7547210Y-11574684D02*
X7566258Y-11584208D01*
X7566258Y-11584208D02*
X7575782Y-11593731D01*
X7575782Y-11593731D02*
X7585305Y-11612779D01*
X7585305Y-11612779D02*
X7594829Y-11650874D01*
X7594829Y-11650874D02*
X7594829Y-11698493D01*
X7594829Y-11698493D02*
X7585305Y-11736588D01*
X7585305Y-11736588D02*
X7575782Y-11755636D01*
X7575782Y-11755636D02*
X7566258Y-11765160D01*
X7566258Y-11765160D02*
X7547210Y-11774684D01*
X7547210Y-11774684D02*
X7528162Y-11774684D01*
X7528162Y-11774684D02*
X7509115Y-11765160D01*
X7509115Y-11765160D02*
X7499591Y-11755636D01*
X7499591Y-11755636D02*
X7490067Y-11736588D01*
X7490067Y-11736588D02*
X7480543Y-11698493D01*
X7480543Y-11698493D02*
X7480543Y-11650874D01*
X7480543Y-11650874D02*
X7490067Y-11612779D01*
X7490067Y-11612779D02*
X7499591Y-11593731D01*
X7499591Y-11593731D02*
X7509115Y-11584208D01*
X7509115Y-11584208D02*
X7528162Y-11574684D01*
X7718639Y-11574684D02*
X7737686Y-11574684D01*
X7737686Y-11574684D02*
X7756734Y-11584208D01*
X7756734Y-11584208D02*
X7766258Y-11593731D01*
X7766258Y-11593731D02*
X7775782Y-11612779D01*
X7775782Y-11612779D02*
X7785305Y-11650874D01*
X7785305Y-11650874D02*
X7785305Y-11698493D01*
X7785305Y-11698493D02*
X7775782Y-11736588D01*
X7775782Y-11736588D02*
X7766258Y-11755636D01*
X7766258Y-11755636D02*
X7756734Y-11765160D01*
X7756734Y-11765160D02*
X7737686Y-11774684D01*
X7737686Y-11774684D02*
X7718639Y-11774684D01*
X7718639Y-11774684D02*
X7699591Y-11765160D01*
X7699591Y-11765160D02*
X7690067Y-11755636D01*
X7690067Y-11755636D02*
X7680543Y-11736588D01*
X7680543Y-11736588D02*
X7671020Y-11698493D01*
X7671020Y-11698493D02*
X7671020Y-11650874D01*
X7671020Y-11650874D02*
X7680543Y-11612779D01*
X7680543Y-11612779D02*
X7690067Y-11593731D01*
X7690067Y-11593731D02*
X7699591Y-11584208D01*
X7699591Y-11584208D02*
X7718639Y-11574684D01*
X7871020Y-11774684D02*
X7871020Y-11641350D01*
X7871020Y-11660398D02*
X7880543Y-11650874D01*
X7880543Y-11650874D02*
X7899591Y-11641350D01*
X7899591Y-11641350D02*
X7928163Y-11641350D01*
X7928163Y-11641350D02*
X7947210Y-11650874D01*
X7947210Y-11650874D02*
X7956734Y-11669922D01*
X7956734Y-11669922D02*
X7956734Y-11774684D01*
X7956734Y-11669922D02*
X7966258Y-11650874D01*
X7966258Y-11650874D02*
X7985305Y-11641350D01*
X7985305Y-11641350D02*
X8013877Y-11641350D01*
X8013877Y-11641350D02*
X8032924Y-11650874D01*
X8032924Y-11650874D02*
X8042448Y-11669922D01*
X8042448Y-11669922D02*
X8042448Y-11774684D01*
X8137686Y-11774684D02*
X8137686Y-11641350D01*
X8137686Y-11660398D02*
X8147210Y-11650874D01*
X8147210Y-11650874D02*
X8166258Y-11641350D01*
X8166258Y-11641350D02*
X8194829Y-11641350D01*
X8194829Y-11641350D02*
X8213877Y-11650874D01*
X8213877Y-11650874D02*
X8223401Y-11669922D01*
X8223401Y-11669922D02*
X8223401Y-11774684D01*
X8223401Y-11669922D02*
X8232924Y-11650874D01*
X8232924Y-11650874D02*
X8251972Y-11641350D01*
X8251972Y-11641350D02*
X8280543Y-11641350D01*
X8280543Y-11641350D02*
X8299591Y-11650874D01*
X8299591Y-11650874D02*
X8309115Y-11669922D01*
X8309115Y-11669922D02*
X8309115Y-11774684D01*
X8699591Y-11565160D02*
X8528163Y-11822303D01*
X8956734Y-11574684D02*
X8975782Y-11574684D01*
X8975782Y-11574684D02*
X8994829Y-11584208D01*
X8994829Y-11584208D02*
X9004353Y-11593731D01*
X9004353Y-11593731D02*
X9013877Y-11612779D01*
X9013877Y-11612779D02*
X9023401Y-11650874D01*
X9023401Y-11650874D02*
X9023401Y-11698493D01*
X9023401Y-11698493D02*
X9013877Y-11736588D01*
X9013877Y-11736588D02*
X9004353Y-11755636D01*
X9004353Y-11755636D02*
X8994829Y-11765160D01*
X8994829Y-11765160D02*
X8975782Y-11774684D01*
X8975782Y-11774684D02*
X8956734Y-11774684D01*
X8956734Y-11774684D02*
X8937687Y-11765160D01*
X8937687Y-11765160D02*
X8928163Y-11755636D01*
X8928163Y-11755636D02*
X8918639Y-11736588D01*
X8918639Y-11736588D02*
X8909115Y-11698493D01*
X8909115Y-11698493D02*
X8909115Y-11650874D01*
X8909115Y-11650874D02*
X8918639Y-11612779D01*
X8918639Y-11612779D02*
X8928163Y-11593731D01*
X8928163Y-11593731D02*
X8937687Y-11584208D01*
X8937687Y-11584208D02*
X8956734Y-11574684D01*
X9109115Y-11755636D02*
X9118639Y-11765160D01*
X9118639Y-11765160D02*
X9109115Y-11774684D01*
X9109115Y-11774684D02*
X9099591Y-11765160D01*
X9099591Y-11765160D02*
X9109115Y-11755636D01*
X9109115Y-11755636D02*
X9109115Y-11774684D01*
X9242448Y-11574684D02*
X9261496Y-11574684D01*
X9261496Y-11574684D02*
X9280544Y-11584208D01*
X9280544Y-11584208D02*
X9290068Y-11593731D01*
X9290068Y-11593731D02*
X9299591Y-11612779D01*
X9299591Y-11612779D02*
X9309115Y-11650874D01*
X9309115Y-11650874D02*
X9309115Y-11698493D01*
X9309115Y-11698493D02*
X9299591Y-11736588D01*
X9299591Y-11736588D02*
X9290068Y-11755636D01*
X9290068Y-11755636D02*
X9280544Y-11765160D01*
X9280544Y-11765160D02*
X9261496Y-11774684D01*
X9261496Y-11774684D02*
X9242448Y-11774684D01*
X9242448Y-11774684D02*
X9223401Y-11765160D01*
X9223401Y-11765160D02*
X9213877Y-11755636D01*
X9213877Y-11755636D02*
X9204353Y-11736588D01*
X9204353Y-11736588D02*
X9194829Y-11698493D01*
X9194829Y-11698493D02*
X9194829Y-11650874D01*
X9194829Y-11650874D02*
X9204353Y-11612779D01*
X9204353Y-11612779D02*
X9213877Y-11593731D01*
X9213877Y-11593731D02*
X9223401Y-11584208D01*
X9223401Y-11584208D02*
X9242448Y-11574684D01*
X9499591Y-11774684D02*
X9385306Y-11774684D01*
X9442448Y-11774684D02*
X9442448Y-11574684D01*
X9442448Y-11574684D02*
X9423401Y-11603255D01*
X9423401Y-11603255D02*
X9404353Y-11622303D01*
X9404353Y-11622303D02*
X9385306Y-11631827D01*
X9680544Y-11574684D02*
X9585306Y-11574684D01*
X9585306Y-11574684D02*
X9575782Y-11669922D01*
X9575782Y-11669922D02*
X9585306Y-11660398D01*
X9585306Y-11660398D02*
X9604353Y-11650874D01*
X9604353Y-11650874D02*
X9651972Y-11650874D01*
X9651972Y-11650874D02*
X9671020Y-11660398D01*
X9671020Y-11660398D02*
X9680544Y-11669922D01*
X9680544Y-11669922D02*
X9690068Y-11688969D01*
X9690068Y-11688969D02*
X9690068Y-11736588D01*
X9690068Y-11736588D02*
X9680544Y-11755636D01*
X9680544Y-11755636D02*
X9671020Y-11765160D01*
X9671020Y-11765160D02*
X9651972Y-11774684D01*
X9651972Y-11774684D02*
X9604353Y-11774684D01*
X9604353Y-11774684D02*
X9585306Y-11765160D01*
X9585306Y-11765160D02*
X9575782Y-11755636D01*
X9756734Y-11574684D02*
X9890068Y-11574684D01*
X9890068Y-11574684D02*
X9804353Y-11774684D01*
X9956734Y-11574684D02*
X9956734Y-11612779D01*
X10032925Y-11574684D02*
X10032925Y-11612779D01*
X10328163Y-11850874D02*
X10318639Y-11841350D01*
X10318639Y-11841350D02*
X10299591Y-11812779D01*
X10299591Y-11812779D02*
X10290068Y-11793731D01*
X10290068Y-11793731D02*
X10280544Y-11765160D01*
X10280544Y-11765160D02*
X10271020Y-11717541D01*
X10271020Y-11717541D02*
X10271020Y-11679446D01*
X10271020Y-11679446D02*
X10280544Y-11631827D01*
X10280544Y-11631827D02*
X10290068Y-11603255D01*
X10290068Y-11603255D02*
X10299591Y-11584208D01*
X10299591Y-11584208D02*
X10318639Y-11555636D01*
X10318639Y-11555636D02*
X10328163Y-11546112D01*
X10499591Y-11574684D02*
X10404353Y-11574684D01*
X10404353Y-11574684D02*
X10394830Y-11669922D01*
X10394830Y-11669922D02*
X10404353Y-11660398D01*
X10404353Y-11660398D02*
X10423401Y-11650874D01*
X10423401Y-11650874D02*
X10471020Y-11650874D01*
X10471020Y-11650874D02*
X10490068Y-11660398D01*
X10490068Y-11660398D02*
X10499591Y-11669922D01*
X10499591Y-11669922D02*
X10509115Y-11688969D01*
X10509115Y-11688969D02*
X10509115Y-11736588D01*
X10509115Y-11736588D02*
X10499591Y-11755636D01*
X10499591Y-11755636D02*
X10490068Y-11765160D01*
X10490068Y-11765160D02*
X10471020Y-11774684D01*
X10471020Y-11774684D02*
X10423401Y-11774684D01*
X10423401Y-11774684D02*
X10404353Y-11765160D01*
X10404353Y-11765160D02*
X10394830Y-11755636D01*
X10699591Y-11774684D02*
X10585306Y-11774684D01*
X10642449Y-11774684D02*
X10642449Y-11574684D01*
X10642449Y-11574684D02*
X10623401Y-11603255D01*
X10623401Y-11603255D02*
X10604353Y-11622303D01*
X10604353Y-11622303D02*
X10585306Y-11631827D01*
X10937687Y-11774684D02*
X10937687Y-11574684D01*
X11023401Y-11774684D02*
X11023401Y-11669922D01*
X11023401Y-11669922D02*
X11013877Y-11650874D01*
X11013877Y-11650874D02*
X10994830Y-11641350D01*
X10994830Y-11641350D02*
X10966258Y-11641350D01*
X10966258Y-11641350D02*
X10947211Y-11650874D01*
X10947211Y-11650874D02*
X10937687Y-11660398D01*
X11147211Y-11774684D02*
X11128163Y-11765160D01*
X11128163Y-11765160D02*
X11118639Y-11755636D01*
X11118639Y-11755636D02*
X11109115Y-11736588D01*
X11109115Y-11736588D02*
X11109115Y-11679446D01*
X11109115Y-11679446D02*
X11118639Y-11660398D01*
X11118639Y-11660398D02*
X11128163Y-11650874D01*
X11128163Y-11650874D02*
X11147211Y-11641350D01*
X11147211Y-11641350D02*
X11175782Y-11641350D01*
X11175782Y-11641350D02*
X11194830Y-11650874D01*
X11194830Y-11650874D02*
X11204353Y-11660398D01*
X11204353Y-11660398D02*
X11213877Y-11679446D01*
X11213877Y-11679446D02*
X11213877Y-11736588D01*
X11213877Y-11736588D02*
X11204353Y-11755636D01*
X11204353Y-11755636D02*
X11194830Y-11765160D01*
X11194830Y-11765160D02*
X11175782Y-11774684D01*
X11175782Y-11774684D02*
X11147211Y-11774684D01*
X11328163Y-11774684D02*
X11309115Y-11765160D01*
X11309115Y-11765160D02*
X11299591Y-11746112D01*
X11299591Y-11746112D02*
X11299591Y-11574684D01*
X11480544Y-11765160D02*
X11461496Y-11774684D01*
X11461496Y-11774684D02*
X11423401Y-11774684D01*
X11423401Y-11774684D02*
X11404353Y-11765160D01*
X11404353Y-11765160D02*
X11394830Y-11746112D01*
X11394830Y-11746112D02*
X11394830Y-11669922D01*
X11394830Y-11669922D02*
X11404353Y-11650874D01*
X11404353Y-11650874D02*
X11423401Y-11641350D01*
X11423401Y-11641350D02*
X11461496Y-11641350D01*
X11461496Y-11641350D02*
X11480544Y-11650874D01*
X11480544Y-11650874D02*
X11490068Y-11669922D01*
X11490068Y-11669922D02*
X11490068Y-11688969D01*
X11490068Y-11688969D02*
X11394830Y-11708017D01*
X11566258Y-11765160D02*
X11585306Y-11774684D01*
X11585306Y-11774684D02*
X11623401Y-11774684D01*
X11623401Y-11774684D02*
X11642449Y-11765160D01*
X11642449Y-11765160D02*
X11651972Y-11746112D01*
X11651972Y-11746112D02*
X11651972Y-11736588D01*
X11651972Y-11736588D02*
X11642449Y-11717541D01*
X11642449Y-11717541D02*
X11623401Y-11708017D01*
X11623401Y-11708017D02*
X11594830Y-11708017D01*
X11594830Y-11708017D02*
X11575782Y-11698493D01*
X11575782Y-11698493D02*
X11566258Y-11679446D01*
X11566258Y-11679446D02*
X11566258Y-11669922D01*
X11566258Y-11669922D02*
X11575782Y-11650874D01*
X11575782Y-11650874D02*
X11594830Y-11641350D01*
X11594830Y-11641350D02*
X11623401Y-11641350D01*
X11623401Y-11641350D02*
X11642449Y-11650874D01*
X11718639Y-11850874D02*
X11728163Y-11841350D01*
X11728163Y-11841350D02*
X11747211Y-11812779D01*
X11747211Y-11812779D02*
X11756734Y-11793731D01*
X11756734Y-11793731D02*
X11766258Y-11765160D01*
X11766258Y-11765160D02*
X11775782Y-11717541D01*
X11775782Y-11717541D02*
X11775782Y-11679446D01*
X11775782Y-11679446D02*
X11766258Y-11631827D01*
X11766258Y-11631827D02*
X11756734Y-11603255D01*
X11756734Y-11603255D02*
X11747211Y-11584208D01*
X11747211Y-11584208D02*
X11728163Y-11555636D01*
X11728163Y-11555636D02*
X11718639Y-11546112D01*
D14*
X6728100Y-11922200D02*
X6728100Y-11972200D01*
X6703100Y-11947200D02*
X6753100Y-11947200D01*
D11*
X7051972Y-11838684D02*
X7071020Y-11838684D01*
X7071020Y-11838684D02*
X7090067Y-11848208D01*
X7090067Y-11848208D02*
X7099591Y-11857731D01*
X7099591Y-11857731D02*
X7109115Y-11876779D01*
X7109115Y-11876779D02*
X7118639Y-11914874D01*
X7118639Y-11914874D02*
X7118639Y-11962493D01*
X7118639Y-11962493D02*
X7109115Y-12000588D01*
X7109115Y-12000588D02*
X7099591Y-12019636D01*
X7099591Y-12019636D02*
X7090067Y-12029160D01*
X7090067Y-12029160D02*
X7071020Y-12038684D01*
X7071020Y-12038684D02*
X7051972Y-12038684D01*
X7051972Y-12038684D02*
X7032924Y-12029160D01*
X7032924Y-12029160D02*
X7023401Y-12019636D01*
X7023401Y-12019636D02*
X7013877Y-12000588D01*
X7013877Y-12000588D02*
X7004353Y-11962493D01*
X7004353Y-11962493D02*
X7004353Y-11914874D01*
X7004353Y-11914874D02*
X7013877Y-11876779D01*
X7013877Y-11876779D02*
X7023401Y-11857731D01*
X7023401Y-11857731D02*
X7032924Y-11848208D01*
X7032924Y-11848208D02*
X7051972Y-11838684D01*
X7204353Y-12019636D02*
X7213877Y-12029160D01*
X7213877Y-12029160D02*
X7204353Y-12038684D01*
X7204353Y-12038684D02*
X7194829Y-12029160D01*
X7194829Y-12029160D02*
X7204353Y-12019636D01*
X7204353Y-12019636D02*
X7204353Y-12038684D01*
X7394829Y-11838684D02*
X7299591Y-11838684D01*
X7299591Y-11838684D02*
X7290067Y-11933922D01*
X7290067Y-11933922D02*
X7299591Y-11924398D01*
X7299591Y-11924398D02*
X7318639Y-11914874D01*
X7318639Y-11914874D02*
X7366258Y-11914874D01*
X7366258Y-11914874D02*
X7385305Y-11924398D01*
X7385305Y-11924398D02*
X7394829Y-11933922D01*
X7394829Y-11933922D02*
X7404353Y-11952969D01*
X7404353Y-11952969D02*
X7404353Y-12000588D01*
X7404353Y-12000588D02*
X7394829Y-12019636D01*
X7394829Y-12019636D02*
X7385305Y-12029160D01*
X7385305Y-12029160D02*
X7366258Y-12038684D01*
X7366258Y-12038684D02*
X7318639Y-12038684D01*
X7318639Y-12038684D02*
X7299591Y-12029160D01*
X7299591Y-12029160D02*
X7290067Y-12019636D01*
X7528162Y-11838684D02*
X7547210Y-11838684D01*
X7547210Y-11838684D02*
X7566258Y-11848208D01*
X7566258Y-11848208D02*
X7575782Y-11857731D01*
X7575782Y-11857731D02*
X7585305Y-11876779D01*
X7585305Y-11876779D02*
X7594829Y-11914874D01*
X7594829Y-11914874D02*
X7594829Y-11962493D01*
X7594829Y-11962493D02*
X7585305Y-12000588D01*
X7585305Y-12000588D02*
X7575782Y-12019636D01*
X7575782Y-12019636D02*
X7566258Y-12029160D01*
X7566258Y-12029160D02*
X7547210Y-12038684D01*
X7547210Y-12038684D02*
X7528162Y-12038684D01*
X7528162Y-12038684D02*
X7509115Y-12029160D01*
X7509115Y-12029160D02*
X7499591Y-12019636D01*
X7499591Y-12019636D02*
X7490067Y-12000588D01*
X7490067Y-12000588D02*
X7480543Y-11962493D01*
X7480543Y-11962493D02*
X7480543Y-11914874D01*
X7480543Y-11914874D02*
X7490067Y-11876779D01*
X7490067Y-11876779D02*
X7499591Y-11857731D01*
X7499591Y-11857731D02*
X7509115Y-11848208D01*
X7509115Y-11848208D02*
X7528162Y-11838684D01*
X7718639Y-11838684D02*
X7737686Y-11838684D01*
X7737686Y-11838684D02*
X7756734Y-11848208D01*
X7756734Y-11848208D02*
X7766258Y-11857731D01*
X7766258Y-11857731D02*
X7775782Y-11876779D01*
X7775782Y-11876779D02*
X7785305Y-11914874D01*
X7785305Y-11914874D02*
X7785305Y-11962493D01*
X7785305Y-11962493D02*
X7775782Y-12000588D01*
X7775782Y-12000588D02*
X7766258Y-12019636D01*
X7766258Y-12019636D02*
X7756734Y-12029160D01*
X7756734Y-12029160D02*
X7737686Y-12038684D01*
X7737686Y-12038684D02*
X7718639Y-12038684D01*
X7718639Y-12038684D02*
X7699591Y-12029160D01*
X7699591Y-12029160D02*
X7690067Y-12019636D01*
X7690067Y-12019636D02*
X7680543Y-12000588D01*
X7680543Y-12000588D02*
X7671020Y-11962493D01*
X7671020Y-11962493D02*
X7671020Y-11914874D01*
X7671020Y-11914874D02*
X7680543Y-11876779D01*
X7680543Y-11876779D02*
X7690067Y-11857731D01*
X7690067Y-11857731D02*
X7699591Y-11848208D01*
X7699591Y-11848208D02*
X7718639Y-11838684D01*
X7871020Y-12038684D02*
X7871020Y-11905350D01*
X7871020Y-11924398D02*
X7880543Y-11914874D01*
X7880543Y-11914874D02*
X7899591Y-11905350D01*
X7899591Y-11905350D02*
X7928163Y-11905350D01*
X7928163Y-11905350D02*
X7947210Y-11914874D01*
X7947210Y-11914874D02*
X7956734Y-11933922D01*
X7956734Y-11933922D02*
X7956734Y-12038684D01*
X7956734Y-11933922D02*
X7966258Y-11914874D01*
X7966258Y-11914874D02*
X7985305Y-11905350D01*
X7985305Y-11905350D02*
X8013877Y-11905350D01*
X8013877Y-11905350D02*
X8032924Y-11914874D01*
X8032924Y-11914874D02*
X8042448Y-11933922D01*
X8042448Y-11933922D02*
X8042448Y-12038684D01*
X8137686Y-12038684D02*
X8137686Y-11905350D01*
X8137686Y-11924398D02*
X8147210Y-11914874D01*
X8147210Y-11914874D02*
X8166258Y-11905350D01*
X8166258Y-11905350D02*
X8194829Y-11905350D01*
X8194829Y-11905350D02*
X8213877Y-11914874D01*
X8213877Y-11914874D02*
X8223401Y-11933922D01*
X8223401Y-11933922D02*
X8223401Y-12038684D01*
X8223401Y-11933922D02*
X8232924Y-11914874D01*
X8232924Y-11914874D02*
X8251972Y-11905350D01*
X8251972Y-11905350D02*
X8280543Y-11905350D01*
X8280543Y-11905350D02*
X8299591Y-11914874D01*
X8299591Y-11914874D02*
X8309115Y-11933922D01*
X8309115Y-11933922D02*
X8309115Y-12038684D01*
X8699591Y-11829160D02*
X8528163Y-12086303D01*
X8956734Y-11838684D02*
X8975782Y-11838684D01*
X8975782Y-11838684D02*
X8994829Y-11848208D01*
X8994829Y-11848208D02*
X9004353Y-11857731D01*
X9004353Y-11857731D02*
X9013877Y-11876779D01*
X9013877Y-11876779D02*
X9023401Y-11914874D01*
X9023401Y-11914874D02*
X9023401Y-11962493D01*
X9023401Y-11962493D02*
X9013877Y-12000588D01*
X9013877Y-12000588D02*
X9004353Y-12019636D01*
X9004353Y-12019636D02*
X8994829Y-12029160D01*
X8994829Y-12029160D02*
X8975782Y-12038684D01*
X8975782Y-12038684D02*
X8956734Y-12038684D01*
X8956734Y-12038684D02*
X8937687Y-12029160D01*
X8937687Y-12029160D02*
X8928163Y-12019636D01*
X8928163Y-12019636D02*
X8918639Y-12000588D01*
X8918639Y-12000588D02*
X8909115Y-11962493D01*
X8909115Y-11962493D02*
X8909115Y-11914874D01*
X8909115Y-11914874D02*
X8918639Y-11876779D01*
X8918639Y-11876779D02*
X8928163Y-11857731D01*
X8928163Y-11857731D02*
X8937687Y-11848208D01*
X8937687Y-11848208D02*
X8956734Y-11838684D01*
X9109115Y-12019636D02*
X9118639Y-12029160D01*
X9118639Y-12029160D02*
X9109115Y-12038684D01*
X9109115Y-12038684D02*
X9099591Y-12029160D01*
X9099591Y-12029160D02*
X9109115Y-12019636D01*
X9109115Y-12019636D02*
X9109115Y-12038684D01*
X9242448Y-11838684D02*
X9261496Y-11838684D01*
X9261496Y-11838684D02*
X9280544Y-11848208D01*
X9280544Y-11848208D02*
X9290068Y-11857731D01*
X9290068Y-11857731D02*
X9299591Y-11876779D01*
X9299591Y-11876779D02*
X9309115Y-11914874D01*
X9309115Y-11914874D02*
X9309115Y-11962493D01*
X9309115Y-11962493D02*
X9299591Y-12000588D01*
X9299591Y-12000588D02*
X9290068Y-12019636D01*
X9290068Y-12019636D02*
X9280544Y-12029160D01*
X9280544Y-12029160D02*
X9261496Y-12038684D01*
X9261496Y-12038684D02*
X9242448Y-12038684D01*
X9242448Y-12038684D02*
X9223401Y-12029160D01*
X9223401Y-12029160D02*
X9213877Y-12019636D01*
X9213877Y-12019636D02*
X9204353Y-12000588D01*
X9204353Y-12000588D02*
X9194829Y-11962493D01*
X9194829Y-11962493D02*
X9194829Y-11914874D01*
X9194829Y-11914874D02*
X9204353Y-11876779D01*
X9204353Y-11876779D02*
X9213877Y-11857731D01*
X9213877Y-11857731D02*
X9223401Y-11848208D01*
X9223401Y-11848208D02*
X9242448Y-11838684D01*
X9499591Y-12038684D02*
X9385306Y-12038684D01*
X9442448Y-12038684D02*
X9442448Y-11838684D01*
X9442448Y-11838684D02*
X9423401Y-11867255D01*
X9423401Y-11867255D02*
X9404353Y-11886303D01*
X9404353Y-11886303D02*
X9385306Y-11895827D01*
X9594829Y-12038684D02*
X9632925Y-12038684D01*
X9632925Y-12038684D02*
X9651972Y-12029160D01*
X9651972Y-12029160D02*
X9661496Y-12019636D01*
X9661496Y-12019636D02*
X9680544Y-11991065D01*
X9680544Y-11991065D02*
X9690068Y-11952969D01*
X9690068Y-11952969D02*
X9690068Y-11876779D01*
X9690068Y-11876779D02*
X9680544Y-11857731D01*
X9680544Y-11857731D02*
X9671020Y-11848208D01*
X9671020Y-11848208D02*
X9651972Y-11838684D01*
X9651972Y-11838684D02*
X9613877Y-11838684D01*
X9613877Y-11838684D02*
X9594829Y-11848208D01*
X9594829Y-11848208D02*
X9585306Y-11857731D01*
X9585306Y-11857731D02*
X9575782Y-11876779D01*
X9575782Y-11876779D02*
X9575782Y-11924398D01*
X9575782Y-11924398D02*
X9585306Y-11943446D01*
X9585306Y-11943446D02*
X9594829Y-11952969D01*
X9594829Y-11952969D02*
X9613877Y-11962493D01*
X9613877Y-11962493D02*
X9651972Y-11962493D01*
X9651972Y-11962493D02*
X9671020Y-11952969D01*
X9671020Y-11952969D02*
X9680544Y-11943446D01*
X9680544Y-11943446D02*
X9690068Y-11924398D01*
X9756734Y-11838684D02*
X9890068Y-11838684D01*
X9890068Y-11838684D02*
X9804353Y-12038684D01*
X9956734Y-11838684D02*
X9956734Y-11876779D01*
X10032925Y-11838684D02*
X10032925Y-11876779D01*
X10328163Y-12114874D02*
X10318639Y-12105350D01*
X10318639Y-12105350D02*
X10299591Y-12076779D01*
X10299591Y-12076779D02*
X10290068Y-12057731D01*
X10290068Y-12057731D02*
X10280544Y-12029160D01*
X10280544Y-12029160D02*
X10271020Y-11981541D01*
X10271020Y-11981541D02*
X10271020Y-11943446D01*
X10271020Y-11943446D02*
X10280544Y-11895827D01*
X10280544Y-11895827D02*
X10290068Y-11867255D01*
X10290068Y-11867255D02*
X10299591Y-11848208D01*
X10299591Y-11848208D02*
X10318639Y-11819636D01*
X10318639Y-11819636D02*
X10328163Y-11810112D01*
X10499591Y-11838684D02*
X10404353Y-11838684D01*
X10404353Y-11838684D02*
X10394830Y-11933922D01*
X10394830Y-11933922D02*
X10404353Y-11924398D01*
X10404353Y-11924398D02*
X10423401Y-11914874D01*
X10423401Y-11914874D02*
X10471020Y-11914874D01*
X10471020Y-11914874D02*
X10490068Y-11924398D01*
X10490068Y-11924398D02*
X10499591Y-11933922D01*
X10499591Y-11933922D02*
X10509115Y-11952969D01*
X10509115Y-11952969D02*
X10509115Y-12000588D01*
X10509115Y-12000588D02*
X10499591Y-12019636D01*
X10499591Y-12019636D02*
X10490068Y-12029160D01*
X10490068Y-12029160D02*
X10471020Y-12038684D01*
X10471020Y-12038684D02*
X10423401Y-12038684D01*
X10423401Y-12038684D02*
X10404353Y-12029160D01*
X10404353Y-12029160D02*
X10394830Y-12019636D01*
X10747211Y-12038684D02*
X10747211Y-11838684D01*
X10832925Y-12038684D02*
X10832925Y-11933922D01*
X10832925Y-11933922D02*
X10823401Y-11914874D01*
X10823401Y-11914874D02*
X10804353Y-11905350D01*
X10804353Y-11905350D02*
X10775782Y-11905350D01*
X10775782Y-11905350D02*
X10756734Y-11914874D01*
X10756734Y-11914874D02*
X10747211Y-11924398D01*
X10956734Y-12038684D02*
X10937687Y-12029160D01*
X10937687Y-12029160D02*
X10928163Y-12019636D01*
X10928163Y-12019636D02*
X10918639Y-12000588D01*
X10918639Y-12000588D02*
X10918639Y-11943446D01*
X10918639Y-11943446D02*
X10928163Y-11924398D01*
X10928163Y-11924398D02*
X10937687Y-11914874D01*
X10937687Y-11914874D02*
X10956734Y-11905350D01*
X10956734Y-11905350D02*
X10985306Y-11905350D01*
X10985306Y-11905350D02*
X11004353Y-11914874D01*
X11004353Y-11914874D02*
X11013877Y-11924398D01*
X11013877Y-11924398D02*
X11023401Y-11943446D01*
X11023401Y-11943446D02*
X11023401Y-12000588D01*
X11023401Y-12000588D02*
X11013877Y-12019636D01*
X11013877Y-12019636D02*
X11004353Y-12029160D01*
X11004353Y-12029160D02*
X10985306Y-12038684D01*
X10985306Y-12038684D02*
X10956734Y-12038684D01*
X11137687Y-12038684D02*
X11118639Y-12029160D01*
X11118639Y-12029160D02*
X11109115Y-12010112D01*
X11109115Y-12010112D02*
X11109115Y-11838684D01*
X11290068Y-12029160D02*
X11271020Y-12038684D01*
X11271020Y-12038684D02*
X11232925Y-12038684D01*
X11232925Y-12038684D02*
X11213877Y-12029160D01*
X11213877Y-12029160D02*
X11204353Y-12010112D01*
X11204353Y-12010112D02*
X11204353Y-11933922D01*
X11204353Y-11933922D02*
X11213877Y-11914874D01*
X11213877Y-11914874D02*
X11232925Y-11905350D01*
X11232925Y-11905350D02*
X11271020Y-11905350D01*
X11271020Y-11905350D02*
X11290068Y-11914874D01*
X11290068Y-11914874D02*
X11299591Y-11933922D01*
X11299591Y-11933922D02*
X11299591Y-11952969D01*
X11299591Y-11952969D02*
X11204353Y-11972017D01*
X11375782Y-12029160D02*
X11394830Y-12038684D01*
X11394830Y-12038684D02*
X11432925Y-12038684D01*
X11432925Y-12038684D02*
X11451972Y-12029160D01*
X11451972Y-12029160D02*
X11461496Y-12010112D01*
X11461496Y-12010112D02*
X11461496Y-12000588D01*
X11461496Y-12000588D02*
X11451972Y-11981541D01*
X11451972Y-11981541D02*
X11432925Y-11972017D01*
X11432925Y-11972017D02*
X11404353Y-11972017D01*
X11404353Y-11972017D02*
X11385306Y-11962493D01*
X11385306Y-11962493D02*
X11375782Y-11943446D01*
X11375782Y-11943446D02*
X11375782Y-11933922D01*
X11375782Y-11933922D02*
X11385306Y-11914874D01*
X11385306Y-11914874D02*
X11404353Y-11905350D01*
X11404353Y-11905350D02*
X11432925Y-11905350D01*
X11432925Y-11905350D02*
X11451972Y-11914874D01*
X11528163Y-12114874D02*
X11537687Y-12105350D01*
X11537687Y-12105350D02*
X11556734Y-12076779D01*
X11556734Y-12076779D02*
X11566258Y-12057731D01*
X11566258Y-12057731D02*
X11575782Y-12029160D01*
X11575782Y-12029160D02*
X11585306Y-11981541D01*
X11585306Y-11981541D02*
X11585306Y-11943446D01*
X11585306Y-11943446D02*
X11575782Y-11895827D01*
X11575782Y-11895827D02*
X11566258Y-11867255D01*
X11566258Y-11867255D02*
X11556734Y-11848208D01*
X11556734Y-11848208D02*
X11537687Y-11819636D01*
X11537687Y-11819636D02*
X11528163Y-11810112D01*
D15*
X6741384Y-12239484D02*
X6741384Y-12182915D01*
X6684815Y-12182915D01*
X6684815Y-12239484D01*
X6741384Y-12239484D01*
D11*
X7051972Y-12102684D02*
X7071020Y-12102684D01*
X7071020Y-12102684D02*
X7090067Y-12112208D01*
X7090067Y-12112208D02*
X7099591Y-12121731D01*
X7099591Y-12121731D02*
X7109115Y-12140779D01*
X7109115Y-12140779D02*
X7118639Y-12178874D01*
X7118639Y-12178874D02*
X7118639Y-12226493D01*
X7118639Y-12226493D02*
X7109115Y-12264588D01*
X7109115Y-12264588D02*
X7099591Y-12283636D01*
X7099591Y-12283636D02*
X7090067Y-12293160D01*
X7090067Y-12293160D02*
X7071020Y-12302684D01*
X7071020Y-12302684D02*
X7051972Y-12302684D01*
X7051972Y-12302684D02*
X7032924Y-12293160D01*
X7032924Y-12293160D02*
X7023401Y-12283636D01*
X7023401Y-12283636D02*
X7013877Y-12264588D01*
X7013877Y-12264588D02*
X7004353Y-12226493D01*
X7004353Y-12226493D02*
X7004353Y-12178874D01*
X7004353Y-12178874D02*
X7013877Y-12140779D01*
X7013877Y-12140779D02*
X7023401Y-12121731D01*
X7023401Y-12121731D02*
X7032924Y-12112208D01*
X7032924Y-12112208D02*
X7051972Y-12102684D01*
X7204353Y-12283636D02*
X7213877Y-12293160D01*
X7213877Y-12293160D02*
X7204353Y-12302684D01*
X7204353Y-12302684D02*
X7194829Y-12293160D01*
X7194829Y-12293160D02*
X7204353Y-12283636D01*
X7204353Y-12283636D02*
X7204353Y-12302684D01*
X7328162Y-12188398D02*
X7309115Y-12178874D01*
X7309115Y-12178874D02*
X7299591Y-12169350D01*
X7299591Y-12169350D02*
X7290067Y-12150303D01*
X7290067Y-12150303D02*
X7290067Y-12140779D01*
X7290067Y-12140779D02*
X7299591Y-12121731D01*
X7299591Y-12121731D02*
X7309115Y-12112208D01*
X7309115Y-12112208D02*
X7328162Y-12102684D01*
X7328162Y-12102684D02*
X7366258Y-12102684D01*
X7366258Y-12102684D02*
X7385305Y-12112208D01*
X7385305Y-12112208D02*
X7394829Y-12121731D01*
X7394829Y-12121731D02*
X7404353Y-12140779D01*
X7404353Y-12140779D02*
X7404353Y-12150303D01*
X7404353Y-12150303D02*
X7394829Y-12169350D01*
X7394829Y-12169350D02*
X7385305Y-12178874D01*
X7385305Y-12178874D02*
X7366258Y-12188398D01*
X7366258Y-12188398D02*
X7328162Y-12188398D01*
X7328162Y-12188398D02*
X7309115Y-12197922D01*
X7309115Y-12197922D02*
X7299591Y-12207446D01*
X7299591Y-12207446D02*
X7290067Y-12226493D01*
X7290067Y-12226493D02*
X7290067Y-12264588D01*
X7290067Y-12264588D02*
X7299591Y-12283636D01*
X7299591Y-12283636D02*
X7309115Y-12293160D01*
X7309115Y-12293160D02*
X7328162Y-12302684D01*
X7328162Y-12302684D02*
X7366258Y-12302684D01*
X7366258Y-12302684D02*
X7385305Y-12293160D01*
X7385305Y-12293160D02*
X7394829Y-12283636D01*
X7394829Y-12283636D02*
X7404353Y-12264588D01*
X7404353Y-12264588D02*
X7404353Y-12226493D01*
X7404353Y-12226493D02*
X7394829Y-12207446D01*
X7394829Y-12207446D02*
X7385305Y-12197922D01*
X7385305Y-12197922D02*
X7366258Y-12188398D01*
X7528162Y-12102684D02*
X7547210Y-12102684D01*
X7547210Y-12102684D02*
X7566258Y-12112208D01*
X7566258Y-12112208D02*
X7575782Y-12121731D01*
X7575782Y-12121731D02*
X7585305Y-12140779D01*
X7585305Y-12140779D02*
X7594829Y-12178874D01*
X7594829Y-12178874D02*
X7594829Y-12226493D01*
X7594829Y-12226493D02*
X7585305Y-12264588D01*
X7585305Y-12264588D02*
X7575782Y-12283636D01*
X7575782Y-12283636D02*
X7566258Y-12293160D01*
X7566258Y-12293160D02*
X7547210Y-12302684D01*
X7547210Y-12302684D02*
X7528162Y-12302684D01*
X7528162Y-12302684D02*
X7509115Y-12293160D01*
X7509115Y-12293160D02*
X7499591Y-12283636D01*
X7499591Y-12283636D02*
X7490067Y-12264588D01*
X7490067Y-12264588D02*
X7480543Y-12226493D01*
X7480543Y-12226493D02*
X7480543Y-12178874D01*
X7480543Y-12178874D02*
X7490067Y-12140779D01*
X7490067Y-12140779D02*
X7499591Y-12121731D01*
X7499591Y-12121731D02*
X7509115Y-12112208D01*
X7509115Y-12112208D02*
X7528162Y-12102684D01*
X7718639Y-12102684D02*
X7737686Y-12102684D01*
X7737686Y-12102684D02*
X7756734Y-12112208D01*
X7756734Y-12112208D02*
X7766258Y-12121731D01*
X7766258Y-12121731D02*
X7775782Y-12140779D01*
X7775782Y-12140779D02*
X7785305Y-12178874D01*
X7785305Y-12178874D02*
X7785305Y-12226493D01*
X7785305Y-12226493D02*
X7775782Y-12264588D01*
X7775782Y-12264588D02*
X7766258Y-12283636D01*
X7766258Y-12283636D02*
X7756734Y-12293160D01*
X7756734Y-12293160D02*
X7737686Y-12302684D01*
X7737686Y-12302684D02*
X7718639Y-12302684D01*
X7718639Y-12302684D02*
X7699591Y-12293160D01*
X7699591Y-12293160D02*
X7690067Y-12283636D01*
X7690067Y-12283636D02*
X7680543Y-12264588D01*
X7680543Y-12264588D02*
X7671020Y-12226493D01*
X7671020Y-12226493D02*
X7671020Y-12178874D01*
X7671020Y-12178874D02*
X7680543Y-12140779D01*
X7680543Y-12140779D02*
X7690067Y-12121731D01*
X7690067Y-12121731D02*
X7699591Y-12112208D01*
X7699591Y-12112208D02*
X7718639Y-12102684D01*
X7871020Y-12302684D02*
X7871020Y-12169350D01*
X7871020Y-12188398D02*
X7880543Y-12178874D01*
X7880543Y-12178874D02*
X7899591Y-12169350D01*
X7899591Y-12169350D02*
X7928163Y-12169350D01*
X7928163Y-12169350D02*
X7947210Y-12178874D01*
X7947210Y-12178874D02*
X7956734Y-12197922D01*
X7956734Y-12197922D02*
X7956734Y-12302684D01*
X7956734Y-12197922D02*
X7966258Y-12178874D01*
X7966258Y-12178874D02*
X7985305Y-12169350D01*
X7985305Y-12169350D02*
X8013877Y-12169350D01*
X8013877Y-12169350D02*
X8032924Y-12178874D01*
X8032924Y-12178874D02*
X8042448Y-12197922D01*
X8042448Y-12197922D02*
X8042448Y-12302684D01*
X8137686Y-12302684D02*
X8137686Y-12169350D01*
X8137686Y-12188398D02*
X8147210Y-12178874D01*
X8147210Y-12178874D02*
X8166258Y-12169350D01*
X8166258Y-12169350D02*
X8194829Y-12169350D01*
X8194829Y-12169350D02*
X8213877Y-12178874D01*
X8213877Y-12178874D02*
X8223401Y-12197922D01*
X8223401Y-12197922D02*
X8223401Y-12302684D01*
X8223401Y-12197922D02*
X8232924Y-12178874D01*
X8232924Y-12178874D02*
X8251972Y-12169350D01*
X8251972Y-12169350D02*
X8280543Y-12169350D01*
X8280543Y-12169350D02*
X8299591Y-12178874D01*
X8299591Y-12178874D02*
X8309115Y-12197922D01*
X8309115Y-12197922D02*
X8309115Y-12302684D01*
X8699591Y-12093160D02*
X8528163Y-12350303D01*
X8956734Y-12102684D02*
X8975782Y-12102684D01*
X8975782Y-12102684D02*
X8994829Y-12112208D01*
X8994829Y-12112208D02*
X9004353Y-12121731D01*
X9004353Y-12121731D02*
X9013877Y-12140779D01*
X9013877Y-12140779D02*
X9023401Y-12178874D01*
X9023401Y-12178874D02*
X9023401Y-12226493D01*
X9023401Y-12226493D02*
X9013877Y-12264588D01*
X9013877Y-12264588D02*
X9004353Y-12283636D01*
X9004353Y-12283636D02*
X8994829Y-12293160D01*
X8994829Y-12293160D02*
X8975782Y-12302684D01*
X8975782Y-12302684D02*
X8956734Y-12302684D01*
X8956734Y-12302684D02*
X8937687Y-12293160D01*
X8937687Y-12293160D02*
X8928163Y-12283636D01*
X8928163Y-12283636D02*
X8918639Y-12264588D01*
X8918639Y-12264588D02*
X8909115Y-12226493D01*
X8909115Y-12226493D02*
X8909115Y-12178874D01*
X8909115Y-12178874D02*
X8918639Y-12140779D01*
X8918639Y-12140779D02*
X8928163Y-12121731D01*
X8928163Y-12121731D02*
X8937687Y-12112208D01*
X8937687Y-12112208D02*
X8956734Y-12102684D01*
X9109115Y-12283636D02*
X9118639Y-12293160D01*
X9118639Y-12293160D02*
X9109115Y-12302684D01*
X9109115Y-12302684D02*
X9099591Y-12293160D01*
X9099591Y-12293160D02*
X9109115Y-12283636D01*
X9109115Y-12283636D02*
X9109115Y-12302684D01*
X9242448Y-12102684D02*
X9261496Y-12102684D01*
X9261496Y-12102684D02*
X9280544Y-12112208D01*
X9280544Y-12112208D02*
X9290068Y-12121731D01*
X9290068Y-12121731D02*
X9299591Y-12140779D01*
X9299591Y-12140779D02*
X9309115Y-12178874D01*
X9309115Y-12178874D02*
X9309115Y-12226493D01*
X9309115Y-12226493D02*
X9299591Y-12264588D01*
X9299591Y-12264588D02*
X9290068Y-12283636D01*
X9290068Y-12283636D02*
X9280544Y-12293160D01*
X9280544Y-12293160D02*
X9261496Y-12302684D01*
X9261496Y-12302684D02*
X9242448Y-12302684D01*
X9242448Y-12302684D02*
X9223401Y-12293160D01*
X9223401Y-12293160D02*
X9213877Y-12283636D01*
X9213877Y-12283636D02*
X9204353Y-12264588D01*
X9204353Y-12264588D02*
X9194829Y-12226493D01*
X9194829Y-12226493D02*
X9194829Y-12178874D01*
X9194829Y-12178874D02*
X9204353Y-12140779D01*
X9204353Y-12140779D02*
X9213877Y-12121731D01*
X9213877Y-12121731D02*
X9223401Y-12112208D01*
X9223401Y-12112208D02*
X9242448Y-12102684D01*
X9375782Y-12102684D02*
X9499591Y-12102684D01*
X9499591Y-12102684D02*
X9432925Y-12178874D01*
X9432925Y-12178874D02*
X9461496Y-12178874D01*
X9461496Y-12178874D02*
X9480544Y-12188398D01*
X9480544Y-12188398D02*
X9490068Y-12197922D01*
X9490068Y-12197922D02*
X9499591Y-12216969D01*
X9499591Y-12216969D02*
X9499591Y-12264588D01*
X9499591Y-12264588D02*
X9490068Y-12283636D01*
X9490068Y-12283636D02*
X9480544Y-12293160D01*
X9480544Y-12293160D02*
X9461496Y-12302684D01*
X9461496Y-12302684D02*
X9404353Y-12302684D01*
X9404353Y-12302684D02*
X9385306Y-12293160D01*
X9385306Y-12293160D02*
X9375782Y-12283636D01*
X9690068Y-12302684D02*
X9575782Y-12302684D01*
X9632925Y-12302684D02*
X9632925Y-12102684D01*
X9632925Y-12102684D02*
X9613877Y-12131255D01*
X9613877Y-12131255D02*
X9594829Y-12150303D01*
X9594829Y-12150303D02*
X9575782Y-12159827D01*
X9871020Y-12102684D02*
X9775782Y-12102684D01*
X9775782Y-12102684D02*
X9766258Y-12197922D01*
X9766258Y-12197922D02*
X9775782Y-12188398D01*
X9775782Y-12188398D02*
X9794829Y-12178874D01*
X9794829Y-12178874D02*
X9842449Y-12178874D01*
X9842449Y-12178874D02*
X9861496Y-12188398D01*
X9861496Y-12188398D02*
X9871020Y-12197922D01*
X9871020Y-12197922D02*
X9880544Y-12216969D01*
X9880544Y-12216969D02*
X9880544Y-12264588D01*
X9880544Y-12264588D02*
X9871020Y-12283636D01*
X9871020Y-12283636D02*
X9861496Y-12293160D01*
X9861496Y-12293160D02*
X9842449Y-12302684D01*
X9842449Y-12302684D02*
X9794829Y-12302684D01*
X9794829Y-12302684D02*
X9775782Y-12293160D01*
X9775782Y-12293160D02*
X9766258Y-12283636D01*
X9956734Y-12102684D02*
X9956734Y-12140779D01*
X10032925Y-12102684D02*
X10032925Y-12140779D01*
X10328163Y-12378874D02*
X10318639Y-12369350D01*
X10318639Y-12369350D02*
X10299591Y-12340779D01*
X10299591Y-12340779D02*
X10290068Y-12321731D01*
X10290068Y-12321731D02*
X10280544Y-12293160D01*
X10280544Y-12293160D02*
X10271020Y-12245541D01*
X10271020Y-12245541D02*
X10271020Y-12207446D01*
X10271020Y-12207446D02*
X10280544Y-12159827D01*
X10280544Y-12159827D02*
X10290068Y-12131255D01*
X10290068Y-12131255D02*
X10299591Y-12112208D01*
X10299591Y-12112208D02*
X10318639Y-12083636D01*
X10318639Y-12083636D02*
X10328163Y-12074112D01*
X10385306Y-12102684D02*
X10509115Y-12102684D01*
X10509115Y-12102684D02*
X10442449Y-12178874D01*
X10442449Y-12178874D02*
X10471020Y-12178874D01*
X10471020Y-12178874D02*
X10490068Y-12188398D01*
X10490068Y-12188398D02*
X10499591Y-12197922D01*
X10499591Y-12197922D02*
X10509115Y-12216969D01*
X10509115Y-12216969D02*
X10509115Y-12264588D01*
X10509115Y-12264588D02*
X10499591Y-12283636D01*
X10499591Y-12283636D02*
X10490068Y-12293160D01*
X10490068Y-12293160D02*
X10471020Y-12302684D01*
X10471020Y-12302684D02*
X10413877Y-12302684D01*
X10413877Y-12302684D02*
X10394830Y-12293160D01*
X10394830Y-12293160D02*
X10385306Y-12283636D01*
X10632925Y-12102684D02*
X10651972Y-12102684D01*
X10651972Y-12102684D02*
X10671020Y-12112208D01*
X10671020Y-12112208D02*
X10680544Y-12121731D01*
X10680544Y-12121731D02*
X10690068Y-12140779D01*
X10690068Y-12140779D02*
X10699591Y-12178874D01*
X10699591Y-12178874D02*
X10699591Y-12226493D01*
X10699591Y-12226493D02*
X10690068Y-12264588D01*
X10690068Y-12264588D02*
X10680544Y-12283636D01*
X10680544Y-12283636D02*
X10671020Y-12293160D01*
X10671020Y-12293160D02*
X10651972Y-12302684D01*
X10651972Y-12302684D02*
X10632925Y-12302684D01*
X10632925Y-12302684D02*
X10613877Y-12293160D01*
X10613877Y-12293160D02*
X10604353Y-12283636D01*
X10604353Y-12283636D02*
X10594830Y-12264588D01*
X10594830Y-12264588D02*
X10585306Y-12226493D01*
X10585306Y-12226493D02*
X10585306Y-12178874D01*
X10585306Y-12178874D02*
X10594830Y-12140779D01*
X10594830Y-12140779D02*
X10604353Y-12121731D01*
X10604353Y-12121731D02*
X10613877Y-12112208D01*
X10613877Y-12112208D02*
X10632925Y-12102684D01*
X10937687Y-12302684D02*
X10937687Y-12102684D01*
X11023401Y-12302684D02*
X11023401Y-12197922D01*
X11023401Y-12197922D02*
X11013877Y-12178874D01*
X11013877Y-12178874D02*
X10994830Y-12169350D01*
X10994830Y-12169350D02*
X10966258Y-12169350D01*
X10966258Y-12169350D02*
X10947211Y-12178874D01*
X10947211Y-12178874D02*
X10937687Y-12188398D01*
X11147211Y-12302684D02*
X11128163Y-12293160D01*
X11128163Y-12293160D02*
X11118639Y-12283636D01*
X11118639Y-12283636D02*
X11109115Y-12264588D01*
X11109115Y-12264588D02*
X11109115Y-12207446D01*
X11109115Y-12207446D02*
X11118639Y-12188398D01*
X11118639Y-12188398D02*
X11128163Y-12178874D01*
X11128163Y-12178874D02*
X11147211Y-12169350D01*
X11147211Y-12169350D02*
X11175782Y-12169350D01*
X11175782Y-12169350D02*
X11194830Y-12178874D01*
X11194830Y-12178874D02*
X11204353Y-12188398D01*
X11204353Y-12188398D02*
X11213877Y-12207446D01*
X11213877Y-12207446D02*
X11213877Y-12264588D01*
X11213877Y-12264588D02*
X11204353Y-12283636D01*
X11204353Y-12283636D02*
X11194830Y-12293160D01*
X11194830Y-12293160D02*
X11175782Y-12302684D01*
X11175782Y-12302684D02*
X11147211Y-12302684D01*
X11328163Y-12302684D02*
X11309115Y-12293160D01*
X11309115Y-12293160D02*
X11299591Y-12274112D01*
X11299591Y-12274112D02*
X11299591Y-12102684D01*
X11480544Y-12293160D02*
X11461496Y-12302684D01*
X11461496Y-12302684D02*
X11423401Y-12302684D01*
X11423401Y-12302684D02*
X11404353Y-12293160D01*
X11404353Y-12293160D02*
X11394830Y-12274112D01*
X11394830Y-12274112D02*
X11394830Y-12197922D01*
X11394830Y-12197922D02*
X11404353Y-12178874D01*
X11404353Y-12178874D02*
X11423401Y-12169350D01*
X11423401Y-12169350D02*
X11461496Y-12169350D01*
X11461496Y-12169350D02*
X11480544Y-12178874D01*
X11480544Y-12178874D02*
X11490068Y-12197922D01*
X11490068Y-12197922D02*
X11490068Y-12216969D01*
X11490068Y-12216969D02*
X11394830Y-12236017D01*
X11566258Y-12293160D02*
X11585306Y-12302684D01*
X11585306Y-12302684D02*
X11623401Y-12302684D01*
X11623401Y-12302684D02*
X11642449Y-12293160D01*
X11642449Y-12293160D02*
X11651972Y-12274112D01*
X11651972Y-12274112D02*
X11651972Y-12264588D01*
X11651972Y-12264588D02*
X11642449Y-12245541D01*
X11642449Y-12245541D02*
X11623401Y-12236017D01*
X11623401Y-12236017D02*
X11594830Y-12236017D01*
X11594830Y-12236017D02*
X11575782Y-12226493D01*
X11575782Y-12226493D02*
X11566258Y-12207446D01*
X11566258Y-12207446D02*
X11566258Y-12197922D01*
X11566258Y-12197922D02*
X11575782Y-12178874D01*
X11575782Y-12178874D02*
X11594830Y-12169350D01*
X11594830Y-12169350D02*
X11623401Y-12169350D01*
X11623401Y-12169350D02*
X11642449Y-12178874D01*
X11718639Y-12378874D02*
X11728163Y-12369350D01*
X11728163Y-12369350D02*
X11747211Y-12340779D01*
X11747211Y-12340779D02*
X11756734Y-12321731D01*
X11756734Y-12321731D02*
X11766258Y-12293160D01*
X11766258Y-12293160D02*
X11775782Y-12245541D01*
X11775782Y-12245541D02*
X11775782Y-12207446D01*
X11775782Y-12207446D02*
X11766258Y-12159827D01*
X11766258Y-12159827D02*
X11756734Y-12131255D01*
X11756734Y-12131255D02*
X11747211Y-12112208D01*
X11747211Y-12112208D02*
X11728163Y-12083636D01*
X11728163Y-12083636D02*
X11718639Y-12074112D01*
D10*
X6703100Y-12525200D02*
X6753100Y-12475200D01*
X6703100Y-12425200D01*
X6653100Y-12475200D01*
X6703100Y-12525200D01*
D11*
X7118639Y-12566684D02*
X7004353Y-12566684D01*
X7061496Y-12566684D02*
X7061496Y-12366684D01*
X7061496Y-12366684D02*
X7042448Y-12395255D01*
X7042448Y-12395255D02*
X7023401Y-12414303D01*
X7023401Y-12414303D02*
X7004353Y-12423827D01*
X7204353Y-12547636D02*
X7213877Y-12557160D01*
X7213877Y-12557160D02*
X7204353Y-12566684D01*
X7204353Y-12566684D02*
X7194829Y-12557160D01*
X7194829Y-12557160D02*
X7204353Y-12547636D01*
X7204353Y-12547636D02*
X7204353Y-12566684D01*
X7337686Y-12366684D02*
X7356734Y-12366684D01*
X7356734Y-12366684D02*
X7375782Y-12376208D01*
X7375782Y-12376208D02*
X7385305Y-12385731D01*
X7385305Y-12385731D02*
X7394829Y-12404779D01*
X7394829Y-12404779D02*
X7404353Y-12442874D01*
X7404353Y-12442874D02*
X7404353Y-12490493D01*
X7404353Y-12490493D02*
X7394829Y-12528588D01*
X7394829Y-12528588D02*
X7385305Y-12547636D01*
X7385305Y-12547636D02*
X7375782Y-12557160D01*
X7375782Y-12557160D02*
X7356734Y-12566684D01*
X7356734Y-12566684D02*
X7337686Y-12566684D01*
X7337686Y-12566684D02*
X7318639Y-12557160D01*
X7318639Y-12557160D02*
X7309115Y-12547636D01*
X7309115Y-12547636D02*
X7299591Y-12528588D01*
X7299591Y-12528588D02*
X7290067Y-12490493D01*
X7290067Y-12490493D02*
X7290067Y-12442874D01*
X7290067Y-12442874D02*
X7299591Y-12404779D01*
X7299591Y-12404779D02*
X7309115Y-12385731D01*
X7309115Y-12385731D02*
X7318639Y-12376208D01*
X7318639Y-12376208D02*
X7337686Y-12366684D01*
X7528162Y-12366684D02*
X7547210Y-12366684D01*
X7547210Y-12366684D02*
X7566258Y-12376208D01*
X7566258Y-12376208D02*
X7575782Y-12385731D01*
X7575782Y-12385731D02*
X7585305Y-12404779D01*
X7585305Y-12404779D02*
X7594829Y-12442874D01*
X7594829Y-12442874D02*
X7594829Y-12490493D01*
X7594829Y-12490493D02*
X7585305Y-12528588D01*
X7585305Y-12528588D02*
X7575782Y-12547636D01*
X7575782Y-12547636D02*
X7566258Y-12557160D01*
X7566258Y-12557160D02*
X7547210Y-12566684D01*
X7547210Y-12566684D02*
X7528162Y-12566684D01*
X7528162Y-12566684D02*
X7509115Y-12557160D01*
X7509115Y-12557160D02*
X7499591Y-12547636D01*
X7499591Y-12547636D02*
X7490067Y-12528588D01*
X7490067Y-12528588D02*
X7480543Y-12490493D01*
X7480543Y-12490493D02*
X7480543Y-12442874D01*
X7480543Y-12442874D02*
X7490067Y-12404779D01*
X7490067Y-12404779D02*
X7499591Y-12385731D01*
X7499591Y-12385731D02*
X7509115Y-12376208D01*
X7509115Y-12376208D02*
X7528162Y-12366684D01*
X7718639Y-12366684D02*
X7737686Y-12366684D01*
X7737686Y-12366684D02*
X7756734Y-12376208D01*
X7756734Y-12376208D02*
X7766258Y-12385731D01*
X7766258Y-12385731D02*
X7775782Y-12404779D01*
X7775782Y-12404779D02*
X7785305Y-12442874D01*
X7785305Y-12442874D02*
X7785305Y-12490493D01*
X7785305Y-12490493D02*
X7775782Y-12528588D01*
X7775782Y-12528588D02*
X7766258Y-12547636D01*
X7766258Y-12547636D02*
X7756734Y-12557160D01*
X7756734Y-12557160D02*
X7737686Y-12566684D01*
X7737686Y-12566684D02*
X7718639Y-12566684D01*
X7718639Y-12566684D02*
X7699591Y-12557160D01*
X7699591Y-12557160D02*
X7690067Y-12547636D01*
X7690067Y-12547636D02*
X7680543Y-12528588D01*
X7680543Y-12528588D02*
X7671020Y-12490493D01*
X7671020Y-12490493D02*
X7671020Y-12442874D01*
X7671020Y-12442874D02*
X7680543Y-12404779D01*
X7680543Y-12404779D02*
X7690067Y-12385731D01*
X7690067Y-12385731D02*
X7699591Y-12376208D01*
X7699591Y-12376208D02*
X7718639Y-12366684D01*
X7871020Y-12566684D02*
X7871020Y-12433350D01*
X7871020Y-12452398D02*
X7880543Y-12442874D01*
X7880543Y-12442874D02*
X7899591Y-12433350D01*
X7899591Y-12433350D02*
X7928163Y-12433350D01*
X7928163Y-12433350D02*
X7947210Y-12442874D01*
X7947210Y-12442874D02*
X7956734Y-12461922D01*
X7956734Y-12461922D02*
X7956734Y-12566684D01*
X7956734Y-12461922D02*
X7966258Y-12442874D01*
X7966258Y-12442874D02*
X7985305Y-12433350D01*
X7985305Y-12433350D02*
X8013877Y-12433350D01*
X8013877Y-12433350D02*
X8032924Y-12442874D01*
X8032924Y-12442874D02*
X8042448Y-12461922D01*
X8042448Y-12461922D02*
X8042448Y-12566684D01*
X8137686Y-12566684D02*
X8137686Y-12433350D01*
X8137686Y-12452398D02*
X8147210Y-12442874D01*
X8147210Y-12442874D02*
X8166258Y-12433350D01*
X8166258Y-12433350D02*
X8194829Y-12433350D01*
X8194829Y-12433350D02*
X8213877Y-12442874D01*
X8213877Y-12442874D02*
X8223401Y-12461922D01*
X8223401Y-12461922D02*
X8223401Y-12566684D01*
X8223401Y-12461922D02*
X8232924Y-12442874D01*
X8232924Y-12442874D02*
X8251972Y-12433350D01*
X8251972Y-12433350D02*
X8280543Y-12433350D01*
X8280543Y-12433350D02*
X8299591Y-12442874D01*
X8299591Y-12442874D02*
X8309115Y-12461922D01*
X8309115Y-12461922D02*
X8309115Y-12566684D01*
X8699591Y-12357160D02*
X8528163Y-12614303D01*
X8956734Y-12366684D02*
X8975782Y-12366684D01*
X8975782Y-12366684D02*
X8994829Y-12376208D01*
X8994829Y-12376208D02*
X9004353Y-12385731D01*
X9004353Y-12385731D02*
X9013877Y-12404779D01*
X9013877Y-12404779D02*
X9023401Y-12442874D01*
X9023401Y-12442874D02*
X9023401Y-12490493D01*
X9023401Y-12490493D02*
X9013877Y-12528588D01*
X9013877Y-12528588D02*
X9004353Y-12547636D01*
X9004353Y-12547636D02*
X8994829Y-12557160D01*
X8994829Y-12557160D02*
X8975782Y-12566684D01*
X8975782Y-12566684D02*
X8956734Y-12566684D01*
X8956734Y-12566684D02*
X8937687Y-12557160D01*
X8937687Y-12557160D02*
X8928163Y-12547636D01*
X8928163Y-12547636D02*
X8918639Y-12528588D01*
X8918639Y-12528588D02*
X8909115Y-12490493D01*
X8909115Y-12490493D02*
X8909115Y-12442874D01*
X8909115Y-12442874D02*
X8918639Y-12404779D01*
X8918639Y-12404779D02*
X8928163Y-12385731D01*
X8928163Y-12385731D02*
X8937687Y-12376208D01*
X8937687Y-12376208D02*
X8956734Y-12366684D01*
X9109115Y-12547636D02*
X9118639Y-12557160D01*
X9118639Y-12557160D02*
X9109115Y-12566684D01*
X9109115Y-12566684D02*
X9099591Y-12557160D01*
X9099591Y-12557160D02*
X9109115Y-12547636D01*
X9109115Y-12547636D02*
X9109115Y-12566684D01*
X9242448Y-12366684D02*
X9261496Y-12366684D01*
X9261496Y-12366684D02*
X9280544Y-12376208D01*
X9280544Y-12376208D02*
X9290068Y-12385731D01*
X9290068Y-12385731D02*
X9299591Y-12404779D01*
X9299591Y-12404779D02*
X9309115Y-12442874D01*
X9309115Y-12442874D02*
X9309115Y-12490493D01*
X9309115Y-12490493D02*
X9299591Y-12528588D01*
X9299591Y-12528588D02*
X9290068Y-12547636D01*
X9290068Y-12547636D02*
X9280544Y-12557160D01*
X9280544Y-12557160D02*
X9261496Y-12566684D01*
X9261496Y-12566684D02*
X9242448Y-12566684D01*
X9242448Y-12566684D02*
X9223401Y-12557160D01*
X9223401Y-12557160D02*
X9213877Y-12547636D01*
X9213877Y-12547636D02*
X9204353Y-12528588D01*
X9204353Y-12528588D02*
X9194829Y-12490493D01*
X9194829Y-12490493D02*
X9194829Y-12442874D01*
X9194829Y-12442874D02*
X9204353Y-12404779D01*
X9204353Y-12404779D02*
X9213877Y-12385731D01*
X9213877Y-12385731D02*
X9223401Y-12376208D01*
X9223401Y-12376208D02*
X9242448Y-12366684D01*
X9375782Y-12366684D02*
X9499591Y-12366684D01*
X9499591Y-12366684D02*
X9432925Y-12442874D01*
X9432925Y-12442874D02*
X9461496Y-12442874D01*
X9461496Y-12442874D02*
X9480544Y-12452398D01*
X9480544Y-12452398D02*
X9490068Y-12461922D01*
X9490068Y-12461922D02*
X9499591Y-12480969D01*
X9499591Y-12480969D02*
X9499591Y-12528588D01*
X9499591Y-12528588D02*
X9490068Y-12547636D01*
X9490068Y-12547636D02*
X9480544Y-12557160D01*
X9480544Y-12557160D02*
X9461496Y-12566684D01*
X9461496Y-12566684D02*
X9404353Y-12566684D01*
X9404353Y-12566684D02*
X9385306Y-12557160D01*
X9385306Y-12557160D02*
X9375782Y-12547636D01*
X9594829Y-12566684D02*
X9632925Y-12566684D01*
X9632925Y-12566684D02*
X9651972Y-12557160D01*
X9651972Y-12557160D02*
X9661496Y-12547636D01*
X9661496Y-12547636D02*
X9680544Y-12519065D01*
X9680544Y-12519065D02*
X9690068Y-12480969D01*
X9690068Y-12480969D02*
X9690068Y-12404779D01*
X9690068Y-12404779D02*
X9680544Y-12385731D01*
X9680544Y-12385731D02*
X9671020Y-12376208D01*
X9671020Y-12376208D02*
X9651972Y-12366684D01*
X9651972Y-12366684D02*
X9613877Y-12366684D01*
X9613877Y-12366684D02*
X9594829Y-12376208D01*
X9594829Y-12376208D02*
X9585306Y-12385731D01*
X9585306Y-12385731D02*
X9575782Y-12404779D01*
X9575782Y-12404779D02*
X9575782Y-12452398D01*
X9575782Y-12452398D02*
X9585306Y-12471446D01*
X9585306Y-12471446D02*
X9594829Y-12480969D01*
X9594829Y-12480969D02*
X9613877Y-12490493D01*
X9613877Y-12490493D02*
X9651972Y-12490493D01*
X9651972Y-12490493D02*
X9671020Y-12480969D01*
X9671020Y-12480969D02*
X9680544Y-12471446D01*
X9680544Y-12471446D02*
X9690068Y-12452398D01*
X9861496Y-12433350D02*
X9861496Y-12566684D01*
X9813877Y-12357160D02*
X9766258Y-12500017D01*
X9766258Y-12500017D02*
X9890068Y-12500017D01*
X9956734Y-12366684D02*
X9956734Y-12404779D01*
X10032925Y-12366684D02*
X10032925Y-12404779D01*
X10328163Y-12642874D02*
X10318639Y-12633350D01*
X10318639Y-12633350D02*
X10299591Y-12604779D01*
X10299591Y-12604779D02*
X10290068Y-12585731D01*
X10290068Y-12585731D02*
X10280544Y-12557160D01*
X10280544Y-12557160D02*
X10271020Y-12509541D01*
X10271020Y-12509541D02*
X10271020Y-12471446D01*
X10271020Y-12471446D02*
X10280544Y-12423827D01*
X10280544Y-12423827D02*
X10290068Y-12395255D01*
X10290068Y-12395255D02*
X10299591Y-12376208D01*
X10299591Y-12376208D02*
X10318639Y-12347636D01*
X10318639Y-12347636D02*
X10328163Y-12338112D01*
X10490068Y-12433350D02*
X10490068Y-12566684D01*
X10442449Y-12357160D02*
X10394830Y-12500017D01*
X10394830Y-12500017D02*
X10518639Y-12500017D01*
X10680544Y-12433350D02*
X10680544Y-12566684D01*
X10632925Y-12357160D02*
X10585306Y-12500017D01*
X10585306Y-12500017D02*
X10709115Y-12500017D01*
X10937687Y-12566684D02*
X10937687Y-12366684D01*
X11023401Y-12566684D02*
X11023401Y-12461922D01*
X11023401Y-12461922D02*
X11013877Y-12442874D01*
X11013877Y-12442874D02*
X10994830Y-12433350D01*
X10994830Y-12433350D02*
X10966258Y-12433350D01*
X10966258Y-12433350D02*
X10947211Y-12442874D01*
X10947211Y-12442874D02*
X10937687Y-12452398D01*
X11147211Y-12566684D02*
X11128163Y-12557160D01*
X11128163Y-12557160D02*
X11118639Y-12547636D01*
X11118639Y-12547636D02*
X11109115Y-12528588D01*
X11109115Y-12528588D02*
X11109115Y-12471446D01*
X11109115Y-12471446D02*
X11118639Y-12452398D01*
X11118639Y-12452398D02*
X11128163Y-12442874D01*
X11128163Y-12442874D02*
X11147211Y-12433350D01*
X11147211Y-12433350D02*
X11175782Y-12433350D01*
X11175782Y-12433350D02*
X11194830Y-12442874D01*
X11194830Y-12442874D02*
X11204353Y-12452398D01*
X11204353Y-12452398D02*
X11213877Y-12471446D01*
X11213877Y-12471446D02*
X11213877Y-12528588D01*
X11213877Y-12528588D02*
X11204353Y-12547636D01*
X11204353Y-12547636D02*
X11194830Y-12557160D01*
X11194830Y-12557160D02*
X11175782Y-12566684D01*
X11175782Y-12566684D02*
X11147211Y-12566684D01*
X11328163Y-12566684D02*
X11309115Y-12557160D01*
X11309115Y-12557160D02*
X11299591Y-12538112D01*
X11299591Y-12538112D02*
X11299591Y-12366684D01*
X11480544Y-12557160D02*
X11461496Y-12566684D01*
X11461496Y-12566684D02*
X11423401Y-12566684D01*
X11423401Y-12566684D02*
X11404353Y-12557160D01*
X11404353Y-12557160D02*
X11394830Y-12538112D01*
X11394830Y-12538112D02*
X11394830Y-12461922D01*
X11394830Y-12461922D02*
X11404353Y-12442874D01*
X11404353Y-12442874D02*
X11423401Y-12433350D01*
X11423401Y-12433350D02*
X11461496Y-12433350D01*
X11461496Y-12433350D02*
X11480544Y-12442874D01*
X11480544Y-12442874D02*
X11490068Y-12461922D01*
X11490068Y-12461922D02*
X11490068Y-12480969D01*
X11490068Y-12480969D02*
X11394830Y-12500017D01*
X11566258Y-12557160D02*
X11585306Y-12566684D01*
X11585306Y-12566684D02*
X11623401Y-12566684D01*
X11623401Y-12566684D02*
X11642449Y-12557160D01*
X11642449Y-12557160D02*
X11651972Y-12538112D01*
X11651972Y-12538112D02*
X11651972Y-12528588D01*
X11651972Y-12528588D02*
X11642449Y-12509541D01*
X11642449Y-12509541D02*
X11623401Y-12500017D01*
X11623401Y-12500017D02*
X11594830Y-12500017D01*
X11594830Y-12500017D02*
X11575782Y-12490493D01*
X11575782Y-12490493D02*
X11566258Y-12471446D01*
X11566258Y-12471446D02*
X11566258Y-12461922D01*
X11566258Y-12461922D02*
X11575782Y-12442874D01*
X11575782Y-12442874D02*
X11594830Y-12433350D01*
X11594830Y-12433350D02*
X11623401Y-12433350D01*
X11623401Y-12433350D02*
X11642449Y-12442874D01*
X11718639Y-12642874D02*
X11728163Y-12633350D01*
X11728163Y-12633350D02*
X11747211Y-12604779D01*
X11747211Y-12604779D02*
X11756734Y-12585731D01*
X11756734Y-12585731D02*
X11766258Y-12557160D01*
X11766258Y-12557160D02*
X11775782Y-12509541D01*
X11775782Y-12509541D02*
X11775782Y-12471446D01*
X11775782Y-12471446D02*
X11766258Y-12423827D01*
X11766258Y-12423827D02*
X11756734Y-12395255D01*
X11756734Y-12395255D02*
X11747211Y-12376208D01*
X11747211Y-12376208D02*
X11728163Y-12347636D01*
X11728163Y-12347636D02*
X11718639Y-12338112D01*
D16*
X6643100Y-12684200D02*
X6753100Y-12794200D01*
X6753100Y-12684200D02*
X6643100Y-12794200D01*
X6753100Y-12739200D02*
G75*
G03*
X6753100Y-12739200I-55000J0D01*
G01*
D11*
X7118639Y-12830684D02*
X7004353Y-12830684D01*
X7061496Y-12830684D02*
X7061496Y-12630684D01*
X7061496Y-12630684D02*
X7042448Y-12659255D01*
X7042448Y-12659255D02*
X7023401Y-12678303D01*
X7023401Y-12678303D02*
X7004353Y-12687827D01*
X7204353Y-12811636D02*
X7213877Y-12821160D01*
X7213877Y-12821160D02*
X7204353Y-12830684D01*
X7204353Y-12830684D02*
X7194829Y-12821160D01*
X7194829Y-12821160D02*
X7204353Y-12811636D01*
X7204353Y-12811636D02*
X7204353Y-12830684D01*
X7404353Y-12830684D02*
X7290067Y-12830684D01*
X7347210Y-12830684D02*
X7347210Y-12630684D01*
X7347210Y-12630684D02*
X7328162Y-12659255D01*
X7328162Y-12659255D02*
X7309115Y-12678303D01*
X7309115Y-12678303D02*
X7290067Y-12687827D01*
X7528162Y-12630684D02*
X7547210Y-12630684D01*
X7547210Y-12630684D02*
X7566258Y-12640208D01*
X7566258Y-12640208D02*
X7575782Y-12649731D01*
X7575782Y-12649731D02*
X7585305Y-12668779D01*
X7585305Y-12668779D02*
X7594829Y-12706874D01*
X7594829Y-12706874D02*
X7594829Y-12754493D01*
X7594829Y-12754493D02*
X7585305Y-12792588D01*
X7585305Y-12792588D02*
X7575782Y-12811636D01*
X7575782Y-12811636D02*
X7566258Y-12821160D01*
X7566258Y-12821160D02*
X7547210Y-12830684D01*
X7547210Y-12830684D02*
X7528162Y-12830684D01*
X7528162Y-12830684D02*
X7509115Y-12821160D01*
X7509115Y-12821160D02*
X7499591Y-12811636D01*
X7499591Y-12811636D02*
X7490067Y-12792588D01*
X7490067Y-12792588D02*
X7480543Y-12754493D01*
X7480543Y-12754493D02*
X7480543Y-12706874D01*
X7480543Y-12706874D02*
X7490067Y-12668779D01*
X7490067Y-12668779D02*
X7499591Y-12649731D01*
X7499591Y-12649731D02*
X7509115Y-12640208D01*
X7509115Y-12640208D02*
X7528162Y-12630684D01*
X7718639Y-12630684D02*
X7737686Y-12630684D01*
X7737686Y-12630684D02*
X7756734Y-12640208D01*
X7756734Y-12640208D02*
X7766258Y-12649731D01*
X7766258Y-12649731D02*
X7775782Y-12668779D01*
X7775782Y-12668779D02*
X7785305Y-12706874D01*
X7785305Y-12706874D02*
X7785305Y-12754493D01*
X7785305Y-12754493D02*
X7775782Y-12792588D01*
X7775782Y-12792588D02*
X7766258Y-12811636D01*
X7766258Y-12811636D02*
X7756734Y-12821160D01*
X7756734Y-12821160D02*
X7737686Y-12830684D01*
X7737686Y-12830684D02*
X7718639Y-12830684D01*
X7718639Y-12830684D02*
X7699591Y-12821160D01*
X7699591Y-12821160D02*
X7690067Y-12811636D01*
X7690067Y-12811636D02*
X7680543Y-12792588D01*
X7680543Y-12792588D02*
X7671020Y-12754493D01*
X7671020Y-12754493D02*
X7671020Y-12706874D01*
X7671020Y-12706874D02*
X7680543Y-12668779D01*
X7680543Y-12668779D02*
X7690067Y-12649731D01*
X7690067Y-12649731D02*
X7699591Y-12640208D01*
X7699591Y-12640208D02*
X7718639Y-12630684D01*
X7871020Y-12830684D02*
X7871020Y-12697350D01*
X7871020Y-12716398D02*
X7880543Y-12706874D01*
X7880543Y-12706874D02*
X7899591Y-12697350D01*
X7899591Y-12697350D02*
X7928163Y-12697350D01*
X7928163Y-12697350D02*
X7947210Y-12706874D01*
X7947210Y-12706874D02*
X7956734Y-12725922D01*
X7956734Y-12725922D02*
X7956734Y-12830684D01*
X7956734Y-12725922D02*
X7966258Y-12706874D01*
X7966258Y-12706874D02*
X7985305Y-12697350D01*
X7985305Y-12697350D02*
X8013877Y-12697350D01*
X8013877Y-12697350D02*
X8032924Y-12706874D01*
X8032924Y-12706874D02*
X8042448Y-12725922D01*
X8042448Y-12725922D02*
X8042448Y-12830684D01*
X8137686Y-12830684D02*
X8137686Y-12697350D01*
X8137686Y-12716398D02*
X8147210Y-12706874D01*
X8147210Y-12706874D02*
X8166258Y-12697350D01*
X8166258Y-12697350D02*
X8194829Y-12697350D01*
X8194829Y-12697350D02*
X8213877Y-12706874D01*
X8213877Y-12706874D02*
X8223401Y-12725922D01*
X8223401Y-12725922D02*
X8223401Y-12830684D01*
X8223401Y-12725922D02*
X8232924Y-12706874D01*
X8232924Y-12706874D02*
X8251972Y-12697350D01*
X8251972Y-12697350D02*
X8280543Y-12697350D01*
X8280543Y-12697350D02*
X8299591Y-12706874D01*
X8299591Y-12706874D02*
X8309115Y-12725922D01*
X8309115Y-12725922D02*
X8309115Y-12830684D01*
X8699591Y-12621160D02*
X8528163Y-12878303D01*
X8956734Y-12630684D02*
X8975782Y-12630684D01*
X8975782Y-12630684D02*
X8994829Y-12640208D01*
X8994829Y-12640208D02*
X9004353Y-12649731D01*
X9004353Y-12649731D02*
X9013877Y-12668779D01*
X9013877Y-12668779D02*
X9023401Y-12706874D01*
X9023401Y-12706874D02*
X9023401Y-12754493D01*
X9023401Y-12754493D02*
X9013877Y-12792588D01*
X9013877Y-12792588D02*
X9004353Y-12811636D01*
X9004353Y-12811636D02*
X8994829Y-12821160D01*
X8994829Y-12821160D02*
X8975782Y-12830684D01*
X8975782Y-12830684D02*
X8956734Y-12830684D01*
X8956734Y-12830684D02*
X8937687Y-12821160D01*
X8937687Y-12821160D02*
X8928163Y-12811636D01*
X8928163Y-12811636D02*
X8918639Y-12792588D01*
X8918639Y-12792588D02*
X8909115Y-12754493D01*
X8909115Y-12754493D02*
X8909115Y-12706874D01*
X8909115Y-12706874D02*
X8918639Y-12668779D01*
X8918639Y-12668779D02*
X8928163Y-12649731D01*
X8928163Y-12649731D02*
X8937687Y-12640208D01*
X8937687Y-12640208D02*
X8956734Y-12630684D01*
X9109115Y-12811636D02*
X9118639Y-12821160D01*
X9118639Y-12821160D02*
X9109115Y-12830684D01*
X9109115Y-12830684D02*
X9099591Y-12821160D01*
X9099591Y-12821160D02*
X9109115Y-12811636D01*
X9109115Y-12811636D02*
X9109115Y-12830684D01*
X9242448Y-12630684D02*
X9261496Y-12630684D01*
X9261496Y-12630684D02*
X9280544Y-12640208D01*
X9280544Y-12640208D02*
X9290068Y-12649731D01*
X9290068Y-12649731D02*
X9299591Y-12668779D01*
X9299591Y-12668779D02*
X9309115Y-12706874D01*
X9309115Y-12706874D02*
X9309115Y-12754493D01*
X9309115Y-12754493D02*
X9299591Y-12792588D01*
X9299591Y-12792588D02*
X9290068Y-12811636D01*
X9290068Y-12811636D02*
X9280544Y-12821160D01*
X9280544Y-12821160D02*
X9261496Y-12830684D01*
X9261496Y-12830684D02*
X9242448Y-12830684D01*
X9242448Y-12830684D02*
X9223401Y-12821160D01*
X9223401Y-12821160D02*
X9213877Y-12811636D01*
X9213877Y-12811636D02*
X9204353Y-12792588D01*
X9204353Y-12792588D02*
X9194829Y-12754493D01*
X9194829Y-12754493D02*
X9194829Y-12706874D01*
X9194829Y-12706874D02*
X9204353Y-12668779D01*
X9204353Y-12668779D02*
X9213877Y-12649731D01*
X9213877Y-12649731D02*
X9223401Y-12640208D01*
X9223401Y-12640208D02*
X9242448Y-12630684D01*
X9480544Y-12697350D02*
X9480544Y-12830684D01*
X9432925Y-12621160D02*
X9385306Y-12764017D01*
X9385306Y-12764017D02*
X9509115Y-12764017D01*
X9566258Y-12630684D02*
X9690068Y-12630684D01*
X9690068Y-12630684D02*
X9623401Y-12706874D01*
X9623401Y-12706874D02*
X9651972Y-12706874D01*
X9651972Y-12706874D02*
X9671020Y-12716398D01*
X9671020Y-12716398D02*
X9680544Y-12725922D01*
X9680544Y-12725922D02*
X9690068Y-12744969D01*
X9690068Y-12744969D02*
X9690068Y-12792588D01*
X9690068Y-12792588D02*
X9680544Y-12811636D01*
X9680544Y-12811636D02*
X9671020Y-12821160D01*
X9671020Y-12821160D02*
X9651972Y-12830684D01*
X9651972Y-12830684D02*
X9594829Y-12830684D01*
X9594829Y-12830684D02*
X9575782Y-12821160D01*
X9575782Y-12821160D02*
X9566258Y-12811636D01*
X9756734Y-12630684D02*
X9880544Y-12630684D01*
X9880544Y-12630684D02*
X9813877Y-12706874D01*
X9813877Y-12706874D02*
X9842449Y-12706874D01*
X9842449Y-12706874D02*
X9861496Y-12716398D01*
X9861496Y-12716398D02*
X9871020Y-12725922D01*
X9871020Y-12725922D02*
X9880544Y-12744969D01*
X9880544Y-12744969D02*
X9880544Y-12792588D01*
X9880544Y-12792588D02*
X9871020Y-12811636D01*
X9871020Y-12811636D02*
X9861496Y-12821160D01*
X9861496Y-12821160D02*
X9842449Y-12830684D01*
X9842449Y-12830684D02*
X9785306Y-12830684D01*
X9785306Y-12830684D02*
X9766258Y-12821160D01*
X9766258Y-12821160D02*
X9756734Y-12811636D01*
X9956734Y-12630684D02*
X9956734Y-12668779D01*
X10032925Y-12630684D02*
X10032925Y-12668779D01*
X10328163Y-12906874D02*
X10318639Y-12897350D01*
X10318639Y-12897350D02*
X10299591Y-12868779D01*
X10299591Y-12868779D02*
X10290068Y-12849731D01*
X10290068Y-12849731D02*
X10280544Y-12821160D01*
X10280544Y-12821160D02*
X10271020Y-12773541D01*
X10271020Y-12773541D02*
X10271020Y-12735446D01*
X10271020Y-12735446D02*
X10280544Y-12687827D01*
X10280544Y-12687827D02*
X10290068Y-12659255D01*
X10290068Y-12659255D02*
X10299591Y-12640208D01*
X10299591Y-12640208D02*
X10318639Y-12611636D01*
X10318639Y-12611636D02*
X10328163Y-12602112D01*
X10509115Y-12830684D02*
X10394830Y-12830684D01*
X10451972Y-12830684D02*
X10451972Y-12630684D01*
X10451972Y-12630684D02*
X10432925Y-12659255D01*
X10432925Y-12659255D02*
X10413877Y-12678303D01*
X10413877Y-12678303D02*
X10394830Y-12687827D01*
X10690068Y-12630684D02*
X10594830Y-12630684D01*
X10594830Y-12630684D02*
X10585306Y-12725922D01*
X10585306Y-12725922D02*
X10594830Y-12716398D01*
X10594830Y-12716398D02*
X10613877Y-12706874D01*
X10613877Y-12706874D02*
X10661496Y-12706874D01*
X10661496Y-12706874D02*
X10680544Y-12716398D01*
X10680544Y-12716398D02*
X10690068Y-12725922D01*
X10690068Y-12725922D02*
X10699591Y-12744969D01*
X10699591Y-12744969D02*
X10699591Y-12792588D01*
X10699591Y-12792588D02*
X10690068Y-12811636D01*
X10690068Y-12811636D02*
X10680544Y-12821160D01*
X10680544Y-12821160D02*
X10661496Y-12830684D01*
X10661496Y-12830684D02*
X10613877Y-12830684D01*
X10613877Y-12830684D02*
X10594830Y-12821160D01*
X10594830Y-12821160D02*
X10585306Y-12811636D01*
X10937687Y-12830684D02*
X10937687Y-12630684D01*
X11023401Y-12830684D02*
X11023401Y-12725922D01*
X11023401Y-12725922D02*
X11013877Y-12706874D01*
X11013877Y-12706874D02*
X10994830Y-12697350D01*
X10994830Y-12697350D02*
X10966258Y-12697350D01*
X10966258Y-12697350D02*
X10947211Y-12706874D01*
X10947211Y-12706874D02*
X10937687Y-12716398D01*
X11147211Y-12830684D02*
X11128163Y-12821160D01*
X11128163Y-12821160D02*
X11118639Y-12811636D01*
X11118639Y-12811636D02*
X11109115Y-12792588D01*
X11109115Y-12792588D02*
X11109115Y-12735446D01*
X11109115Y-12735446D02*
X11118639Y-12716398D01*
X11118639Y-12716398D02*
X11128163Y-12706874D01*
X11128163Y-12706874D02*
X11147211Y-12697350D01*
X11147211Y-12697350D02*
X11175782Y-12697350D01*
X11175782Y-12697350D02*
X11194830Y-12706874D01*
X11194830Y-12706874D02*
X11204353Y-12716398D01*
X11204353Y-12716398D02*
X11213877Y-12735446D01*
X11213877Y-12735446D02*
X11213877Y-12792588D01*
X11213877Y-12792588D02*
X11204353Y-12811636D01*
X11204353Y-12811636D02*
X11194830Y-12821160D01*
X11194830Y-12821160D02*
X11175782Y-12830684D01*
X11175782Y-12830684D02*
X11147211Y-12830684D01*
X11328163Y-12830684D02*
X11309115Y-12821160D01*
X11309115Y-12821160D02*
X11299591Y-12802112D01*
X11299591Y-12802112D02*
X11299591Y-12630684D01*
X11480544Y-12821160D02*
X11461496Y-12830684D01*
X11461496Y-12830684D02*
X11423401Y-12830684D01*
X11423401Y-12830684D02*
X11404353Y-12821160D01*
X11404353Y-12821160D02*
X11394830Y-12802112D01*
X11394830Y-12802112D02*
X11394830Y-12725922D01*
X11394830Y-12725922D02*
X11404353Y-12706874D01*
X11404353Y-12706874D02*
X11423401Y-12697350D01*
X11423401Y-12697350D02*
X11461496Y-12697350D01*
X11461496Y-12697350D02*
X11480544Y-12706874D01*
X11480544Y-12706874D02*
X11490068Y-12725922D01*
X11490068Y-12725922D02*
X11490068Y-12744969D01*
X11490068Y-12744969D02*
X11394830Y-12764017D01*
X11566258Y-12821160D02*
X11585306Y-12830684D01*
X11585306Y-12830684D02*
X11623401Y-12830684D01*
X11623401Y-12830684D02*
X11642449Y-12821160D01*
X11642449Y-12821160D02*
X11651972Y-12802112D01*
X11651972Y-12802112D02*
X11651972Y-12792588D01*
X11651972Y-12792588D02*
X11642449Y-12773541D01*
X11642449Y-12773541D02*
X11623401Y-12764017D01*
X11623401Y-12764017D02*
X11594830Y-12764017D01*
X11594830Y-12764017D02*
X11575782Y-12754493D01*
X11575782Y-12754493D02*
X11566258Y-12735446D01*
X11566258Y-12735446D02*
X11566258Y-12725922D01*
X11566258Y-12725922D02*
X11575782Y-12706874D01*
X11575782Y-12706874D02*
X11594830Y-12697350D01*
X11594830Y-12697350D02*
X11623401Y-12697350D01*
X11623401Y-12697350D02*
X11642449Y-12706874D01*
X11718639Y-12906874D02*
X11728163Y-12897350D01*
X11728163Y-12897350D02*
X11747211Y-12868779D01*
X11747211Y-12868779D02*
X11756734Y-12849731D01*
X11756734Y-12849731D02*
X11766258Y-12821160D01*
X11766258Y-12821160D02*
X11775782Y-12773541D01*
X11775782Y-12773541D02*
X11775782Y-12735446D01*
X11775782Y-12735446D02*
X11766258Y-12687827D01*
X11766258Y-12687827D02*
X11756734Y-12659255D01*
X11756734Y-12659255D02*
X11747211Y-12640208D01*
X11747211Y-12640208D02*
X11728163Y-12611636D01*
X11728163Y-12611636D02*
X11718639Y-12602112D01*
D17*
X6601100Y-12927200D02*
X6753100Y-13079200D01*
X6753100Y-12927200D02*
X6601100Y-13079200D01*
X6677100Y-12927200D02*
X6677100Y-13079200D01*
X6601100Y-13003200D02*
X6753100Y-13003200D01*
D11*
X7118639Y-13094684D02*
X7004353Y-13094684D01*
X7061496Y-13094684D02*
X7061496Y-12894684D01*
X7061496Y-12894684D02*
X7042448Y-12923255D01*
X7042448Y-12923255D02*
X7023401Y-12942303D01*
X7023401Y-12942303D02*
X7004353Y-12951827D01*
X7204353Y-13075636D02*
X7213877Y-13085160D01*
X7213877Y-13085160D02*
X7204353Y-13094684D01*
X7204353Y-13094684D02*
X7194829Y-13085160D01*
X7194829Y-13085160D02*
X7204353Y-13075636D01*
X7204353Y-13075636D02*
X7204353Y-13094684D01*
X7394829Y-12894684D02*
X7299591Y-12894684D01*
X7299591Y-12894684D02*
X7290067Y-12989922D01*
X7290067Y-12989922D02*
X7299591Y-12980398D01*
X7299591Y-12980398D02*
X7318639Y-12970874D01*
X7318639Y-12970874D02*
X7366258Y-12970874D01*
X7366258Y-12970874D02*
X7385305Y-12980398D01*
X7385305Y-12980398D02*
X7394829Y-12989922D01*
X7394829Y-12989922D02*
X7404353Y-13008969D01*
X7404353Y-13008969D02*
X7404353Y-13056588D01*
X7404353Y-13056588D02*
X7394829Y-13075636D01*
X7394829Y-13075636D02*
X7385305Y-13085160D01*
X7385305Y-13085160D02*
X7366258Y-13094684D01*
X7366258Y-13094684D02*
X7318639Y-13094684D01*
X7318639Y-13094684D02*
X7299591Y-13085160D01*
X7299591Y-13085160D02*
X7290067Y-13075636D01*
X7480543Y-12913731D02*
X7490067Y-12904208D01*
X7490067Y-12904208D02*
X7509115Y-12894684D01*
X7509115Y-12894684D02*
X7556734Y-12894684D01*
X7556734Y-12894684D02*
X7575782Y-12904208D01*
X7575782Y-12904208D02*
X7585305Y-12913731D01*
X7585305Y-12913731D02*
X7594829Y-12932779D01*
X7594829Y-12932779D02*
X7594829Y-12951827D01*
X7594829Y-12951827D02*
X7585305Y-12980398D01*
X7585305Y-12980398D02*
X7471020Y-13094684D01*
X7471020Y-13094684D02*
X7594829Y-13094684D01*
X7718639Y-12894684D02*
X7737686Y-12894684D01*
X7737686Y-12894684D02*
X7756734Y-12904208D01*
X7756734Y-12904208D02*
X7766258Y-12913731D01*
X7766258Y-12913731D02*
X7775782Y-12932779D01*
X7775782Y-12932779D02*
X7785305Y-12970874D01*
X7785305Y-12970874D02*
X7785305Y-13018493D01*
X7785305Y-13018493D02*
X7775782Y-13056588D01*
X7775782Y-13056588D02*
X7766258Y-13075636D01*
X7766258Y-13075636D02*
X7756734Y-13085160D01*
X7756734Y-13085160D02*
X7737686Y-13094684D01*
X7737686Y-13094684D02*
X7718639Y-13094684D01*
X7718639Y-13094684D02*
X7699591Y-13085160D01*
X7699591Y-13085160D02*
X7690067Y-13075636D01*
X7690067Y-13075636D02*
X7680543Y-13056588D01*
X7680543Y-13056588D02*
X7671020Y-13018493D01*
X7671020Y-13018493D02*
X7671020Y-12970874D01*
X7671020Y-12970874D02*
X7680543Y-12932779D01*
X7680543Y-12932779D02*
X7690067Y-12913731D01*
X7690067Y-12913731D02*
X7699591Y-12904208D01*
X7699591Y-12904208D02*
X7718639Y-12894684D01*
X7871020Y-13094684D02*
X7871020Y-12961350D01*
X7871020Y-12980398D02*
X7880543Y-12970874D01*
X7880543Y-12970874D02*
X7899591Y-12961350D01*
X7899591Y-12961350D02*
X7928163Y-12961350D01*
X7928163Y-12961350D02*
X7947210Y-12970874D01*
X7947210Y-12970874D02*
X7956734Y-12989922D01*
X7956734Y-12989922D02*
X7956734Y-13094684D01*
X7956734Y-12989922D02*
X7966258Y-12970874D01*
X7966258Y-12970874D02*
X7985305Y-12961350D01*
X7985305Y-12961350D02*
X8013877Y-12961350D01*
X8013877Y-12961350D02*
X8032924Y-12970874D01*
X8032924Y-12970874D02*
X8042448Y-12989922D01*
X8042448Y-12989922D02*
X8042448Y-13094684D01*
X8137686Y-13094684D02*
X8137686Y-12961350D01*
X8137686Y-12980398D02*
X8147210Y-12970874D01*
X8147210Y-12970874D02*
X8166258Y-12961350D01*
X8166258Y-12961350D02*
X8194829Y-12961350D01*
X8194829Y-12961350D02*
X8213877Y-12970874D01*
X8213877Y-12970874D02*
X8223401Y-12989922D01*
X8223401Y-12989922D02*
X8223401Y-13094684D01*
X8223401Y-12989922D02*
X8232924Y-12970874D01*
X8232924Y-12970874D02*
X8251972Y-12961350D01*
X8251972Y-12961350D02*
X8280543Y-12961350D01*
X8280543Y-12961350D02*
X8299591Y-12970874D01*
X8299591Y-12970874D02*
X8309115Y-12989922D01*
X8309115Y-12989922D02*
X8309115Y-13094684D01*
X8699591Y-12885160D02*
X8528163Y-13142303D01*
X8956734Y-12894684D02*
X8975782Y-12894684D01*
X8975782Y-12894684D02*
X8994829Y-12904208D01*
X8994829Y-12904208D02*
X9004353Y-12913731D01*
X9004353Y-12913731D02*
X9013877Y-12932779D01*
X9013877Y-12932779D02*
X9023401Y-12970874D01*
X9023401Y-12970874D02*
X9023401Y-13018493D01*
X9023401Y-13018493D02*
X9013877Y-13056588D01*
X9013877Y-13056588D02*
X9004353Y-13075636D01*
X9004353Y-13075636D02*
X8994829Y-13085160D01*
X8994829Y-13085160D02*
X8975782Y-13094684D01*
X8975782Y-13094684D02*
X8956734Y-13094684D01*
X8956734Y-13094684D02*
X8937687Y-13085160D01*
X8937687Y-13085160D02*
X8928163Y-13075636D01*
X8928163Y-13075636D02*
X8918639Y-13056588D01*
X8918639Y-13056588D02*
X8909115Y-13018493D01*
X8909115Y-13018493D02*
X8909115Y-12970874D01*
X8909115Y-12970874D02*
X8918639Y-12932779D01*
X8918639Y-12932779D02*
X8928163Y-12913731D01*
X8928163Y-12913731D02*
X8937687Y-12904208D01*
X8937687Y-12904208D02*
X8956734Y-12894684D01*
X9109115Y-13075636D02*
X9118639Y-13085160D01*
X9118639Y-13085160D02*
X9109115Y-13094684D01*
X9109115Y-13094684D02*
X9099591Y-13085160D01*
X9099591Y-13085160D02*
X9109115Y-13075636D01*
X9109115Y-13075636D02*
X9109115Y-13094684D01*
X9242448Y-12894684D02*
X9261496Y-12894684D01*
X9261496Y-12894684D02*
X9280544Y-12904208D01*
X9280544Y-12904208D02*
X9290068Y-12913731D01*
X9290068Y-12913731D02*
X9299591Y-12932779D01*
X9299591Y-12932779D02*
X9309115Y-12970874D01*
X9309115Y-12970874D02*
X9309115Y-13018493D01*
X9309115Y-13018493D02*
X9299591Y-13056588D01*
X9299591Y-13056588D02*
X9290068Y-13075636D01*
X9290068Y-13075636D02*
X9280544Y-13085160D01*
X9280544Y-13085160D02*
X9261496Y-13094684D01*
X9261496Y-13094684D02*
X9242448Y-13094684D01*
X9242448Y-13094684D02*
X9223401Y-13085160D01*
X9223401Y-13085160D02*
X9213877Y-13075636D01*
X9213877Y-13075636D02*
X9204353Y-13056588D01*
X9204353Y-13056588D02*
X9194829Y-13018493D01*
X9194829Y-13018493D02*
X9194829Y-12970874D01*
X9194829Y-12970874D02*
X9204353Y-12932779D01*
X9204353Y-12932779D02*
X9213877Y-12913731D01*
X9213877Y-12913731D02*
X9223401Y-12904208D01*
X9223401Y-12904208D02*
X9242448Y-12894684D01*
X9490068Y-12894684D02*
X9394829Y-12894684D01*
X9394829Y-12894684D02*
X9385306Y-12989922D01*
X9385306Y-12989922D02*
X9394829Y-12980398D01*
X9394829Y-12980398D02*
X9413877Y-12970874D01*
X9413877Y-12970874D02*
X9461496Y-12970874D01*
X9461496Y-12970874D02*
X9480544Y-12980398D01*
X9480544Y-12980398D02*
X9490068Y-12989922D01*
X9490068Y-12989922D02*
X9499591Y-13008969D01*
X9499591Y-13008969D02*
X9499591Y-13056588D01*
X9499591Y-13056588D02*
X9490068Y-13075636D01*
X9490068Y-13075636D02*
X9480544Y-13085160D01*
X9480544Y-13085160D02*
X9461496Y-13094684D01*
X9461496Y-13094684D02*
X9413877Y-13094684D01*
X9413877Y-13094684D02*
X9394829Y-13085160D01*
X9394829Y-13085160D02*
X9385306Y-13075636D01*
X9594829Y-13094684D02*
X9632925Y-13094684D01*
X9632925Y-13094684D02*
X9651972Y-13085160D01*
X9651972Y-13085160D02*
X9661496Y-13075636D01*
X9661496Y-13075636D02*
X9680544Y-13047065D01*
X9680544Y-13047065D02*
X9690068Y-13008969D01*
X9690068Y-13008969D02*
X9690068Y-12932779D01*
X9690068Y-12932779D02*
X9680544Y-12913731D01*
X9680544Y-12913731D02*
X9671020Y-12904208D01*
X9671020Y-12904208D02*
X9651972Y-12894684D01*
X9651972Y-12894684D02*
X9613877Y-12894684D01*
X9613877Y-12894684D02*
X9594829Y-12904208D01*
X9594829Y-12904208D02*
X9585306Y-12913731D01*
X9585306Y-12913731D02*
X9575782Y-12932779D01*
X9575782Y-12932779D02*
X9575782Y-12980398D01*
X9575782Y-12980398D02*
X9585306Y-12999446D01*
X9585306Y-12999446D02*
X9594829Y-13008969D01*
X9594829Y-13008969D02*
X9613877Y-13018493D01*
X9613877Y-13018493D02*
X9651972Y-13018493D01*
X9651972Y-13018493D02*
X9671020Y-13008969D01*
X9671020Y-13008969D02*
X9680544Y-12999446D01*
X9680544Y-12999446D02*
X9690068Y-12980398D01*
X9804353Y-12980398D02*
X9785306Y-12970874D01*
X9785306Y-12970874D02*
X9775782Y-12961350D01*
X9775782Y-12961350D02*
X9766258Y-12942303D01*
X9766258Y-12942303D02*
X9766258Y-12932779D01*
X9766258Y-12932779D02*
X9775782Y-12913731D01*
X9775782Y-12913731D02*
X9785306Y-12904208D01*
X9785306Y-12904208D02*
X9804353Y-12894684D01*
X9804353Y-12894684D02*
X9842449Y-12894684D01*
X9842449Y-12894684D02*
X9861496Y-12904208D01*
X9861496Y-12904208D02*
X9871020Y-12913731D01*
X9871020Y-12913731D02*
X9880544Y-12932779D01*
X9880544Y-12932779D02*
X9880544Y-12942303D01*
X9880544Y-12942303D02*
X9871020Y-12961350D01*
X9871020Y-12961350D02*
X9861496Y-12970874D01*
X9861496Y-12970874D02*
X9842449Y-12980398D01*
X9842449Y-12980398D02*
X9804353Y-12980398D01*
X9804353Y-12980398D02*
X9785306Y-12989922D01*
X9785306Y-12989922D02*
X9775782Y-12999446D01*
X9775782Y-12999446D02*
X9766258Y-13018493D01*
X9766258Y-13018493D02*
X9766258Y-13056588D01*
X9766258Y-13056588D02*
X9775782Y-13075636D01*
X9775782Y-13075636D02*
X9785306Y-13085160D01*
X9785306Y-13085160D02*
X9804353Y-13094684D01*
X9804353Y-13094684D02*
X9842449Y-13094684D01*
X9842449Y-13094684D02*
X9861496Y-13085160D01*
X9861496Y-13085160D02*
X9871020Y-13075636D01*
X9871020Y-13075636D02*
X9880544Y-13056588D01*
X9880544Y-13056588D02*
X9880544Y-13018493D01*
X9880544Y-13018493D02*
X9871020Y-12999446D01*
X9871020Y-12999446D02*
X9861496Y-12989922D01*
X9861496Y-12989922D02*
X9842449Y-12980398D01*
X9956734Y-12894684D02*
X9956734Y-12932779D01*
X10032925Y-12894684D02*
X10032925Y-12932779D01*
X10328163Y-13170874D02*
X10318639Y-13161350D01*
X10318639Y-13161350D02*
X10299591Y-13132779D01*
X10299591Y-13132779D02*
X10290068Y-13113731D01*
X10290068Y-13113731D02*
X10280544Y-13085160D01*
X10280544Y-13085160D02*
X10271020Y-13037541D01*
X10271020Y-13037541D02*
X10271020Y-12999446D01*
X10271020Y-12999446D02*
X10280544Y-12951827D01*
X10280544Y-12951827D02*
X10290068Y-12923255D01*
X10290068Y-12923255D02*
X10299591Y-12904208D01*
X10299591Y-12904208D02*
X10318639Y-12875636D01*
X10318639Y-12875636D02*
X10328163Y-12866112D01*
X10394830Y-12913731D02*
X10404353Y-12904208D01*
X10404353Y-12904208D02*
X10423401Y-12894684D01*
X10423401Y-12894684D02*
X10471020Y-12894684D01*
X10471020Y-12894684D02*
X10490068Y-12904208D01*
X10490068Y-12904208D02*
X10499591Y-12913731D01*
X10499591Y-12913731D02*
X10509115Y-12932779D01*
X10509115Y-12932779D02*
X10509115Y-12951827D01*
X10509115Y-12951827D02*
X10499591Y-12980398D01*
X10499591Y-12980398D02*
X10385306Y-13094684D01*
X10385306Y-13094684D02*
X10509115Y-13094684D01*
X10747211Y-13094684D02*
X10747211Y-12894684D01*
X10832925Y-13094684D02*
X10832925Y-12989922D01*
X10832925Y-12989922D02*
X10823401Y-12970874D01*
X10823401Y-12970874D02*
X10804353Y-12961350D01*
X10804353Y-12961350D02*
X10775782Y-12961350D01*
X10775782Y-12961350D02*
X10756734Y-12970874D01*
X10756734Y-12970874D02*
X10747211Y-12980398D01*
X10956734Y-13094684D02*
X10937687Y-13085160D01*
X10937687Y-13085160D02*
X10928163Y-13075636D01*
X10928163Y-13075636D02*
X10918639Y-13056588D01*
X10918639Y-13056588D02*
X10918639Y-12999446D01*
X10918639Y-12999446D02*
X10928163Y-12980398D01*
X10928163Y-12980398D02*
X10937687Y-12970874D01*
X10937687Y-12970874D02*
X10956734Y-12961350D01*
X10956734Y-12961350D02*
X10985306Y-12961350D01*
X10985306Y-12961350D02*
X11004353Y-12970874D01*
X11004353Y-12970874D02*
X11013877Y-12980398D01*
X11013877Y-12980398D02*
X11023401Y-12999446D01*
X11023401Y-12999446D02*
X11023401Y-13056588D01*
X11023401Y-13056588D02*
X11013877Y-13075636D01*
X11013877Y-13075636D02*
X11004353Y-13085160D01*
X11004353Y-13085160D02*
X10985306Y-13094684D01*
X10985306Y-13094684D02*
X10956734Y-13094684D01*
X11137687Y-13094684D02*
X11118639Y-13085160D01*
X11118639Y-13085160D02*
X11109115Y-13066112D01*
X11109115Y-13066112D02*
X11109115Y-12894684D01*
X11290068Y-13085160D02*
X11271020Y-13094684D01*
X11271020Y-13094684D02*
X11232925Y-13094684D01*
X11232925Y-13094684D02*
X11213877Y-13085160D01*
X11213877Y-13085160D02*
X11204353Y-13066112D01*
X11204353Y-13066112D02*
X11204353Y-12989922D01*
X11204353Y-12989922D02*
X11213877Y-12970874D01*
X11213877Y-12970874D02*
X11232925Y-12961350D01*
X11232925Y-12961350D02*
X11271020Y-12961350D01*
X11271020Y-12961350D02*
X11290068Y-12970874D01*
X11290068Y-12970874D02*
X11299591Y-12989922D01*
X11299591Y-12989922D02*
X11299591Y-13008969D01*
X11299591Y-13008969D02*
X11204353Y-13028017D01*
X11375782Y-13085160D02*
X11394830Y-13094684D01*
X11394830Y-13094684D02*
X11432925Y-13094684D01*
X11432925Y-13094684D02*
X11451972Y-13085160D01*
X11451972Y-13085160D02*
X11461496Y-13066112D01*
X11461496Y-13066112D02*
X11461496Y-13056588D01*
X11461496Y-13056588D02*
X11451972Y-13037541D01*
X11451972Y-13037541D02*
X11432925Y-13028017D01*
X11432925Y-13028017D02*
X11404353Y-13028017D01*
X11404353Y-13028017D02*
X11385306Y-13018493D01*
X11385306Y-13018493D02*
X11375782Y-12999446D01*
X11375782Y-12999446D02*
X11375782Y-12989922D01*
X11375782Y-12989922D02*
X11385306Y-12970874D01*
X11385306Y-12970874D02*
X11404353Y-12961350D01*
X11404353Y-12961350D02*
X11432925Y-12961350D01*
X11432925Y-12961350D02*
X11451972Y-12970874D01*
X11528163Y-13170874D02*
X11537687Y-13161350D01*
X11537687Y-13161350D02*
X11556734Y-13132779D01*
X11556734Y-13132779D02*
X11566258Y-13113731D01*
X11566258Y-13113731D02*
X11575782Y-13085160D01*
X11575782Y-13085160D02*
X11585306Y-13037541D01*
X11585306Y-13037541D02*
X11585306Y-12999446D01*
X11585306Y-12999446D02*
X11575782Y-12951827D01*
X11575782Y-12951827D02*
X11566258Y-12923255D01*
X11566258Y-12923255D02*
X11556734Y-12904208D01*
X11556734Y-12904208D02*
X11537687Y-12875636D01*
X11537687Y-12875636D02*
X11528163Y-12866112D01*
M02*
