%TF.GenerationSoftware,KiCad,Pcbnew,7.0.5-7.0.5~ubuntu23.04.1*%
%TF.CreationDate,2023-07-09T19:19:44+02:00*%
%TF.ProjectId,omega-pico,6f6d6567-612d-4706-9963-6f2e6b696361,rev?*%
%TF.SameCoordinates,Original*%
%TF.FileFunction,Copper,L1,Top*%
%TF.FilePolarity,Positive*%
%FSLAX46Y46*%
G04 Gerber Fmt 4.6, Leading zero omitted, Abs format (unit mm)*
G04 Created by KiCad (PCBNEW 7.0.5-7.0.5~ubuntu23.04.1) date 2023-07-09 19:19:44*
%MOMM*%
%LPD*%
G01*
G04 APERTURE LIST*
G04 Aperture macros list*
%AMRoundRect*
0 Rectangle with rounded corners*
0 $1 Rounding radius*
0 $2 $3 $4 $5 $6 $7 $8 $9 X,Y pos of 4 corners*
0 Add a 4 corners polygon primitive as box body*
4,1,4,$2,$3,$4,$5,$6,$7,$8,$9,$2,$3,0*
0 Add four circle primitives for the rounded corners*
1,1,$1+$1,$2,$3*
1,1,$1+$1,$4,$5*
1,1,$1+$1,$6,$7*
1,1,$1+$1,$8,$9*
0 Add four rect primitives between the rounded corners*
20,1,$1+$1,$2,$3,$4,$5,0*
20,1,$1+$1,$4,$5,$6,$7,0*
20,1,$1+$1,$6,$7,$8,$9,0*
20,1,$1+$1,$8,$9,$2,$3,0*%
G04 Aperture macros list end*
%ADD10C,0.300000*%
%TA.AperFunction,NonConductor*%
%ADD11C,0.300000*%
%TD*%
%TA.AperFunction,NonConductor*%
%ADD12C,0.200000*%
%TD*%
%TA.AperFunction,SMDPad,CuDef*%
%ADD13RoundRect,0.250000X-0.625000X0.312500X-0.625000X-0.312500X0.625000X-0.312500X0.625000X0.312500X0*%
%TD*%
%TA.AperFunction,ComponentPad*%
%ADD14C,1.440000*%
%TD*%
%TA.AperFunction,SMDPad,CuDef*%
%ADD15R,1.400000X0.450000*%
%TD*%
%TA.AperFunction,SMDPad,CuDef*%
%ADD16R,1.890000X1.570000*%
%TD*%
%TA.AperFunction,ComponentPad*%
%ADD17O,1.700000X1.700000*%
%TD*%
%TA.AperFunction,ComponentPad*%
%ADD18R,1.700000X1.700000*%
%TD*%
%TA.AperFunction,ComponentPad*%
%ADD19R,2.000000X2.000000*%
%TD*%
%TA.AperFunction,ComponentPad*%
%ADD20O,2.000000X2.000000*%
%TD*%
%TA.AperFunction,SMDPad,CuDef*%
%ADD21RoundRect,0.250000X0.250000X0.475000X-0.250000X0.475000X-0.250000X-0.475000X0.250000X-0.475000X0*%
%TD*%
%TA.AperFunction,SMDPad,CuDef*%
%ADD22RoundRect,0.225000X0.225000X0.250000X-0.225000X0.250000X-0.225000X-0.250000X0.225000X-0.250000X0*%
%TD*%
%TA.AperFunction,ComponentPad*%
%ADD23R,2.000000X1.905000*%
%TD*%
%TA.AperFunction,ComponentPad*%
%ADD24O,2.000000X1.905000*%
%TD*%
%TA.AperFunction,SMDPad,CuDef*%
%ADD25RoundRect,0.150000X-0.587500X-0.150000X0.587500X-0.150000X0.587500X0.150000X-0.587500X0.150000X0*%
%TD*%
%TA.AperFunction,SMDPad,CuDef*%
%ADD26RoundRect,0.200000X-0.200000X-0.275000X0.200000X-0.275000X0.200000X0.275000X-0.200000X0.275000X0*%
%TD*%
%TA.AperFunction,ComponentPad*%
%ADD27R,3.000000X3.000000*%
%TD*%
%TA.AperFunction,ComponentPad*%
%ADD28C,3.000000*%
%TD*%
%TA.AperFunction,ComponentPad*%
%ADD29C,1.600000*%
%TD*%
%TA.AperFunction,ComponentPad*%
%ADD30O,1.600000X1.600000*%
%TD*%
%TA.AperFunction,SMDPad,CuDef*%
%ADD31RoundRect,0.200000X0.275000X-0.200000X0.275000X0.200000X-0.275000X0.200000X-0.275000X-0.200000X0*%
%TD*%
%TA.AperFunction,SMDPad,CuDef*%
%ADD32RoundRect,0.150000X0.150000X-0.587500X0.150000X0.587500X-0.150000X0.587500X-0.150000X-0.587500X0*%
%TD*%
%TA.AperFunction,SMDPad,CuDef*%
%ADD33RoundRect,0.225000X-0.250000X0.225000X-0.250000X-0.225000X0.250000X-0.225000X0.250000X0.225000X0*%
%TD*%
%TA.AperFunction,SMDPad,CuDef*%
%ADD34RoundRect,0.243750X0.456250X-0.243750X0.456250X0.243750X-0.456250X0.243750X-0.456250X-0.243750X0*%
%TD*%
%TA.AperFunction,SMDPad,CuDef*%
%ADD35RoundRect,0.150000X0.725000X0.150000X-0.725000X0.150000X-0.725000X-0.150000X0.725000X-0.150000X0*%
%TD*%
%TA.AperFunction,SMDPad,CuDef*%
%ADD36RoundRect,0.225000X-0.225000X-0.250000X0.225000X-0.250000X0.225000X0.250000X-0.225000X0.250000X0*%
%TD*%
%TA.AperFunction,ComponentPad*%
%ADD37R,1.600000X1.600000*%
%TD*%
%TA.AperFunction,SMDPad,CuDef*%
%ADD38RoundRect,0.150000X-0.725000X-0.150000X0.725000X-0.150000X0.725000X0.150000X-0.725000X0.150000X0*%
%TD*%
%TA.AperFunction,SMDPad,CuDef*%
%ADD39RoundRect,0.150000X0.150000X-0.825000X0.150000X0.825000X-0.150000X0.825000X-0.150000X-0.825000X0*%
%TD*%
%TA.AperFunction,SMDPad,CuDef*%
%ADD40RoundRect,0.200000X0.200000X0.275000X-0.200000X0.275000X-0.200000X-0.275000X0.200000X-0.275000X0*%
%TD*%
%TA.AperFunction,SMDPad,CuDef*%
%ADD41RoundRect,0.250000X-0.475000X0.250000X-0.475000X-0.250000X0.475000X-0.250000X0.475000X0.250000X0*%
%TD*%
%TA.AperFunction,SMDPad,CuDef*%
%ADD42RoundRect,0.225000X0.250000X-0.225000X0.250000X0.225000X-0.250000X0.225000X-0.250000X-0.225000X0*%
%TD*%
%TA.AperFunction,ComponentPad*%
%ADD43R,1.905000X2.000000*%
%TD*%
%TA.AperFunction,ComponentPad*%
%ADD44O,1.905000X2.000000*%
%TD*%
%TA.AperFunction,SMDPad,CuDef*%
%ADD45RoundRect,0.250000X-0.250000X-0.475000X0.250000X-0.475000X0.250000X0.475000X-0.250000X0.475000X0*%
%TD*%
%TA.AperFunction,SMDPad,CuDef*%
%ADD46RoundRect,0.175000X0.275000X0.175000X-0.275000X0.175000X-0.275000X-0.175000X0.275000X-0.175000X0*%
%TD*%
%TA.AperFunction,SMDPad,CuDef*%
%ADD47RoundRect,0.250000X0.475000X-0.250000X0.475000X0.250000X-0.475000X0.250000X-0.475000X-0.250000X0*%
%TD*%
%TA.AperFunction,SMDPad,CuDef*%
%ADD48R,0.450000X0.400000*%
%TD*%
%TA.AperFunction,SMDPad,CuDef*%
%ADD49R,0.450000X0.500000*%
%TD*%
%TA.AperFunction,SMDPad,CuDef*%
%ADD50RoundRect,0.243750X-0.456250X0.243750X-0.456250X-0.243750X0.456250X-0.243750X0.456250X0.243750X0*%
%TD*%
%TA.AperFunction,ViaPad*%
%ADD51C,0.800000*%
%TD*%
%TA.AperFunction,ViaPad*%
%ADD52C,0.500000*%
%TD*%
%TA.AperFunction,Conductor*%
%ADD53C,0.500000*%
%TD*%
%TA.AperFunction,Conductor*%
%ADD54C,0.350000*%
%TD*%
%TA.AperFunction,Conductor*%
%ADD55C,0.750000*%
%TD*%
%TA.AperFunction,Conductor*%
%ADD56C,1.000000*%
%TD*%
%TA.AperFunction,Conductor*%
%ADD57C,0.800000*%
%TD*%
%TA.AperFunction,Conductor*%
%ADD58C,0.250000*%
%TD*%
G04 APERTURE END LIST*
D10*
D11*
X202448928Y-81956284D02*
X203448928Y-81956284D01*
X201877500Y-82313426D02*
X202948928Y-82670569D01*
X202948928Y-82670569D02*
X202948928Y-81741998D01*
X201948928Y-80884855D02*
X201948928Y-80741998D01*
X201948928Y-80741998D02*
X202020357Y-80599141D01*
X202020357Y-80599141D02*
X202091785Y-80527713D01*
X202091785Y-80527713D02*
X202234642Y-80456284D01*
X202234642Y-80456284D02*
X202520357Y-80384855D01*
X202520357Y-80384855D02*
X202877500Y-80384855D01*
X202877500Y-80384855D02*
X203163214Y-80456284D01*
X203163214Y-80456284D02*
X203306071Y-80527713D01*
X203306071Y-80527713D02*
X203377500Y-80599141D01*
X203377500Y-80599141D02*
X203448928Y-80741998D01*
X203448928Y-80741998D02*
X203448928Y-80884855D01*
X203448928Y-80884855D02*
X203377500Y-81027713D01*
X203377500Y-81027713D02*
X203306071Y-81099141D01*
X203306071Y-81099141D02*
X203163214Y-81170570D01*
X203163214Y-81170570D02*
X202877500Y-81241998D01*
X202877500Y-81241998D02*
X202520357Y-81241998D01*
X202520357Y-81241998D02*
X202234642Y-81170570D01*
X202234642Y-81170570D02*
X202091785Y-81099141D01*
X202091785Y-81099141D02*
X202020357Y-81027713D01*
X202020357Y-81027713D02*
X201948928Y-80884855D01*
X203306071Y-79741999D02*
X203377500Y-79670570D01*
X203377500Y-79670570D02*
X203448928Y-79741999D01*
X203448928Y-79741999D02*
X203377500Y-79813427D01*
X203377500Y-79813427D02*
X203306071Y-79741999D01*
X203306071Y-79741999D02*
X203448928Y-79741999D01*
X201948928Y-78741998D02*
X201948928Y-78599141D01*
X201948928Y-78599141D02*
X202020357Y-78456284D01*
X202020357Y-78456284D02*
X202091785Y-78384856D01*
X202091785Y-78384856D02*
X202234642Y-78313427D01*
X202234642Y-78313427D02*
X202520357Y-78241998D01*
X202520357Y-78241998D02*
X202877500Y-78241998D01*
X202877500Y-78241998D02*
X203163214Y-78313427D01*
X203163214Y-78313427D02*
X203306071Y-78384856D01*
X203306071Y-78384856D02*
X203377500Y-78456284D01*
X203377500Y-78456284D02*
X203448928Y-78599141D01*
X203448928Y-78599141D02*
X203448928Y-78741998D01*
X203448928Y-78741998D02*
X203377500Y-78884856D01*
X203377500Y-78884856D02*
X203306071Y-78956284D01*
X203306071Y-78956284D02*
X203163214Y-79027713D01*
X203163214Y-79027713D02*
X202877500Y-79099141D01*
X202877500Y-79099141D02*
X202520357Y-79099141D01*
X202520357Y-79099141D02*
X202234642Y-79027713D01*
X202234642Y-79027713D02*
X202091785Y-78956284D01*
X202091785Y-78956284D02*
X202020357Y-78884856D01*
X202020357Y-78884856D02*
X201948928Y-78741998D01*
X201948928Y-77313427D02*
X201948928Y-77170570D01*
X201948928Y-77170570D02*
X202020357Y-77027713D01*
X202020357Y-77027713D02*
X202091785Y-76956285D01*
X202091785Y-76956285D02*
X202234642Y-76884856D01*
X202234642Y-76884856D02*
X202520357Y-76813427D01*
X202520357Y-76813427D02*
X202877500Y-76813427D01*
X202877500Y-76813427D02*
X203163214Y-76884856D01*
X203163214Y-76884856D02*
X203306071Y-76956285D01*
X203306071Y-76956285D02*
X203377500Y-77027713D01*
X203377500Y-77027713D02*
X203448928Y-77170570D01*
X203448928Y-77170570D02*
X203448928Y-77313427D01*
X203448928Y-77313427D02*
X203377500Y-77456285D01*
X203377500Y-77456285D02*
X203306071Y-77527713D01*
X203306071Y-77527713D02*
X203163214Y-77599142D01*
X203163214Y-77599142D02*
X202877500Y-77670570D01*
X202877500Y-77670570D02*
X202520357Y-77670570D01*
X202520357Y-77670570D02*
X202234642Y-77599142D01*
X202234642Y-77599142D02*
X202091785Y-77527713D01*
X202091785Y-77527713D02*
X202020357Y-77456285D01*
X202020357Y-77456285D02*
X201948928Y-77313427D01*
X201948928Y-75884856D02*
X201948928Y-75741999D01*
X201948928Y-75741999D02*
X202020357Y-75599142D01*
X202020357Y-75599142D02*
X202091785Y-75527714D01*
X202091785Y-75527714D02*
X202234642Y-75456285D01*
X202234642Y-75456285D02*
X202520357Y-75384856D01*
X202520357Y-75384856D02*
X202877500Y-75384856D01*
X202877500Y-75384856D02*
X203163214Y-75456285D01*
X203163214Y-75456285D02*
X203306071Y-75527714D01*
X203306071Y-75527714D02*
X203377500Y-75599142D01*
X203377500Y-75599142D02*
X203448928Y-75741999D01*
X203448928Y-75741999D02*
X203448928Y-75884856D01*
X203448928Y-75884856D02*
X203377500Y-76027714D01*
X203377500Y-76027714D02*
X203306071Y-76099142D01*
X203306071Y-76099142D02*
X203163214Y-76170571D01*
X203163214Y-76170571D02*
X202877500Y-76241999D01*
X202877500Y-76241999D02*
X202520357Y-76241999D01*
X202520357Y-76241999D02*
X202234642Y-76170571D01*
X202234642Y-76170571D02*
X202091785Y-76099142D01*
X202091785Y-76099142D02*
X202020357Y-76027714D01*
X202020357Y-76027714D02*
X201948928Y-75884856D01*
X201948928Y-74456285D02*
X201948928Y-74313428D01*
X201948928Y-74313428D02*
X202020357Y-74170571D01*
X202020357Y-74170571D02*
X202091785Y-74099143D01*
X202091785Y-74099143D02*
X202234642Y-74027714D01*
X202234642Y-74027714D02*
X202520357Y-73956285D01*
X202520357Y-73956285D02*
X202877500Y-73956285D01*
X202877500Y-73956285D02*
X203163214Y-74027714D01*
X203163214Y-74027714D02*
X203306071Y-74099143D01*
X203306071Y-74099143D02*
X203377500Y-74170571D01*
X203377500Y-74170571D02*
X203448928Y-74313428D01*
X203448928Y-74313428D02*
X203448928Y-74456285D01*
X203448928Y-74456285D02*
X203377500Y-74599143D01*
X203377500Y-74599143D02*
X203306071Y-74670571D01*
X203306071Y-74670571D02*
X203163214Y-74742000D01*
X203163214Y-74742000D02*
X202877500Y-74813428D01*
X202877500Y-74813428D02*
X202520357Y-74813428D01*
X202520357Y-74813428D02*
X202234642Y-74742000D01*
X202234642Y-74742000D02*
X202091785Y-74670571D01*
X202091785Y-74670571D02*
X202020357Y-74599143D01*
X202020357Y-74599143D02*
X201948928Y-74456285D01*
X203448928Y-72170572D02*
X202448928Y-72170572D01*
X202591785Y-72170572D02*
X202520357Y-72099143D01*
X202520357Y-72099143D02*
X202448928Y-71956286D01*
X202448928Y-71956286D02*
X202448928Y-71742000D01*
X202448928Y-71742000D02*
X202520357Y-71599143D01*
X202520357Y-71599143D02*
X202663214Y-71527715D01*
X202663214Y-71527715D02*
X203448928Y-71527715D01*
X202663214Y-71527715D02*
X202520357Y-71456286D01*
X202520357Y-71456286D02*
X202448928Y-71313429D01*
X202448928Y-71313429D02*
X202448928Y-71099143D01*
X202448928Y-71099143D02*
X202520357Y-70956286D01*
X202520357Y-70956286D02*
X202663214Y-70884857D01*
X202663214Y-70884857D02*
X203448928Y-70884857D01*
X203448928Y-70170572D02*
X202448928Y-70170572D01*
X202591785Y-70170572D02*
X202520357Y-70099143D01*
X202520357Y-70099143D02*
X202448928Y-69956286D01*
X202448928Y-69956286D02*
X202448928Y-69742000D01*
X202448928Y-69742000D02*
X202520357Y-69599143D01*
X202520357Y-69599143D02*
X202663214Y-69527715D01*
X202663214Y-69527715D02*
X203448928Y-69527715D01*
X202663214Y-69527715D02*
X202520357Y-69456286D01*
X202520357Y-69456286D02*
X202448928Y-69313429D01*
X202448928Y-69313429D02*
X202448928Y-69099143D01*
X202448928Y-69099143D02*
X202520357Y-68956286D01*
X202520357Y-68956286D02*
X202663214Y-68884857D01*
X202663214Y-68884857D02*
X203448928Y-68884857D01*
D12*
X211081000Y-55742000D02*
X203984180Y-55742000D01*
X203984180Y-95742000D02*
X213081000Y-95742000D01*
X204570600Y-55742000D02*
X204570600Y-95742000D01*
X204570600Y-55742000D02*
X204570600Y-95742000D01*
X204570600Y-55742000D02*
X205157021Y-56868504D01*
X204570600Y-55742000D02*
X203984179Y-56868504D01*
X204570600Y-95742000D02*
X203984179Y-94615496D01*
X204570600Y-95742000D02*
X205157021Y-94615496D01*
D13*
X114578000Y-100072000D03*
X114578000Y-102997000D03*
D14*
X125603000Y-71628000D03*
X123063000Y-71628000D03*
X120523000Y-71628000D03*
D13*
X121158000Y-100072000D03*
X121158000Y-102997000D03*
D15*
X140040000Y-86515000D03*
X140040000Y-87165000D03*
X140040000Y-87815000D03*
X140040000Y-88465000D03*
X144440000Y-88465000D03*
X144440000Y-87815000D03*
X144440000Y-87165000D03*
X144440000Y-86515000D03*
D16*
X142240000Y-87490000D03*
D17*
X79756000Y-104140000D03*
X77216000Y-104140000D03*
X79756000Y-101600000D03*
X77216000Y-101600000D03*
X79756000Y-99060000D03*
D18*
X77216000Y-99060000D03*
D19*
X133350000Y-78867000D03*
D20*
X133350000Y-76327000D03*
D14*
X162254000Y-89027000D03*
X159714000Y-89027000D03*
X157174000Y-89027000D03*
D15*
X141254812Y-80640400D03*
X141254812Y-81290400D03*
X141254812Y-81940400D03*
X141254812Y-82590400D03*
X145654812Y-82590400D03*
X145654812Y-81940400D03*
X145654812Y-81290400D03*
X145654812Y-80640400D03*
D16*
X143454812Y-81615400D03*
D21*
X156911000Y-100838000D03*
X158811000Y-100838000D03*
D18*
X131572000Y-97790000D03*
D17*
X131572000Y-95250000D03*
D22*
X145809000Y-78867000D03*
X144259000Y-78867000D03*
D23*
X95174000Y-77648000D03*
D24*
X95174000Y-80188000D03*
X95174000Y-82728000D03*
D25*
X124363000Y-85537000D03*
X124363000Y-87437000D03*
X126238000Y-86487000D03*
D26*
X85471000Y-94234000D03*
X87121000Y-94234000D03*
D27*
X87300000Y-70028000D03*
D28*
X92380000Y-70028000D03*
D29*
X101473000Y-99822000D03*
D30*
X106553000Y-99822000D03*
D31*
X141859000Y-78218670D03*
X141859000Y-76568670D03*
D32*
X89728000Y-104442500D03*
X91628000Y-104442500D03*
X90678000Y-102567500D03*
D33*
X136652000Y-88252000D03*
X136652000Y-89802000D03*
D34*
X123663000Y-81201500D03*
X123663000Y-79326500D03*
D35*
X106553000Y-86614000D03*
X106553000Y-85344000D03*
X106553000Y-84074000D03*
X106553000Y-82804000D03*
X101403000Y-82804000D03*
X101403000Y-84074000D03*
X101403000Y-85344000D03*
X101403000Y-86614000D03*
D21*
X79563000Y-96139000D03*
X77663000Y-96139000D03*
D13*
X141478000Y-93787500D03*
X141478000Y-96712500D03*
D36*
X108572000Y-81026000D03*
X110122000Y-81026000D03*
D18*
X156972000Y-84201000D03*
D17*
X154432000Y-84201000D03*
D37*
X91110000Y-82474000D03*
D30*
X83490000Y-82474000D03*
D22*
X106312000Y-81026000D03*
X104762000Y-81026000D03*
D38*
X119126000Y-78105000D03*
X119126000Y-79375000D03*
X119126000Y-80645000D03*
X119126000Y-81915000D03*
X113976000Y-81915000D03*
X113976000Y-80645000D03*
X113976000Y-79375000D03*
X113976000Y-78105000D03*
D39*
X157861000Y-98487000D03*
X159131000Y-98487000D03*
X160401000Y-98487000D03*
X161671000Y-98487000D03*
X161671000Y-93537000D03*
X160401000Y-93537000D03*
X159131000Y-93537000D03*
X157861000Y-93537000D03*
D26*
X124905000Y-83185000D03*
X126555000Y-83185000D03*
D33*
X137825812Y-80162400D03*
X137825812Y-81712400D03*
D40*
X139158812Y-83477400D03*
X137508812Y-83477400D03*
D33*
X136652000Y-85237000D03*
X136652000Y-86787000D03*
D41*
X131572000Y-100650000D03*
X131572000Y-102550000D03*
D36*
X101460000Y-88265000D03*
X103010000Y-88265000D03*
D18*
X80645000Y-87503000D03*
D17*
X78105000Y-87503000D03*
X153035000Y-101854000D03*
X153035000Y-99314000D03*
X153035000Y-96774000D03*
D18*
X153035000Y-94234000D03*
D42*
X147447000Y-81928000D03*
X147447000Y-80378000D03*
D36*
X103619000Y-97409000D03*
X105169000Y-97409000D03*
D22*
X120015000Y-76200000D03*
X118465000Y-76200000D03*
D43*
X81026000Y-91440000D03*
D44*
X78486000Y-91440000D03*
X75946000Y-91440000D03*
D23*
X125476000Y-95758000D03*
D24*
X125476000Y-98298000D03*
X125476000Y-100838000D03*
D45*
X130749000Y-82677000D03*
X132649000Y-82677000D03*
D18*
X150114000Y-88011000D03*
D17*
X150114000Y-85471000D03*
X150114000Y-82931000D03*
X150114000Y-80391000D03*
D46*
X140208000Y-74041000D03*
X140208000Y-72771000D03*
X135858000Y-72771000D03*
X135858000Y-74041000D03*
D13*
X149987000Y-97786000D03*
X149987000Y-100711000D03*
D18*
X129794000Y-79502000D03*
D17*
X129794000Y-76962000D03*
D26*
X95695000Y-95758000D03*
X97345000Y-95758000D03*
D13*
X117868000Y-100072000D03*
X117868000Y-102997000D03*
D42*
X146177000Y-88138000D03*
X146177000Y-86588000D03*
D43*
X90043000Y-97917000D03*
D44*
X87503000Y-97917000D03*
X84963000Y-97917000D03*
D47*
X122682000Y-77531000D03*
X122682000Y-75631000D03*
D26*
X108487000Y-82677000D03*
X110137000Y-82677000D03*
D13*
X144145000Y-93787500D03*
X144145000Y-96712500D03*
D40*
X114744000Y-74676000D03*
X113094000Y-74676000D03*
D48*
X87824000Y-103905000D03*
X87824000Y-103105000D03*
D49*
X86674000Y-103505000D03*
D33*
X108550000Y-85204000D03*
X108550000Y-86754000D03*
D31*
X142875000Y-102167000D03*
X142875000Y-100517000D03*
X105156000Y-90233000D03*
X105156000Y-88583000D03*
D48*
X125028000Y-89262000D03*
X125028000Y-90062000D03*
D49*
X126178000Y-89662000D03*
D33*
X136301812Y-80162400D03*
X136301812Y-81712400D03*
D26*
X102934000Y-103886000D03*
X104584000Y-103886000D03*
D41*
X116459000Y-74615000D03*
X116459000Y-76515000D03*
X155956000Y-95189000D03*
X155956000Y-97089000D03*
D18*
X132207000Y-90805000D03*
D17*
X129667000Y-90805000D03*
X132207000Y-88265000D03*
X129667000Y-88265000D03*
X132207000Y-85725000D03*
X129667000Y-85725000D03*
D25*
X145318000Y-100138000D03*
X145318000Y-102038000D03*
X147193000Y-101088000D03*
D46*
X140208000Y-77851000D03*
X140208000Y-76581000D03*
X135858000Y-76581000D03*
X135858000Y-77851000D03*
D42*
X110074000Y-85751000D03*
X110074000Y-84201000D03*
D31*
X138176000Y-89852000D03*
X138176000Y-88202000D03*
D26*
X106744000Y-89033500D03*
X108394000Y-89033500D03*
D37*
X91110000Y-77648000D03*
D30*
X83490000Y-77648000D03*
D26*
X125413000Y-92075000D03*
X127063000Y-92075000D03*
X117031000Y-91821000D03*
X118681000Y-91821000D03*
D40*
X114744000Y-76327000D03*
X113094000Y-76327000D03*
D47*
X121631000Y-81214000D03*
X121631000Y-79314000D03*
D42*
X107950000Y-103645000D03*
X107950000Y-102095000D03*
D31*
X138176000Y-86837000D03*
X138176000Y-85187000D03*
D18*
X95524063Y-98571312D03*
D17*
X98064063Y-98571312D03*
X95524063Y-101111312D03*
X98064063Y-101111312D03*
X95524063Y-103651312D03*
X98064063Y-103651312D03*
D43*
X120396000Y-87630000D03*
D44*
X117856000Y-87630000D03*
X115316000Y-87630000D03*
D40*
X105219000Y-95758000D03*
X103569000Y-95758000D03*
D50*
X163703000Y-93931500D03*
X163703000Y-95806500D03*
D42*
X106807000Y-97409000D03*
X106807000Y-95859000D03*
D26*
X102934000Y-102235000D03*
X104584000Y-102235000D03*
D14*
X110490000Y-98679000D03*
X110490000Y-96139000D03*
X110490000Y-93599000D03*
D18*
X115570000Y-96901000D03*
D17*
X115570000Y-94361000D03*
X118110000Y-96901000D03*
X118110000Y-94361000D03*
X120650000Y-96901000D03*
X120650000Y-94361000D03*
D31*
X139349812Y-81762400D03*
X139349812Y-80112400D03*
D14*
X109474000Y-76835000D03*
X106934000Y-76835000D03*
X104394000Y-76835000D03*
D31*
X141986000Y-74104000D03*
X141986000Y-72454000D03*
D18*
X138557000Y-92583000D03*
D17*
X136017000Y-92583000D03*
D36*
X114160000Y-83693000D03*
X115710000Y-83693000D03*
D37*
X97714000Y-87848063D03*
X99314000Y-88519000D03*
D29*
X99314000Y-91019000D03*
X100914000Y-91689937D03*
D37*
X136195000Y-97373063D03*
X137795000Y-98044000D03*
D29*
X137795000Y-100544000D03*
X139395000Y-101214937D03*
D37*
X86030000Y-87975063D03*
X87630000Y-88646000D03*
D29*
X87630000Y-91146000D03*
X89230000Y-91816937D03*
D51*
X101473000Y-82804000D03*
X89728000Y-104442500D03*
X141795500Y-87045500D03*
X140192000Y-72771000D03*
X147447000Y-80378000D03*
X141795500Y-87934500D03*
X103010000Y-88265000D03*
X141986000Y-74105000D03*
X136652000Y-89802000D03*
X122682000Y-75631000D03*
X143032812Y-82067400D03*
X143881006Y-82067400D03*
X143891000Y-81153000D03*
X104775000Y-81026000D03*
X110122000Y-81026000D03*
X139158812Y-83477400D03*
X143042806Y-81153000D03*
X142684500Y-87934500D03*
X115710000Y-83693000D03*
X146177000Y-86588000D03*
X144259000Y-78867000D03*
X140040000Y-88639502D03*
X138176000Y-89852000D03*
X136301812Y-81712400D03*
X142684500Y-87045500D03*
X141254812Y-82764902D03*
X118478000Y-76200000D03*
X157861000Y-93537000D03*
X140040000Y-86340498D03*
X119253000Y-78105000D03*
X136652000Y-85220000D03*
X136652000Y-88252000D03*
X120015000Y-76200000D03*
X141859000Y-78232000D03*
X101460000Y-88265000D03*
X138176000Y-85187000D03*
X136301812Y-80162400D03*
X106299000Y-81026000D03*
X114173000Y-83693000D03*
X106553000Y-82804000D03*
X113976000Y-81915000D03*
X119126000Y-81827500D03*
X122682000Y-77531000D03*
D52*
X144440000Y-86490498D03*
X144440000Y-88489502D03*
D51*
X145654812Y-82764902D03*
X145699812Y-80465898D03*
X144145000Y-93533500D03*
X123190000Y-84582000D03*
X79563000Y-96139000D03*
X107950000Y-102095000D03*
X141478000Y-93787500D03*
X145318000Y-100138000D03*
X160401000Y-98487000D03*
X87884000Y-102616000D03*
X85471000Y-94234000D03*
X87122000Y-94234000D03*
X106807000Y-95885000D03*
D53*
X124363000Y-87437000D02*
X123082800Y-86156800D01*
X123082800Y-86156800D02*
X119075200Y-86156800D01*
X119075200Y-86156800D02*
X117856000Y-87376000D01*
X117856000Y-87376000D02*
X117856000Y-87630000D01*
X123190000Y-84582000D02*
X119857340Y-84582000D01*
X119857340Y-84582000D02*
X115920340Y-80645000D01*
X115920340Y-80645000D02*
X113976000Y-80645000D01*
D54*
X108550000Y-86754000D02*
X106693000Y-86754000D01*
X106693000Y-86754000D02*
X106553000Y-86614000D01*
D53*
X105156000Y-88583000D02*
X105156000Y-86106000D01*
X105918000Y-85344000D02*
X106553000Y-85344000D01*
X105156000Y-86106000D02*
X105918000Y-85344000D01*
X159131000Y-98487000D02*
X159131000Y-99695000D01*
X159131000Y-99695000D02*
X158811000Y-100015000D01*
X158811000Y-100015000D02*
X158811000Y-100838000D01*
X156911000Y-100838000D02*
X156911000Y-100137000D01*
D55*
X150114000Y-100838000D02*
X156781000Y-100838000D01*
D53*
X156911000Y-100137000D02*
X157861000Y-99187000D01*
X157861000Y-99187000D02*
X157861000Y-98487000D01*
D55*
X156781000Y-100838000D02*
X156846000Y-100903000D01*
X149987000Y-100711000D02*
X150114000Y-100838000D01*
D53*
X110122000Y-81026000D02*
X110122000Y-77483000D01*
X110122000Y-77483000D02*
X109474000Y-76835000D01*
X133350000Y-76327000D02*
X130429000Y-76327000D01*
X130429000Y-76327000D02*
X129794000Y-76962000D01*
X144440000Y-86490498D02*
X144440000Y-85607800D01*
X144440000Y-85607800D02*
X144653000Y-85394800D01*
D55*
X150114000Y-88011000D02*
X147497800Y-85394800D01*
X147497800Y-85394800D02*
X144653000Y-85394800D01*
D56*
X132207000Y-85725000D02*
X132649000Y-85283000D01*
X132649000Y-85283000D02*
X132649000Y-79568000D01*
X132649000Y-79568000D02*
X133350000Y-78867000D01*
D53*
X119126000Y-80645000D02*
X117602000Y-80645000D01*
X117602000Y-80645000D02*
X115341400Y-78384400D01*
X115341400Y-78384400D02*
X115341400Y-76924400D01*
X115341400Y-76924400D02*
X114744000Y-76327000D01*
X126178000Y-89662000D02*
X126178000Y-86547000D01*
X126178000Y-86547000D02*
X126238000Y-86487000D01*
X126178000Y-89662000D02*
X126178000Y-90262000D01*
X123647200Y-90881200D02*
X120396000Y-87630000D01*
X126178000Y-90262000D02*
X125558800Y-90881200D01*
X125558800Y-90881200D02*
X123647200Y-90881200D01*
X115316000Y-88265000D02*
X115316000Y-94107000D01*
X115316000Y-94107000D02*
X115570000Y-94361000D01*
X135858000Y-76581000D02*
X134594600Y-75317600D01*
X134594600Y-75317600D02*
X134594600Y-73970517D01*
X134594600Y-73970517D02*
X135794117Y-72771000D01*
X135794117Y-72771000D02*
X135858000Y-72771000D01*
X160401000Y-98039538D02*
X160401000Y-97863969D01*
X160401000Y-97863969D02*
X162458469Y-95806500D01*
X162458469Y-95806500D02*
X162634038Y-95806500D01*
D56*
X145318000Y-102038000D02*
X145489600Y-102209600D01*
X145489600Y-102209600D02*
X148488400Y-102209600D01*
X148488400Y-102209600D02*
X149987000Y-100711000D01*
D55*
X104584000Y-103886000D02*
X104825000Y-103645000D01*
X104825000Y-103645000D02*
X107707312Y-103645000D01*
D56*
X106553000Y-99822000D02*
X106553000Y-102743000D01*
X106553000Y-102743000D02*
X107455000Y-103645000D01*
X107455000Y-103645000D02*
X107823000Y-103645000D01*
D55*
X107823000Y-103645000D02*
X105613000Y-103645000D01*
X105613000Y-103645000D02*
X104584000Y-102616000D01*
D56*
X104584000Y-102616000D02*
X104584000Y-102235000D01*
X110581000Y-102997000D02*
X109933000Y-103645000D01*
X114578000Y-102997000D02*
X110581000Y-102997000D01*
X109933000Y-103645000D02*
X107823000Y-103645000D01*
D55*
X98064063Y-103651312D02*
X102699312Y-103651312D01*
X102699312Y-103651312D02*
X102934000Y-103886000D01*
X102934000Y-102235000D02*
X102045000Y-101346000D01*
X102045000Y-101346000D02*
X98298751Y-101346000D01*
X98298751Y-101346000D02*
X98064063Y-101111312D01*
D53*
X101403000Y-84074000D02*
X101403000Y-85344000D01*
D54*
X101403000Y-82804000D02*
X101473000Y-82804000D01*
X108550000Y-88877500D02*
X108550000Y-86754000D01*
D56*
X78486000Y-93980000D02*
X78486000Y-91440000D01*
X77663000Y-96139000D02*
X77663000Y-94803000D01*
X77663000Y-94803000D02*
X78486000Y-93980000D01*
X100914000Y-91689937D02*
X99984937Y-91689937D01*
X80645000Y-88138000D02*
X78486000Y-90297000D01*
X98516063Y-91816937D02*
X99314000Y-91019000D01*
X83490000Y-77648000D02*
X83490000Y-82474000D01*
X83490000Y-82474000D02*
X83490000Y-84658000D01*
X78486000Y-90297000D02*
X78486000Y-91440000D01*
X89230000Y-91816937D02*
X88300937Y-91816937D01*
X88300937Y-91816937D02*
X87630000Y-91146000D01*
X89230000Y-91816937D02*
X98516063Y-91816937D01*
X99984937Y-91689937D02*
X99314000Y-91019000D01*
X83490000Y-84658000D02*
X80645000Y-87503000D01*
D54*
X110074000Y-85751000D02*
X109794000Y-85471000D01*
X108410000Y-85344000D02*
X106553000Y-85344000D01*
X109794000Y-85471000D02*
X108817000Y-85471000D01*
X110137000Y-84138000D02*
X110137000Y-82677000D01*
D55*
X94298000Y-97155000D02*
X90805000Y-97155000D01*
D54*
X89728000Y-104442500D02*
X88361500Y-104442500D01*
D55*
X90805000Y-97155000D02*
X90043000Y-97917000D01*
X95695000Y-95758000D02*
X94298000Y-97155000D01*
D54*
X88361500Y-104442500D02*
X87824000Y-103905000D01*
D56*
X137795000Y-100544000D02*
X139545000Y-102294000D01*
X153035000Y-101854000D02*
X151892000Y-100711000D01*
D54*
X104762000Y-81026000D02*
X104775000Y-81026000D01*
D55*
X107696000Y-98679000D02*
X106553000Y-99822000D01*
D54*
X141254812Y-82764902D02*
X141254812Y-82590400D01*
D56*
X145189000Y-102167000D02*
X145318000Y-102038000D01*
D54*
X118465000Y-76200000D02*
X118478000Y-76200000D01*
D55*
X110490000Y-98679000D02*
X107696000Y-98679000D01*
D56*
X142875000Y-102167000D02*
X145189000Y-102167000D01*
D54*
X140040000Y-88639502D02*
X140040000Y-88465000D01*
D56*
X114578000Y-102997000D02*
X117868000Y-102997000D01*
D53*
X157861000Y-98487000D02*
X157354000Y-98487000D01*
D55*
X130998000Y-103124000D02*
X131572000Y-102550000D01*
D56*
X153035000Y-101854000D02*
X153035000Y-99314000D01*
X131572000Y-102550000D02*
X131982126Y-102139874D01*
D53*
X157354000Y-98487000D02*
X155956000Y-97089000D01*
D56*
X131982126Y-102139874D02*
X136199126Y-102139874D01*
D54*
X106807000Y-97409000D02*
X106807000Y-99568000D01*
D56*
X136199126Y-102139874D02*
X137795000Y-100544000D01*
X151892000Y-100711000D02*
X149987000Y-100711000D01*
X121158000Y-102997000D02*
X131125000Y-102997000D01*
D53*
X105126063Y-97366063D02*
X105126063Y-95850937D01*
D56*
X142748000Y-102294000D02*
X142875000Y-102167000D01*
X131125000Y-102997000D02*
X131572000Y-102550000D01*
D55*
X106553000Y-99822000D02*
X105169000Y-98438000D01*
X105169000Y-98438000D02*
X105169000Y-97409000D01*
D56*
X139545000Y-102294000D02*
X142748000Y-102294000D01*
X117868000Y-102997000D02*
X121158000Y-102997000D01*
D53*
X156083000Y-95189000D02*
X157735000Y-93537000D01*
D54*
X155956000Y-95189000D02*
X156083000Y-95189000D01*
X131572000Y-100650000D02*
X131572000Y-97790000D01*
D53*
X108585000Y-78486000D02*
X108585000Y-81013000D01*
X106934000Y-76835000D02*
X108585000Y-78486000D01*
X108585000Y-81013000D02*
X108572000Y-81026000D01*
D54*
X108572000Y-81026000D02*
X108572000Y-82592000D01*
X108487000Y-82677000D02*
X107090000Y-84074000D01*
D55*
X160401000Y-93537000D02*
X160401000Y-95885000D01*
X160401000Y-89662000D02*
X159766000Y-89027000D01*
X159131000Y-97155000D02*
X159131000Y-98487000D01*
X160401000Y-95885000D02*
X159131000Y-97155000D01*
X160401000Y-93537000D02*
X160401000Y-89662000D01*
D53*
X101403000Y-88208000D02*
X101403000Y-86614000D01*
X101460000Y-88265000D02*
X101403000Y-88208000D01*
D54*
X140040000Y-86340498D02*
X140040000Y-86515000D01*
X141254812Y-80640400D02*
X139877812Y-80640400D01*
X139349812Y-80112400D02*
X137875812Y-80112400D01*
X106312000Y-81026000D02*
X106299000Y-81026000D01*
X137825812Y-80162400D02*
X136301812Y-80162400D01*
D53*
X104521000Y-76962000D02*
X104902000Y-76962000D01*
X107315000Y-79375000D02*
X107315000Y-82042000D01*
X107315000Y-82042000D02*
X106553000Y-82804000D01*
D55*
X114160000Y-83693000D02*
X114173000Y-83693000D01*
D53*
X104902000Y-76962000D02*
X107315000Y-79375000D01*
D54*
X139877812Y-80640400D02*
X139349812Y-80112400D01*
X116398000Y-74676000D02*
X116459000Y-74615000D01*
X114744000Y-74676000D02*
X116398000Y-74676000D01*
X120777000Y-80645000D02*
X119126000Y-80645000D01*
X121885000Y-81148000D02*
X121280000Y-81148000D01*
X114744000Y-76327000D02*
X116271000Y-76327000D01*
X121280000Y-81148000D02*
X120777000Y-80645000D01*
X123965500Y-81407000D02*
X122144000Y-81407000D01*
X116271000Y-76327000D02*
X116459000Y-76515000D01*
D53*
X126378500Y-82042000D02*
X123663000Y-79326500D01*
D54*
X136763000Y-77216000D02*
X136128000Y-77851000D01*
X136763000Y-74946000D02*
X136763000Y-77216000D01*
X121758000Y-79375000D02*
X119126000Y-79375000D01*
D55*
X129159000Y-76327000D02*
X126662500Y-76327000D01*
D54*
X133350000Y-76327000D02*
X134334000Y-76327000D01*
X135858000Y-74041000D02*
X136763000Y-74946000D01*
D53*
X130114000Y-82042000D02*
X126378500Y-82042000D01*
D55*
X126662500Y-76327000D02*
X123663000Y-79326500D01*
D54*
X122326000Y-79375000D02*
X122169000Y-79532000D01*
D53*
X130749000Y-82677000D02*
X130114000Y-82042000D01*
D54*
X134334000Y-76327000D02*
X135858000Y-77851000D01*
D55*
X129794000Y-76962000D02*
X129159000Y-76327000D01*
D54*
X123808500Y-79375000D02*
X122326000Y-79375000D01*
D53*
X123063000Y-71628000D02*
X123857000Y-72422000D01*
X123857000Y-76356000D02*
X122682000Y-77531000D01*
X119126000Y-81915000D02*
X119126000Y-81827500D01*
X123857000Y-72422000D02*
X123857000Y-76356000D01*
D54*
X133350000Y-78867000D02*
X136069817Y-78867000D01*
X130937000Y-78867000D02*
X130048000Y-79756000D01*
X133350000Y-78867000D02*
X130937000Y-78867000D01*
X137313000Y-77623817D02*
X137313000Y-74226000D01*
D53*
X132207000Y-88265000D02*
X132207000Y-90805000D01*
D54*
X137313000Y-74226000D02*
X135858000Y-72771000D01*
D53*
X132207000Y-85725000D02*
X132207000Y-88265000D01*
D54*
X136069817Y-78867000D02*
X137313000Y-77623817D01*
X145854000Y-87815000D02*
X146177000Y-88138000D01*
X144440000Y-87815000D02*
X145854000Y-87815000D01*
X138176000Y-88202000D02*
X138176000Y-86837000D01*
X138756500Y-86837000D02*
X138176000Y-86837000D01*
X138176000Y-86837000D02*
X136702000Y-86837000D01*
X140040000Y-87165000D02*
X139084500Y-87165000D01*
X139084500Y-87165000D02*
X138756500Y-86837000D01*
X146679812Y-81940400D02*
X145654812Y-81940400D01*
X146692212Y-81928000D02*
X146679812Y-81940400D01*
X147447000Y-81928000D02*
X146692212Y-81928000D01*
X137825812Y-81712400D02*
X139299812Y-81712400D01*
X141254812Y-81290400D02*
X139173812Y-81290400D01*
X137508812Y-82029400D02*
X137825812Y-81712400D01*
X137508812Y-83477400D02*
X137508812Y-82029400D01*
X139808812Y-81303400D02*
X139349812Y-81762400D01*
X145796000Y-78880000D02*
X145796000Y-80499212D01*
X145654812Y-80510898D02*
X145699812Y-80465898D01*
X145796000Y-80499212D02*
X145654812Y-80640400D01*
X148717000Y-78994000D02*
X145936000Y-78994000D01*
X145654812Y-80640400D02*
X145654812Y-80510898D01*
X145654812Y-82764902D02*
X145654812Y-82590400D01*
X150114000Y-80391000D02*
X148717000Y-78994000D01*
D56*
X92380000Y-76378000D02*
X91110000Y-77648000D01*
X92380000Y-70028000D02*
X92380000Y-76378000D01*
X95174000Y-77648000D02*
X91110000Y-77648000D01*
X86030000Y-90180000D02*
X80071000Y-96139000D01*
X86030000Y-87975063D02*
X86030000Y-90180000D01*
X153035000Y-96774000D02*
X153035000Y-94234000D01*
D57*
X86700937Y-88646000D02*
X86030000Y-87975063D01*
X95174000Y-80484933D02*
X96825000Y-82135933D01*
D56*
X150999000Y-96774000D02*
X149987000Y-97786000D01*
X153035000Y-96774000D02*
X150999000Y-96774000D01*
D54*
X124203000Y-87597000D02*
X124203000Y-90062000D01*
D57*
X87630000Y-88646000D02*
X86700937Y-88646000D01*
D56*
X80071000Y-96139000D02*
X79563000Y-96139000D01*
D57*
X88260937Y-88015063D02*
X87630000Y-88646000D01*
X98643063Y-87848063D02*
X99314000Y-88519000D01*
X97714000Y-87848063D02*
X98643063Y-87848063D01*
X96825000Y-82135933D02*
X96825000Y-86959063D01*
D54*
X124203000Y-90062000D02*
X125028000Y-90062000D01*
D57*
X96825000Y-86959063D02*
X97714000Y-87848063D01*
X97547000Y-88015063D02*
X88260937Y-88015063D01*
X149987000Y-96393000D02*
X149987000Y-97786000D01*
X147381500Y-93787500D02*
X149987000Y-96393000D01*
X144145000Y-93787500D02*
X147381500Y-93787500D01*
X97714000Y-87848063D02*
X97547000Y-88015063D01*
D56*
X87300000Y-70028000D02*
X87300000Y-78664000D01*
X87300000Y-78664000D02*
X91110000Y-82474000D01*
D54*
X91364000Y-82728000D02*
X95174000Y-82728000D01*
X120650000Y-99564000D02*
X120650000Y-96901000D01*
X121158000Y-100072000D02*
X120650000Y-99564000D01*
D55*
X90678000Y-102567500D02*
X89710500Y-101600000D01*
X89710500Y-101600000D02*
X79756000Y-101600000D01*
D54*
X145318000Y-100138000D02*
X143254000Y-100138000D01*
D53*
X160401000Y-98487000D02*
X160401000Y-98039538D01*
D54*
X143254000Y-100138000D02*
X142875000Y-100517000D01*
D53*
X162634038Y-95806500D02*
X163703000Y-95806500D01*
D55*
X141480000Y-96710500D02*
X144335500Y-96710500D01*
X141478000Y-96712500D02*
X141480000Y-96710500D01*
X147193000Y-99568000D02*
X147193000Y-101088000D01*
X144335500Y-96710500D02*
X147193000Y-99568000D01*
X86039000Y-104140000D02*
X79756000Y-104140000D01*
X86674000Y-103505000D02*
X86039000Y-104140000D01*
D56*
X138557000Y-92583000D02*
X138557000Y-97282000D01*
X138557000Y-97282000D02*
X137795000Y-98044000D01*
D54*
X124905000Y-83185000D02*
X124905000Y-84995000D01*
D58*
X125028000Y-89262000D02*
X125476000Y-88814000D01*
X125476000Y-88814000D02*
X125476000Y-87140749D01*
D54*
X124905000Y-84995000D02*
X124363000Y-85537000D01*
D58*
X124363000Y-86027749D02*
X124363000Y-85537000D01*
X125476000Y-87140749D02*
X124363000Y-86027749D01*
D53*
X120396000Y-90106000D02*
X120396000Y-87630000D01*
X118681000Y-91821000D02*
X120396000Y-90106000D01*
X140576670Y-77851000D02*
X141859000Y-76568670D01*
X140208000Y-77851000D02*
X140576670Y-77851000D01*
X140399000Y-74041000D02*
X141986000Y-72454000D01*
X140208000Y-76581000D02*
X140208000Y-74041000D01*
D55*
X163703000Y-91694000D02*
X162306000Y-90297000D01*
X163703000Y-93931500D02*
X163703000Y-91694000D01*
X162306000Y-90297000D02*
X162306000Y-89027000D01*
D53*
X125476000Y-95758000D02*
X125476000Y-92138000D01*
X113976000Y-78105000D02*
X113976000Y-79375000D01*
X113094000Y-76771000D02*
X113094000Y-77223000D01*
X113094000Y-74930000D02*
X113094000Y-76327000D01*
X113094000Y-76327000D02*
X113094000Y-76771000D01*
X113094000Y-77223000D02*
X113976000Y-78105000D01*
D55*
X159131000Y-90932000D02*
X157226000Y-89027000D01*
X159131000Y-93537000D02*
X159131000Y-90932000D01*
D56*
X85725000Y-96139000D02*
X83058000Y-96139000D01*
X83058000Y-96139000D02*
X80137000Y-99060000D01*
X87503000Y-97917000D02*
X85725000Y-96139000D01*
D55*
X98064063Y-98571312D02*
X99714312Y-98571312D01*
X99714312Y-98571312D02*
X101219000Y-100076000D01*
D54*
X96862000Y-94908000D02*
X96470000Y-95300000D01*
X105156000Y-91313000D02*
X101561000Y-94908000D01*
D56*
X87122000Y-100076000D02*
X94019375Y-100076000D01*
X95524063Y-101111312D02*
X95524063Y-103651312D01*
X94019375Y-100076000D02*
X95524063Y-98571312D01*
D54*
X87824000Y-103105000D02*
X87824000Y-102676000D01*
D56*
X92419188Y-103651312D02*
X95524063Y-103651312D01*
D54*
X96470000Y-97625375D02*
X95524063Y-98571312D01*
X96470000Y-95300000D02*
X96470000Y-97625375D01*
D56*
X84963000Y-97917000D02*
X87122000Y-100076000D01*
D54*
X101561000Y-94908000D02*
X96862000Y-94908000D01*
X87824000Y-102676000D02*
X87884000Y-102616000D01*
D56*
X95524063Y-98571312D02*
X95524063Y-101111312D01*
D54*
X105156000Y-90233000D02*
X105156000Y-91313000D01*
D56*
X91628000Y-104442500D02*
X92419188Y-103651312D01*
D54*
X129667000Y-85344000D02*
X129667000Y-84963000D01*
X127889000Y-83185000D02*
X126555000Y-83185000D01*
X129667000Y-84963000D02*
X127889000Y-83185000D01*
X115570000Y-99080000D02*
X115570000Y-96901000D01*
X114578000Y-100072000D02*
X115570000Y-99080000D01*
X118110000Y-99830000D02*
X118110000Y-96901000D01*
D53*
X127762000Y-89789000D02*
X129286000Y-88265000D01*
X127063000Y-92075000D02*
X127762000Y-91376000D01*
X127762000Y-91376000D02*
X127762000Y-89789000D01*
D54*
X124460000Y-98171000D02*
X120650000Y-94361000D01*
X118110000Y-94361000D02*
X115570000Y-94361000D01*
X120650000Y-94361000D02*
X118110000Y-94361000D01*
D53*
X115316000Y-90106000D02*
X115316000Y-87630000D01*
X117031000Y-91821000D02*
X115316000Y-90106000D01*
D56*
X76463000Y-91957000D02*
X76463000Y-98307000D01*
X77216000Y-101600000D02*
X77216000Y-99060000D01*
X77216000Y-104140000D02*
X77216000Y-101600000D01*
X75946000Y-91440000D02*
X76463000Y-91957000D01*
X78105000Y-87503000D02*
X75946000Y-89662000D01*
X75946000Y-89662000D02*
X75946000Y-91440000D01*
X76463000Y-98307000D02*
X77216000Y-99060000D01*
D53*
X103569000Y-95758000D02*
X103569000Y-97359000D01*
X103569000Y-95758000D02*
X106744000Y-92583000D01*
X97345000Y-95758000D02*
X103569000Y-95758000D01*
X106744000Y-92583000D02*
X106744000Y-89033500D01*
X107087000Y-96139000D02*
X110490000Y-96139000D01*
X106807000Y-95859000D02*
X107087000Y-96139000D01*
M02*
