%TF.GenerationSoftware,KiCad,Pcbnew,7.0.5-7.0.5~ubuntu23.04.1*%
%TF.CreationDate,2023-07-09T19:19:44+02:00*%
%TF.ProjectId,omega-pico,6f6d6567-612d-4706-9963-6f2e6b696361,rev?*%
%TF.SameCoordinates,Original*%
%TF.FileFunction,Soldermask,Top*%
%TF.FilePolarity,Negative*%
%FSLAX46Y46*%
G04 Gerber Fmt 4.6, Leading zero omitted, Abs format (unit mm)*
G04 Created by KiCad (PCBNEW 7.0.5-7.0.5~ubuntu23.04.1) date 2023-07-09 19:19:44*
%MOMM*%
%LPD*%
G01*
G04 APERTURE LIST*
G04 Aperture macros list*
%AMRoundRect*
0 Rectangle with rounded corners*
0 $1 Rounding radius*
0 $2 $3 $4 $5 $6 $7 $8 $9 X,Y pos of 4 corners*
0 Add a 4 corners polygon primitive as box body*
4,1,4,$2,$3,$4,$5,$6,$7,$8,$9,$2,$3,0*
0 Add four circle primitives for the rounded corners*
1,1,$1+$1,$2,$3*
1,1,$1+$1,$4,$5*
1,1,$1+$1,$6,$7*
1,1,$1+$1,$8,$9*
0 Add four rect primitives between the rounded corners*
20,1,$1+$1,$2,$3,$4,$5,0*
20,1,$1+$1,$4,$5,$6,$7,0*
20,1,$1+$1,$6,$7,$8,$9,0*
20,1,$1+$1,$8,$9,$2,$3,0*%
G04 Aperture macros list end*
%ADD10C,3.200000*%
%ADD11RoundRect,0.250000X-0.625000X0.312500X-0.625000X-0.312500X0.625000X-0.312500X0.625000X0.312500X0*%
%ADD12C,1.440000*%
%ADD13R,1.400000X0.450000*%
%ADD14R,1.890000X1.570000*%
%ADD15O,1.700000X1.700000*%
%ADD16R,1.700000X1.700000*%
%ADD17R,2.000000X2.000000*%
%ADD18O,2.000000X2.000000*%
%ADD19RoundRect,0.250000X0.250000X0.475000X-0.250000X0.475000X-0.250000X-0.475000X0.250000X-0.475000X0*%
%ADD20RoundRect,0.225000X0.225000X0.250000X-0.225000X0.250000X-0.225000X-0.250000X0.225000X-0.250000X0*%
%ADD21R,2.000000X1.905000*%
%ADD22O,2.000000X1.905000*%
%ADD23RoundRect,0.150000X-0.587500X-0.150000X0.587500X-0.150000X0.587500X0.150000X-0.587500X0.150000X0*%
%ADD24RoundRect,0.200000X-0.200000X-0.275000X0.200000X-0.275000X0.200000X0.275000X-0.200000X0.275000X0*%
%ADD25R,3.000000X3.000000*%
%ADD26C,3.000000*%
%ADD27C,1.600000*%
%ADD28O,1.600000X1.600000*%
%ADD29RoundRect,0.200000X0.275000X-0.200000X0.275000X0.200000X-0.275000X0.200000X-0.275000X-0.200000X0*%
%ADD30RoundRect,0.150000X0.150000X-0.587500X0.150000X0.587500X-0.150000X0.587500X-0.150000X-0.587500X0*%
%ADD31RoundRect,0.225000X-0.250000X0.225000X-0.250000X-0.225000X0.250000X-0.225000X0.250000X0.225000X0*%
%ADD32RoundRect,0.243750X0.456250X-0.243750X0.456250X0.243750X-0.456250X0.243750X-0.456250X-0.243750X0*%
%ADD33RoundRect,0.150000X0.725000X0.150000X-0.725000X0.150000X-0.725000X-0.150000X0.725000X-0.150000X0*%
%ADD34RoundRect,0.225000X-0.225000X-0.250000X0.225000X-0.250000X0.225000X0.250000X-0.225000X0.250000X0*%
%ADD35R,1.600000X1.600000*%
%ADD36RoundRect,0.150000X-0.725000X-0.150000X0.725000X-0.150000X0.725000X0.150000X-0.725000X0.150000X0*%
%ADD37RoundRect,0.150000X0.150000X-0.825000X0.150000X0.825000X-0.150000X0.825000X-0.150000X-0.825000X0*%
%ADD38RoundRect,0.200000X0.200000X0.275000X-0.200000X0.275000X-0.200000X-0.275000X0.200000X-0.275000X0*%
%ADD39RoundRect,0.250000X-0.475000X0.250000X-0.475000X-0.250000X0.475000X-0.250000X0.475000X0.250000X0*%
%ADD40RoundRect,0.225000X0.250000X-0.225000X0.250000X0.225000X-0.250000X0.225000X-0.250000X-0.225000X0*%
%ADD41R,1.905000X2.000000*%
%ADD42O,1.905000X2.000000*%
%ADD43RoundRect,0.250000X-0.250000X-0.475000X0.250000X-0.475000X0.250000X0.475000X-0.250000X0.475000X0*%
%ADD44RoundRect,0.175000X0.275000X0.175000X-0.275000X0.175000X-0.275000X-0.175000X0.275000X-0.175000X0*%
%ADD45RoundRect,0.250000X0.475000X-0.250000X0.475000X0.250000X-0.475000X0.250000X-0.475000X-0.250000X0*%
%ADD46R,0.450000X0.400000*%
%ADD47R,0.450000X0.500000*%
%ADD48RoundRect,0.243750X-0.456250X0.243750X-0.456250X-0.243750X0.456250X-0.243750X0.456250X0.243750X0*%
G04 APERTURE END LIST*
D10*
X162687000Y-66742000D03*
X162687000Y-103742000D03*
X71581000Y-103742000D03*
X71581000Y-66742000D03*
D11*
X114578000Y-100072000D03*
X114578000Y-102997000D03*
D12*
X125603000Y-71628000D03*
X123063000Y-71628000D03*
X120523000Y-71628000D03*
D11*
X121158000Y-100072000D03*
X121158000Y-102997000D03*
D13*
X140040000Y-86515000D03*
X140040000Y-87165000D03*
X140040000Y-87815000D03*
X140040000Y-88465000D03*
X144440000Y-88465000D03*
X144440000Y-87815000D03*
X144440000Y-87165000D03*
X144440000Y-86515000D03*
D14*
X142240000Y-87490000D03*
D15*
X79756000Y-104140000D03*
X77216000Y-104140000D03*
X79756000Y-101600000D03*
X77216000Y-101600000D03*
X79756000Y-99060000D03*
D16*
X77216000Y-99060000D03*
D17*
X133350000Y-78867000D03*
D18*
X133350000Y-76327000D03*
D12*
X162254000Y-89027000D03*
X159714000Y-89027000D03*
X157174000Y-89027000D03*
D13*
X141254812Y-80640400D03*
X141254812Y-81290400D03*
X141254812Y-81940400D03*
X141254812Y-82590400D03*
X145654812Y-82590400D03*
X145654812Y-81940400D03*
X145654812Y-81290400D03*
X145654812Y-80640400D03*
D14*
X143454812Y-81615400D03*
D19*
X156911000Y-100838000D03*
X158811000Y-100838000D03*
D16*
X131572000Y-97790000D03*
D15*
X131572000Y-95250000D03*
D20*
X145809000Y-78867000D03*
X144259000Y-78867000D03*
D21*
X95174000Y-77648000D03*
D22*
X95174000Y-80188000D03*
X95174000Y-82728000D03*
D23*
X124363000Y-85537000D03*
X124363000Y-87437000D03*
X126238000Y-86487000D03*
D24*
X85471000Y-94234000D03*
X87121000Y-94234000D03*
D25*
X87300000Y-70028000D03*
D26*
X92380000Y-70028000D03*
D27*
X101473000Y-99822000D03*
D28*
X106553000Y-99822000D03*
D29*
X141859000Y-78218670D03*
X141859000Y-76568670D03*
D30*
X89728000Y-104442500D03*
X91628000Y-104442500D03*
X90678000Y-102567500D03*
D31*
X136652000Y-88252000D03*
X136652000Y-89802000D03*
D32*
X123663000Y-81201500D03*
X123663000Y-79326500D03*
D33*
X106553000Y-86614000D03*
X106553000Y-85344000D03*
X106553000Y-84074000D03*
X106553000Y-82804000D03*
X101403000Y-82804000D03*
X101403000Y-84074000D03*
X101403000Y-85344000D03*
X101403000Y-86614000D03*
D19*
X79563000Y-96139000D03*
X77663000Y-96139000D03*
D11*
X141478000Y-93787500D03*
X141478000Y-96712500D03*
D34*
X108572000Y-81026000D03*
X110122000Y-81026000D03*
D16*
X156972000Y-84201000D03*
D15*
X154432000Y-84201000D03*
D35*
X91110000Y-82474000D03*
D28*
X83490000Y-82474000D03*
D20*
X106312000Y-81026000D03*
X104762000Y-81026000D03*
D36*
X119126000Y-78105000D03*
X119126000Y-79375000D03*
X119126000Y-80645000D03*
X119126000Y-81915000D03*
X113976000Y-81915000D03*
X113976000Y-80645000D03*
X113976000Y-79375000D03*
X113976000Y-78105000D03*
D37*
X157861000Y-98487000D03*
X159131000Y-98487000D03*
X160401000Y-98487000D03*
X161671000Y-98487000D03*
X161671000Y-93537000D03*
X160401000Y-93537000D03*
X159131000Y-93537000D03*
X157861000Y-93537000D03*
D24*
X124905000Y-83185000D03*
X126555000Y-83185000D03*
D31*
X137825812Y-80162400D03*
X137825812Y-81712400D03*
D38*
X139158812Y-83477400D03*
X137508812Y-83477400D03*
D31*
X136652000Y-85237000D03*
X136652000Y-86787000D03*
D39*
X131572000Y-100650000D03*
X131572000Y-102550000D03*
D34*
X101460000Y-88265000D03*
X103010000Y-88265000D03*
D16*
X80645000Y-87503000D03*
D15*
X78105000Y-87503000D03*
X153035000Y-101854000D03*
X153035000Y-99314000D03*
X153035000Y-96774000D03*
D16*
X153035000Y-94234000D03*
D40*
X147447000Y-81928000D03*
X147447000Y-80378000D03*
D34*
X103619000Y-97409000D03*
X105169000Y-97409000D03*
D20*
X120015000Y-76200000D03*
X118465000Y-76200000D03*
D41*
X81026000Y-91440000D03*
D42*
X78486000Y-91440000D03*
X75946000Y-91440000D03*
D21*
X125476000Y-95758000D03*
D22*
X125476000Y-98298000D03*
X125476000Y-100838000D03*
D43*
X130749000Y-82677000D03*
X132649000Y-82677000D03*
D16*
X150114000Y-88011000D03*
D15*
X150114000Y-85471000D03*
X150114000Y-82931000D03*
X150114000Y-80391000D03*
D44*
X140208000Y-74041000D03*
X140208000Y-72771000D03*
X135858000Y-72771000D03*
X135858000Y-74041000D03*
D11*
X149987000Y-97786000D03*
X149987000Y-100711000D03*
D16*
X129794000Y-79502000D03*
D15*
X129794000Y-76962000D03*
D24*
X95695000Y-95758000D03*
X97345000Y-95758000D03*
D11*
X117868000Y-100072000D03*
X117868000Y-102997000D03*
D40*
X146177000Y-88138000D03*
X146177000Y-86588000D03*
D41*
X90043000Y-97917000D03*
D42*
X87503000Y-97917000D03*
X84963000Y-97917000D03*
D45*
X122682000Y-77531000D03*
X122682000Y-75631000D03*
D24*
X108487000Y-82677000D03*
X110137000Y-82677000D03*
D11*
X144145000Y-93787500D03*
X144145000Y-96712500D03*
D38*
X114744000Y-74676000D03*
X113094000Y-74676000D03*
D46*
X87824000Y-103905000D03*
X87824000Y-103105000D03*
D47*
X86674000Y-103505000D03*
D31*
X108550000Y-85204000D03*
X108550000Y-86754000D03*
D29*
X142875000Y-102167000D03*
X142875000Y-100517000D03*
X105156000Y-90233000D03*
X105156000Y-88583000D03*
D46*
X125028000Y-89262000D03*
X125028000Y-90062000D03*
D47*
X126178000Y-89662000D03*
D31*
X136301812Y-80162400D03*
X136301812Y-81712400D03*
D24*
X102934000Y-103886000D03*
X104584000Y-103886000D03*
D39*
X116459000Y-74615000D03*
X116459000Y-76515000D03*
X155956000Y-95189000D03*
X155956000Y-97089000D03*
D16*
X132207000Y-90805000D03*
D15*
X129667000Y-90805000D03*
X132207000Y-88265000D03*
X129667000Y-88265000D03*
X132207000Y-85725000D03*
X129667000Y-85725000D03*
D23*
X145318000Y-100138000D03*
X145318000Y-102038000D03*
X147193000Y-101088000D03*
D44*
X140208000Y-77851000D03*
X140208000Y-76581000D03*
X135858000Y-76581000D03*
X135858000Y-77851000D03*
D40*
X110074000Y-85751000D03*
X110074000Y-84201000D03*
D29*
X138176000Y-89852000D03*
X138176000Y-88202000D03*
D24*
X106744000Y-89033500D03*
X108394000Y-89033500D03*
D35*
X91110000Y-77648000D03*
D28*
X83490000Y-77648000D03*
D24*
X125413000Y-92075000D03*
X127063000Y-92075000D03*
X117031000Y-91821000D03*
X118681000Y-91821000D03*
D38*
X114744000Y-76327000D03*
X113094000Y-76327000D03*
D45*
X121631000Y-81214000D03*
X121631000Y-79314000D03*
D40*
X107950000Y-103645000D03*
X107950000Y-102095000D03*
D29*
X138176000Y-86837000D03*
X138176000Y-85187000D03*
D16*
X95524063Y-98571312D03*
D15*
X98064063Y-98571312D03*
X95524063Y-101111312D03*
X98064063Y-101111312D03*
X95524063Y-103651312D03*
X98064063Y-103651312D03*
D41*
X120396000Y-87630000D03*
D42*
X117856000Y-87630000D03*
X115316000Y-87630000D03*
D38*
X105219000Y-95758000D03*
X103569000Y-95758000D03*
D48*
X163703000Y-93931500D03*
X163703000Y-95806500D03*
D40*
X106807000Y-97409000D03*
X106807000Y-95859000D03*
D24*
X102934000Y-102235000D03*
X104584000Y-102235000D03*
D12*
X110490000Y-98679000D03*
X110490000Y-96139000D03*
X110490000Y-93599000D03*
D16*
X115570000Y-96901000D03*
D15*
X115570000Y-94361000D03*
X118110000Y-96901000D03*
X118110000Y-94361000D03*
X120650000Y-96901000D03*
X120650000Y-94361000D03*
D29*
X139349812Y-81762400D03*
X139349812Y-80112400D03*
D12*
X109474000Y-76835000D03*
X106934000Y-76835000D03*
X104394000Y-76835000D03*
D29*
X141986000Y-74104000D03*
X141986000Y-72454000D03*
D16*
X138557000Y-92583000D03*
D15*
X136017000Y-92583000D03*
D34*
X114160000Y-83693000D03*
X115710000Y-83693000D03*
D35*
X97714000Y-87848063D03*
X99314000Y-88519000D03*
D27*
X99314000Y-91019000D03*
X100914000Y-91689937D03*
D35*
X136195000Y-97373063D03*
X137795000Y-98044000D03*
D27*
X137795000Y-100544000D03*
X139395000Y-101214937D03*
D35*
X86030000Y-87975063D03*
X87630000Y-88646000D03*
D27*
X87630000Y-91146000D03*
X89230000Y-91816937D03*
M02*
