%TF.GenerationSoftware,KiCad,Pcbnew,7.0.5-7.0.5~ubuntu23.04.1*%
%TF.CreationDate,2023-07-09T19:19:44+02:00*%
%TF.ProjectId,omega-pico,6f6d6567-612d-4706-9963-6f2e6b696361,rev?*%
%TF.SameCoordinates,Original*%
%TF.FileFunction,Soldermask,Bot*%
%TF.FilePolarity,Negative*%
%FSLAX46Y46*%
G04 Gerber Fmt 4.6, Leading zero omitted, Abs format (unit mm)*
G04 Created by KiCad (PCBNEW 7.0.5-7.0.5~ubuntu23.04.1) date 2023-07-09 19:19:44*
%MOMM*%
%LPD*%
G01*
G04 APERTURE LIST*
%ADD10C,3.200000*%
%ADD11C,1.440000*%
%ADD12O,1.700000X1.700000*%
%ADD13R,1.700000X1.700000*%
%ADD14R,2.000000X2.000000*%
%ADD15O,2.000000X2.000000*%
%ADD16R,2.000000X1.905000*%
%ADD17O,2.000000X1.905000*%
%ADD18R,3.000000X3.000000*%
%ADD19C,3.000000*%
%ADD20C,1.600000*%
%ADD21O,1.600000X1.600000*%
%ADD22R,1.600000X1.600000*%
%ADD23R,1.905000X2.000000*%
%ADD24O,1.905000X2.000000*%
G04 APERTURE END LIST*
D10*
X162687000Y-66742000D03*
X162687000Y-103742000D03*
X71581000Y-103742000D03*
X71581000Y-66742000D03*
D11*
X125603000Y-71628000D03*
X123063000Y-71628000D03*
X120523000Y-71628000D03*
D12*
X79756000Y-104140000D03*
X77216000Y-104140000D03*
X79756000Y-101600000D03*
X77216000Y-101600000D03*
X79756000Y-99060000D03*
D13*
X77216000Y-99060000D03*
D14*
X133350000Y-78867000D03*
D15*
X133350000Y-76327000D03*
D11*
X162254000Y-89027000D03*
X159714000Y-89027000D03*
X157174000Y-89027000D03*
D13*
X131572000Y-97790000D03*
D12*
X131572000Y-95250000D03*
D16*
X95174000Y-77648000D03*
D17*
X95174000Y-80188000D03*
X95174000Y-82728000D03*
D18*
X87300000Y-70028000D03*
D19*
X92380000Y-70028000D03*
D20*
X101473000Y-99822000D03*
D21*
X106553000Y-99822000D03*
D13*
X156972000Y-84201000D03*
D12*
X154432000Y-84201000D03*
D22*
X91110000Y-82474000D03*
D21*
X83490000Y-82474000D03*
D13*
X80645000Y-87503000D03*
D12*
X78105000Y-87503000D03*
X153035000Y-101854000D03*
X153035000Y-99314000D03*
X153035000Y-96774000D03*
D13*
X153035000Y-94234000D03*
D23*
X81026000Y-91440000D03*
D24*
X78486000Y-91440000D03*
X75946000Y-91440000D03*
D16*
X125476000Y-95758000D03*
D17*
X125476000Y-98298000D03*
X125476000Y-100838000D03*
D13*
X150114000Y-88011000D03*
D12*
X150114000Y-85471000D03*
X150114000Y-82931000D03*
X150114000Y-80391000D03*
D13*
X129794000Y-79502000D03*
D12*
X129794000Y-76962000D03*
D23*
X90043000Y-97917000D03*
D24*
X87503000Y-97917000D03*
X84963000Y-97917000D03*
D13*
X132207000Y-90805000D03*
D12*
X129667000Y-90805000D03*
X132207000Y-88265000D03*
X129667000Y-88265000D03*
X132207000Y-85725000D03*
X129667000Y-85725000D03*
D22*
X91110000Y-77648000D03*
D21*
X83490000Y-77648000D03*
D13*
X95524063Y-98571312D03*
D12*
X98064063Y-98571312D03*
X95524063Y-101111312D03*
X98064063Y-101111312D03*
X95524063Y-103651312D03*
X98064063Y-103651312D03*
D23*
X120396000Y-87630000D03*
D24*
X117856000Y-87630000D03*
X115316000Y-87630000D03*
D11*
X110490000Y-98679000D03*
X110490000Y-96139000D03*
X110490000Y-93599000D03*
D13*
X115570000Y-96901000D03*
D12*
X115570000Y-94361000D03*
X118110000Y-96901000D03*
X118110000Y-94361000D03*
X120650000Y-96901000D03*
X120650000Y-94361000D03*
D11*
X109474000Y-76835000D03*
X106934000Y-76835000D03*
X104394000Y-76835000D03*
D13*
X138557000Y-92583000D03*
D12*
X136017000Y-92583000D03*
D22*
X97714000Y-87848063D03*
X99314000Y-88519000D03*
D20*
X99314000Y-91019000D03*
X100914000Y-91689937D03*
D22*
X136195000Y-97373063D03*
X137795000Y-98044000D03*
D20*
X137795000Y-100544000D03*
X139395000Y-101214937D03*
D22*
X86030000Y-87975063D03*
X87630000Y-88646000D03*
D20*
X87630000Y-91146000D03*
X89230000Y-91816937D03*
M02*
