M48
; DRILL file {KiCad 7.0.5-7.0.5~ubuntu23.04.1} date Sun 09 Jul 2023 07:01:29 PM CEST
; FORMAT={-:-/ absolute / metric / decimal}
; #@! TF.CreationDate,2023-07-09T19:01:29+02:00
; #@! TF.GenerationSoftware,Kicad,Pcbnew,7.0.5-7.0.5~ubuntu23.04.1
; #@! TF.FileFunction,Plated,1,4,PTH
FMAT,2
METRIC
; #@! TA.AperFunction,Plated,PTH,ViaDrill
T1C0.300
; #@! TA.AperFunction,Plated,PTH,ViaDrill
T2C0.400
; #@! TA.AperFunction,Plated,PTH,ViaDrill
T3C0.500
; #@! TA.AperFunction,Plated,PTH,ComponentDrill
T4C0.800
; #@! TA.AperFunction,Plated,PTH,ComponentDrill
T5C1.000
; #@! TA.AperFunction,Plated,PTH,ComponentDrill
T6C1.100
; #@! TA.AperFunction,Plated,PTH,ComponentDrill
T7C1.520
%
G90
G05
T1
X144.44Y-86.49
X144.44Y-88.49
T2
X85.471Y-94.234
X87.122Y-94.234
X87.884Y-102.616
X89.728Y-104.442
X101.46Y-88.265
X101.473Y-82.804
X103.01Y-88.265
X104.775Y-81.026
X106.299Y-81.026
X106.553Y-82.804
X106.807Y-95.885
X110.122Y-81.026
X113.976Y-81.915
X114.173Y-83.693
X115.71Y-83.693
X118.478Y-76.2
X119.126Y-81.828
X119.253Y-78.105
X120.015Y-76.2
X122.682Y-75.631
X122.682Y-77.531
X136.302Y-80.162
X136.302Y-81.712
X136.652Y-85.22
X136.652Y-88.252
X136.652Y-89.802
X138.176Y-85.187
X138.176Y-89.852
X139.159Y-83.477
X140.04Y-86.34
X140.04Y-88.64
X140.192Y-72.771
X141.255Y-82.765
X141.796Y-87.045
X141.796Y-87.934
X141.859Y-78.232
X141.986Y-74.105
X142.684Y-87.045
X142.684Y-87.934
X143.033Y-82.067
X143.043Y-81.153
X143.881Y-82.067
X143.891Y-81.153
X144.259Y-78.867
X145.318Y-100.138
X145.655Y-82.765
X145.7Y-80.466
X146.177Y-86.588
X147.447Y-80.378
X157.861Y-93.537
X160.401Y-98.487
T3
X79.563Y-96.139
X107.95Y-102.095
X123.19Y-84.582
X141.478Y-93.787
X144.145Y-93.533
T4
X83.49Y-77.648
X83.49Y-82.474
X86.03Y-87.975
X87.63Y-88.646
X87.63Y-91.146
X89.23Y-91.817
X91.11Y-77.648
X91.11Y-82.474
X97.714Y-87.848
X99.314Y-88.519
X99.314Y-91.019
X100.914Y-91.69
X101.473Y-99.822
X104.394Y-76.835
X106.553Y-99.822
X106.934Y-76.835
X109.474Y-76.835
X110.49Y-93.599
X110.49Y-96.139
X110.49Y-98.679
X120.523Y-71.628
X123.063Y-71.628
X125.603Y-71.628
X136.195Y-97.373
X137.795Y-98.044
X137.795Y-100.544
X139.395Y-101.215
X157.174Y-89.027
X159.714Y-89.027
X162.254Y-89.027
T5
X77.216Y-99.06
X77.216Y-101.6
X77.216Y-104.14
X78.105Y-87.503
X79.756Y-99.06
X79.756Y-101.6
X79.756Y-104.14
X80.645Y-87.503
X95.524Y-98.571
X95.524Y-101.111
X95.524Y-103.651
X98.064Y-98.571
X98.064Y-101.111
X98.064Y-103.651
X115.57Y-94.361
X115.57Y-96.901
X118.11Y-94.361
X118.11Y-96.901
X120.65Y-94.361
X120.65Y-96.901
X129.667Y-85.725
X129.667Y-88.265
X129.667Y-90.805
X129.794Y-76.962
X129.794Y-79.502
X131.572Y-95.25
X131.572Y-97.79
X132.207Y-85.725
X132.207Y-88.265
X132.207Y-90.805
X133.35Y-76.327
X133.35Y-78.867
X136.017Y-92.583
X138.557Y-92.583
X150.114Y-80.391
X150.114Y-82.931
X150.114Y-85.471
X150.114Y-88.011
X153.035Y-94.234
X153.035Y-96.774
X153.035Y-99.314
X153.035Y-101.854
X154.432Y-84.201
X156.972Y-84.201
T6
X75.946Y-91.44
X78.486Y-91.44
X81.026Y-91.44
X84.963Y-97.917
X87.503Y-97.917
X90.043Y-97.917
X95.174Y-77.648
X95.174Y-80.188
X95.174Y-82.728
X115.316Y-87.63
X117.856Y-87.63
X120.396Y-87.63
X125.476Y-95.758
X125.476Y-98.298
X125.476Y-100.838
T7
X87.3Y-70.028
X92.38Y-70.028
T0
M30
