%TF.GenerationSoftware,KiCad,Pcbnew,7.0.5-7.0.5~ubuntu23.04.1*%
%TF.CreationDate,2023-07-09T18:59:55+02:00*%
%TF.ProjectId,omega-pico,6f6d6567-612d-4706-9963-6f2e6b696361,rev?*%
%TF.SameCoordinates,Original*%
%TF.FileFunction,Legend,Bot*%
%TF.FilePolarity,Positive*%
%FSLAX46Y46*%
G04 Gerber Fmt 4.6, Leading zero omitted, Abs format (unit mm)*
G04 Created by KiCad (PCBNEW 7.0.5-7.0.5~ubuntu23.04.1) date 2023-07-09 18:59:55*
%MOMM*%
%LPD*%
G01*
G04 APERTURE LIST*
%ADD10C,0.150000*%
%ADD11C,0.120000*%
%ADD12C,3.200000*%
%ADD13C,1.440000*%
%ADD14R,1.700000X1.700000*%
%ADD15O,1.700000X1.700000*%
%ADD16R,2.000000X2.000000*%
%ADD17O,2.000000X2.000000*%
%ADD18R,2.000000X1.905000*%
%ADD19O,2.000000X1.905000*%
%ADD20R,3.000000X3.000000*%
%ADD21C,3.000000*%
%ADD22C,1.600000*%
%ADD23O,1.600000X1.600000*%
%ADD24R,1.600000X1.600000*%
%ADD25R,1.905000X2.000000*%
%ADD26O,1.905000X2.000000*%
G04 APERTURE END LIST*
D10*
X93423580Y-90634958D02*
X93471200Y-90587339D01*
X93471200Y-90587339D02*
X93518819Y-90444482D01*
X93518819Y-90444482D02*
X93518819Y-90349244D01*
X93518819Y-90349244D02*
X93471200Y-90206387D01*
X93471200Y-90206387D02*
X93375961Y-90111149D01*
X93375961Y-90111149D02*
X93280723Y-90063530D01*
X93280723Y-90063530D02*
X93090247Y-90015911D01*
X93090247Y-90015911D02*
X92947390Y-90015911D01*
X92947390Y-90015911D02*
X92756914Y-90063530D01*
X92756914Y-90063530D02*
X92661676Y-90111149D01*
X92661676Y-90111149D02*
X92566438Y-90206387D01*
X92566438Y-90206387D02*
X92518819Y-90349244D01*
X92518819Y-90349244D02*
X92518819Y-90444482D01*
X92518819Y-90444482D02*
X92566438Y-90587339D01*
X92566438Y-90587339D02*
X92614057Y-90634958D01*
X93518819Y-91587339D02*
X93518819Y-91015911D01*
X93518819Y-91301625D02*
X92518819Y-91301625D01*
X92518819Y-91301625D02*
X92661676Y-91206387D01*
X92661676Y-91206387D02*
X92756914Y-91111149D01*
X92756914Y-91111149D02*
X92804533Y-91015911D01*
X131904580Y-98651142D02*
X131952200Y-98603523D01*
X131952200Y-98603523D02*
X131999819Y-98460666D01*
X131999819Y-98460666D02*
X131999819Y-98365428D01*
X131999819Y-98365428D02*
X131952200Y-98222571D01*
X131952200Y-98222571D02*
X131856961Y-98127333D01*
X131856961Y-98127333D02*
X131761723Y-98079714D01*
X131761723Y-98079714D02*
X131571247Y-98032095D01*
X131571247Y-98032095D02*
X131428390Y-98032095D01*
X131428390Y-98032095D02*
X131237914Y-98079714D01*
X131237914Y-98079714D02*
X131142676Y-98127333D01*
X131142676Y-98127333D02*
X131047438Y-98222571D01*
X131047438Y-98222571D02*
X130999819Y-98365428D01*
X130999819Y-98365428D02*
X130999819Y-98460666D01*
X130999819Y-98460666D02*
X131047438Y-98603523D01*
X131047438Y-98603523D02*
X131095057Y-98651142D01*
X131999819Y-99603523D02*
X131999819Y-99032095D01*
X131999819Y-99317809D02*
X130999819Y-99317809D01*
X130999819Y-99317809D02*
X131142676Y-99222571D01*
X131142676Y-99222571D02*
X131237914Y-99127333D01*
X131237914Y-99127333D02*
X131285533Y-99032095D01*
X131999819Y-100555904D02*
X131999819Y-99984476D01*
X131999819Y-100270190D02*
X130999819Y-100270190D01*
X130999819Y-100270190D02*
X131142676Y-100174952D01*
X131142676Y-100174952D02*
X131237914Y-100079714D01*
X131237914Y-100079714D02*
X131285533Y-99984476D01*
X80589580Y-90566333D02*
X80637200Y-90518714D01*
X80637200Y-90518714D02*
X80684819Y-90375857D01*
X80684819Y-90375857D02*
X80684819Y-90280619D01*
X80684819Y-90280619D02*
X80637200Y-90137762D01*
X80637200Y-90137762D02*
X80541961Y-90042524D01*
X80541961Y-90042524D02*
X80446723Y-89994905D01*
X80446723Y-89994905D02*
X80256247Y-89947286D01*
X80256247Y-89947286D02*
X80113390Y-89947286D01*
X80113390Y-89947286D02*
X79922914Y-89994905D01*
X79922914Y-89994905D02*
X79827676Y-90042524D01*
X79827676Y-90042524D02*
X79732438Y-90137762D01*
X79732438Y-90137762D02*
X79684819Y-90280619D01*
X79684819Y-90280619D02*
X79684819Y-90375857D01*
X79684819Y-90375857D02*
X79732438Y-90518714D01*
X79732438Y-90518714D02*
X79780057Y-90566333D01*
X79780057Y-90947286D02*
X79732438Y-90994905D01*
X79732438Y-90994905D02*
X79684819Y-91090143D01*
X79684819Y-91090143D02*
X79684819Y-91328238D01*
X79684819Y-91328238D02*
X79732438Y-91423476D01*
X79732438Y-91423476D02*
X79780057Y-91471095D01*
X79780057Y-91471095D02*
X79875295Y-91518714D01*
X79875295Y-91518714D02*
X79970533Y-91518714D01*
X79970533Y-91518714D02*
X80113390Y-91471095D01*
X80113390Y-91471095D02*
X80684819Y-90899667D01*
X80684819Y-90899667D02*
X80684819Y-91518714D01*
D11*
X96439000Y-84289354D02*
X96439000Y-85289354D01*
X95939000Y-84789354D02*
X96939000Y-84789354D01*
X94234000Y-89769000D02*
X104394000Y-89769000D01*
X94234000Y-89809000D02*
X104394000Y-89809000D01*
X94234000Y-89849000D02*
X104394000Y-89849000D01*
X94235000Y-89889000D02*
X104393000Y-89889000D01*
X94236000Y-89929000D02*
X104392000Y-89929000D01*
X94237000Y-89969000D02*
X104391000Y-89969000D01*
X100354000Y-90009000D02*
X104389000Y-90009000D01*
X94239000Y-90009000D02*
X98274000Y-90009000D01*
X100354000Y-90049000D02*
X104387000Y-90049000D01*
X94241000Y-90049000D02*
X98274000Y-90049000D01*
X100354000Y-90089000D02*
X104384000Y-90089000D01*
X94244000Y-90089000D02*
X98274000Y-90089000D01*
X100354000Y-90129000D02*
X104382000Y-90129000D01*
X94246000Y-90129000D02*
X98274000Y-90129000D01*
X100354000Y-90169000D02*
X104379000Y-90169000D01*
X94249000Y-90169000D02*
X98274000Y-90169000D01*
X100354000Y-90209000D02*
X104376000Y-90209000D01*
X94252000Y-90209000D02*
X98274000Y-90209000D01*
X100354000Y-90249000D02*
X104372000Y-90249000D01*
X94256000Y-90249000D02*
X98274000Y-90249000D01*
X100354000Y-90289000D02*
X104368000Y-90289000D01*
X94260000Y-90289000D02*
X98274000Y-90289000D01*
X100354000Y-90329000D02*
X104364000Y-90329000D01*
X94264000Y-90329000D02*
X98274000Y-90329000D01*
X100354000Y-90369000D02*
X104359000Y-90369000D01*
X94269000Y-90369000D02*
X98274000Y-90369000D01*
X100354000Y-90409000D02*
X104354000Y-90409000D01*
X94274000Y-90409000D02*
X98274000Y-90409000D01*
X100354000Y-90449000D02*
X104349000Y-90449000D01*
X94279000Y-90449000D02*
X98274000Y-90449000D01*
X100354000Y-90490000D02*
X104344000Y-90490000D01*
X94284000Y-90490000D02*
X98274000Y-90490000D01*
X100354000Y-90530000D02*
X104338000Y-90530000D01*
X94290000Y-90530000D02*
X98274000Y-90530000D01*
X100354000Y-90570000D02*
X104332000Y-90570000D01*
X94296000Y-90570000D02*
X98274000Y-90570000D01*
X100354000Y-90610000D02*
X104325000Y-90610000D01*
X94303000Y-90610000D02*
X98274000Y-90610000D01*
X100354000Y-90650000D02*
X104318000Y-90650000D01*
X94310000Y-90650000D02*
X98274000Y-90650000D01*
X101954000Y-90690000D02*
X104311000Y-90690000D01*
X94317000Y-90690000D02*
X98274000Y-90690000D01*
X101954000Y-90730000D02*
X104304000Y-90730000D01*
X94324000Y-90730000D02*
X98274000Y-90730000D01*
X101954000Y-90770000D02*
X104296000Y-90770000D01*
X94332000Y-90770000D02*
X98274000Y-90770000D01*
X101954000Y-90810000D02*
X104288000Y-90810000D01*
X94340000Y-90810000D02*
X98274000Y-90810000D01*
X101954000Y-90850000D02*
X104279000Y-90850000D01*
X94349000Y-90850000D02*
X98274000Y-90850000D01*
X101954000Y-90890000D02*
X104270000Y-90890000D01*
X94358000Y-90890000D02*
X98274000Y-90890000D01*
X101954000Y-90930000D02*
X104261000Y-90930000D01*
X94367000Y-90930000D02*
X98274000Y-90930000D01*
X101954000Y-90970000D02*
X104252000Y-90970000D01*
X94376000Y-90970000D02*
X98274000Y-90970000D01*
X101954000Y-91010000D02*
X104242000Y-91010000D01*
X94386000Y-91010000D02*
X98274000Y-91010000D01*
X101954000Y-91050000D02*
X104232000Y-91050000D01*
X94396000Y-91050000D02*
X98274000Y-91050000D01*
X101954000Y-91090000D02*
X104221000Y-91090000D01*
X94407000Y-91090000D02*
X98274000Y-91090000D01*
X101954000Y-91130000D02*
X104211000Y-91130000D01*
X94417000Y-91130000D02*
X98274000Y-91130000D01*
X101954000Y-91170000D02*
X104199000Y-91170000D01*
X94429000Y-91170000D02*
X98274000Y-91170000D01*
X101954000Y-91210000D02*
X104188000Y-91210000D01*
X94440000Y-91210000D02*
X98274000Y-91210000D01*
X101954000Y-91250000D02*
X104176000Y-91250000D01*
X94452000Y-91250000D02*
X98274000Y-91250000D01*
X101954000Y-91290000D02*
X104164000Y-91290000D01*
X94464000Y-91290000D02*
X98274000Y-91290000D01*
X101954000Y-91330000D02*
X104151000Y-91330000D01*
X94477000Y-91330000D02*
X98274000Y-91330000D01*
X101954000Y-91370000D02*
X104138000Y-91370000D01*
X94490000Y-91370000D02*
X98274000Y-91370000D01*
X101954000Y-91410000D02*
X104125000Y-91410000D01*
X94503000Y-91410000D02*
X98274000Y-91410000D01*
X101954000Y-91450000D02*
X104111000Y-91450000D01*
X94517000Y-91450000D02*
X98274000Y-91450000D01*
X101954000Y-91490000D02*
X104097000Y-91490000D01*
X94531000Y-91490000D02*
X98274000Y-91490000D01*
X101954000Y-91530000D02*
X104082000Y-91530000D01*
X94546000Y-91530000D02*
X98274000Y-91530000D01*
X101954000Y-91570000D02*
X104068000Y-91570000D01*
X94560000Y-91570000D02*
X98274000Y-91570000D01*
X101954000Y-91610000D02*
X104052000Y-91610000D01*
X94576000Y-91610000D02*
X98274000Y-91610000D01*
X101954000Y-91650000D02*
X104037000Y-91650000D01*
X94591000Y-91650000D02*
X98274000Y-91650000D01*
X101954000Y-91690000D02*
X104021000Y-91690000D01*
X94607000Y-91690000D02*
X98274000Y-91690000D01*
X101954000Y-91730000D02*
X104004000Y-91730000D01*
X94624000Y-91730000D02*
X98274000Y-91730000D01*
X101954000Y-91770000D02*
X103988000Y-91770000D01*
X94640000Y-91770000D02*
X98274000Y-91770000D01*
X101954000Y-91810000D02*
X103971000Y-91810000D01*
X94657000Y-91810000D02*
X98274000Y-91810000D01*
X101954000Y-91850000D02*
X103953000Y-91850000D01*
X94675000Y-91850000D02*
X98274000Y-91850000D01*
X101954000Y-91890000D02*
X103935000Y-91890000D01*
X94693000Y-91890000D02*
X98274000Y-91890000D01*
X101954000Y-91930000D02*
X103917000Y-91930000D01*
X94711000Y-91930000D02*
X98274000Y-91930000D01*
X101954000Y-91970000D02*
X103898000Y-91970000D01*
X94730000Y-91970000D02*
X98274000Y-91970000D01*
X101954000Y-92010000D02*
X103878000Y-92010000D01*
X94750000Y-92010000D02*
X98274000Y-92010000D01*
X101954000Y-92050000D02*
X103859000Y-92050000D01*
X94769000Y-92050000D02*
X98274000Y-92050000D01*
X101954000Y-92090000D02*
X103839000Y-92090000D01*
X94789000Y-92090000D02*
X99874000Y-92090000D01*
X101954000Y-92130000D02*
X103818000Y-92130000D01*
X94810000Y-92130000D02*
X99874000Y-92130000D01*
X101954000Y-92170000D02*
X103797000Y-92170000D01*
X94831000Y-92170000D02*
X99874000Y-92170000D01*
X101954000Y-92210000D02*
X103776000Y-92210000D01*
X94852000Y-92210000D02*
X99874000Y-92210000D01*
X101954000Y-92250000D02*
X103754000Y-92250000D01*
X94874000Y-92250000D02*
X99874000Y-92250000D01*
X101954000Y-92290000D02*
X103731000Y-92290000D01*
X94897000Y-92290000D02*
X99874000Y-92290000D01*
X101954000Y-92330000D02*
X103709000Y-92330000D01*
X94919000Y-92330000D02*
X99874000Y-92330000D01*
X101954000Y-92370000D02*
X103685000Y-92370000D01*
X94943000Y-92370000D02*
X99874000Y-92370000D01*
X101954000Y-92410000D02*
X103661000Y-92410000D01*
X94967000Y-92410000D02*
X99874000Y-92410000D01*
X101954000Y-92450000D02*
X103637000Y-92450000D01*
X94991000Y-92450000D02*
X99874000Y-92450000D01*
X101954000Y-92490000D02*
X103612000Y-92490000D01*
X95016000Y-92490000D02*
X99874000Y-92490000D01*
X101954000Y-92530000D02*
X103587000Y-92530000D01*
X95041000Y-92530000D02*
X99874000Y-92530000D01*
X101954000Y-92570000D02*
X103561000Y-92570000D01*
X95067000Y-92570000D02*
X99874000Y-92570000D01*
X101954000Y-92610000D02*
X103535000Y-92610000D01*
X95093000Y-92610000D02*
X99874000Y-92610000D01*
X101954000Y-92650000D02*
X103508000Y-92650000D01*
X95120000Y-92650000D02*
X99874000Y-92650000D01*
X101954000Y-92690000D02*
X103480000Y-92690000D01*
X95148000Y-92690000D02*
X99874000Y-92690000D01*
X101954000Y-92730000D02*
X103452000Y-92730000D01*
X95176000Y-92730000D02*
X99874000Y-92730000D01*
X95204000Y-92770000D02*
X103424000Y-92770000D01*
X95234000Y-92810000D02*
X103394000Y-92810000D01*
X95264000Y-92850000D02*
X103364000Y-92850000D01*
X95294000Y-92890000D02*
X103334000Y-92890000D01*
X95325000Y-92930000D02*
X103303000Y-92930000D01*
X95357000Y-92970000D02*
X103271000Y-92970000D01*
X95389000Y-93010000D02*
X103239000Y-93010000D01*
X95422000Y-93050000D02*
X103206000Y-93050000D01*
X95456000Y-93090000D02*
X103172000Y-93090000D01*
X95490000Y-93130000D02*
X103138000Y-93130000D01*
X95525000Y-93170000D02*
X103103000Y-93170000D01*
X95561000Y-93210000D02*
X103067000Y-93210000D01*
X95598000Y-93250000D02*
X103030000Y-93250000D01*
X95635000Y-93290000D02*
X102993000Y-93290000D01*
X95674000Y-93330000D02*
X102954000Y-93330000D01*
X95713000Y-93370000D02*
X102915000Y-93370000D01*
X95753000Y-93410000D02*
X102875000Y-93410000D01*
X95794000Y-93450000D02*
X102834000Y-93450000D01*
X95836000Y-93490000D02*
X102792000Y-93490000D01*
X95878000Y-93530000D02*
X102750000Y-93530000D01*
X95922000Y-93570000D02*
X102706000Y-93570000D01*
X95967000Y-93610000D02*
X102661000Y-93610000D01*
X96013000Y-93650000D02*
X102615000Y-93650000D01*
X96060000Y-93690000D02*
X102568000Y-93690000D01*
X96108000Y-93730000D02*
X102520000Y-93730000D01*
X96158000Y-93770000D02*
X102470000Y-93770000D01*
X96208000Y-93810000D02*
X102420000Y-93810000D01*
X96260000Y-93850000D02*
X102368000Y-93850000D01*
X96314000Y-93890000D02*
X102314000Y-93890000D01*
X96369000Y-93930000D02*
X102259000Y-93930000D01*
X96425000Y-93970000D02*
X102203000Y-93970000D01*
X96484000Y-94010000D02*
X102144000Y-94010000D01*
X96544000Y-94050000D02*
X102084000Y-94050000D01*
X96605000Y-94090000D02*
X102023000Y-94090000D01*
X96669000Y-94130000D02*
X101959000Y-94130000D01*
X96735000Y-94170000D02*
X101893000Y-94170000D01*
X96804000Y-94210000D02*
X101824000Y-94210000D01*
X96875000Y-94250000D02*
X101753000Y-94250000D01*
X96949000Y-94290000D02*
X101679000Y-94290000D01*
X97025000Y-94330000D02*
X101603000Y-94330000D01*
X97105000Y-94370000D02*
X101523000Y-94370000D01*
X97189000Y-94410000D02*
X101439000Y-94410000D01*
X97277000Y-94450000D02*
X101351000Y-94450000D01*
X97370000Y-94490000D02*
X101258000Y-94490000D01*
X97468000Y-94530000D02*
X101160000Y-94530000D01*
X97572000Y-94570000D02*
X101056000Y-94570000D01*
X97684000Y-94610000D02*
X100944000Y-94610000D01*
X97804000Y-94650000D02*
X100824000Y-94650000D01*
X97936000Y-94690000D02*
X100692000Y-94690000D01*
X98084000Y-94730000D02*
X100544000Y-94730000D01*
X98252000Y-94770000D02*
X100376000Y-94770000D01*
X98452000Y-94810000D02*
X100176000Y-94810000D01*
X98715000Y-94850000D02*
X99913000Y-94850000D01*
X104434000Y-89769000D02*
G75*
G03*
X104434000Y-89769000I-5120000J0D01*
G01*
X134920000Y-93814354D02*
X134920000Y-94814354D01*
X134420000Y-94314354D02*
X135420000Y-94314354D01*
X132715000Y-99294000D02*
X142875000Y-99294000D01*
X132715000Y-99334000D02*
X142875000Y-99334000D01*
X132715000Y-99374000D02*
X142875000Y-99374000D01*
X132716000Y-99414000D02*
X142874000Y-99414000D01*
X132717000Y-99454000D02*
X142873000Y-99454000D01*
X132718000Y-99494000D02*
X142872000Y-99494000D01*
X138835000Y-99534000D02*
X142870000Y-99534000D01*
X132720000Y-99534000D02*
X136755000Y-99534000D01*
X138835000Y-99574000D02*
X142868000Y-99574000D01*
X132722000Y-99574000D02*
X136755000Y-99574000D01*
X138835000Y-99614000D02*
X142865000Y-99614000D01*
X132725000Y-99614000D02*
X136755000Y-99614000D01*
X138835000Y-99654000D02*
X142863000Y-99654000D01*
X132727000Y-99654000D02*
X136755000Y-99654000D01*
X138835000Y-99694000D02*
X142860000Y-99694000D01*
X132730000Y-99694000D02*
X136755000Y-99694000D01*
X138835000Y-99734000D02*
X142857000Y-99734000D01*
X132733000Y-99734000D02*
X136755000Y-99734000D01*
X138835000Y-99774000D02*
X142853000Y-99774000D01*
X132737000Y-99774000D02*
X136755000Y-99774000D01*
X138835000Y-99814000D02*
X142849000Y-99814000D01*
X132741000Y-99814000D02*
X136755000Y-99814000D01*
X138835000Y-99854000D02*
X142845000Y-99854000D01*
X132745000Y-99854000D02*
X136755000Y-99854000D01*
X138835000Y-99894000D02*
X142840000Y-99894000D01*
X132750000Y-99894000D02*
X136755000Y-99894000D01*
X138835000Y-99934000D02*
X142835000Y-99934000D01*
X132755000Y-99934000D02*
X136755000Y-99934000D01*
X138835000Y-99974000D02*
X142830000Y-99974000D01*
X132760000Y-99974000D02*
X136755000Y-99974000D01*
X138835000Y-100015000D02*
X142825000Y-100015000D01*
X132765000Y-100015000D02*
X136755000Y-100015000D01*
X138835000Y-100055000D02*
X142819000Y-100055000D01*
X132771000Y-100055000D02*
X136755000Y-100055000D01*
X138835000Y-100095000D02*
X142813000Y-100095000D01*
X132777000Y-100095000D02*
X136755000Y-100095000D01*
X138835000Y-100135000D02*
X142806000Y-100135000D01*
X132784000Y-100135000D02*
X136755000Y-100135000D01*
X138835000Y-100175000D02*
X142799000Y-100175000D01*
X132791000Y-100175000D02*
X136755000Y-100175000D01*
X140435000Y-100215000D02*
X142792000Y-100215000D01*
X132798000Y-100215000D02*
X136755000Y-100215000D01*
X140435000Y-100255000D02*
X142785000Y-100255000D01*
X132805000Y-100255000D02*
X136755000Y-100255000D01*
X140435000Y-100295000D02*
X142777000Y-100295000D01*
X132813000Y-100295000D02*
X136755000Y-100295000D01*
X140435000Y-100335000D02*
X142769000Y-100335000D01*
X132821000Y-100335000D02*
X136755000Y-100335000D01*
X140435000Y-100375000D02*
X142760000Y-100375000D01*
X132830000Y-100375000D02*
X136755000Y-100375000D01*
X140435000Y-100415000D02*
X142751000Y-100415000D01*
X132839000Y-100415000D02*
X136755000Y-100415000D01*
X140435000Y-100455000D02*
X142742000Y-100455000D01*
X132848000Y-100455000D02*
X136755000Y-100455000D01*
X140435000Y-100495000D02*
X142733000Y-100495000D01*
X132857000Y-100495000D02*
X136755000Y-100495000D01*
X140435000Y-100535000D02*
X142723000Y-100535000D01*
X132867000Y-100535000D02*
X136755000Y-100535000D01*
X140435000Y-100575000D02*
X142713000Y-100575000D01*
X132877000Y-100575000D02*
X136755000Y-100575000D01*
X140435000Y-100615000D02*
X142702000Y-100615000D01*
X132888000Y-100615000D02*
X136755000Y-100615000D01*
X140435000Y-100655000D02*
X142692000Y-100655000D01*
X132898000Y-100655000D02*
X136755000Y-100655000D01*
X140435000Y-100695000D02*
X142680000Y-100695000D01*
X132910000Y-100695000D02*
X136755000Y-100695000D01*
X140435000Y-100735000D02*
X142669000Y-100735000D01*
X132921000Y-100735000D02*
X136755000Y-100735000D01*
X140435000Y-100775000D02*
X142657000Y-100775000D01*
X132933000Y-100775000D02*
X136755000Y-100775000D01*
X140435000Y-100815000D02*
X142645000Y-100815000D01*
X132945000Y-100815000D02*
X136755000Y-100815000D01*
X140435000Y-100855000D02*
X142632000Y-100855000D01*
X132958000Y-100855000D02*
X136755000Y-100855000D01*
X140435000Y-100895000D02*
X142619000Y-100895000D01*
X132971000Y-100895000D02*
X136755000Y-100895000D01*
X140435000Y-100935000D02*
X142606000Y-100935000D01*
X132984000Y-100935000D02*
X136755000Y-100935000D01*
X140435000Y-100975000D02*
X142592000Y-100975000D01*
X132998000Y-100975000D02*
X136755000Y-100975000D01*
X140435000Y-101015000D02*
X142578000Y-101015000D01*
X133012000Y-101015000D02*
X136755000Y-101015000D01*
X140435000Y-101055000D02*
X142563000Y-101055000D01*
X133027000Y-101055000D02*
X136755000Y-101055000D01*
X140435000Y-101095000D02*
X142549000Y-101095000D01*
X133041000Y-101095000D02*
X136755000Y-101095000D01*
X140435000Y-101135000D02*
X142533000Y-101135000D01*
X133057000Y-101135000D02*
X136755000Y-101135000D01*
X140435000Y-101175000D02*
X142518000Y-101175000D01*
X133072000Y-101175000D02*
X136755000Y-101175000D01*
X140435000Y-101215000D02*
X142502000Y-101215000D01*
X133088000Y-101215000D02*
X136755000Y-101215000D01*
X140435000Y-101255000D02*
X142485000Y-101255000D01*
X133105000Y-101255000D02*
X136755000Y-101255000D01*
X140435000Y-101295000D02*
X142469000Y-101295000D01*
X133121000Y-101295000D02*
X136755000Y-101295000D01*
X140435000Y-101335000D02*
X142452000Y-101335000D01*
X133138000Y-101335000D02*
X136755000Y-101335000D01*
X140435000Y-101375000D02*
X142434000Y-101375000D01*
X133156000Y-101375000D02*
X136755000Y-101375000D01*
X140435000Y-101415000D02*
X142416000Y-101415000D01*
X133174000Y-101415000D02*
X136755000Y-101415000D01*
X140435000Y-101455000D02*
X142398000Y-101455000D01*
X133192000Y-101455000D02*
X136755000Y-101455000D01*
X140435000Y-101495000D02*
X142379000Y-101495000D01*
X133211000Y-101495000D02*
X136755000Y-101495000D01*
X140435000Y-101535000D02*
X142359000Y-101535000D01*
X133231000Y-101535000D02*
X136755000Y-101535000D01*
X140435000Y-101575000D02*
X142340000Y-101575000D01*
X133250000Y-101575000D02*
X136755000Y-101575000D01*
X140435000Y-101615000D02*
X142320000Y-101615000D01*
X133270000Y-101615000D02*
X138355000Y-101615000D01*
X140435000Y-101655000D02*
X142299000Y-101655000D01*
X133291000Y-101655000D02*
X138355000Y-101655000D01*
X140435000Y-101695000D02*
X142278000Y-101695000D01*
X133312000Y-101695000D02*
X138355000Y-101695000D01*
X140435000Y-101735000D02*
X142257000Y-101735000D01*
X133333000Y-101735000D02*
X138355000Y-101735000D01*
X140435000Y-101775000D02*
X142235000Y-101775000D01*
X133355000Y-101775000D02*
X138355000Y-101775000D01*
X140435000Y-101815000D02*
X142212000Y-101815000D01*
X133378000Y-101815000D02*
X138355000Y-101815000D01*
X140435000Y-101855000D02*
X142190000Y-101855000D01*
X133400000Y-101855000D02*
X138355000Y-101855000D01*
X140435000Y-101895000D02*
X142166000Y-101895000D01*
X133424000Y-101895000D02*
X138355000Y-101895000D01*
X140435000Y-101935000D02*
X142142000Y-101935000D01*
X133448000Y-101935000D02*
X138355000Y-101935000D01*
X140435000Y-101975000D02*
X142118000Y-101975000D01*
X133472000Y-101975000D02*
X138355000Y-101975000D01*
X140435000Y-102015000D02*
X142093000Y-102015000D01*
X133497000Y-102015000D02*
X138355000Y-102015000D01*
X140435000Y-102055000D02*
X142068000Y-102055000D01*
X133522000Y-102055000D02*
X138355000Y-102055000D01*
X140435000Y-102095000D02*
X142042000Y-102095000D01*
X133548000Y-102095000D02*
X138355000Y-102095000D01*
X140435000Y-102135000D02*
X142016000Y-102135000D01*
X133574000Y-102135000D02*
X138355000Y-102135000D01*
X140435000Y-102175000D02*
X141989000Y-102175000D01*
X133601000Y-102175000D02*
X138355000Y-102175000D01*
X140435000Y-102215000D02*
X141961000Y-102215000D01*
X133629000Y-102215000D02*
X138355000Y-102215000D01*
X140435000Y-102255000D02*
X141933000Y-102255000D01*
X133657000Y-102255000D02*
X138355000Y-102255000D01*
X133685000Y-102295000D02*
X141905000Y-102295000D01*
X133715000Y-102335000D02*
X141875000Y-102335000D01*
X133745000Y-102375000D02*
X141845000Y-102375000D01*
X133775000Y-102415000D02*
X141815000Y-102415000D01*
X133806000Y-102455000D02*
X141784000Y-102455000D01*
X133838000Y-102495000D02*
X141752000Y-102495000D01*
X133870000Y-102535000D02*
X141720000Y-102535000D01*
X133903000Y-102575000D02*
X141687000Y-102575000D01*
X133937000Y-102615000D02*
X141653000Y-102615000D01*
X133971000Y-102655000D02*
X141619000Y-102655000D01*
X134006000Y-102695000D02*
X141584000Y-102695000D01*
X134042000Y-102735000D02*
X141548000Y-102735000D01*
X134079000Y-102775000D02*
X141511000Y-102775000D01*
X134116000Y-102815000D02*
X141474000Y-102815000D01*
X134155000Y-102855000D02*
X141435000Y-102855000D01*
X134194000Y-102895000D02*
X141396000Y-102895000D01*
X134234000Y-102935000D02*
X141356000Y-102935000D01*
X134275000Y-102975000D02*
X141315000Y-102975000D01*
X134317000Y-103015000D02*
X141273000Y-103015000D01*
X134359000Y-103055000D02*
X141231000Y-103055000D01*
X134403000Y-103095000D02*
X141187000Y-103095000D01*
X134448000Y-103135000D02*
X141142000Y-103135000D01*
X134494000Y-103175000D02*
X141096000Y-103175000D01*
X134541000Y-103215000D02*
X141049000Y-103215000D01*
X134589000Y-103255000D02*
X141001000Y-103255000D01*
X134639000Y-103295000D02*
X140951000Y-103295000D01*
X134689000Y-103335000D02*
X140901000Y-103335000D01*
X134741000Y-103375000D02*
X140849000Y-103375000D01*
X134795000Y-103415000D02*
X140795000Y-103415000D01*
X134850000Y-103455000D02*
X140740000Y-103455000D01*
X134906000Y-103495000D02*
X140684000Y-103495000D01*
X134965000Y-103535000D02*
X140625000Y-103535000D01*
X135025000Y-103575000D02*
X140565000Y-103575000D01*
X135086000Y-103615000D02*
X140504000Y-103615000D01*
X135150000Y-103655000D02*
X140440000Y-103655000D01*
X135216000Y-103695000D02*
X140374000Y-103695000D01*
X135285000Y-103735000D02*
X140305000Y-103735000D01*
X135356000Y-103775000D02*
X140234000Y-103775000D01*
X135430000Y-103815000D02*
X140160000Y-103815000D01*
X135506000Y-103855000D02*
X140084000Y-103855000D01*
X135586000Y-103895000D02*
X140004000Y-103895000D01*
X135670000Y-103935000D02*
X139920000Y-103935000D01*
X135758000Y-103975000D02*
X139832000Y-103975000D01*
X135851000Y-104015000D02*
X139739000Y-104015000D01*
X135949000Y-104055000D02*
X139641000Y-104055000D01*
X136053000Y-104095000D02*
X139537000Y-104095000D01*
X136165000Y-104135000D02*
X139425000Y-104135000D01*
X136285000Y-104175000D02*
X139305000Y-104175000D01*
X136417000Y-104215000D02*
X139173000Y-104215000D01*
X136565000Y-104255000D02*
X139025000Y-104255000D01*
X136733000Y-104295000D02*
X138857000Y-104295000D01*
X136933000Y-104335000D02*
X138657000Y-104335000D01*
X137196000Y-104375000D02*
X138394000Y-104375000D01*
X142915000Y-99294000D02*
G75*
G03*
X142915000Y-99294000I-5120000J0D01*
G01*
X84755000Y-84416354D02*
X84755000Y-85416354D01*
X84255000Y-84916354D02*
X85255000Y-84916354D01*
X82550000Y-89896000D02*
X92710000Y-89896000D01*
X82550000Y-89936000D02*
X92710000Y-89936000D01*
X82550000Y-89976000D02*
X92710000Y-89976000D01*
X82551000Y-90016000D02*
X92709000Y-90016000D01*
X82552000Y-90056000D02*
X92708000Y-90056000D01*
X82553000Y-90096000D02*
X92707000Y-90096000D01*
X88670000Y-90136000D02*
X92705000Y-90136000D01*
X82555000Y-90136000D02*
X86590000Y-90136000D01*
X88670000Y-90176000D02*
X92703000Y-90176000D01*
X82557000Y-90176000D02*
X86590000Y-90176000D01*
X88670000Y-90216000D02*
X92700000Y-90216000D01*
X82560000Y-90216000D02*
X86590000Y-90216000D01*
X88670000Y-90256000D02*
X92698000Y-90256000D01*
X82562000Y-90256000D02*
X86590000Y-90256000D01*
X88670000Y-90296000D02*
X92695000Y-90296000D01*
X82565000Y-90296000D02*
X86590000Y-90296000D01*
X88670000Y-90336000D02*
X92692000Y-90336000D01*
X82568000Y-90336000D02*
X86590000Y-90336000D01*
X88670000Y-90376000D02*
X92688000Y-90376000D01*
X82572000Y-90376000D02*
X86590000Y-90376000D01*
X88670000Y-90416000D02*
X92684000Y-90416000D01*
X82576000Y-90416000D02*
X86590000Y-90416000D01*
X88670000Y-90456000D02*
X92680000Y-90456000D01*
X82580000Y-90456000D02*
X86590000Y-90456000D01*
X88670000Y-90496000D02*
X92675000Y-90496000D01*
X82585000Y-90496000D02*
X86590000Y-90496000D01*
X88670000Y-90536000D02*
X92670000Y-90536000D01*
X82590000Y-90536000D02*
X86590000Y-90536000D01*
X88670000Y-90576000D02*
X92665000Y-90576000D01*
X82595000Y-90576000D02*
X86590000Y-90576000D01*
X88670000Y-90617000D02*
X92660000Y-90617000D01*
X82600000Y-90617000D02*
X86590000Y-90617000D01*
X88670000Y-90657000D02*
X92654000Y-90657000D01*
X82606000Y-90657000D02*
X86590000Y-90657000D01*
X88670000Y-90697000D02*
X92648000Y-90697000D01*
X82612000Y-90697000D02*
X86590000Y-90697000D01*
X88670000Y-90737000D02*
X92641000Y-90737000D01*
X82619000Y-90737000D02*
X86590000Y-90737000D01*
X88670000Y-90777000D02*
X92634000Y-90777000D01*
X82626000Y-90777000D02*
X86590000Y-90777000D01*
X90270000Y-90817000D02*
X92627000Y-90817000D01*
X82633000Y-90817000D02*
X86590000Y-90817000D01*
X90270000Y-90857000D02*
X92620000Y-90857000D01*
X82640000Y-90857000D02*
X86590000Y-90857000D01*
X90270000Y-90897000D02*
X92612000Y-90897000D01*
X82648000Y-90897000D02*
X86590000Y-90897000D01*
X90270000Y-90937000D02*
X92604000Y-90937000D01*
X82656000Y-90937000D02*
X86590000Y-90937000D01*
X90270000Y-90977000D02*
X92595000Y-90977000D01*
X82665000Y-90977000D02*
X86590000Y-90977000D01*
X90270000Y-91017000D02*
X92586000Y-91017000D01*
X82674000Y-91017000D02*
X86590000Y-91017000D01*
X90270000Y-91057000D02*
X92577000Y-91057000D01*
X82683000Y-91057000D02*
X86590000Y-91057000D01*
X90270000Y-91097000D02*
X92568000Y-91097000D01*
X82692000Y-91097000D02*
X86590000Y-91097000D01*
X90270000Y-91137000D02*
X92558000Y-91137000D01*
X82702000Y-91137000D02*
X86590000Y-91137000D01*
X90270000Y-91177000D02*
X92548000Y-91177000D01*
X82712000Y-91177000D02*
X86590000Y-91177000D01*
X90270000Y-91217000D02*
X92537000Y-91217000D01*
X82723000Y-91217000D02*
X86590000Y-91217000D01*
X90270000Y-91257000D02*
X92527000Y-91257000D01*
X82733000Y-91257000D02*
X86590000Y-91257000D01*
X90270000Y-91297000D02*
X92515000Y-91297000D01*
X82745000Y-91297000D02*
X86590000Y-91297000D01*
X90270000Y-91337000D02*
X92504000Y-91337000D01*
X82756000Y-91337000D02*
X86590000Y-91337000D01*
X90270000Y-91377000D02*
X92492000Y-91377000D01*
X82768000Y-91377000D02*
X86590000Y-91377000D01*
X90270000Y-91417000D02*
X92480000Y-91417000D01*
X82780000Y-91417000D02*
X86590000Y-91417000D01*
X90270000Y-91457000D02*
X92467000Y-91457000D01*
X82793000Y-91457000D02*
X86590000Y-91457000D01*
X90270000Y-91497000D02*
X92454000Y-91497000D01*
X82806000Y-91497000D02*
X86590000Y-91497000D01*
X90270000Y-91537000D02*
X92441000Y-91537000D01*
X82819000Y-91537000D02*
X86590000Y-91537000D01*
X90270000Y-91577000D02*
X92427000Y-91577000D01*
X82833000Y-91577000D02*
X86590000Y-91577000D01*
X90270000Y-91617000D02*
X92413000Y-91617000D01*
X82847000Y-91617000D02*
X86590000Y-91617000D01*
X90270000Y-91657000D02*
X92398000Y-91657000D01*
X82862000Y-91657000D02*
X86590000Y-91657000D01*
X90270000Y-91697000D02*
X92384000Y-91697000D01*
X82876000Y-91697000D02*
X86590000Y-91697000D01*
X90270000Y-91737000D02*
X92368000Y-91737000D01*
X82892000Y-91737000D02*
X86590000Y-91737000D01*
X90270000Y-91777000D02*
X92353000Y-91777000D01*
X82907000Y-91777000D02*
X86590000Y-91777000D01*
X90270000Y-91817000D02*
X92337000Y-91817000D01*
X82923000Y-91817000D02*
X86590000Y-91817000D01*
X90270000Y-91857000D02*
X92320000Y-91857000D01*
X82940000Y-91857000D02*
X86590000Y-91857000D01*
X90270000Y-91897000D02*
X92304000Y-91897000D01*
X82956000Y-91897000D02*
X86590000Y-91897000D01*
X90270000Y-91937000D02*
X92287000Y-91937000D01*
X82973000Y-91937000D02*
X86590000Y-91937000D01*
X90270000Y-91977000D02*
X92269000Y-91977000D01*
X82991000Y-91977000D02*
X86590000Y-91977000D01*
X90270000Y-92017000D02*
X92251000Y-92017000D01*
X83009000Y-92017000D02*
X86590000Y-92017000D01*
X90270000Y-92057000D02*
X92233000Y-92057000D01*
X83027000Y-92057000D02*
X86590000Y-92057000D01*
X90270000Y-92097000D02*
X92214000Y-92097000D01*
X83046000Y-92097000D02*
X86590000Y-92097000D01*
X90270000Y-92137000D02*
X92194000Y-92137000D01*
X83066000Y-92137000D02*
X86590000Y-92137000D01*
X90270000Y-92177000D02*
X92175000Y-92177000D01*
X83085000Y-92177000D02*
X86590000Y-92177000D01*
X90270000Y-92217000D02*
X92155000Y-92217000D01*
X83105000Y-92217000D02*
X88190000Y-92217000D01*
X90270000Y-92257000D02*
X92134000Y-92257000D01*
X83126000Y-92257000D02*
X88190000Y-92257000D01*
X90270000Y-92297000D02*
X92113000Y-92297000D01*
X83147000Y-92297000D02*
X88190000Y-92297000D01*
X90270000Y-92337000D02*
X92092000Y-92337000D01*
X83168000Y-92337000D02*
X88190000Y-92337000D01*
X90270000Y-92377000D02*
X92070000Y-92377000D01*
X83190000Y-92377000D02*
X88190000Y-92377000D01*
X90270000Y-92417000D02*
X92047000Y-92417000D01*
X83213000Y-92417000D02*
X88190000Y-92417000D01*
X90270000Y-92457000D02*
X92025000Y-92457000D01*
X83235000Y-92457000D02*
X88190000Y-92457000D01*
X90270000Y-92497000D02*
X92001000Y-92497000D01*
X83259000Y-92497000D02*
X88190000Y-92497000D01*
X90270000Y-92537000D02*
X91977000Y-92537000D01*
X83283000Y-92537000D02*
X88190000Y-92537000D01*
X90270000Y-92577000D02*
X91953000Y-92577000D01*
X83307000Y-92577000D02*
X88190000Y-92577000D01*
X90270000Y-92617000D02*
X91928000Y-92617000D01*
X83332000Y-92617000D02*
X88190000Y-92617000D01*
X90270000Y-92657000D02*
X91903000Y-92657000D01*
X83357000Y-92657000D02*
X88190000Y-92657000D01*
X90270000Y-92697000D02*
X91877000Y-92697000D01*
X83383000Y-92697000D02*
X88190000Y-92697000D01*
X90270000Y-92737000D02*
X91851000Y-92737000D01*
X83409000Y-92737000D02*
X88190000Y-92737000D01*
X90270000Y-92777000D02*
X91824000Y-92777000D01*
X83436000Y-92777000D02*
X88190000Y-92777000D01*
X90270000Y-92817000D02*
X91796000Y-92817000D01*
X83464000Y-92817000D02*
X88190000Y-92817000D01*
X90270000Y-92857000D02*
X91768000Y-92857000D01*
X83492000Y-92857000D02*
X88190000Y-92857000D01*
X83520000Y-92897000D02*
X91740000Y-92897000D01*
X83550000Y-92937000D02*
X91710000Y-92937000D01*
X83580000Y-92977000D02*
X91680000Y-92977000D01*
X83610000Y-93017000D02*
X91650000Y-93017000D01*
X83641000Y-93057000D02*
X91619000Y-93057000D01*
X83673000Y-93097000D02*
X91587000Y-93097000D01*
X83705000Y-93137000D02*
X91555000Y-93137000D01*
X83738000Y-93177000D02*
X91522000Y-93177000D01*
X83772000Y-93217000D02*
X91488000Y-93217000D01*
X83806000Y-93257000D02*
X91454000Y-93257000D01*
X83841000Y-93297000D02*
X91419000Y-93297000D01*
X83877000Y-93337000D02*
X91383000Y-93337000D01*
X83914000Y-93377000D02*
X91346000Y-93377000D01*
X83951000Y-93417000D02*
X91309000Y-93417000D01*
X83990000Y-93457000D02*
X91270000Y-93457000D01*
X84029000Y-93497000D02*
X91231000Y-93497000D01*
X84069000Y-93537000D02*
X91191000Y-93537000D01*
X84110000Y-93577000D02*
X91150000Y-93577000D01*
X84152000Y-93617000D02*
X91108000Y-93617000D01*
X84194000Y-93657000D02*
X91066000Y-93657000D01*
X84238000Y-93697000D02*
X91022000Y-93697000D01*
X84283000Y-93737000D02*
X90977000Y-93737000D01*
X84329000Y-93777000D02*
X90931000Y-93777000D01*
X84376000Y-93817000D02*
X90884000Y-93817000D01*
X84424000Y-93857000D02*
X90836000Y-93857000D01*
X84474000Y-93897000D02*
X90786000Y-93897000D01*
X84524000Y-93937000D02*
X90736000Y-93937000D01*
X84576000Y-93977000D02*
X90684000Y-93977000D01*
X84630000Y-94017000D02*
X90630000Y-94017000D01*
X84685000Y-94057000D02*
X90575000Y-94057000D01*
X84741000Y-94097000D02*
X90519000Y-94097000D01*
X84800000Y-94137000D02*
X90460000Y-94137000D01*
X84860000Y-94177000D02*
X90400000Y-94177000D01*
X84921000Y-94217000D02*
X90339000Y-94217000D01*
X84985000Y-94257000D02*
X90275000Y-94257000D01*
X85051000Y-94297000D02*
X90209000Y-94297000D01*
X85120000Y-94337000D02*
X90140000Y-94337000D01*
X85191000Y-94377000D02*
X90069000Y-94377000D01*
X85265000Y-94417000D02*
X89995000Y-94417000D01*
X85341000Y-94457000D02*
X89919000Y-94457000D01*
X85421000Y-94497000D02*
X89839000Y-94497000D01*
X85505000Y-94537000D02*
X89755000Y-94537000D01*
X85593000Y-94577000D02*
X89667000Y-94577000D01*
X85686000Y-94617000D02*
X89574000Y-94617000D01*
X85784000Y-94657000D02*
X89476000Y-94657000D01*
X85888000Y-94697000D02*
X89372000Y-94697000D01*
X86000000Y-94737000D02*
X89260000Y-94737000D01*
X86120000Y-94777000D02*
X89140000Y-94777000D01*
X86252000Y-94817000D02*
X89008000Y-94817000D01*
X86400000Y-94857000D02*
X88860000Y-94857000D01*
X86568000Y-94897000D02*
X88692000Y-94897000D01*
X86768000Y-94937000D02*
X88492000Y-94937000D01*
X87031000Y-94977000D02*
X88229000Y-94977000D01*
X92750000Y-89896000D02*
G75*
G03*
X92750000Y-89896000I-5120000J0D01*
G01*
%LPC*%
D12*
X162687000Y-103742000D03*
X71581000Y-103742000D03*
X162687000Y-66742000D03*
X71581000Y-66742000D03*
D13*
X125603000Y-71628000D03*
X123063000Y-71628000D03*
X120523000Y-71628000D03*
D14*
X77216000Y-99060000D03*
D15*
X79756000Y-99060000D03*
X77216000Y-101600000D03*
X79756000Y-101600000D03*
X77216000Y-104140000D03*
X79756000Y-104140000D03*
D16*
X133350000Y-78867000D03*
D17*
X133350000Y-76327000D03*
D13*
X162254000Y-89027000D03*
X159714000Y-89027000D03*
X157174000Y-89027000D03*
D14*
X131572000Y-97790000D03*
D15*
X131572000Y-95250000D03*
D18*
X95174000Y-77648000D03*
D19*
X95174000Y-80188000D03*
X95174000Y-82728000D03*
D20*
X87300000Y-70028000D03*
D21*
X92380000Y-70028000D03*
D22*
X101473000Y-99822000D03*
D23*
X106553000Y-99822000D03*
D14*
X156972000Y-84201000D03*
D15*
X154432000Y-84201000D03*
D24*
X91110000Y-82474000D03*
D23*
X83490000Y-82474000D03*
D14*
X80645000Y-87503000D03*
D15*
X78105000Y-87503000D03*
D14*
X153035000Y-94234000D03*
D15*
X153035000Y-96774000D03*
X153035000Y-99314000D03*
X153035000Y-101854000D03*
D25*
X81026000Y-91440000D03*
D26*
X78486000Y-91440000D03*
X75946000Y-91440000D03*
D18*
X125476000Y-95758000D03*
D19*
X125476000Y-98298000D03*
X125476000Y-100838000D03*
D14*
X150114000Y-88011000D03*
D15*
X150114000Y-85471000D03*
X150114000Y-82931000D03*
X150114000Y-80391000D03*
D14*
X129794000Y-79502000D03*
D15*
X129794000Y-76962000D03*
D25*
X90043000Y-97917000D03*
D26*
X87503000Y-97917000D03*
X84963000Y-97917000D03*
D14*
X132207000Y-90805000D03*
D15*
X129667000Y-90805000D03*
X132207000Y-88265000D03*
X129667000Y-88265000D03*
X132207000Y-85725000D03*
X129667000Y-85725000D03*
D24*
X91110000Y-77648000D03*
D23*
X83490000Y-77648000D03*
D14*
X95524063Y-98571312D03*
D15*
X98064063Y-98571312D03*
X95524063Y-101111312D03*
X98064063Y-101111312D03*
X95524063Y-103651312D03*
X98064063Y-103651312D03*
D25*
X120396000Y-87630000D03*
D26*
X117856000Y-87630000D03*
X115316000Y-87630000D03*
D13*
X110490000Y-98679000D03*
X110490000Y-96139000D03*
X110490000Y-93599000D03*
D14*
X115570000Y-96901000D03*
D15*
X115570000Y-94361000D03*
X118110000Y-96901000D03*
X118110000Y-94361000D03*
X120650000Y-96901000D03*
X120650000Y-94361000D03*
D13*
X109474000Y-76835000D03*
X106934000Y-76835000D03*
X104394000Y-76835000D03*
D14*
X138557000Y-92583000D03*
D15*
X136017000Y-92583000D03*
D24*
X97714000Y-87848063D03*
X99314000Y-88519000D03*
D22*
X99314000Y-91019000D03*
X100914000Y-91689937D03*
D24*
X136195000Y-97373063D03*
X137795000Y-98044000D03*
D22*
X137795000Y-100544000D03*
X139395000Y-101214937D03*
D24*
X86030000Y-87975063D03*
X87630000Y-88646000D03*
D22*
X87630000Y-91146000D03*
X89230000Y-91816937D03*
%LPD*%
M02*
