%TF.GenerationSoftware,KiCad,Pcbnew,7.0.5-7.0.5~ubuntu23.04.1*%
%TF.CreationDate,2023-07-09T18:59:55+02:00*%
%TF.ProjectId,omega-pico,6f6d6567-612d-4706-9963-6f2e6b696361,rev?*%
%TF.SameCoordinates,Original*%
%TF.FileFunction,Copper,L4,Bot*%
%TF.FilePolarity,Positive*%
%FSLAX46Y46*%
G04 Gerber Fmt 4.6, Leading zero omitted, Abs format (unit mm)*
G04 Created by KiCad (PCBNEW 7.0.5-7.0.5~ubuntu23.04.1) date 2023-07-09 18:59:55*
%MOMM*%
%LPD*%
G01*
G04 APERTURE LIST*
%TA.AperFunction,ComponentPad*%
%ADD10C,1.440000*%
%TD*%
%TA.AperFunction,ComponentPad*%
%ADD11R,1.700000X1.700000*%
%TD*%
%TA.AperFunction,ComponentPad*%
%ADD12O,1.700000X1.700000*%
%TD*%
%TA.AperFunction,ComponentPad*%
%ADD13R,2.000000X2.000000*%
%TD*%
%TA.AperFunction,ComponentPad*%
%ADD14O,2.000000X2.000000*%
%TD*%
%TA.AperFunction,ComponentPad*%
%ADD15R,2.000000X1.905000*%
%TD*%
%TA.AperFunction,ComponentPad*%
%ADD16O,2.000000X1.905000*%
%TD*%
%TA.AperFunction,ComponentPad*%
%ADD17R,3.000000X3.000000*%
%TD*%
%TA.AperFunction,ComponentPad*%
%ADD18C,3.000000*%
%TD*%
%TA.AperFunction,ComponentPad*%
%ADD19C,1.600000*%
%TD*%
%TA.AperFunction,ComponentPad*%
%ADD20O,1.600000X1.600000*%
%TD*%
%TA.AperFunction,ComponentPad*%
%ADD21R,1.600000X1.600000*%
%TD*%
%TA.AperFunction,ComponentPad*%
%ADD22R,1.905000X2.000000*%
%TD*%
%TA.AperFunction,ComponentPad*%
%ADD23O,1.905000X2.000000*%
%TD*%
%TA.AperFunction,ViaPad*%
%ADD24C,0.800000*%
%TD*%
%TA.AperFunction,ViaPad*%
%ADD25C,0.500000*%
%TD*%
%TA.AperFunction,Conductor*%
%ADD26C,0.750000*%
%TD*%
%TA.AperFunction,Conductor*%
%ADD27C,0.500000*%
%TD*%
%TA.AperFunction,Conductor*%
%ADD28C,0.350000*%
%TD*%
%TA.AperFunction,Conductor*%
%ADD29C,1.000000*%
%TD*%
G04 APERTURE END LIST*
D10*
X125603000Y-71628000D03*
X123063000Y-71628000D03*
X120523000Y-71628000D03*
D11*
X77216000Y-99060000D03*
D12*
X79756000Y-99060000D03*
X77216000Y-101600000D03*
X79756000Y-101600000D03*
X77216000Y-104140000D03*
X79756000Y-104140000D03*
D13*
X133350000Y-78867000D03*
D14*
X133350000Y-76327000D03*
D10*
X162254000Y-89027000D03*
X159714000Y-89027000D03*
X157174000Y-89027000D03*
D11*
X131572000Y-97790000D03*
D12*
X131572000Y-95250000D03*
D15*
X95174000Y-77648000D03*
D16*
X95174000Y-80188000D03*
X95174000Y-82728000D03*
D17*
X87300000Y-70028000D03*
D18*
X92380000Y-70028000D03*
D19*
X101473000Y-99822000D03*
D20*
X106553000Y-99822000D03*
D11*
X156972000Y-84201000D03*
D12*
X154432000Y-84201000D03*
D21*
X91110000Y-82474000D03*
D20*
X83490000Y-82474000D03*
D11*
X80645000Y-87503000D03*
D12*
X78105000Y-87503000D03*
D11*
X153035000Y-94234000D03*
D12*
X153035000Y-96774000D03*
X153035000Y-99314000D03*
X153035000Y-101854000D03*
D22*
X81026000Y-91440000D03*
D23*
X78486000Y-91440000D03*
X75946000Y-91440000D03*
D15*
X125476000Y-95758000D03*
D16*
X125476000Y-98298000D03*
X125476000Y-100838000D03*
D11*
X150114000Y-88011000D03*
D12*
X150114000Y-85471000D03*
X150114000Y-82931000D03*
X150114000Y-80391000D03*
D11*
X129794000Y-79502000D03*
D12*
X129794000Y-76962000D03*
D22*
X90043000Y-97917000D03*
D23*
X87503000Y-97917000D03*
X84963000Y-97917000D03*
D11*
X132207000Y-90805000D03*
D12*
X129667000Y-90805000D03*
X132207000Y-88265000D03*
X129667000Y-88265000D03*
X132207000Y-85725000D03*
X129667000Y-85725000D03*
D21*
X91110000Y-77648000D03*
D20*
X83490000Y-77648000D03*
D11*
X95524063Y-98571312D03*
D12*
X98064063Y-98571312D03*
X95524063Y-101111312D03*
X98064063Y-101111312D03*
X95524063Y-103651312D03*
X98064063Y-103651312D03*
D22*
X120396000Y-87630000D03*
D23*
X117856000Y-87630000D03*
X115316000Y-87630000D03*
D10*
X110490000Y-98679000D03*
X110490000Y-96139000D03*
X110490000Y-93599000D03*
D11*
X115570000Y-96901000D03*
D12*
X115570000Y-94361000D03*
X118110000Y-96901000D03*
X118110000Y-94361000D03*
X120650000Y-96901000D03*
X120650000Y-94361000D03*
D10*
X109474000Y-76835000D03*
X106934000Y-76835000D03*
X104394000Y-76835000D03*
D11*
X138557000Y-92583000D03*
D12*
X136017000Y-92583000D03*
D21*
X97714000Y-87848063D03*
X99314000Y-88519000D03*
D19*
X99314000Y-91019000D03*
X100914000Y-91689937D03*
D21*
X136195000Y-97373063D03*
X137795000Y-98044000D03*
D19*
X137795000Y-100544000D03*
X139395000Y-101214937D03*
D21*
X86030000Y-87975063D03*
X87630000Y-88646000D03*
D19*
X87630000Y-91146000D03*
X89230000Y-91816937D03*
D24*
X101473000Y-82804000D03*
X89728000Y-104442500D03*
X141795500Y-87045500D03*
X140192000Y-72771000D03*
X147447000Y-80378000D03*
X141795500Y-87934500D03*
X103010000Y-88265000D03*
X141986000Y-74105000D03*
X136652000Y-89802000D03*
X122682000Y-75631000D03*
X143032812Y-82067400D03*
X143881006Y-82067400D03*
X143891000Y-81153000D03*
X104775000Y-81026000D03*
X110122000Y-81026000D03*
X139158812Y-83477400D03*
X143042806Y-81153000D03*
X142684500Y-87934500D03*
X115710000Y-83693000D03*
X146177000Y-86588000D03*
X144259000Y-78867000D03*
X140040000Y-88639502D03*
X138176000Y-89852000D03*
X136301812Y-81712400D03*
X142684500Y-87045500D03*
X141254812Y-82764902D03*
X118478000Y-76200000D03*
X157861000Y-93537000D03*
X140040000Y-86340498D03*
X119253000Y-78105000D03*
X136652000Y-85220000D03*
X136652000Y-88252000D03*
X120015000Y-76200000D03*
X141859000Y-78232000D03*
X101460000Y-88265000D03*
X138176000Y-85187000D03*
X136301812Y-80162400D03*
X106299000Y-81026000D03*
X114173000Y-83693000D03*
X106553000Y-82804000D03*
X113976000Y-81915000D03*
X119126000Y-81827500D03*
X122682000Y-77531000D03*
D25*
X144440000Y-86490498D03*
X144440000Y-88489502D03*
D24*
X145654812Y-82764902D03*
X145699812Y-80465898D03*
X144145000Y-93533500D03*
X123190000Y-84582000D03*
X79563000Y-96139000D03*
X107950000Y-102095000D03*
X141478000Y-93787500D03*
X145318000Y-100138000D03*
X160401000Y-98487000D03*
X87884000Y-102616000D03*
X85471000Y-94234000D03*
X87122000Y-94234000D03*
X106807000Y-95885000D03*
D26*
X136222212Y-80242000D02*
X136117212Y-80137000D01*
X136117212Y-80137000D02*
X135937212Y-80317000D01*
X135937212Y-80317000D02*
X134925000Y-80317000D01*
X134925000Y-80317000D02*
X134597000Y-80645000D01*
X131256000Y-82802500D02*
X118235500Y-82802500D01*
X117348000Y-81915000D02*
X113976000Y-81915000D01*
X134597000Y-80645000D02*
X133413500Y-80645000D01*
X133413500Y-80645000D02*
X131256000Y-82802500D01*
X118235500Y-82802500D02*
X117348000Y-81915000D01*
D27*
X110490000Y-93599000D02*
X112776000Y-91313000D01*
X112776000Y-91313000D02*
X112776000Y-87503000D01*
X112776000Y-87503000D02*
X114935000Y-85344000D01*
X114935000Y-85344000D02*
X115824000Y-85344000D01*
X115824000Y-85344000D02*
X117592000Y-83576000D01*
X117592000Y-83576000D02*
X132888212Y-83576000D01*
X132888212Y-83576000D02*
X136222212Y-80242000D01*
D28*
X134187284Y-84201000D02*
X143773784Y-93787500D01*
X123571000Y-84201000D02*
X134187284Y-84201000D01*
X143773784Y-93787500D02*
X144145000Y-93787500D01*
X123190000Y-84582000D02*
X123571000Y-84201000D01*
D29*
X125476000Y-100838000D02*
X127762000Y-98552000D01*
X127762000Y-98552000D02*
X127762000Y-96012000D01*
X127762000Y-96012000D02*
X128524000Y-95250000D01*
X128524000Y-95250000D02*
X131572000Y-95250000D01*
X104775000Y-106045000D02*
X86487000Y-106045000D01*
X81306000Y-100864000D02*
X81306000Y-97882000D01*
X107950000Y-102095000D02*
X107950000Y-102870000D01*
X107950000Y-102870000D02*
X104775000Y-106045000D01*
X86487000Y-106045000D02*
X81306000Y-100864000D01*
X81306000Y-97882000D02*
X79563000Y-96139000D01*
X107950000Y-102095000D02*
X109207000Y-100838000D01*
X109207000Y-100838000D02*
X125476000Y-100838000D01*
X87630000Y-91146000D02*
X84288000Y-91146000D01*
X84288000Y-91146000D02*
X80645000Y-87503000D01*
D26*
X89728000Y-104442500D02*
X90043000Y-104127500D01*
X90043000Y-104127500D02*
X90043000Y-97917000D01*
D28*
X158619000Y-89793000D02*
X158619000Y-86618000D01*
X158619000Y-86618000D02*
X156587000Y-84586000D01*
X157861000Y-90551000D02*
X158619000Y-89793000D01*
X157861000Y-93537000D02*
X157861000Y-90551000D01*
D29*
X114173000Y-83693000D02*
X114173000Y-82112000D01*
D28*
X106553000Y-82804000D02*
X106553000Y-81280000D01*
D29*
X113976000Y-81915000D02*
X113087000Y-82804000D01*
D28*
X106553000Y-81280000D02*
X106299000Y-81026000D01*
X136222212Y-80242000D02*
X136301812Y-80162400D01*
D29*
X113087000Y-82804000D02*
X106553000Y-82804000D01*
D27*
X122682000Y-78271500D02*
X122682000Y-77531000D01*
X119126000Y-81827500D02*
X122682000Y-78271500D01*
D28*
X144440000Y-88489502D02*
X144440000Y-86490498D01*
X145699812Y-80465898D02*
X145699812Y-82719902D01*
X145699812Y-82719902D02*
X145654812Y-82764902D01*
D29*
X131572000Y-95250000D02*
X135128000Y-95250000D01*
X117856000Y-87630000D02*
X117856000Y-88646000D01*
X136364919Y-94133000D02*
X141132500Y-94133000D01*
X136017000Y-92583000D02*
X136017000Y-93785081D01*
X135128000Y-95250000D02*
X136017000Y-94361000D01*
X144145000Y-93787500D02*
X144143000Y-93785500D01*
X141480000Y-93785500D02*
X141478000Y-93787500D01*
X144143000Y-93785500D02*
X141480000Y-93785500D01*
X123063000Y-93853000D02*
X123063000Y-99441000D01*
X136017000Y-93785081D02*
X136364919Y-94133000D01*
X136017000Y-94361000D02*
X136017000Y-92583000D01*
X141132500Y-94133000D02*
X141478000Y-93787500D01*
X123063000Y-99441000D02*
X124460000Y-100838000D01*
X124460000Y-100838000D02*
X125476000Y-100838000D01*
X117856000Y-88646000D02*
X123063000Y-93853000D01*
D28*
X145719000Y-100539000D02*
X145318000Y-100138000D01*
X160401000Y-98487000D02*
X158349000Y-100539000D01*
X158349000Y-100539000D02*
X145719000Y-100539000D01*
D26*
X87884000Y-102616000D02*
X84963000Y-99695000D01*
X84963000Y-99695000D02*
X84963000Y-97917000D01*
D28*
X81026000Y-91440000D02*
X82677000Y-91440000D01*
X82677000Y-91440000D02*
X85471000Y-94234000D01*
X87122000Y-94234000D02*
X87503000Y-94615000D01*
X87503000Y-94615000D02*
X105537000Y-94615000D01*
X105537000Y-94615000D02*
X106807000Y-95885000D01*
M02*
