%TF.GenerationSoftware,KiCad,Pcbnew,7.0.5-7.0.5~ubuntu23.04.1*%
%TF.CreationDate,2023-07-09T18:59:55+02:00*%
%TF.ProjectId,omega-pico,6f6d6567-612d-4706-9963-6f2e6b696361,rev?*%
%TF.SameCoordinates,Original*%
%TF.FileFunction,Legend,Top*%
%TF.FilePolarity,Positive*%
%FSLAX46Y46*%
G04 Gerber Fmt 4.6, Leading zero omitted, Abs format (unit mm)*
G04 Created by KiCad (PCBNEW 7.0.5-7.0.5~ubuntu23.04.1) date 2023-07-09 18:59:55*
%MOMM*%
%LPD*%
G01*
G04 APERTURE LIST*
G04 Aperture macros list*
%AMRoundRect*
0 Rectangle with rounded corners*
0 $1 Rounding radius*
0 $2 $3 $4 $5 $6 $7 $8 $9 X,Y pos of 4 corners*
0 Add a 4 corners polygon primitive as box body*
4,1,4,$2,$3,$4,$5,$6,$7,$8,$9,$2,$3,0*
0 Add four circle primitives for the rounded corners*
1,1,$1+$1,$2,$3*
1,1,$1+$1,$4,$5*
1,1,$1+$1,$6,$7*
1,1,$1+$1,$8,$9*
0 Add four rect primitives between the rounded corners*
20,1,$1+$1,$2,$3,$4,$5,0*
20,1,$1+$1,$4,$5,$6,$7,0*
20,1,$1+$1,$6,$7,$8,$9,0*
20,1,$1+$1,$8,$9,$2,$3,0*%
G04 Aperture macros list end*
%ADD10C,0.150000*%
%ADD11C,0.254000*%
%ADD12C,0.120000*%
%ADD13C,0.200000*%
%ADD14C,3.200000*%
%ADD15RoundRect,0.250000X-0.625000X0.312500X-0.625000X-0.312500X0.625000X-0.312500X0.625000X0.312500X0*%
%ADD16C,1.440000*%
%ADD17R,1.400000X0.450000*%
%ADD18R,1.890000X1.570000*%
%ADD19R,1.700000X1.700000*%
%ADD20O,1.700000X1.700000*%
%ADD21R,2.000000X2.000000*%
%ADD22O,2.000000X2.000000*%
%ADD23RoundRect,0.250000X0.250000X0.475000X-0.250000X0.475000X-0.250000X-0.475000X0.250000X-0.475000X0*%
%ADD24RoundRect,0.225000X0.225000X0.250000X-0.225000X0.250000X-0.225000X-0.250000X0.225000X-0.250000X0*%
%ADD25R,2.000000X1.905000*%
%ADD26O,2.000000X1.905000*%
%ADD27RoundRect,0.150000X-0.587500X-0.150000X0.587500X-0.150000X0.587500X0.150000X-0.587500X0.150000X0*%
%ADD28RoundRect,0.200000X-0.200000X-0.275000X0.200000X-0.275000X0.200000X0.275000X-0.200000X0.275000X0*%
%ADD29R,3.000000X3.000000*%
%ADD30C,3.000000*%
%ADD31C,1.600000*%
%ADD32O,1.600000X1.600000*%
%ADD33RoundRect,0.200000X0.275000X-0.200000X0.275000X0.200000X-0.275000X0.200000X-0.275000X-0.200000X0*%
%ADD34RoundRect,0.150000X0.150000X-0.587500X0.150000X0.587500X-0.150000X0.587500X-0.150000X-0.587500X0*%
%ADD35RoundRect,0.225000X-0.250000X0.225000X-0.250000X-0.225000X0.250000X-0.225000X0.250000X0.225000X0*%
%ADD36RoundRect,0.243750X0.456250X-0.243750X0.456250X0.243750X-0.456250X0.243750X-0.456250X-0.243750X0*%
%ADD37RoundRect,0.150000X0.725000X0.150000X-0.725000X0.150000X-0.725000X-0.150000X0.725000X-0.150000X0*%
%ADD38RoundRect,0.225000X-0.225000X-0.250000X0.225000X-0.250000X0.225000X0.250000X-0.225000X0.250000X0*%
%ADD39R,1.600000X1.600000*%
%ADD40RoundRect,0.150000X-0.725000X-0.150000X0.725000X-0.150000X0.725000X0.150000X-0.725000X0.150000X0*%
%ADD41RoundRect,0.150000X0.150000X-0.825000X0.150000X0.825000X-0.150000X0.825000X-0.150000X-0.825000X0*%
%ADD42RoundRect,0.200000X0.200000X0.275000X-0.200000X0.275000X-0.200000X-0.275000X0.200000X-0.275000X0*%
%ADD43RoundRect,0.250000X-0.475000X0.250000X-0.475000X-0.250000X0.475000X-0.250000X0.475000X0.250000X0*%
%ADD44RoundRect,0.225000X0.250000X-0.225000X0.250000X0.225000X-0.250000X0.225000X-0.250000X-0.225000X0*%
%ADD45R,1.905000X2.000000*%
%ADD46O,1.905000X2.000000*%
%ADD47RoundRect,0.250000X-0.250000X-0.475000X0.250000X-0.475000X0.250000X0.475000X-0.250000X0.475000X0*%
%ADD48RoundRect,0.175000X0.275000X0.175000X-0.275000X0.175000X-0.275000X-0.175000X0.275000X-0.175000X0*%
%ADD49RoundRect,0.250000X0.475000X-0.250000X0.475000X0.250000X-0.475000X0.250000X-0.475000X-0.250000X0*%
%ADD50R,0.450000X0.400000*%
%ADD51R,0.450000X0.500000*%
%ADD52RoundRect,0.243750X-0.456250X0.243750X-0.456250X-0.243750X0.456250X-0.243750X0.456250X0.243750X0*%
G04 APERTURE END LIST*
D10*
X161925095Y-99996819D02*
X161925095Y-98996819D01*
X161925095Y-99473009D02*
X162496523Y-99473009D01*
X162496523Y-99996819D02*
X162496523Y-98996819D01*
X163401285Y-99330152D02*
X163401285Y-99996819D01*
X163163190Y-98949200D02*
X162925095Y-99663485D01*
X162925095Y-99663485D02*
X163544142Y-99663485D01*
X70819095Y-99996819D02*
X70819095Y-98996819D01*
X70819095Y-99473009D02*
X71390523Y-99473009D01*
X71390523Y-99996819D02*
X71390523Y-98996819D01*
X71771476Y-98996819D02*
X72390523Y-98996819D01*
X72390523Y-98996819D02*
X72057190Y-99377771D01*
X72057190Y-99377771D02*
X72200047Y-99377771D01*
X72200047Y-99377771D02*
X72295285Y-99425390D01*
X72295285Y-99425390D02*
X72342904Y-99473009D01*
X72342904Y-99473009D02*
X72390523Y-99568247D01*
X72390523Y-99568247D02*
X72390523Y-99806342D01*
X72390523Y-99806342D02*
X72342904Y-99901580D01*
X72342904Y-99901580D02*
X72295285Y-99949200D01*
X72295285Y-99949200D02*
X72200047Y-99996819D01*
X72200047Y-99996819D02*
X71914333Y-99996819D01*
X71914333Y-99996819D02*
X71819095Y-99949200D01*
X71819095Y-99949200D02*
X71771476Y-99901580D01*
X156951095Y-67256819D02*
X156951095Y-66256819D01*
X156951095Y-66733009D02*
X157522523Y-66733009D01*
X157522523Y-67256819D02*
X157522523Y-66256819D01*
X157951095Y-66352057D02*
X157998714Y-66304438D01*
X157998714Y-66304438D02*
X158093952Y-66256819D01*
X158093952Y-66256819D02*
X158332047Y-66256819D01*
X158332047Y-66256819D02*
X158427285Y-66304438D01*
X158427285Y-66304438D02*
X158474904Y-66352057D01*
X158474904Y-66352057D02*
X158522523Y-66447295D01*
X158522523Y-66447295D02*
X158522523Y-66542533D01*
X158522523Y-66542533D02*
X158474904Y-66685390D01*
X158474904Y-66685390D02*
X157903476Y-67256819D01*
X157903476Y-67256819D02*
X158522523Y-67256819D01*
X76073095Y-67129819D02*
X76073095Y-66129819D01*
X76073095Y-66606009D02*
X76644523Y-66606009D01*
X76644523Y-67129819D02*
X76644523Y-66129819D01*
X77644523Y-67129819D02*
X77073095Y-67129819D01*
X77358809Y-67129819D02*
X77358809Y-66129819D01*
X77358809Y-66129819D02*
X77263571Y-66272676D01*
X77263571Y-66272676D02*
X77168333Y-66367914D01*
X77168333Y-66367914D02*
X77073095Y-66415533D01*
X116852819Y-102177357D02*
X116376628Y-102510690D01*
X116852819Y-102748785D02*
X115852819Y-102748785D01*
X115852819Y-102748785D02*
X115852819Y-102367833D01*
X115852819Y-102367833D02*
X115900438Y-102272595D01*
X115900438Y-102272595D02*
X115948057Y-102224976D01*
X115948057Y-102224976D02*
X116043295Y-102177357D01*
X116043295Y-102177357D02*
X116186152Y-102177357D01*
X116186152Y-102177357D02*
X116281390Y-102224976D01*
X116281390Y-102224976D02*
X116329009Y-102272595D01*
X116329009Y-102272595D02*
X116376628Y-102367833D01*
X116376628Y-102367833D02*
X116376628Y-102748785D01*
X115948057Y-101796404D02*
X115900438Y-101748785D01*
X115900438Y-101748785D02*
X115852819Y-101653547D01*
X115852819Y-101653547D02*
X115852819Y-101415452D01*
X115852819Y-101415452D02*
X115900438Y-101320214D01*
X115900438Y-101320214D02*
X115948057Y-101272595D01*
X115948057Y-101272595D02*
X116043295Y-101224976D01*
X116043295Y-101224976D02*
X116138533Y-101224976D01*
X116138533Y-101224976D02*
X116281390Y-101272595D01*
X116281390Y-101272595D02*
X116852819Y-101844023D01*
X116852819Y-101844023D02*
X116852819Y-101224976D01*
X115948057Y-100844023D02*
X115900438Y-100796404D01*
X115900438Y-100796404D02*
X115852819Y-100701166D01*
X115852819Y-100701166D02*
X115852819Y-100463071D01*
X115852819Y-100463071D02*
X115900438Y-100367833D01*
X115900438Y-100367833D02*
X115948057Y-100320214D01*
X115948057Y-100320214D02*
X116043295Y-100272595D01*
X116043295Y-100272595D02*
X116138533Y-100272595D01*
X116138533Y-100272595D02*
X116281390Y-100320214D01*
X116281390Y-100320214D02*
X116852819Y-100891642D01*
X116852819Y-100891642D02*
X116852819Y-100272595D01*
X122467761Y-68422819D02*
X122134428Y-67946628D01*
X121896333Y-68422819D02*
X121896333Y-67422819D01*
X121896333Y-67422819D02*
X122277285Y-67422819D01*
X122277285Y-67422819D02*
X122372523Y-67470438D01*
X122372523Y-67470438D02*
X122420142Y-67518057D01*
X122420142Y-67518057D02*
X122467761Y-67613295D01*
X122467761Y-67613295D02*
X122467761Y-67756152D01*
X122467761Y-67756152D02*
X122420142Y-67851390D01*
X122420142Y-67851390D02*
X122372523Y-67899009D01*
X122372523Y-67899009D02*
X122277285Y-67946628D01*
X122277285Y-67946628D02*
X121896333Y-67946628D01*
X122753476Y-67422819D02*
X123086809Y-68422819D01*
X123086809Y-68422819D02*
X123420142Y-67422819D01*
X123658238Y-67422819D02*
X124277285Y-67422819D01*
X124277285Y-67422819D02*
X123943952Y-67803771D01*
X123943952Y-67803771D02*
X124086809Y-67803771D01*
X124086809Y-67803771D02*
X124182047Y-67851390D01*
X124182047Y-67851390D02*
X124229666Y-67899009D01*
X124229666Y-67899009D02*
X124277285Y-67994247D01*
X124277285Y-67994247D02*
X124277285Y-68232342D01*
X124277285Y-68232342D02*
X124229666Y-68327580D01*
X124229666Y-68327580D02*
X124182047Y-68375200D01*
X124182047Y-68375200D02*
X124086809Y-68422819D01*
X124086809Y-68422819D02*
X123801095Y-68422819D01*
X123801095Y-68422819D02*
X123705857Y-68375200D01*
X123705857Y-68375200D02*
X123658238Y-68327580D01*
X123432819Y-102177357D02*
X122956628Y-102510690D01*
X123432819Y-102748785D02*
X122432819Y-102748785D01*
X122432819Y-102748785D02*
X122432819Y-102367833D01*
X122432819Y-102367833D02*
X122480438Y-102272595D01*
X122480438Y-102272595D02*
X122528057Y-102224976D01*
X122528057Y-102224976D02*
X122623295Y-102177357D01*
X122623295Y-102177357D02*
X122766152Y-102177357D01*
X122766152Y-102177357D02*
X122861390Y-102224976D01*
X122861390Y-102224976D02*
X122909009Y-102272595D01*
X122909009Y-102272595D02*
X122956628Y-102367833D01*
X122956628Y-102367833D02*
X122956628Y-102748785D01*
X122528057Y-101796404D02*
X122480438Y-101748785D01*
X122480438Y-101748785D02*
X122432819Y-101653547D01*
X122432819Y-101653547D02*
X122432819Y-101415452D01*
X122432819Y-101415452D02*
X122480438Y-101320214D01*
X122480438Y-101320214D02*
X122528057Y-101272595D01*
X122528057Y-101272595D02*
X122623295Y-101224976D01*
X122623295Y-101224976D02*
X122718533Y-101224976D01*
X122718533Y-101224976D02*
X122861390Y-101272595D01*
X122861390Y-101272595D02*
X123432819Y-101844023D01*
X123432819Y-101844023D02*
X123432819Y-101224976D01*
X122766152Y-100367833D02*
X123432819Y-100367833D01*
X122385200Y-100605928D02*
X123099485Y-100844023D01*
X123099485Y-100844023D02*
X123099485Y-100224976D01*
D11*
X141000237Y-88064318D02*
X141000237Y-86794318D01*
X142330714Y-87943365D02*
X142270238Y-88003842D01*
X142270238Y-88003842D02*
X142088809Y-88064318D01*
X142088809Y-88064318D02*
X141967857Y-88064318D01*
X141967857Y-88064318D02*
X141786428Y-88003842D01*
X141786428Y-88003842D02*
X141665476Y-87882889D01*
X141665476Y-87882889D02*
X141604999Y-87761937D01*
X141604999Y-87761937D02*
X141544523Y-87520032D01*
X141544523Y-87520032D02*
X141544523Y-87338603D01*
X141544523Y-87338603D02*
X141604999Y-87096699D01*
X141604999Y-87096699D02*
X141665476Y-86975746D01*
X141665476Y-86975746D02*
X141786428Y-86854794D01*
X141786428Y-86854794D02*
X141967857Y-86794318D01*
X141967857Y-86794318D02*
X142088809Y-86794318D01*
X142088809Y-86794318D02*
X142270238Y-86854794D01*
X142270238Y-86854794D02*
X142330714Y-86915270D01*
X143540238Y-88064318D02*
X142814523Y-88064318D01*
X143177380Y-88064318D02*
X143177380Y-86794318D01*
X143177380Y-86794318D02*
X143056428Y-86975746D01*
X143056428Y-86975746D02*
X142935476Y-87096699D01*
X142935476Y-87096699D02*
X142814523Y-87157175D01*
D10*
X77984197Y-86999350D02*
X77984197Y-87713635D01*
X77984197Y-87713635D02*
X77936578Y-87856492D01*
X77936578Y-87856492D02*
X77841340Y-87951731D01*
X77841340Y-87951731D02*
X77698483Y-87999350D01*
X77698483Y-87999350D02*
X77603245Y-87999350D01*
X78365150Y-86999350D02*
X78984197Y-86999350D01*
X78984197Y-86999350D02*
X78650864Y-87380302D01*
X78650864Y-87380302D02*
X78793721Y-87380302D01*
X78793721Y-87380302D02*
X78888959Y-87427921D01*
X78888959Y-87427921D02*
X78936578Y-87475540D01*
X78936578Y-87475540D02*
X78984197Y-87570778D01*
X78984197Y-87570778D02*
X78984197Y-87808873D01*
X78984197Y-87808873D02*
X78936578Y-87904111D01*
X78936578Y-87904111D02*
X78888959Y-87951731D01*
X78888959Y-87951731D02*
X78793721Y-87999350D01*
X78793721Y-87999350D02*
X78508007Y-87999350D01*
X78508007Y-87999350D02*
X78412769Y-87951731D01*
X78412769Y-87951731D02*
X78365150Y-87904111D01*
X131195605Y-78335094D02*
X130195605Y-78335094D01*
X130195605Y-78335094D02*
X130195605Y-78096999D01*
X130195605Y-78096999D02*
X130243224Y-77954142D01*
X130243224Y-77954142D02*
X130338462Y-77858904D01*
X130338462Y-77858904D02*
X130433700Y-77811285D01*
X130433700Y-77811285D02*
X130624176Y-77763666D01*
X130624176Y-77763666D02*
X130767033Y-77763666D01*
X130767033Y-77763666D02*
X130957509Y-77811285D01*
X130957509Y-77811285D02*
X131052747Y-77858904D01*
X131052747Y-77858904D02*
X131147986Y-77954142D01*
X131147986Y-77954142D02*
X131195605Y-78096999D01*
X131195605Y-78096999D02*
X131195605Y-78335094D01*
X130195605Y-76858904D02*
X130195605Y-77335094D01*
X130195605Y-77335094D02*
X130671795Y-77382713D01*
X130671795Y-77382713D02*
X130624176Y-77335094D01*
X130624176Y-77335094D02*
X130576557Y-77239856D01*
X130576557Y-77239856D02*
X130576557Y-77001761D01*
X130576557Y-77001761D02*
X130624176Y-76906523D01*
X130624176Y-76906523D02*
X130671795Y-76858904D01*
X130671795Y-76858904D02*
X130767033Y-76811285D01*
X130767033Y-76811285D02*
X131005128Y-76811285D01*
X131005128Y-76811285D02*
X131100366Y-76858904D01*
X131100366Y-76858904D02*
X131147986Y-76906523D01*
X131147986Y-76906523D02*
X131195605Y-77001761D01*
X131195605Y-77001761D02*
X131195605Y-77239856D01*
X131195605Y-77239856D02*
X131147986Y-77335094D01*
X131147986Y-77335094D02*
X131100366Y-77382713D01*
X133519104Y-74565094D02*
X133519104Y-74088904D01*
X133804819Y-74660332D02*
X132804819Y-74326999D01*
X132804819Y-74326999D02*
X133804819Y-73993666D01*
X159118761Y-85821819D02*
X158785428Y-85345628D01*
X158547333Y-85821819D02*
X158547333Y-84821819D01*
X158547333Y-84821819D02*
X158928285Y-84821819D01*
X158928285Y-84821819D02*
X159023523Y-84869438D01*
X159023523Y-84869438D02*
X159071142Y-84917057D01*
X159071142Y-84917057D02*
X159118761Y-85012295D01*
X159118761Y-85012295D02*
X159118761Y-85155152D01*
X159118761Y-85155152D02*
X159071142Y-85250390D01*
X159071142Y-85250390D02*
X159023523Y-85298009D01*
X159023523Y-85298009D02*
X158928285Y-85345628D01*
X158928285Y-85345628D02*
X158547333Y-85345628D01*
X159404476Y-84821819D02*
X159737809Y-85821819D01*
X159737809Y-85821819D02*
X160071142Y-84821819D01*
X160356857Y-84917057D02*
X160404476Y-84869438D01*
X160404476Y-84869438D02*
X160499714Y-84821819D01*
X160499714Y-84821819D02*
X160737809Y-84821819D01*
X160737809Y-84821819D02*
X160833047Y-84869438D01*
X160833047Y-84869438D02*
X160880666Y-84917057D01*
X160880666Y-84917057D02*
X160928285Y-85012295D01*
X160928285Y-85012295D02*
X160928285Y-85107533D01*
X160928285Y-85107533D02*
X160880666Y-85250390D01*
X160880666Y-85250390D02*
X160309238Y-85821819D01*
X160309238Y-85821819D02*
X160928285Y-85821819D01*
D11*
X142215049Y-82189718D02*
X142215049Y-80919718D01*
X143545526Y-82068765D02*
X143485050Y-82129242D01*
X143485050Y-82129242D02*
X143303621Y-82189718D01*
X143303621Y-82189718D02*
X143182669Y-82189718D01*
X143182669Y-82189718D02*
X143001240Y-82129242D01*
X143001240Y-82129242D02*
X142880288Y-82008289D01*
X142880288Y-82008289D02*
X142819811Y-81887337D01*
X142819811Y-81887337D02*
X142759335Y-81645432D01*
X142759335Y-81645432D02*
X142759335Y-81464003D01*
X142759335Y-81464003D02*
X142819811Y-81222099D01*
X142819811Y-81222099D02*
X142880288Y-81101146D01*
X142880288Y-81101146D02*
X143001240Y-80980194D01*
X143001240Y-80980194D02*
X143182669Y-80919718D01*
X143182669Y-80919718D02*
X143303621Y-80919718D01*
X143303621Y-80919718D02*
X143485050Y-80980194D01*
X143485050Y-80980194D02*
X143545526Y-81040670D01*
X144029335Y-81040670D02*
X144089811Y-80980194D01*
X144089811Y-80980194D02*
X144210764Y-80919718D01*
X144210764Y-80919718D02*
X144513145Y-80919718D01*
X144513145Y-80919718D02*
X144634097Y-80980194D01*
X144634097Y-80980194D02*
X144694573Y-81040670D01*
X144694573Y-81040670D02*
X144755050Y-81161622D01*
X144755050Y-81161622D02*
X144755050Y-81282575D01*
X144755050Y-81282575D02*
X144694573Y-81464003D01*
X144694573Y-81464003D02*
X143968859Y-82189718D01*
X143968859Y-82189718D02*
X144755050Y-82189718D01*
D10*
X157218142Y-102877580D02*
X157170523Y-102925200D01*
X157170523Y-102925200D02*
X157027666Y-102972819D01*
X157027666Y-102972819D02*
X156932428Y-102972819D01*
X156932428Y-102972819D02*
X156789571Y-102925200D01*
X156789571Y-102925200D02*
X156694333Y-102829961D01*
X156694333Y-102829961D02*
X156646714Y-102734723D01*
X156646714Y-102734723D02*
X156599095Y-102544247D01*
X156599095Y-102544247D02*
X156599095Y-102401390D01*
X156599095Y-102401390D02*
X156646714Y-102210914D01*
X156646714Y-102210914D02*
X156694333Y-102115676D01*
X156694333Y-102115676D02*
X156789571Y-102020438D01*
X156789571Y-102020438D02*
X156932428Y-101972819D01*
X156932428Y-101972819D02*
X157027666Y-101972819D01*
X157027666Y-101972819D02*
X157170523Y-102020438D01*
X157170523Y-102020438D02*
X157218142Y-102068057D01*
X158170523Y-102972819D02*
X157599095Y-102972819D01*
X157884809Y-102972819D02*
X157884809Y-101972819D01*
X157884809Y-101972819D02*
X157789571Y-102115676D01*
X157789571Y-102115676D02*
X157694333Y-102210914D01*
X157694333Y-102210914D02*
X157599095Y-102258533D01*
X158503857Y-101972819D02*
X159122904Y-101972819D01*
X159122904Y-101972819D02*
X158789571Y-102353771D01*
X158789571Y-102353771D02*
X158932428Y-102353771D01*
X158932428Y-102353771D02*
X159027666Y-102401390D01*
X159027666Y-102401390D02*
X159075285Y-102449009D01*
X159075285Y-102449009D02*
X159122904Y-102544247D01*
X159122904Y-102544247D02*
X159122904Y-102782342D01*
X159122904Y-102782342D02*
X159075285Y-102877580D01*
X159075285Y-102877580D02*
X159027666Y-102925200D01*
X159027666Y-102925200D02*
X158932428Y-102972819D01*
X158932428Y-102972819D02*
X158646714Y-102972819D01*
X158646714Y-102972819D02*
X158551476Y-102925200D01*
X158551476Y-102925200D02*
X158503857Y-102877580D01*
X131238666Y-99574819D02*
X131238666Y-100289104D01*
X131238666Y-100289104D02*
X131191047Y-100431961D01*
X131191047Y-100431961D02*
X131095809Y-100527200D01*
X131095809Y-100527200D02*
X130952952Y-100574819D01*
X130952952Y-100574819D02*
X130857714Y-100574819D01*
X132143428Y-99908152D02*
X132143428Y-100574819D01*
X131905333Y-99527200D02*
X131667238Y-100241485D01*
X131667238Y-100241485D02*
X132286285Y-100241485D01*
X144177948Y-82815580D02*
X144130329Y-82863200D01*
X144130329Y-82863200D02*
X143987472Y-82910819D01*
X143987472Y-82910819D02*
X143892234Y-82910819D01*
X143892234Y-82910819D02*
X143749377Y-82863200D01*
X143749377Y-82863200D02*
X143654139Y-82767961D01*
X143654139Y-82767961D02*
X143606520Y-82672723D01*
X143606520Y-82672723D02*
X143558901Y-82482247D01*
X143558901Y-82482247D02*
X143558901Y-82339390D01*
X143558901Y-82339390D02*
X143606520Y-82148914D01*
X143606520Y-82148914D02*
X143654139Y-82053676D01*
X143654139Y-82053676D02*
X143749377Y-81958438D01*
X143749377Y-81958438D02*
X143892234Y-81910819D01*
X143892234Y-81910819D02*
X143987472Y-81910819D01*
X143987472Y-81910819D02*
X144130329Y-81958438D01*
X144130329Y-81958438D02*
X144177948Y-82006057D01*
X145130329Y-82910819D02*
X144558901Y-82910819D01*
X144844615Y-82910819D02*
X144844615Y-81910819D01*
X144844615Y-81910819D02*
X144749377Y-82053676D01*
X144749377Y-82053676D02*
X144654139Y-82148914D01*
X144654139Y-82148914D02*
X144558901Y-82196533D01*
X145987472Y-82244152D02*
X145987472Y-82910819D01*
X145749377Y-81863200D02*
X145511282Y-82577485D01*
X145511282Y-82577485D02*
X146130329Y-82577485D01*
X99803580Y-80854666D02*
X99851200Y-80902285D01*
X99851200Y-80902285D02*
X99898819Y-81045142D01*
X99898819Y-81045142D02*
X99898819Y-81140380D01*
X99898819Y-81140380D02*
X99851200Y-81283237D01*
X99851200Y-81283237D02*
X99755961Y-81378475D01*
X99755961Y-81378475D02*
X99660723Y-81426094D01*
X99660723Y-81426094D02*
X99470247Y-81473713D01*
X99470247Y-81473713D02*
X99327390Y-81473713D01*
X99327390Y-81473713D02*
X99136914Y-81426094D01*
X99136914Y-81426094D02*
X99041676Y-81378475D01*
X99041676Y-81378475D02*
X98946438Y-81283237D01*
X98946438Y-81283237D02*
X98898819Y-81140380D01*
X98898819Y-81140380D02*
X98898819Y-81045142D01*
X98898819Y-81045142D02*
X98946438Y-80902285D01*
X98946438Y-80902285D02*
X98994057Y-80854666D01*
X99898819Y-79854666D02*
X99422628Y-80187999D01*
X99898819Y-80426094D02*
X98898819Y-80426094D01*
X98898819Y-80426094D02*
X98898819Y-80045142D01*
X98898819Y-80045142D02*
X98946438Y-79949904D01*
X98946438Y-79949904D02*
X98994057Y-79902285D01*
X98994057Y-79902285D02*
X99089295Y-79854666D01*
X99089295Y-79854666D02*
X99232152Y-79854666D01*
X99232152Y-79854666D02*
X99327390Y-79902285D01*
X99327390Y-79902285D02*
X99375009Y-79949904D01*
X99375009Y-79949904D02*
X99422628Y-80045142D01*
X99422628Y-80045142D02*
X99422628Y-80426094D01*
X99898819Y-78902285D02*
X99898819Y-79473713D01*
X99898819Y-79187999D02*
X98898819Y-79187999D01*
X98898819Y-79187999D02*
X99041676Y-79283237D01*
X99041676Y-79283237D02*
X99136914Y-79378475D01*
X99136914Y-79378475D02*
X99184533Y-79473713D01*
X125205261Y-84637057D02*
X125110023Y-84589438D01*
X125110023Y-84589438D02*
X125014785Y-84494200D01*
X125014785Y-84494200D02*
X124871928Y-84351342D01*
X124871928Y-84351342D02*
X124776690Y-84303723D01*
X124776690Y-84303723D02*
X124681452Y-84303723D01*
X124729071Y-84541819D02*
X124633833Y-84494200D01*
X124633833Y-84494200D02*
X124538595Y-84398961D01*
X124538595Y-84398961D02*
X124490976Y-84208485D01*
X124490976Y-84208485D02*
X124490976Y-83875152D01*
X124490976Y-83875152D02*
X124538595Y-83684676D01*
X124538595Y-83684676D02*
X124633833Y-83589438D01*
X124633833Y-83589438D02*
X124729071Y-83541819D01*
X124729071Y-83541819D02*
X124919547Y-83541819D01*
X124919547Y-83541819D02*
X125014785Y-83589438D01*
X125014785Y-83589438D02*
X125110023Y-83684676D01*
X125110023Y-83684676D02*
X125157642Y-83875152D01*
X125157642Y-83875152D02*
X125157642Y-84208485D01*
X125157642Y-84208485D02*
X125110023Y-84398961D01*
X125110023Y-84398961D02*
X125014785Y-84494200D01*
X125014785Y-84494200D02*
X124919547Y-84541819D01*
X124919547Y-84541819D02*
X124729071Y-84541819D01*
X126014785Y-83541819D02*
X125824309Y-83541819D01*
X125824309Y-83541819D02*
X125729071Y-83589438D01*
X125729071Y-83589438D02*
X125681452Y-83637057D01*
X125681452Y-83637057D02*
X125586214Y-83779914D01*
X125586214Y-83779914D02*
X125538595Y-83970390D01*
X125538595Y-83970390D02*
X125538595Y-84351342D01*
X125538595Y-84351342D02*
X125586214Y-84446580D01*
X125586214Y-84446580D02*
X125633833Y-84494200D01*
X125633833Y-84494200D02*
X125729071Y-84541819D01*
X125729071Y-84541819D02*
X125919547Y-84541819D01*
X125919547Y-84541819D02*
X126014785Y-84494200D01*
X126014785Y-84494200D02*
X126062404Y-84446580D01*
X126062404Y-84446580D02*
X126110023Y-84351342D01*
X126110023Y-84351342D02*
X126110023Y-84113247D01*
X126110023Y-84113247D02*
X126062404Y-84018009D01*
X126062404Y-84018009D02*
X126014785Y-83970390D01*
X126014785Y-83970390D02*
X125919547Y-83922771D01*
X125919547Y-83922771D02*
X125729071Y-83922771D01*
X125729071Y-83922771D02*
X125633833Y-83970390D01*
X125633833Y-83970390D02*
X125586214Y-84018009D01*
X125586214Y-84018009D02*
X125538595Y-84113247D01*
X85653142Y-93258819D02*
X85319809Y-92782628D01*
X85081714Y-93258819D02*
X85081714Y-92258819D01*
X85081714Y-92258819D02*
X85462666Y-92258819D01*
X85462666Y-92258819D02*
X85557904Y-92306438D01*
X85557904Y-92306438D02*
X85605523Y-92354057D01*
X85605523Y-92354057D02*
X85653142Y-92449295D01*
X85653142Y-92449295D02*
X85653142Y-92592152D01*
X85653142Y-92592152D02*
X85605523Y-92687390D01*
X85605523Y-92687390D02*
X85557904Y-92735009D01*
X85557904Y-92735009D02*
X85462666Y-92782628D01*
X85462666Y-92782628D02*
X85081714Y-92782628D01*
X86034095Y-92354057D02*
X86081714Y-92306438D01*
X86081714Y-92306438D02*
X86176952Y-92258819D01*
X86176952Y-92258819D02*
X86415047Y-92258819D01*
X86415047Y-92258819D02*
X86510285Y-92306438D01*
X86510285Y-92306438D02*
X86557904Y-92354057D01*
X86557904Y-92354057D02*
X86605523Y-92449295D01*
X86605523Y-92449295D02*
X86605523Y-92544533D01*
X86605523Y-92544533D02*
X86557904Y-92687390D01*
X86557904Y-92687390D02*
X85986476Y-93258819D01*
X85986476Y-93258819D02*
X86605523Y-93258819D01*
X87462666Y-92258819D02*
X87272190Y-92258819D01*
X87272190Y-92258819D02*
X87176952Y-92306438D01*
X87176952Y-92306438D02*
X87129333Y-92354057D01*
X87129333Y-92354057D02*
X87034095Y-92496914D01*
X87034095Y-92496914D02*
X86986476Y-92687390D01*
X86986476Y-92687390D02*
X86986476Y-93068342D01*
X86986476Y-93068342D02*
X87034095Y-93163580D01*
X87034095Y-93163580D02*
X87081714Y-93211200D01*
X87081714Y-93211200D02*
X87176952Y-93258819D01*
X87176952Y-93258819D02*
X87367428Y-93258819D01*
X87367428Y-93258819D02*
X87462666Y-93211200D01*
X87462666Y-93211200D02*
X87510285Y-93163580D01*
X87510285Y-93163580D02*
X87557904Y-93068342D01*
X87557904Y-93068342D02*
X87557904Y-92830247D01*
X87557904Y-92830247D02*
X87510285Y-92735009D01*
X87510285Y-92735009D02*
X87462666Y-92687390D01*
X87462666Y-92687390D02*
X87367428Y-92639771D01*
X87367428Y-92639771D02*
X87176952Y-92639771D01*
X87176952Y-92639771D02*
X87081714Y-92687390D01*
X87081714Y-92687390D02*
X87034095Y-92735009D01*
X87034095Y-92735009D02*
X86986476Y-92830247D01*
X89506666Y-64402819D02*
X89506666Y-65117104D01*
X89506666Y-65117104D02*
X89459047Y-65259961D01*
X89459047Y-65259961D02*
X89363809Y-65355200D01*
X89363809Y-65355200D02*
X89220952Y-65402819D01*
X89220952Y-65402819D02*
X89125714Y-65402819D01*
X90506666Y-65402819D02*
X89935238Y-65402819D01*
X90220952Y-65402819D02*
X90220952Y-64402819D01*
X90220952Y-64402819D02*
X90125714Y-64545676D01*
X90125714Y-64545676D02*
X90030476Y-64640914D01*
X90030476Y-64640914D02*
X89935238Y-64688533D01*
X103846333Y-97906819D02*
X103513000Y-97430628D01*
X103274905Y-97906819D02*
X103274905Y-96906819D01*
X103274905Y-96906819D02*
X103655857Y-96906819D01*
X103655857Y-96906819D02*
X103751095Y-96954438D01*
X103751095Y-96954438D02*
X103798714Y-97002057D01*
X103798714Y-97002057D02*
X103846333Y-97097295D01*
X103846333Y-97097295D02*
X103846333Y-97240152D01*
X103846333Y-97240152D02*
X103798714Y-97335390D01*
X103798714Y-97335390D02*
X103751095Y-97383009D01*
X103751095Y-97383009D02*
X103655857Y-97430628D01*
X103655857Y-97430628D02*
X103274905Y-97430628D01*
X104798714Y-97906819D02*
X104227286Y-97906819D01*
X104513000Y-97906819D02*
X104513000Y-96906819D01*
X104513000Y-96906819D02*
X104417762Y-97049676D01*
X104417762Y-97049676D02*
X104322524Y-97144914D01*
X104322524Y-97144914D02*
X104227286Y-97192533D01*
X140883819Y-78036527D02*
X140407628Y-78369860D01*
X140883819Y-78607955D02*
X139883819Y-78607955D01*
X139883819Y-78607955D02*
X139883819Y-78227003D01*
X139883819Y-78227003D02*
X139931438Y-78131765D01*
X139931438Y-78131765D02*
X139979057Y-78084146D01*
X139979057Y-78084146D02*
X140074295Y-78036527D01*
X140074295Y-78036527D02*
X140217152Y-78036527D01*
X140217152Y-78036527D02*
X140312390Y-78084146D01*
X140312390Y-78084146D02*
X140360009Y-78131765D01*
X140360009Y-78131765D02*
X140407628Y-78227003D01*
X140407628Y-78227003D02*
X140407628Y-78607955D01*
X140883819Y-77084146D02*
X140883819Y-77655574D01*
X140883819Y-77369860D02*
X139883819Y-77369860D01*
X139883819Y-77369860D02*
X140026676Y-77465098D01*
X140026676Y-77465098D02*
X140121914Y-77560336D01*
X140121914Y-77560336D02*
X140169533Y-77655574D01*
X140312390Y-76512717D02*
X140264771Y-76607955D01*
X140264771Y-76607955D02*
X140217152Y-76655574D01*
X140217152Y-76655574D02*
X140121914Y-76703193D01*
X140121914Y-76703193D02*
X140074295Y-76703193D01*
X140074295Y-76703193D02*
X139979057Y-76655574D01*
X139979057Y-76655574D02*
X139931438Y-76607955D01*
X139931438Y-76607955D02*
X139883819Y-76512717D01*
X139883819Y-76512717D02*
X139883819Y-76322241D01*
X139883819Y-76322241D02*
X139931438Y-76227003D01*
X139931438Y-76227003D02*
X139979057Y-76179384D01*
X139979057Y-76179384D02*
X140074295Y-76131765D01*
X140074295Y-76131765D02*
X140121914Y-76131765D01*
X140121914Y-76131765D02*
X140217152Y-76179384D01*
X140217152Y-76179384D02*
X140264771Y-76227003D01*
X140264771Y-76227003D02*
X140312390Y-76322241D01*
X140312390Y-76322241D02*
X140312390Y-76512717D01*
X140312390Y-76512717D02*
X140360009Y-76607955D01*
X140360009Y-76607955D02*
X140407628Y-76655574D01*
X140407628Y-76655574D02*
X140502866Y-76703193D01*
X140502866Y-76703193D02*
X140693342Y-76703193D01*
X140693342Y-76703193D02*
X140788580Y-76655574D01*
X140788580Y-76655574D02*
X140836200Y-76607955D01*
X140836200Y-76607955D02*
X140883819Y-76512717D01*
X140883819Y-76512717D02*
X140883819Y-76322241D01*
X140883819Y-76322241D02*
X140836200Y-76227003D01*
X140836200Y-76227003D02*
X140788580Y-76179384D01*
X140788580Y-76179384D02*
X140693342Y-76131765D01*
X140693342Y-76131765D02*
X140502866Y-76131765D01*
X140502866Y-76131765D02*
X140407628Y-76179384D01*
X140407628Y-76179384D02*
X140360009Y-76227003D01*
X140360009Y-76227003D02*
X140312390Y-76322241D01*
X88828057Y-103600238D02*
X88780438Y-103695476D01*
X88780438Y-103695476D02*
X88685200Y-103790714D01*
X88685200Y-103790714D02*
X88542342Y-103933571D01*
X88542342Y-103933571D02*
X88494723Y-104028809D01*
X88494723Y-104028809D02*
X88494723Y-104124047D01*
X88732819Y-104076428D02*
X88685200Y-104171666D01*
X88685200Y-104171666D02*
X88589961Y-104266904D01*
X88589961Y-104266904D02*
X88399485Y-104314523D01*
X88399485Y-104314523D02*
X88066152Y-104314523D01*
X88066152Y-104314523D02*
X87875676Y-104266904D01*
X87875676Y-104266904D02*
X87780438Y-104171666D01*
X87780438Y-104171666D02*
X87732819Y-104076428D01*
X87732819Y-104076428D02*
X87732819Y-103885952D01*
X87732819Y-103885952D02*
X87780438Y-103790714D01*
X87780438Y-103790714D02*
X87875676Y-103695476D01*
X87875676Y-103695476D02*
X88066152Y-103647857D01*
X88066152Y-103647857D02*
X88399485Y-103647857D01*
X88399485Y-103647857D02*
X88589961Y-103695476D01*
X88589961Y-103695476D02*
X88685200Y-103790714D01*
X88685200Y-103790714D02*
X88732819Y-103885952D01*
X88732819Y-103885952D02*
X88732819Y-104076428D01*
X88732819Y-103171666D02*
X88732819Y-102981190D01*
X88732819Y-102981190D02*
X88685200Y-102885952D01*
X88685200Y-102885952D02*
X88637580Y-102838333D01*
X88637580Y-102838333D02*
X88494723Y-102743095D01*
X88494723Y-102743095D02*
X88304247Y-102695476D01*
X88304247Y-102695476D02*
X87923295Y-102695476D01*
X87923295Y-102695476D02*
X87828057Y-102743095D01*
X87828057Y-102743095D02*
X87780438Y-102790714D01*
X87780438Y-102790714D02*
X87732819Y-102885952D01*
X87732819Y-102885952D02*
X87732819Y-103076428D01*
X87732819Y-103076428D02*
X87780438Y-103171666D01*
X87780438Y-103171666D02*
X87828057Y-103219285D01*
X87828057Y-103219285D02*
X87923295Y-103266904D01*
X87923295Y-103266904D02*
X88161390Y-103266904D01*
X88161390Y-103266904D02*
X88256628Y-103219285D01*
X88256628Y-103219285D02*
X88304247Y-103171666D01*
X88304247Y-103171666D02*
X88351866Y-103076428D01*
X88351866Y-103076428D02*
X88351866Y-102885952D01*
X88351866Y-102885952D02*
X88304247Y-102790714D01*
X88304247Y-102790714D02*
X88256628Y-102743095D01*
X88256628Y-102743095D02*
X88161390Y-102695476D01*
X138441580Y-89669857D02*
X138489200Y-89717476D01*
X138489200Y-89717476D02*
X138536819Y-89860333D01*
X138536819Y-89860333D02*
X138536819Y-89955571D01*
X138536819Y-89955571D02*
X138489200Y-90098428D01*
X138489200Y-90098428D02*
X138393961Y-90193666D01*
X138393961Y-90193666D02*
X138298723Y-90241285D01*
X138298723Y-90241285D02*
X138108247Y-90288904D01*
X138108247Y-90288904D02*
X137965390Y-90288904D01*
X137965390Y-90288904D02*
X137774914Y-90241285D01*
X137774914Y-90241285D02*
X137679676Y-90193666D01*
X137679676Y-90193666D02*
X137584438Y-90098428D01*
X137584438Y-90098428D02*
X137536819Y-89955571D01*
X137536819Y-89955571D02*
X137536819Y-89860333D01*
X137536819Y-89860333D02*
X137584438Y-89717476D01*
X137584438Y-89717476D02*
X137632057Y-89669857D01*
X137632057Y-89288904D02*
X137584438Y-89241285D01*
X137584438Y-89241285D02*
X137536819Y-89146047D01*
X137536819Y-89146047D02*
X137536819Y-88907952D01*
X137536819Y-88907952D02*
X137584438Y-88812714D01*
X137584438Y-88812714D02*
X137632057Y-88765095D01*
X137632057Y-88765095D02*
X137727295Y-88717476D01*
X137727295Y-88717476D02*
X137822533Y-88717476D01*
X137822533Y-88717476D02*
X137965390Y-88765095D01*
X137965390Y-88765095D02*
X138536819Y-89336523D01*
X138536819Y-89336523D02*
X138536819Y-88717476D01*
X137632057Y-88336523D02*
X137584438Y-88288904D01*
X137584438Y-88288904D02*
X137536819Y-88193666D01*
X137536819Y-88193666D02*
X137536819Y-87955571D01*
X137536819Y-87955571D02*
X137584438Y-87860333D01*
X137584438Y-87860333D02*
X137632057Y-87812714D01*
X137632057Y-87812714D02*
X137727295Y-87765095D01*
X137727295Y-87765095D02*
X137822533Y-87765095D01*
X137822533Y-87765095D02*
X137965390Y-87812714D01*
X137965390Y-87812714D02*
X138536819Y-88384142D01*
X138536819Y-88384142D02*
X138536819Y-87765095D01*
X122467819Y-81002094D02*
X121467819Y-81002094D01*
X121467819Y-81002094D02*
X121467819Y-80763999D01*
X121467819Y-80763999D02*
X121515438Y-80621142D01*
X121515438Y-80621142D02*
X121610676Y-80525904D01*
X121610676Y-80525904D02*
X121705914Y-80478285D01*
X121705914Y-80478285D02*
X121896390Y-80430666D01*
X121896390Y-80430666D02*
X122039247Y-80430666D01*
X122039247Y-80430666D02*
X122229723Y-80478285D01*
X122229723Y-80478285D02*
X122324961Y-80525904D01*
X122324961Y-80525904D02*
X122420200Y-80621142D01*
X122420200Y-80621142D02*
X122467819Y-80763999D01*
X122467819Y-80763999D02*
X122467819Y-81002094D01*
X121801152Y-79573523D02*
X122467819Y-79573523D01*
X121420200Y-79811618D02*
X122134485Y-80049713D01*
X122134485Y-80049713D02*
X122134485Y-79430666D01*
X103216095Y-87563819D02*
X103216095Y-88373342D01*
X103216095Y-88373342D02*
X103263714Y-88468580D01*
X103263714Y-88468580D02*
X103311333Y-88516200D01*
X103311333Y-88516200D02*
X103406571Y-88563819D01*
X103406571Y-88563819D02*
X103597047Y-88563819D01*
X103597047Y-88563819D02*
X103692285Y-88516200D01*
X103692285Y-88516200D02*
X103739904Y-88468580D01*
X103739904Y-88468580D02*
X103787523Y-88373342D01*
X103787523Y-88373342D02*
X103787523Y-87563819D01*
X104787523Y-88563819D02*
X104216095Y-88563819D01*
X104501809Y-88563819D02*
X104501809Y-87563819D01*
X104501809Y-87563819D02*
X104406571Y-87706676D01*
X104406571Y-87706676D02*
X104311333Y-87801914D01*
X104311333Y-87801914D02*
X104216095Y-87849533D01*
X78446333Y-98178580D02*
X78398714Y-98226200D01*
X78398714Y-98226200D02*
X78255857Y-98273819D01*
X78255857Y-98273819D02*
X78160619Y-98273819D01*
X78160619Y-98273819D02*
X78017762Y-98226200D01*
X78017762Y-98226200D02*
X77922524Y-98130961D01*
X77922524Y-98130961D02*
X77874905Y-98035723D01*
X77874905Y-98035723D02*
X77827286Y-97845247D01*
X77827286Y-97845247D02*
X77827286Y-97702390D01*
X77827286Y-97702390D02*
X77874905Y-97511914D01*
X77874905Y-97511914D02*
X77922524Y-97416676D01*
X77922524Y-97416676D02*
X78017762Y-97321438D01*
X78017762Y-97321438D02*
X78160619Y-97273819D01*
X78160619Y-97273819D02*
X78255857Y-97273819D01*
X78255857Y-97273819D02*
X78398714Y-97321438D01*
X78398714Y-97321438D02*
X78446333Y-97369057D01*
X78779667Y-97273819D02*
X79398714Y-97273819D01*
X79398714Y-97273819D02*
X79065381Y-97654771D01*
X79065381Y-97654771D02*
X79208238Y-97654771D01*
X79208238Y-97654771D02*
X79303476Y-97702390D01*
X79303476Y-97702390D02*
X79351095Y-97750009D01*
X79351095Y-97750009D02*
X79398714Y-97845247D01*
X79398714Y-97845247D02*
X79398714Y-98083342D01*
X79398714Y-98083342D02*
X79351095Y-98178580D01*
X79351095Y-98178580D02*
X79303476Y-98226200D01*
X79303476Y-98226200D02*
X79208238Y-98273819D01*
X79208238Y-98273819D02*
X78922524Y-98273819D01*
X78922524Y-98273819D02*
X78827286Y-98226200D01*
X78827286Y-98226200D02*
X78779667Y-98178580D01*
X143752819Y-95892857D02*
X143276628Y-96226190D01*
X143752819Y-96464285D02*
X142752819Y-96464285D01*
X142752819Y-96464285D02*
X142752819Y-96083333D01*
X142752819Y-96083333D02*
X142800438Y-95988095D01*
X142800438Y-95988095D02*
X142848057Y-95940476D01*
X142848057Y-95940476D02*
X142943295Y-95892857D01*
X142943295Y-95892857D02*
X143086152Y-95892857D01*
X143086152Y-95892857D02*
X143181390Y-95940476D01*
X143181390Y-95940476D02*
X143229009Y-95988095D01*
X143229009Y-95988095D02*
X143276628Y-96083333D01*
X143276628Y-96083333D02*
X143276628Y-96464285D01*
X143752819Y-94940476D02*
X143752819Y-95511904D01*
X143752819Y-95226190D02*
X142752819Y-95226190D01*
X142752819Y-95226190D02*
X142895676Y-95321428D01*
X142895676Y-95321428D02*
X142990914Y-95416666D01*
X142990914Y-95416666D02*
X143038533Y-95511904D01*
X142752819Y-94321428D02*
X142752819Y-94226190D01*
X142752819Y-94226190D02*
X142800438Y-94130952D01*
X142800438Y-94130952D02*
X142848057Y-94083333D01*
X142848057Y-94083333D02*
X142943295Y-94035714D01*
X142943295Y-94035714D02*
X143133771Y-93988095D01*
X143133771Y-93988095D02*
X143371866Y-93988095D01*
X143371866Y-93988095D02*
X143562342Y-94035714D01*
X143562342Y-94035714D02*
X143657580Y-94083333D01*
X143657580Y-94083333D02*
X143705200Y-94130952D01*
X143705200Y-94130952D02*
X143752819Y-94226190D01*
X143752819Y-94226190D02*
X143752819Y-94321428D01*
X143752819Y-94321428D02*
X143705200Y-94416666D01*
X143705200Y-94416666D02*
X143657580Y-94464285D01*
X143657580Y-94464285D02*
X143562342Y-94511904D01*
X143562342Y-94511904D02*
X143371866Y-94559523D01*
X143371866Y-94559523D02*
X143133771Y-94559523D01*
X143133771Y-94559523D02*
X142943295Y-94511904D01*
X142943295Y-94511904D02*
X142848057Y-94464285D01*
X142848057Y-94464285D02*
X142800438Y-94416666D01*
X142800438Y-94416666D02*
X142752819Y-94321428D01*
X109180333Y-79955580D02*
X109132714Y-80003200D01*
X109132714Y-80003200D02*
X108989857Y-80050819D01*
X108989857Y-80050819D02*
X108894619Y-80050819D01*
X108894619Y-80050819D02*
X108751762Y-80003200D01*
X108751762Y-80003200D02*
X108656524Y-79907961D01*
X108656524Y-79907961D02*
X108608905Y-79812723D01*
X108608905Y-79812723D02*
X108561286Y-79622247D01*
X108561286Y-79622247D02*
X108561286Y-79479390D01*
X108561286Y-79479390D02*
X108608905Y-79288914D01*
X108608905Y-79288914D02*
X108656524Y-79193676D01*
X108656524Y-79193676D02*
X108751762Y-79098438D01*
X108751762Y-79098438D02*
X108894619Y-79050819D01*
X108894619Y-79050819D02*
X108989857Y-79050819D01*
X108989857Y-79050819D02*
X109132714Y-79098438D01*
X109132714Y-79098438D02*
X109180333Y-79146057D01*
X109513667Y-79050819D02*
X110180333Y-79050819D01*
X110180333Y-79050819D02*
X109751762Y-80050819D01*
X158756819Y-84534333D02*
X159471104Y-84534333D01*
X159471104Y-84534333D02*
X159613961Y-84581952D01*
X159613961Y-84581952D02*
X159709200Y-84677190D01*
X159709200Y-84677190D02*
X159756819Y-84820047D01*
X159756819Y-84820047D02*
X159756819Y-84915285D01*
X158756819Y-83629571D02*
X158756819Y-83820047D01*
X158756819Y-83820047D02*
X158804438Y-83915285D01*
X158804438Y-83915285D02*
X158852057Y-83962904D01*
X158852057Y-83962904D02*
X158994914Y-84058142D01*
X158994914Y-84058142D02*
X159185390Y-84105761D01*
X159185390Y-84105761D02*
X159566342Y-84105761D01*
X159566342Y-84105761D02*
X159661580Y-84058142D01*
X159661580Y-84058142D02*
X159709200Y-84010523D01*
X159709200Y-84010523D02*
X159756819Y-83915285D01*
X159756819Y-83915285D02*
X159756819Y-83724809D01*
X159756819Y-83724809D02*
X159709200Y-83629571D01*
X159709200Y-83629571D02*
X159661580Y-83581952D01*
X159661580Y-83581952D02*
X159566342Y-83534333D01*
X159566342Y-83534333D02*
X159328247Y-83534333D01*
X159328247Y-83534333D02*
X159233009Y-83581952D01*
X159233009Y-83581952D02*
X159185390Y-83629571D01*
X159185390Y-83629571D02*
X159137771Y-83724809D01*
X159137771Y-83724809D02*
X159137771Y-83915285D01*
X159137771Y-83915285D02*
X159185390Y-84010523D01*
X159185390Y-84010523D02*
X159233009Y-84058142D01*
X159233009Y-84058142D02*
X159328247Y-84105761D01*
X86561905Y-85048819D02*
X86561905Y-84048819D01*
X86561905Y-84048819D02*
X86800000Y-84048819D01*
X86800000Y-84048819D02*
X86942857Y-84096438D01*
X86942857Y-84096438D02*
X87038095Y-84191676D01*
X87038095Y-84191676D02*
X87085714Y-84286914D01*
X87085714Y-84286914D02*
X87133333Y-84477390D01*
X87133333Y-84477390D02*
X87133333Y-84620247D01*
X87133333Y-84620247D02*
X87085714Y-84810723D01*
X87085714Y-84810723D02*
X87038095Y-84905961D01*
X87038095Y-84905961D02*
X86942857Y-85001200D01*
X86942857Y-85001200D02*
X86800000Y-85048819D01*
X86800000Y-85048819D02*
X86561905Y-85048819D01*
X87514286Y-84144057D02*
X87561905Y-84096438D01*
X87561905Y-84096438D02*
X87657143Y-84048819D01*
X87657143Y-84048819D02*
X87895238Y-84048819D01*
X87895238Y-84048819D02*
X87990476Y-84096438D01*
X87990476Y-84096438D02*
X88038095Y-84144057D01*
X88038095Y-84144057D02*
X88085714Y-84239295D01*
X88085714Y-84239295D02*
X88085714Y-84334533D01*
X88085714Y-84334533D02*
X88038095Y-84477390D01*
X88038095Y-84477390D02*
X87466667Y-85048819D01*
X87466667Y-85048819D02*
X88085714Y-85048819D01*
X90848095Y-84728819D02*
X90848095Y-83728819D01*
X91419523Y-84728819D02*
X90990952Y-84157390D01*
X91419523Y-83728819D02*
X90848095Y-84300247D01*
X104894142Y-82815580D02*
X104846523Y-82863200D01*
X104846523Y-82863200D02*
X104703666Y-82910819D01*
X104703666Y-82910819D02*
X104608428Y-82910819D01*
X104608428Y-82910819D02*
X104465571Y-82863200D01*
X104465571Y-82863200D02*
X104370333Y-82767961D01*
X104370333Y-82767961D02*
X104322714Y-82672723D01*
X104322714Y-82672723D02*
X104275095Y-82482247D01*
X104275095Y-82482247D02*
X104275095Y-82339390D01*
X104275095Y-82339390D02*
X104322714Y-82148914D01*
X104322714Y-82148914D02*
X104370333Y-82053676D01*
X104370333Y-82053676D02*
X104465571Y-81958438D01*
X104465571Y-81958438D02*
X104608428Y-81910819D01*
X104608428Y-81910819D02*
X104703666Y-81910819D01*
X104703666Y-81910819D02*
X104846523Y-81958438D01*
X104846523Y-81958438D02*
X104894142Y-82006057D01*
X105275095Y-82006057D02*
X105322714Y-81958438D01*
X105322714Y-81958438D02*
X105417952Y-81910819D01*
X105417952Y-81910819D02*
X105656047Y-81910819D01*
X105656047Y-81910819D02*
X105751285Y-81958438D01*
X105751285Y-81958438D02*
X105798904Y-82006057D01*
X105798904Y-82006057D02*
X105846523Y-82101295D01*
X105846523Y-82101295D02*
X105846523Y-82196533D01*
X105846523Y-82196533D02*
X105798904Y-82339390D01*
X105798904Y-82339390D02*
X105227476Y-82910819D01*
X105227476Y-82910819D02*
X105846523Y-82910819D01*
X106179857Y-81910819D02*
X106846523Y-81910819D01*
X106846523Y-81910819D02*
X106417952Y-82910819D01*
X115789095Y-76064819D02*
X115789095Y-76874342D01*
X115789095Y-76874342D02*
X115836714Y-76969580D01*
X115836714Y-76969580D02*
X115884333Y-77017200D01*
X115884333Y-77017200D02*
X115979571Y-77064819D01*
X115979571Y-77064819D02*
X116170047Y-77064819D01*
X116170047Y-77064819D02*
X116265285Y-77017200D01*
X116265285Y-77017200D02*
X116312904Y-76969580D01*
X116312904Y-76969580D02*
X116360523Y-76874342D01*
X116360523Y-76874342D02*
X116360523Y-76064819D01*
X116789095Y-76160057D02*
X116836714Y-76112438D01*
X116836714Y-76112438D02*
X116931952Y-76064819D01*
X116931952Y-76064819D02*
X117170047Y-76064819D01*
X117170047Y-76064819D02*
X117265285Y-76112438D01*
X117265285Y-76112438D02*
X117312904Y-76160057D01*
X117312904Y-76160057D02*
X117360523Y-76255295D01*
X117360523Y-76255295D02*
X117360523Y-76350533D01*
X117360523Y-76350533D02*
X117312904Y-76493390D01*
X117312904Y-76493390D02*
X116741476Y-77064819D01*
X116741476Y-77064819D02*
X117360523Y-77064819D01*
X155820819Y-96773904D02*
X156630342Y-96773904D01*
X156630342Y-96773904D02*
X156725580Y-96726285D01*
X156725580Y-96726285D02*
X156773200Y-96678666D01*
X156773200Y-96678666D02*
X156820819Y-96583428D01*
X156820819Y-96583428D02*
X156820819Y-96392952D01*
X156820819Y-96392952D02*
X156773200Y-96297714D01*
X156773200Y-96297714D02*
X156725580Y-96250095D01*
X156725580Y-96250095D02*
X156630342Y-96202476D01*
X156630342Y-96202476D02*
X155820819Y-96202476D01*
X155820819Y-95821523D02*
X155820819Y-95202476D01*
X155820819Y-95202476D02*
X156201771Y-95535809D01*
X156201771Y-95535809D02*
X156201771Y-95392952D01*
X156201771Y-95392952D02*
X156249390Y-95297714D01*
X156249390Y-95297714D02*
X156297009Y-95250095D01*
X156297009Y-95250095D02*
X156392247Y-95202476D01*
X156392247Y-95202476D02*
X156630342Y-95202476D01*
X156630342Y-95202476D02*
X156725580Y-95250095D01*
X156725580Y-95250095D02*
X156773200Y-95297714D01*
X156773200Y-95297714D02*
X156820819Y-95392952D01*
X156820819Y-95392952D02*
X156820819Y-95678666D01*
X156820819Y-95678666D02*
X156773200Y-95773904D01*
X156773200Y-95773904D02*
X156725580Y-95821523D01*
X125087142Y-82209819D02*
X124753809Y-81733628D01*
X124515714Y-82209819D02*
X124515714Y-81209819D01*
X124515714Y-81209819D02*
X124896666Y-81209819D01*
X124896666Y-81209819D02*
X124991904Y-81257438D01*
X124991904Y-81257438D02*
X125039523Y-81305057D01*
X125039523Y-81305057D02*
X125087142Y-81400295D01*
X125087142Y-81400295D02*
X125087142Y-81543152D01*
X125087142Y-81543152D02*
X125039523Y-81638390D01*
X125039523Y-81638390D02*
X124991904Y-81686009D01*
X124991904Y-81686009D02*
X124896666Y-81733628D01*
X124896666Y-81733628D02*
X124515714Y-81733628D01*
X125468095Y-81305057D02*
X125515714Y-81257438D01*
X125515714Y-81257438D02*
X125610952Y-81209819D01*
X125610952Y-81209819D02*
X125849047Y-81209819D01*
X125849047Y-81209819D02*
X125944285Y-81257438D01*
X125944285Y-81257438D02*
X125991904Y-81305057D01*
X125991904Y-81305057D02*
X126039523Y-81400295D01*
X126039523Y-81400295D02*
X126039523Y-81495533D01*
X126039523Y-81495533D02*
X125991904Y-81638390D01*
X125991904Y-81638390D02*
X125420476Y-82209819D01*
X125420476Y-82209819D02*
X126039523Y-82209819D01*
X126658571Y-81209819D02*
X126753809Y-81209819D01*
X126753809Y-81209819D02*
X126849047Y-81257438D01*
X126849047Y-81257438D02*
X126896666Y-81305057D01*
X126896666Y-81305057D02*
X126944285Y-81400295D01*
X126944285Y-81400295D02*
X126991904Y-81590771D01*
X126991904Y-81590771D02*
X126991904Y-81828866D01*
X126991904Y-81828866D02*
X126944285Y-82019342D01*
X126944285Y-82019342D02*
X126896666Y-82114580D01*
X126896666Y-82114580D02*
X126849047Y-82162200D01*
X126849047Y-82162200D02*
X126753809Y-82209819D01*
X126753809Y-82209819D02*
X126658571Y-82209819D01*
X126658571Y-82209819D02*
X126563333Y-82162200D01*
X126563333Y-82162200D02*
X126515714Y-82114580D01*
X126515714Y-82114580D02*
X126468095Y-82019342D01*
X126468095Y-82019342D02*
X126420476Y-81828866D01*
X126420476Y-81828866D02*
X126420476Y-81590771D01*
X126420476Y-81590771D02*
X126468095Y-81400295D01*
X126468095Y-81400295D02*
X126515714Y-81305057D01*
X126515714Y-81305057D02*
X126563333Y-81257438D01*
X126563333Y-81257438D02*
X126658571Y-81209819D01*
X139615392Y-81580257D02*
X139663012Y-81627876D01*
X139663012Y-81627876D02*
X139710631Y-81770733D01*
X139710631Y-81770733D02*
X139710631Y-81865971D01*
X139710631Y-81865971D02*
X139663012Y-82008828D01*
X139663012Y-82008828D02*
X139567773Y-82104066D01*
X139567773Y-82104066D02*
X139472535Y-82151685D01*
X139472535Y-82151685D02*
X139282059Y-82199304D01*
X139282059Y-82199304D02*
X139139202Y-82199304D01*
X139139202Y-82199304D02*
X138948726Y-82151685D01*
X138948726Y-82151685D02*
X138853488Y-82104066D01*
X138853488Y-82104066D02*
X138758250Y-82008828D01*
X138758250Y-82008828D02*
X138710631Y-81865971D01*
X138710631Y-81865971D02*
X138710631Y-81770733D01*
X138710631Y-81770733D02*
X138758250Y-81627876D01*
X138758250Y-81627876D02*
X138805869Y-81580257D01*
X138805869Y-81199304D02*
X138758250Y-81151685D01*
X138758250Y-81151685D02*
X138710631Y-81056447D01*
X138710631Y-81056447D02*
X138710631Y-80818352D01*
X138710631Y-80818352D02*
X138758250Y-80723114D01*
X138758250Y-80723114D02*
X138805869Y-80675495D01*
X138805869Y-80675495D02*
X138901107Y-80627876D01*
X138901107Y-80627876D02*
X138996345Y-80627876D01*
X138996345Y-80627876D02*
X139139202Y-80675495D01*
X139139202Y-80675495D02*
X139710631Y-81246923D01*
X139710631Y-81246923D02*
X139710631Y-80627876D01*
X139710631Y-79675495D02*
X139710631Y-80246923D01*
X139710631Y-79961209D02*
X138710631Y-79961209D01*
X138710631Y-79961209D02*
X138853488Y-80056447D01*
X138853488Y-80056447D02*
X138948726Y-80151685D01*
X138948726Y-80151685D02*
X138996345Y-80246923D01*
X137690954Y-85362219D02*
X137357621Y-84886028D01*
X137119526Y-85362219D02*
X137119526Y-84362219D01*
X137119526Y-84362219D02*
X137500478Y-84362219D01*
X137500478Y-84362219D02*
X137595716Y-84409838D01*
X137595716Y-84409838D02*
X137643335Y-84457457D01*
X137643335Y-84457457D02*
X137690954Y-84552695D01*
X137690954Y-84552695D02*
X137690954Y-84695552D01*
X137690954Y-84695552D02*
X137643335Y-84790790D01*
X137643335Y-84790790D02*
X137595716Y-84838409D01*
X137595716Y-84838409D02*
X137500478Y-84886028D01*
X137500478Y-84886028D02*
X137119526Y-84886028D01*
X138643335Y-85362219D02*
X138071907Y-85362219D01*
X138357621Y-85362219D02*
X138357621Y-84362219D01*
X138357621Y-84362219D02*
X138262383Y-84505076D01*
X138262383Y-84505076D02*
X138167145Y-84600314D01*
X138167145Y-84600314D02*
X138071907Y-84647933D01*
X138976669Y-84362219D02*
X139643335Y-84362219D01*
X139643335Y-84362219D02*
X139214764Y-85362219D01*
X138441580Y-86654857D02*
X138489200Y-86702476D01*
X138489200Y-86702476D02*
X138536819Y-86845333D01*
X138536819Y-86845333D02*
X138536819Y-86940571D01*
X138536819Y-86940571D02*
X138489200Y-87083428D01*
X138489200Y-87083428D02*
X138393961Y-87178666D01*
X138393961Y-87178666D02*
X138298723Y-87226285D01*
X138298723Y-87226285D02*
X138108247Y-87273904D01*
X138108247Y-87273904D02*
X137965390Y-87273904D01*
X137965390Y-87273904D02*
X137774914Y-87226285D01*
X137774914Y-87226285D02*
X137679676Y-87178666D01*
X137679676Y-87178666D02*
X137584438Y-87083428D01*
X137584438Y-87083428D02*
X137536819Y-86940571D01*
X137536819Y-86940571D02*
X137536819Y-86845333D01*
X137536819Y-86845333D02*
X137584438Y-86702476D01*
X137584438Y-86702476D02*
X137632057Y-86654857D01*
X137632057Y-86273904D02*
X137584438Y-86226285D01*
X137584438Y-86226285D02*
X137536819Y-86131047D01*
X137536819Y-86131047D02*
X137536819Y-85892952D01*
X137536819Y-85892952D02*
X137584438Y-85797714D01*
X137584438Y-85797714D02*
X137632057Y-85750095D01*
X137632057Y-85750095D02*
X137727295Y-85702476D01*
X137727295Y-85702476D02*
X137822533Y-85702476D01*
X137822533Y-85702476D02*
X137965390Y-85750095D01*
X137965390Y-85750095D02*
X138536819Y-86321523D01*
X138536819Y-86321523D02*
X138536819Y-85702476D01*
X137536819Y-85083428D02*
X137536819Y-84988190D01*
X137536819Y-84988190D02*
X137584438Y-84892952D01*
X137584438Y-84892952D02*
X137632057Y-84845333D01*
X137632057Y-84845333D02*
X137727295Y-84797714D01*
X137727295Y-84797714D02*
X137917771Y-84750095D01*
X137917771Y-84750095D02*
X138155866Y-84750095D01*
X138155866Y-84750095D02*
X138346342Y-84797714D01*
X138346342Y-84797714D02*
X138441580Y-84845333D01*
X138441580Y-84845333D02*
X138489200Y-84892952D01*
X138489200Y-84892952D02*
X138536819Y-84988190D01*
X138536819Y-84988190D02*
X138536819Y-85083428D01*
X138536819Y-85083428D02*
X138489200Y-85178666D01*
X138489200Y-85178666D02*
X138441580Y-85226285D01*
X138441580Y-85226285D02*
X138346342Y-85273904D01*
X138346342Y-85273904D02*
X138155866Y-85321523D01*
X138155866Y-85321523D02*
X137917771Y-85321523D01*
X137917771Y-85321523D02*
X137727295Y-85273904D01*
X137727295Y-85273904D02*
X137632057Y-85226285D01*
X137632057Y-85226285D02*
X137584438Y-85178666D01*
X137584438Y-85178666D02*
X137536819Y-85083428D01*
X133611580Y-101766666D02*
X133659200Y-101814285D01*
X133659200Y-101814285D02*
X133706819Y-101957142D01*
X133706819Y-101957142D02*
X133706819Y-102052380D01*
X133706819Y-102052380D02*
X133659200Y-102195237D01*
X133659200Y-102195237D02*
X133563961Y-102290475D01*
X133563961Y-102290475D02*
X133468723Y-102338094D01*
X133468723Y-102338094D02*
X133278247Y-102385713D01*
X133278247Y-102385713D02*
X133135390Y-102385713D01*
X133135390Y-102385713D02*
X132944914Y-102338094D01*
X132944914Y-102338094D02*
X132849676Y-102290475D01*
X132849676Y-102290475D02*
X132754438Y-102195237D01*
X132754438Y-102195237D02*
X132706819Y-102052380D01*
X132706819Y-102052380D02*
X132706819Y-101957142D01*
X132706819Y-101957142D02*
X132754438Y-101814285D01*
X132754438Y-101814285D02*
X132802057Y-101766666D01*
X133706819Y-101290475D02*
X133706819Y-101099999D01*
X133706819Y-101099999D02*
X133659200Y-101004761D01*
X133659200Y-101004761D02*
X133611580Y-100957142D01*
X133611580Y-100957142D02*
X133468723Y-100861904D01*
X133468723Y-100861904D02*
X133278247Y-100814285D01*
X133278247Y-100814285D02*
X132897295Y-100814285D01*
X132897295Y-100814285D02*
X132802057Y-100861904D01*
X132802057Y-100861904D02*
X132754438Y-100909523D01*
X132754438Y-100909523D02*
X132706819Y-101004761D01*
X132706819Y-101004761D02*
X132706819Y-101195237D01*
X132706819Y-101195237D02*
X132754438Y-101290475D01*
X132754438Y-101290475D02*
X132802057Y-101338094D01*
X132802057Y-101338094D02*
X132897295Y-101385713D01*
X132897295Y-101385713D02*
X133135390Y-101385713D01*
X133135390Y-101385713D02*
X133230628Y-101338094D01*
X133230628Y-101338094D02*
X133278247Y-101290475D01*
X133278247Y-101290475D02*
X133325866Y-101195237D01*
X133325866Y-101195237D02*
X133325866Y-101004761D01*
X133325866Y-101004761D02*
X133278247Y-100909523D01*
X133278247Y-100909523D02*
X133230628Y-100861904D01*
X133230628Y-100861904D02*
X133135390Y-100814285D01*
X102068333Y-87194580D02*
X102020714Y-87242200D01*
X102020714Y-87242200D02*
X101877857Y-87289819D01*
X101877857Y-87289819D02*
X101782619Y-87289819D01*
X101782619Y-87289819D02*
X101639762Y-87242200D01*
X101639762Y-87242200D02*
X101544524Y-87146961D01*
X101544524Y-87146961D02*
X101496905Y-87051723D01*
X101496905Y-87051723D02*
X101449286Y-86861247D01*
X101449286Y-86861247D02*
X101449286Y-86718390D01*
X101449286Y-86718390D02*
X101496905Y-86527914D01*
X101496905Y-86527914D02*
X101544524Y-86432676D01*
X101544524Y-86432676D02*
X101639762Y-86337438D01*
X101639762Y-86337438D02*
X101782619Y-86289819D01*
X101782619Y-86289819D02*
X101877857Y-86289819D01*
X101877857Y-86289819D02*
X102020714Y-86337438D01*
X102020714Y-86337438D02*
X102068333Y-86385057D01*
X102639762Y-86718390D02*
X102544524Y-86670771D01*
X102544524Y-86670771D02*
X102496905Y-86623152D01*
X102496905Y-86623152D02*
X102449286Y-86527914D01*
X102449286Y-86527914D02*
X102449286Y-86480295D01*
X102449286Y-86480295D02*
X102496905Y-86385057D01*
X102496905Y-86385057D02*
X102544524Y-86337438D01*
X102544524Y-86337438D02*
X102639762Y-86289819D01*
X102639762Y-86289819D02*
X102830238Y-86289819D01*
X102830238Y-86289819D02*
X102925476Y-86337438D01*
X102925476Y-86337438D02*
X102973095Y-86385057D01*
X102973095Y-86385057D02*
X103020714Y-86480295D01*
X103020714Y-86480295D02*
X103020714Y-86527914D01*
X103020714Y-86527914D02*
X102973095Y-86623152D01*
X102973095Y-86623152D02*
X102925476Y-86670771D01*
X102925476Y-86670771D02*
X102830238Y-86718390D01*
X102830238Y-86718390D02*
X102639762Y-86718390D01*
X102639762Y-86718390D02*
X102544524Y-86766009D01*
X102544524Y-86766009D02*
X102496905Y-86813628D01*
X102496905Y-86813628D02*
X102449286Y-86908866D01*
X102449286Y-86908866D02*
X102449286Y-87099342D01*
X102449286Y-87099342D02*
X102496905Y-87194580D01*
X102496905Y-87194580D02*
X102544524Y-87242200D01*
X102544524Y-87242200D02*
X102639762Y-87289819D01*
X102639762Y-87289819D02*
X102830238Y-87289819D01*
X102830238Y-87289819D02*
X102925476Y-87242200D01*
X102925476Y-87242200D02*
X102973095Y-87194580D01*
X102973095Y-87194580D02*
X103020714Y-87099342D01*
X103020714Y-87099342D02*
X103020714Y-86908866D01*
X103020714Y-86908866D02*
X102973095Y-86813628D01*
X102973095Y-86813628D02*
X102925476Y-86766009D01*
X102925476Y-86766009D02*
X102830238Y-86718390D01*
X82429819Y-87836333D02*
X83144104Y-87836333D01*
X83144104Y-87836333D02*
X83286961Y-87883952D01*
X83286961Y-87883952D02*
X83382200Y-87979190D01*
X83382200Y-87979190D02*
X83429819Y-88122047D01*
X83429819Y-88122047D02*
X83429819Y-88217285D01*
X83429819Y-87312523D02*
X83429819Y-87122047D01*
X83429819Y-87122047D02*
X83382200Y-87026809D01*
X83382200Y-87026809D02*
X83334580Y-86979190D01*
X83334580Y-86979190D02*
X83191723Y-86883952D01*
X83191723Y-86883952D02*
X83001247Y-86836333D01*
X83001247Y-86836333D02*
X82620295Y-86836333D01*
X82620295Y-86836333D02*
X82525057Y-86883952D01*
X82525057Y-86883952D02*
X82477438Y-86931571D01*
X82477438Y-86931571D02*
X82429819Y-87026809D01*
X82429819Y-87026809D02*
X82429819Y-87217285D01*
X82429819Y-87217285D02*
X82477438Y-87312523D01*
X82477438Y-87312523D02*
X82525057Y-87360142D01*
X82525057Y-87360142D02*
X82620295Y-87407761D01*
X82620295Y-87407761D02*
X82858390Y-87407761D01*
X82858390Y-87407761D02*
X82953628Y-87360142D01*
X82953628Y-87360142D02*
X83001247Y-87312523D01*
X83001247Y-87312523D02*
X83048866Y-87217285D01*
X83048866Y-87217285D02*
X83048866Y-87026809D01*
X83048866Y-87026809D02*
X83001247Y-86931571D01*
X83001247Y-86931571D02*
X82953628Y-86883952D01*
X82953628Y-86883952D02*
X82858390Y-86836333D01*
X152225476Y-91358819D02*
X152225476Y-92073104D01*
X152225476Y-92073104D02*
X152177857Y-92215961D01*
X152177857Y-92215961D02*
X152082619Y-92311200D01*
X152082619Y-92311200D02*
X151939762Y-92358819D01*
X151939762Y-92358819D02*
X151844524Y-92358819D01*
X153225476Y-92358819D02*
X152654048Y-92358819D01*
X152939762Y-92358819D02*
X152939762Y-91358819D01*
X152939762Y-91358819D02*
X152844524Y-91501676D01*
X152844524Y-91501676D02*
X152749286Y-91596914D01*
X152749286Y-91596914D02*
X152654048Y-91644533D01*
X153844524Y-91358819D02*
X153939762Y-91358819D01*
X153939762Y-91358819D02*
X154035000Y-91406438D01*
X154035000Y-91406438D02*
X154082619Y-91454057D01*
X154082619Y-91454057D02*
X154130238Y-91549295D01*
X154130238Y-91549295D02*
X154177857Y-91739771D01*
X154177857Y-91739771D02*
X154177857Y-91977866D01*
X154177857Y-91977866D02*
X154130238Y-92168342D01*
X154130238Y-92168342D02*
X154082619Y-92263580D01*
X154082619Y-92263580D02*
X154035000Y-92311200D01*
X154035000Y-92311200D02*
X153939762Y-92358819D01*
X153939762Y-92358819D02*
X153844524Y-92358819D01*
X153844524Y-92358819D02*
X153749286Y-92311200D01*
X153749286Y-92311200D02*
X153701667Y-92263580D01*
X153701667Y-92263580D02*
X153654048Y-92168342D01*
X153654048Y-92168342D02*
X153606429Y-91977866D01*
X153606429Y-91977866D02*
X153606429Y-91739771D01*
X153606429Y-91739771D02*
X153654048Y-91549295D01*
X153654048Y-91549295D02*
X153701667Y-91454057D01*
X153701667Y-91454057D02*
X153749286Y-91406438D01*
X153749286Y-91406438D02*
X153844524Y-91358819D01*
X145248386Y-84081857D02*
X145296006Y-84129476D01*
X145296006Y-84129476D02*
X145343625Y-84272333D01*
X145343625Y-84272333D02*
X145343625Y-84367571D01*
X145343625Y-84367571D02*
X145296006Y-84510428D01*
X145296006Y-84510428D02*
X145200767Y-84605666D01*
X145200767Y-84605666D02*
X145105529Y-84653285D01*
X145105529Y-84653285D02*
X144915053Y-84700904D01*
X144915053Y-84700904D02*
X144772196Y-84700904D01*
X144772196Y-84700904D02*
X144581720Y-84653285D01*
X144581720Y-84653285D02*
X144486482Y-84605666D01*
X144486482Y-84605666D02*
X144391244Y-84510428D01*
X144391244Y-84510428D02*
X144343625Y-84367571D01*
X144343625Y-84367571D02*
X144343625Y-84272333D01*
X144343625Y-84272333D02*
X144391244Y-84129476D01*
X144391244Y-84129476D02*
X144438863Y-84081857D01*
X145343625Y-83129476D02*
X145343625Y-83700904D01*
X145343625Y-83415190D02*
X144343625Y-83415190D01*
X144343625Y-83415190D02*
X144486482Y-83510428D01*
X144486482Y-83510428D02*
X144581720Y-83605666D01*
X144581720Y-83605666D02*
X144629339Y-83700904D01*
X144343625Y-82272333D02*
X144343625Y-82462809D01*
X144343625Y-82462809D02*
X144391244Y-82558047D01*
X144391244Y-82558047D02*
X144438863Y-82605666D01*
X144438863Y-82605666D02*
X144581720Y-82700904D01*
X144581720Y-82700904D02*
X144772196Y-82748523D01*
X144772196Y-82748523D02*
X145153148Y-82748523D01*
X145153148Y-82748523D02*
X145248386Y-82700904D01*
X145248386Y-82700904D02*
X145296006Y-82653285D01*
X145296006Y-82653285D02*
X145343625Y-82558047D01*
X145343625Y-82558047D02*
X145343625Y-82367571D01*
X145343625Y-82367571D02*
X145296006Y-82272333D01*
X145296006Y-82272333D02*
X145248386Y-82224714D01*
X145248386Y-82224714D02*
X145153148Y-82177095D01*
X145153148Y-82177095D02*
X144915053Y-82177095D01*
X144915053Y-82177095D02*
X144819815Y-82224714D01*
X144819815Y-82224714D02*
X144772196Y-82272333D01*
X144772196Y-82272333D02*
X144724577Y-82367571D01*
X144724577Y-82367571D02*
X144724577Y-82558047D01*
X144724577Y-82558047D02*
X144772196Y-82653285D01*
X144772196Y-82653285D02*
X144819815Y-82700904D01*
X144819815Y-82700904D02*
X144915053Y-82748523D01*
X104227333Y-96338580D02*
X104179714Y-96386200D01*
X104179714Y-96386200D02*
X104036857Y-96433819D01*
X104036857Y-96433819D02*
X103941619Y-96433819D01*
X103941619Y-96433819D02*
X103798762Y-96386200D01*
X103798762Y-96386200D02*
X103703524Y-96290961D01*
X103703524Y-96290961D02*
X103655905Y-96195723D01*
X103655905Y-96195723D02*
X103608286Y-96005247D01*
X103608286Y-96005247D02*
X103608286Y-95862390D01*
X103608286Y-95862390D02*
X103655905Y-95671914D01*
X103655905Y-95671914D02*
X103703524Y-95576676D01*
X103703524Y-95576676D02*
X103798762Y-95481438D01*
X103798762Y-95481438D02*
X103941619Y-95433819D01*
X103941619Y-95433819D02*
X104036857Y-95433819D01*
X104036857Y-95433819D02*
X104179714Y-95481438D01*
X104179714Y-95481438D02*
X104227333Y-95529057D01*
X105084476Y-95767152D02*
X105084476Y-96433819D01*
X104846381Y-95386200D02*
X104608286Y-96100485D01*
X104608286Y-96100485D02*
X105227333Y-96100485D01*
X118597142Y-77989580D02*
X118549523Y-78037200D01*
X118549523Y-78037200D02*
X118406666Y-78084819D01*
X118406666Y-78084819D02*
X118311428Y-78084819D01*
X118311428Y-78084819D02*
X118168571Y-78037200D01*
X118168571Y-78037200D02*
X118073333Y-77941961D01*
X118073333Y-77941961D02*
X118025714Y-77846723D01*
X118025714Y-77846723D02*
X117978095Y-77656247D01*
X117978095Y-77656247D02*
X117978095Y-77513390D01*
X117978095Y-77513390D02*
X118025714Y-77322914D01*
X118025714Y-77322914D02*
X118073333Y-77227676D01*
X118073333Y-77227676D02*
X118168571Y-77132438D01*
X118168571Y-77132438D02*
X118311428Y-77084819D01*
X118311428Y-77084819D02*
X118406666Y-77084819D01*
X118406666Y-77084819D02*
X118549523Y-77132438D01*
X118549523Y-77132438D02*
X118597142Y-77180057D01*
X119549523Y-78084819D02*
X118978095Y-78084819D01*
X119263809Y-78084819D02*
X119263809Y-77084819D01*
X119263809Y-77084819D02*
X119168571Y-77227676D01*
X119168571Y-77227676D02*
X119073333Y-77322914D01*
X119073333Y-77322914D02*
X118978095Y-77370533D01*
X120168571Y-77084819D02*
X120263809Y-77084819D01*
X120263809Y-77084819D02*
X120359047Y-77132438D01*
X120359047Y-77132438D02*
X120406666Y-77180057D01*
X120406666Y-77180057D02*
X120454285Y-77275295D01*
X120454285Y-77275295D02*
X120501904Y-77465771D01*
X120501904Y-77465771D02*
X120501904Y-77703866D01*
X120501904Y-77703866D02*
X120454285Y-77894342D01*
X120454285Y-77894342D02*
X120406666Y-77989580D01*
X120406666Y-77989580D02*
X120359047Y-78037200D01*
X120359047Y-78037200D02*
X120263809Y-78084819D01*
X120263809Y-78084819D02*
X120168571Y-78084819D01*
X120168571Y-78084819D02*
X120073333Y-78037200D01*
X120073333Y-78037200D02*
X120025714Y-77989580D01*
X120025714Y-77989580D02*
X119978095Y-77894342D01*
X119978095Y-77894342D02*
X119930476Y-77703866D01*
X119930476Y-77703866D02*
X119930476Y-77465771D01*
X119930476Y-77465771D02*
X119978095Y-77275295D01*
X119978095Y-77275295D02*
X120025714Y-77180057D01*
X120025714Y-77180057D02*
X120073333Y-77132438D01*
X120073333Y-77132438D02*
X120168571Y-77084819D01*
X78390761Y-96260057D02*
X78295523Y-96212438D01*
X78295523Y-96212438D02*
X78200285Y-96117200D01*
X78200285Y-96117200D02*
X78057428Y-95974342D01*
X78057428Y-95974342D02*
X77962190Y-95926723D01*
X77962190Y-95926723D02*
X77866952Y-95926723D01*
X77914571Y-96164819D02*
X77819333Y-96117200D01*
X77819333Y-96117200D02*
X77724095Y-96021961D01*
X77724095Y-96021961D02*
X77676476Y-95831485D01*
X77676476Y-95831485D02*
X77676476Y-95498152D01*
X77676476Y-95498152D02*
X77724095Y-95307676D01*
X77724095Y-95307676D02*
X77819333Y-95212438D01*
X77819333Y-95212438D02*
X77914571Y-95164819D01*
X77914571Y-95164819D02*
X78105047Y-95164819D01*
X78105047Y-95164819D02*
X78200285Y-95212438D01*
X78200285Y-95212438D02*
X78295523Y-95307676D01*
X78295523Y-95307676D02*
X78343142Y-95498152D01*
X78343142Y-95498152D02*
X78343142Y-95831485D01*
X78343142Y-95831485D02*
X78295523Y-96021961D01*
X78295523Y-96021961D02*
X78200285Y-96117200D01*
X78200285Y-96117200D02*
X78105047Y-96164819D01*
X78105047Y-96164819D02*
X77914571Y-96164819D01*
X78676476Y-95164819D02*
X79295523Y-95164819D01*
X79295523Y-95164819D02*
X78962190Y-95545771D01*
X78962190Y-95545771D02*
X79105047Y-95545771D01*
X79105047Y-95545771D02*
X79200285Y-95593390D01*
X79200285Y-95593390D02*
X79247904Y-95641009D01*
X79247904Y-95641009D02*
X79295523Y-95736247D01*
X79295523Y-95736247D02*
X79295523Y-95974342D01*
X79295523Y-95974342D02*
X79247904Y-96069580D01*
X79247904Y-96069580D02*
X79200285Y-96117200D01*
X79200285Y-96117200D02*
X79105047Y-96164819D01*
X79105047Y-96164819D02*
X78819333Y-96164819D01*
X78819333Y-96164819D02*
X78724095Y-96117200D01*
X78724095Y-96117200D02*
X78676476Y-96069580D01*
X129534057Y-104560238D02*
X129486438Y-104655476D01*
X129486438Y-104655476D02*
X129391200Y-104750714D01*
X129391200Y-104750714D02*
X129248342Y-104893571D01*
X129248342Y-104893571D02*
X129200723Y-104988809D01*
X129200723Y-104988809D02*
X129200723Y-105084047D01*
X129438819Y-105036428D02*
X129391200Y-105131666D01*
X129391200Y-105131666D02*
X129295961Y-105226904D01*
X129295961Y-105226904D02*
X129105485Y-105274523D01*
X129105485Y-105274523D02*
X128772152Y-105274523D01*
X128772152Y-105274523D02*
X128581676Y-105226904D01*
X128581676Y-105226904D02*
X128486438Y-105131666D01*
X128486438Y-105131666D02*
X128438819Y-105036428D01*
X128438819Y-105036428D02*
X128438819Y-104845952D01*
X128438819Y-104845952D02*
X128486438Y-104750714D01*
X128486438Y-104750714D02*
X128581676Y-104655476D01*
X128581676Y-104655476D02*
X128772152Y-104607857D01*
X128772152Y-104607857D02*
X129105485Y-104607857D01*
X129105485Y-104607857D02*
X129295961Y-104655476D01*
X129295961Y-104655476D02*
X129391200Y-104750714D01*
X129391200Y-104750714D02*
X129438819Y-104845952D01*
X129438819Y-104845952D02*
X129438819Y-105036428D01*
X128867390Y-104036428D02*
X128819771Y-104131666D01*
X128819771Y-104131666D02*
X128772152Y-104179285D01*
X128772152Y-104179285D02*
X128676914Y-104226904D01*
X128676914Y-104226904D02*
X128629295Y-104226904D01*
X128629295Y-104226904D02*
X128534057Y-104179285D01*
X128534057Y-104179285D02*
X128486438Y-104131666D01*
X128486438Y-104131666D02*
X128438819Y-104036428D01*
X128438819Y-104036428D02*
X128438819Y-103845952D01*
X128438819Y-103845952D02*
X128486438Y-103750714D01*
X128486438Y-103750714D02*
X128534057Y-103703095D01*
X128534057Y-103703095D02*
X128629295Y-103655476D01*
X128629295Y-103655476D02*
X128676914Y-103655476D01*
X128676914Y-103655476D02*
X128772152Y-103703095D01*
X128772152Y-103703095D02*
X128819771Y-103750714D01*
X128819771Y-103750714D02*
X128867390Y-103845952D01*
X128867390Y-103845952D02*
X128867390Y-104036428D01*
X128867390Y-104036428D02*
X128915009Y-104131666D01*
X128915009Y-104131666D02*
X128962628Y-104179285D01*
X128962628Y-104179285D02*
X129057866Y-104226904D01*
X129057866Y-104226904D02*
X129248342Y-104226904D01*
X129248342Y-104226904D02*
X129343580Y-104179285D01*
X129343580Y-104179285D02*
X129391200Y-104131666D01*
X129391200Y-104131666D02*
X129438819Y-104036428D01*
X129438819Y-104036428D02*
X129438819Y-103845952D01*
X129438819Y-103845952D02*
X129391200Y-103750714D01*
X129391200Y-103750714D02*
X129343580Y-103703095D01*
X129343580Y-103703095D02*
X129248342Y-103655476D01*
X129248342Y-103655476D02*
X129057866Y-103655476D01*
X129057866Y-103655476D02*
X128962628Y-103703095D01*
X128962628Y-103703095D02*
X128915009Y-103750714D01*
X128915009Y-103750714D02*
X128867390Y-103845952D01*
X131056142Y-81356580D02*
X131008523Y-81404200D01*
X131008523Y-81404200D02*
X130865666Y-81451819D01*
X130865666Y-81451819D02*
X130770428Y-81451819D01*
X130770428Y-81451819D02*
X130627571Y-81404200D01*
X130627571Y-81404200D02*
X130532333Y-81308961D01*
X130532333Y-81308961D02*
X130484714Y-81213723D01*
X130484714Y-81213723D02*
X130437095Y-81023247D01*
X130437095Y-81023247D02*
X130437095Y-80880390D01*
X130437095Y-80880390D02*
X130484714Y-80689914D01*
X130484714Y-80689914D02*
X130532333Y-80594676D01*
X130532333Y-80594676D02*
X130627571Y-80499438D01*
X130627571Y-80499438D02*
X130770428Y-80451819D01*
X130770428Y-80451819D02*
X130865666Y-80451819D01*
X130865666Y-80451819D02*
X131008523Y-80499438D01*
X131008523Y-80499438D02*
X131056142Y-80547057D01*
X131437095Y-80547057D02*
X131484714Y-80499438D01*
X131484714Y-80499438D02*
X131579952Y-80451819D01*
X131579952Y-80451819D02*
X131818047Y-80451819D01*
X131818047Y-80451819D02*
X131913285Y-80499438D01*
X131913285Y-80499438D02*
X131960904Y-80547057D01*
X131960904Y-80547057D02*
X132008523Y-80642295D01*
X132008523Y-80642295D02*
X132008523Y-80737533D01*
X132008523Y-80737533D02*
X131960904Y-80880390D01*
X131960904Y-80880390D02*
X131389476Y-81451819D01*
X131389476Y-81451819D02*
X132008523Y-81451819D01*
X132341857Y-80451819D02*
X132960904Y-80451819D01*
X132960904Y-80451819D02*
X132627571Y-80832771D01*
X132627571Y-80832771D02*
X132770428Y-80832771D01*
X132770428Y-80832771D02*
X132865666Y-80880390D01*
X132865666Y-80880390D02*
X132913285Y-80928009D01*
X132913285Y-80928009D02*
X132960904Y-81023247D01*
X132960904Y-81023247D02*
X132960904Y-81261342D01*
X132960904Y-81261342D02*
X132913285Y-81356580D01*
X132913285Y-81356580D02*
X132865666Y-81404200D01*
X132865666Y-81404200D02*
X132770428Y-81451819D01*
X132770428Y-81451819D02*
X132484714Y-81451819D01*
X132484714Y-81451819D02*
X132389476Y-81404200D01*
X132389476Y-81404200D02*
X132341857Y-81356580D01*
X149780666Y-89795819D02*
X149780666Y-90510104D01*
X149780666Y-90510104D02*
X149733047Y-90652961D01*
X149733047Y-90652961D02*
X149637809Y-90748200D01*
X149637809Y-90748200D02*
X149494952Y-90795819D01*
X149494952Y-90795819D02*
X149399714Y-90795819D01*
X150161619Y-89795819D02*
X150828285Y-89795819D01*
X150828285Y-89795819D02*
X150399714Y-90795819D01*
X137271095Y-75400819D02*
X137271095Y-76210342D01*
X137271095Y-76210342D02*
X137318714Y-76305580D01*
X137318714Y-76305580D02*
X137366333Y-76353200D01*
X137366333Y-76353200D02*
X137461571Y-76400819D01*
X137461571Y-76400819D02*
X137652047Y-76400819D01*
X137652047Y-76400819D02*
X137747285Y-76353200D01*
X137747285Y-76353200D02*
X137794904Y-76305580D01*
X137794904Y-76305580D02*
X137842523Y-76210342D01*
X137842523Y-76210342D02*
X137842523Y-75400819D01*
X138794904Y-75400819D02*
X138318714Y-75400819D01*
X138318714Y-75400819D02*
X138271095Y-75877009D01*
X138271095Y-75877009D02*
X138318714Y-75829390D01*
X138318714Y-75829390D02*
X138413952Y-75781771D01*
X138413952Y-75781771D02*
X138652047Y-75781771D01*
X138652047Y-75781771D02*
X138747285Y-75829390D01*
X138747285Y-75829390D02*
X138794904Y-75877009D01*
X138794904Y-75877009D02*
X138842523Y-75972247D01*
X138842523Y-75972247D02*
X138842523Y-76210342D01*
X138842523Y-76210342D02*
X138794904Y-76305580D01*
X138794904Y-76305580D02*
X138747285Y-76353200D01*
X138747285Y-76353200D02*
X138652047Y-76400819D01*
X138652047Y-76400819D02*
X138413952Y-76400819D01*
X138413952Y-76400819D02*
X138318714Y-76353200D01*
X138318714Y-76353200D02*
X138271095Y-76305580D01*
X152261819Y-99891357D02*
X151785628Y-100224690D01*
X152261819Y-100462785D02*
X151261819Y-100462785D01*
X151261819Y-100462785D02*
X151261819Y-100081833D01*
X151261819Y-100081833D02*
X151309438Y-99986595D01*
X151309438Y-99986595D02*
X151357057Y-99938976D01*
X151357057Y-99938976D02*
X151452295Y-99891357D01*
X151452295Y-99891357D02*
X151595152Y-99891357D01*
X151595152Y-99891357D02*
X151690390Y-99938976D01*
X151690390Y-99938976D02*
X151738009Y-99986595D01*
X151738009Y-99986595D02*
X151785628Y-100081833D01*
X151785628Y-100081833D02*
X151785628Y-100462785D01*
X152261819Y-98938976D02*
X152261819Y-99510404D01*
X152261819Y-99224690D02*
X151261819Y-99224690D01*
X151261819Y-99224690D02*
X151404676Y-99319928D01*
X151404676Y-99319928D02*
X151499914Y-99415166D01*
X151499914Y-99415166D02*
X151547533Y-99510404D01*
X152261819Y-97986595D02*
X152261819Y-98558023D01*
X152261819Y-98272309D02*
X151261819Y-98272309D01*
X151261819Y-98272309D02*
X151404676Y-98367547D01*
X151404676Y-98367547D02*
X151499914Y-98462785D01*
X151499914Y-98462785D02*
X151547533Y-98558023D01*
X129460666Y-81286819D02*
X129460666Y-82001104D01*
X129460666Y-82001104D02*
X129413047Y-82143961D01*
X129413047Y-82143961D02*
X129317809Y-82239200D01*
X129317809Y-82239200D02*
X129174952Y-82286819D01*
X129174952Y-82286819D02*
X129079714Y-82286819D01*
X130079714Y-81715390D02*
X129984476Y-81667771D01*
X129984476Y-81667771D02*
X129936857Y-81620152D01*
X129936857Y-81620152D02*
X129889238Y-81524914D01*
X129889238Y-81524914D02*
X129889238Y-81477295D01*
X129889238Y-81477295D02*
X129936857Y-81382057D01*
X129936857Y-81382057D02*
X129984476Y-81334438D01*
X129984476Y-81334438D02*
X130079714Y-81286819D01*
X130079714Y-81286819D02*
X130270190Y-81286819D01*
X130270190Y-81286819D02*
X130365428Y-81334438D01*
X130365428Y-81334438D02*
X130413047Y-81382057D01*
X130413047Y-81382057D02*
X130460666Y-81477295D01*
X130460666Y-81477295D02*
X130460666Y-81524914D01*
X130460666Y-81524914D02*
X130413047Y-81620152D01*
X130413047Y-81620152D02*
X130365428Y-81667771D01*
X130365428Y-81667771D02*
X130270190Y-81715390D01*
X130270190Y-81715390D02*
X130079714Y-81715390D01*
X130079714Y-81715390D02*
X129984476Y-81763009D01*
X129984476Y-81763009D02*
X129936857Y-81810628D01*
X129936857Y-81810628D02*
X129889238Y-81905866D01*
X129889238Y-81905866D02*
X129889238Y-82096342D01*
X129889238Y-82096342D02*
X129936857Y-82191580D01*
X129936857Y-82191580D02*
X129984476Y-82239200D01*
X129984476Y-82239200D02*
X130079714Y-82286819D01*
X130079714Y-82286819D02*
X130270190Y-82286819D01*
X130270190Y-82286819D02*
X130365428Y-82239200D01*
X130365428Y-82239200D02*
X130413047Y-82191580D01*
X130413047Y-82191580D02*
X130460666Y-82096342D01*
X130460666Y-82096342D02*
X130460666Y-81905866D01*
X130460666Y-81905866D02*
X130413047Y-81810628D01*
X130413047Y-81810628D02*
X130365428Y-81763009D01*
X130365428Y-81763009D02*
X130270190Y-81715390D01*
X95877142Y-94782819D02*
X95543809Y-94306628D01*
X95305714Y-94782819D02*
X95305714Y-93782819D01*
X95305714Y-93782819D02*
X95686666Y-93782819D01*
X95686666Y-93782819D02*
X95781904Y-93830438D01*
X95781904Y-93830438D02*
X95829523Y-93878057D01*
X95829523Y-93878057D02*
X95877142Y-93973295D01*
X95877142Y-93973295D02*
X95877142Y-94116152D01*
X95877142Y-94116152D02*
X95829523Y-94211390D01*
X95829523Y-94211390D02*
X95781904Y-94259009D01*
X95781904Y-94259009D02*
X95686666Y-94306628D01*
X95686666Y-94306628D02*
X95305714Y-94306628D01*
X96258095Y-93878057D02*
X96305714Y-93830438D01*
X96305714Y-93830438D02*
X96400952Y-93782819D01*
X96400952Y-93782819D02*
X96639047Y-93782819D01*
X96639047Y-93782819D02*
X96734285Y-93830438D01*
X96734285Y-93830438D02*
X96781904Y-93878057D01*
X96781904Y-93878057D02*
X96829523Y-93973295D01*
X96829523Y-93973295D02*
X96829523Y-94068533D01*
X96829523Y-94068533D02*
X96781904Y-94211390D01*
X96781904Y-94211390D02*
X96210476Y-94782819D01*
X96210476Y-94782819D02*
X96829523Y-94782819D01*
X97162857Y-93782819D02*
X97829523Y-93782819D01*
X97829523Y-93782819D02*
X97400952Y-94782819D01*
X120142819Y-102177357D02*
X119666628Y-102510690D01*
X120142819Y-102748785D02*
X119142819Y-102748785D01*
X119142819Y-102748785D02*
X119142819Y-102367833D01*
X119142819Y-102367833D02*
X119190438Y-102272595D01*
X119190438Y-102272595D02*
X119238057Y-102224976D01*
X119238057Y-102224976D02*
X119333295Y-102177357D01*
X119333295Y-102177357D02*
X119476152Y-102177357D01*
X119476152Y-102177357D02*
X119571390Y-102224976D01*
X119571390Y-102224976D02*
X119619009Y-102272595D01*
X119619009Y-102272595D02*
X119666628Y-102367833D01*
X119666628Y-102367833D02*
X119666628Y-102748785D01*
X119238057Y-101796404D02*
X119190438Y-101748785D01*
X119190438Y-101748785D02*
X119142819Y-101653547D01*
X119142819Y-101653547D02*
X119142819Y-101415452D01*
X119142819Y-101415452D02*
X119190438Y-101320214D01*
X119190438Y-101320214D02*
X119238057Y-101272595D01*
X119238057Y-101272595D02*
X119333295Y-101224976D01*
X119333295Y-101224976D02*
X119428533Y-101224976D01*
X119428533Y-101224976D02*
X119571390Y-101272595D01*
X119571390Y-101272595D02*
X120142819Y-101844023D01*
X120142819Y-101844023D02*
X120142819Y-101224976D01*
X119142819Y-100891642D02*
X119142819Y-100272595D01*
X119142819Y-100272595D02*
X119523771Y-100605928D01*
X119523771Y-100605928D02*
X119523771Y-100463071D01*
X119523771Y-100463071D02*
X119571390Y-100367833D01*
X119571390Y-100367833D02*
X119619009Y-100320214D01*
X119619009Y-100320214D02*
X119714247Y-100272595D01*
X119714247Y-100272595D02*
X119952342Y-100272595D01*
X119952342Y-100272595D02*
X120047580Y-100320214D01*
X120047580Y-100320214D02*
X120095200Y-100367833D01*
X120095200Y-100367833D02*
X120142819Y-100463071D01*
X120142819Y-100463071D02*
X120142819Y-100748785D01*
X120142819Y-100748785D02*
X120095200Y-100844023D01*
X120095200Y-100844023D02*
X120047580Y-100891642D01*
X145106580Y-88005857D02*
X145154200Y-88053476D01*
X145154200Y-88053476D02*
X145201819Y-88196333D01*
X145201819Y-88196333D02*
X145201819Y-88291571D01*
X145201819Y-88291571D02*
X145154200Y-88434428D01*
X145154200Y-88434428D02*
X145058961Y-88529666D01*
X145058961Y-88529666D02*
X144963723Y-88577285D01*
X144963723Y-88577285D02*
X144773247Y-88624904D01*
X144773247Y-88624904D02*
X144630390Y-88624904D01*
X144630390Y-88624904D02*
X144439914Y-88577285D01*
X144439914Y-88577285D02*
X144344676Y-88529666D01*
X144344676Y-88529666D02*
X144249438Y-88434428D01*
X144249438Y-88434428D02*
X144201819Y-88291571D01*
X144201819Y-88291571D02*
X144201819Y-88196333D01*
X144201819Y-88196333D02*
X144249438Y-88053476D01*
X144249438Y-88053476D02*
X144297057Y-88005857D01*
X145201819Y-87053476D02*
X145201819Y-87624904D01*
X145201819Y-87339190D02*
X144201819Y-87339190D01*
X144201819Y-87339190D02*
X144344676Y-87434428D01*
X144344676Y-87434428D02*
X144439914Y-87529666D01*
X144439914Y-87529666D02*
X144487533Y-87624904D01*
X144201819Y-86148714D02*
X144201819Y-86624904D01*
X144201819Y-86624904D02*
X144678009Y-86672523D01*
X144678009Y-86672523D02*
X144630390Y-86624904D01*
X144630390Y-86624904D02*
X144582771Y-86529666D01*
X144582771Y-86529666D02*
X144582771Y-86291571D01*
X144582771Y-86291571D02*
X144630390Y-86196333D01*
X144630390Y-86196333D02*
X144678009Y-86148714D01*
X144678009Y-86148714D02*
X144773247Y-86101095D01*
X144773247Y-86101095D02*
X145011342Y-86101095D01*
X145011342Y-86101095D02*
X145106580Y-86148714D01*
X145106580Y-86148714D02*
X145154200Y-86196333D01*
X145154200Y-86196333D02*
X145201819Y-86291571D01*
X145201819Y-86291571D02*
X145201819Y-86529666D01*
X145201819Y-86529666D02*
X145154200Y-86624904D01*
X145154200Y-86624904D02*
X145106580Y-86672523D01*
X87407761Y-102737057D02*
X87312523Y-102689438D01*
X87312523Y-102689438D02*
X87217285Y-102594200D01*
X87217285Y-102594200D02*
X87074428Y-102451342D01*
X87074428Y-102451342D02*
X86979190Y-102403723D01*
X86979190Y-102403723D02*
X86883952Y-102403723D01*
X86931571Y-102641819D02*
X86836333Y-102594200D01*
X86836333Y-102594200D02*
X86741095Y-102498961D01*
X86741095Y-102498961D02*
X86693476Y-102308485D01*
X86693476Y-102308485D02*
X86693476Y-101975152D01*
X86693476Y-101975152D02*
X86741095Y-101784676D01*
X86741095Y-101784676D02*
X86836333Y-101689438D01*
X86836333Y-101689438D02*
X86931571Y-101641819D01*
X86931571Y-101641819D02*
X87122047Y-101641819D01*
X87122047Y-101641819D02*
X87217285Y-101689438D01*
X87217285Y-101689438D02*
X87312523Y-101784676D01*
X87312523Y-101784676D02*
X87360142Y-101975152D01*
X87360142Y-101975152D02*
X87360142Y-102308485D01*
X87360142Y-102308485D02*
X87312523Y-102498961D01*
X87312523Y-102498961D02*
X87217285Y-102594200D01*
X87217285Y-102594200D02*
X87122047Y-102641819D01*
X87122047Y-102641819D02*
X86931571Y-102641819D01*
X88312523Y-102641819D02*
X87741095Y-102641819D01*
X88026809Y-102641819D02*
X88026809Y-101641819D01*
X88026809Y-101641819D02*
X87931571Y-101784676D01*
X87931571Y-101784676D02*
X87836333Y-101879914D01*
X87836333Y-101879914D02*
X87741095Y-101927533D01*
X121361580Y-77223857D02*
X121409200Y-77271476D01*
X121409200Y-77271476D02*
X121456819Y-77414333D01*
X121456819Y-77414333D02*
X121456819Y-77509571D01*
X121456819Y-77509571D02*
X121409200Y-77652428D01*
X121409200Y-77652428D02*
X121313961Y-77747666D01*
X121313961Y-77747666D02*
X121218723Y-77795285D01*
X121218723Y-77795285D02*
X121028247Y-77842904D01*
X121028247Y-77842904D02*
X120885390Y-77842904D01*
X120885390Y-77842904D02*
X120694914Y-77795285D01*
X120694914Y-77795285D02*
X120599676Y-77747666D01*
X120599676Y-77747666D02*
X120504438Y-77652428D01*
X120504438Y-77652428D02*
X120456819Y-77509571D01*
X120456819Y-77509571D02*
X120456819Y-77414333D01*
X120456819Y-77414333D02*
X120504438Y-77271476D01*
X120504438Y-77271476D02*
X120552057Y-77223857D01*
X121456819Y-76271476D02*
X121456819Y-76842904D01*
X121456819Y-76557190D02*
X120456819Y-76557190D01*
X120456819Y-76557190D02*
X120599676Y-76652428D01*
X120599676Y-76652428D02*
X120694914Y-76747666D01*
X120694914Y-76747666D02*
X120742533Y-76842904D01*
X120885390Y-75700047D02*
X120837771Y-75795285D01*
X120837771Y-75795285D02*
X120790152Y-75842904D01*
X120790152Y-75842904D02*
X120694914Y-75890523D01*
X120694914Y-75890523D02*
X120647295Y-75890523D01*
X120647295Y-75890523D02*
X120552057Y-75842904D01*
X120552057Y-75842904D02*
X120504438Y-75795285D01*
X120504438Y-75795285D02*
X120456819Y-75700047D01*
X120456819Y-75700047D02*
X120456819Y-75509571D01*
X120456819Y-75509571D02*
X120504438Y-75414333D01*
X120504438Y-75414333D02*
X120552057Y-75366714D01*
X120552057Y-75366714D02*
X120647295Y-75319095D01*
X120647295Y-75319095D02*
X120694914Y-75319095D01*
X120694914Y-75319095D02*
X120790152Y-75366714D01*
X120790152Y-75366714D02*
X120837771Y-75414333D01*
X120837771Y-75414333D02*
X120885390Y-75509571D01*
X120885390Y-75509571D02*
X120885390Y-75700047D01*
X120885390Y-75700047D02*
X120933009Y-75795285D01*
X120933009Y-75795285D02*
X120980628Y-75842904D01*
X120980628Y-75842904D02*
X121075866Y-75890523D01*
X121075866Y-75890523D02*
X121266342Y-75890523D01*
X121266342Y-75890523D02*
X121361580Y-75842904D01*
X121361580Y-75842904D02*
X121409200Y-75795285D01*
X121409200Y-75795285D02*
X121456819Y-75700047D01*
X121456819Y-75700047D02*
X121456819Y-75509571D01*
X121456819Y-75509571D02*
X121409200Y-75414333D01*
X121409200Y-75414333D02*
X121361580Y-75366714D01*
X121361580Y-75366714D02*
X121266342Y-75319095D01*
X121266342Y-75319095D02*
X121075866Y-75319095D01*
X121075866Y-75319095D02*
X120980628Y-75366714D01*
X120980628Y-75366714D02*
X120933009Y-75414333D01*
X120933009Y-75414333D02*
X120885390Y-75509571D01*
X109145333Y-81701819D02*
X108812000Y-81225628D01*
X108573905Y-81701819D02*
X108573905Y-80701819D01*
X108573905Y-80701819D02*
X108954857Y-80701819D01*
X108954857Y-80701819D02*
X109050095Y-80749438D01*
X109050095Y-80749438D02*
X109097714Y-80797057D01*
X109097714Y-80797057D02*
X109145333Y-80892295D01*
X109145333Y-80892295D02*
X109145333Y-81035152D01*
X109145333Y-81035152D02*
X109097714Y-81130390D01*
X109097714Y-81130390D02*
X109050095Y-81178009D01*
X109050095Y-81178009D02*
X108954857Y-81225628D01*
X108954857Y-81225628D02*
X108573905Y-81225628D01*
X109478667Y-80701819D02*
X110145333Y-80701819D01*
X110145333Y-80701819D02*
X109716762Y-81701819D01*
X146419819Y-95416666D02*
X145943628Y-95749999D01*
X146419819Y-95988094D02*
X145419819Y-95988094D01*
X145419819Y-95988094D02*
X145419819Y-95607142D01*
X145419819Y-95607142D02*
X145467438Y-95511904D01*
X145467438Y-95511904D02*
X145515057Y-95464285D01*
X145515057Y-95464285D02*
X145610295Y-95416666D01*
X145610295Y-95416666D02*
X145753152Y-95416666D01*
X145753152Y-95416666D02*
X145848390Y-95464285D01*
X145848390Y-95464285D02*
X145896009Y-95511904D01*
X145896009Y-95511904D02*
X145943628Y-95607142D01*
X145943628Y-95607142D02*
X145943628Y-95988094D01*
X146419819Y-94940475D02*
X146419819Y-94749999D01*
X146419819Y-94749999D02*
X146372200Y-94654761D01*
X146372200Y-94654761D02*
X146324580Y-94607142D01*
X146324580Y-94607142D02*
X146181723Y-94511904D01*
X146181723Y-94511904D02*
X145991247Y-94464285D01*
X145991247Y-94464285D02*
X145610295Y-94464285D01*
X145610295Y-94464285D02*
X145515057Y-94511904D01*
X145515057Y-94511904D02*
X145467438Y-94559523D01*
X145467438Y-94559523D02*
X145419819Y-94654761D01*
X145419819Y-94654761D02*
X145419819Y-94845237D01*
X145419819Y-94845237D02*
X145467438Y-94940475D01*
X145467438Y-94940475D02*
X145515057Y-94988094D01*
X145515057Y-94988094D02*
X145610295Y-95035713D01*
X145610295Y-95035713D02*
X145848390Y-95035713D01*
X145848390Y-95035713D02*
X145943628Y-94988094D01*
X145943628Y-94988094D02*
X145991247Y-94940475D01*
X145991247Y-94940475D02*
X146038866Y-94845237D01*
X146038866Y-94845237D02*
X146038866Y-94654761D01*
X146038866Y-94654761D02*
X145991247Y-94559523D01*
X145991247Y-94559523D02*
X145943628Y-94511904D01*
X145943628Y-94511904D02*
X145848390Y-94464285D01*
X113276142Y-76560819D02*
X112942809Y-76084628D01*
X112704714Y-76560819D02*
X112704714Y-75560819D01*
X112704714Y-75560819D02*
X113085666Y-75560819D01*
X113085666Y-75560819D02*
X113180904Y-75608438D01*
X113180904Y-75608438D02*
X113228523Y-75656057D01*
X113228523Y-75656057D02*
X113276142Y-75751295D01*
X113276142Y-75751295D02*
X113276142Y-75894152D01*
X113276142Y-75894152D02*
X113228523Y-75989390D01*
X113228523Y-75989390D02*
X113180904Y-76037009D01*
X113180904Y-76037009D02*
X113085666Y-76084628D01*
X113085666Y-76084628D02*
X112704714Y-76084628D01*
X114228523Y-76560819D02*
X113657095Y-76560819D01*
X113942809Y-76560819D02*
X113942809Y-75560819D01*
X113942809Y-75560819D02*
X113847571Y-75703676D01*
X113847571Y-75703676D02*
X113752333Y-75798914D01*
X113752333Y-75798914D02*
X113657095Y-75846533D01*
X114609476Y-75656057D02*
X114657095Y-75608438D01*
X114657095Y-75608438D02*
X114752333Y-75560819D01*
X114752333Y-75560819D02*
X114990428Y-75560819D01*
X114990428Y-75560819D02*
X115085666Y-75608438D01*
X115085666Y-75608438D02*
X115133285Y-75656057D01*
X115133285Y-75656057D02*
X115180904Y-75751295D01*
X115180904Y-75751295D02*
X115180904Y-75846533D01*
X115180904Y-75846533D02*
X115133285Y-75989390D01*
X115133285Y-75989390D02*
X114561857Y-76560819D01*
X114561857Y-76560819D02*
X115180904Y-76560819D01*
X87053761Y-105655057D02*
X86958523Y-105607438D01*
X86958523Y-105607438D02*
X86863285Y-105512200D01*
X86863285Y-105512200D02*
X86720428Y-105369342D01*
X86720428Y-105369342D02*
X86625190Y-105321723D01*
X86625190Y-105321723D02*
X86529952Y-105321723D01*
X86577571Y-105559819D02*
X86482333Y-105512200D01*
X86482333Y-105512200D02*
X86387095Y-105416961D01*
X86387095Y-105416961D02*
X86339476Y-105226485D01*
X86339476Y-105226485D02*
X86339476Y-104893152D01*
X86339476Y-104893152D02*
X86387095Y-104702676D01*
X86387095Y-104702676D02*
X86482333Y-104607438D01*
X86482333Y-104607438D02*
X86577571Y-104559819D01*
X86577571Y-104559819D02*
X86768047Y-104559819D01*
X86768047Y-104559819D02*
X86863285Y-104607438D01*
X86863285Y-104607438D02*
X86958523Y-104702676D01*
X86958523Y-104702676D02*
X87006142Y-104893152D01*
X87006142Y-104893152D02*
X87006142Y-105226485D01*
X87006142Y-105226485D02*
X86958523Y-105416961D01*
X86958523Y-105416961D02*
X86863285Y-105512200D01*
X86863285Y-105512200D02*
X86768047Y-105559819D01*
X86768047Y-105559819D02*
X86577571Y-105559819D01*
X87387095Y-104655057D02*
X87434714Y-104607438D01*
X87434714Y-104607438D02*
X87529952Y-104559819D01*
X87529952Y-104559819D02*
X87768047Y-104559819D01*
X87768047Y-104559819D02*
X87863285Y-104607438D01*
X87863285Y-104607438D02*
X87910904Y-104655057D01*
X87910904Y-104655057D02*
X87958523Y-104750295D01*
X87958523Y-104750295D02*
X87958523Y-104845533D01*
X87958523Y-104845533D02*
X87910904Y-104988390D01*
X87910904Y-104988390D02*
X87339476Y-105559819D01*
X87339476Y-105559819D02*
X87958523Y-105559819D01*
X110339580Y-86145666D02*
X110387200Y-86193285D01*
X110387200Y-86193285D02*
X110434819Y-86336142D01*
X110434819Y-86336142D02*
X110434819Y-86431380D01*
X110434819Y-86431380D02*
X110387200Y-86574237D01*
X110387200Y-86574237D02*
X110291961Y-86669475D01*
X110291961Y-86669475D02*
X110196723Y-86717094D01*
X110196723Y-86717094D02*
X110006247Y-86764713D01*
X110006247Y-86764713D02*
X109863390Y-86764713D01*
X109863390Y-86764713D02*
X109672914Y-86717094D01*
X109672914Y-86717094D02*
X109577676Y-86669475D01*
X109577676Y-86669475D02*
X109482438Y-86574237D01*
X109482438Y-86574237D02*
X109434819Y-86431380D01*
X109434819Y-86431380D02*
X109434819Y-86336142D01*
X109434819Y-86336142D02*
X109482438Y-86193285D01*
X109482438Y-86193285D02*
X109530057Y-86145666D01*
X109434819Y-85240904D02*
X109434819Y-85717094D01*
X109434819Y-85717094D02*
X109911009Y-85764713D01*
X109911009Y-85764713D02*
X109863390Y-85717094D01*
X109863390Y-85717094D02*
X109815771Y-85621856D01*
X109815771Y-85621856D02*
X109815771Y-85383761D01*
X109815771Y-85383761D02*
X109863390Y-85288523D01*
X109863390Y-85288523D02*
X109911009Y-85240904D01*
X109911009Y-85240904D02*
X110006247Y-85193285D01*
X110006247Y-85193285D02*
X110244342Y-85193285D01*
X110244342Y-85193285D02*
X110339580Y-85240904D01*
X110339580Y-85240904D02*
X110387200Y-85288523D01*
X110387200Y-85288523D02*
X110434819Y-85383761D01*
X110434819Y-85383761D02*
X110434819Y-85621856D01*
X110434819Y-85621856D02*
X110387200Y-85717094D01*
X110387200Y-85717094D02*
X110339580Y-85764713D01*
X141899819Y-101508666D02*
X141423628Y-101841999D01*
X141899819Y-102080094D02*
X140899819Y-102080094D01*
X140899819Y-102080094D02*
X140899819Y-101699142D01*
X140899819Y-101699142D02*
X140947438Y-101603904D01*
X140947438Y-101603904D02*
X140995057Y-101556285D01*
X140995057Y-101556285D02*
X141090295Y-101508666D01*
X141090295Y-101508666D02*
X141233152Y-101508666D01*
X141233152Y-101508666D02*
X141328390Y-101556285D01*
X141328390Y-101556285D02*
X141376009Y-101603904D01*
X141376009Y-101603904D02*
X141423628Y-101699142D01*
X141423628Y-101699142D02*
X141423628Y-102080094D01*
X141328390Y-100937237D02*
X141280771Y-101032475D01*
X141280771Y-101032475D02*
X141233152Y-101080094D01*
X141233152Y-101080094D02*
X141137914Y-101127713D01*
X141137914Y-101127713D02*
X141090295Y-101127713D01*
X141090295Y-101127713D02*
X140995057Y-101080094D01*
X140995057Y-101080094D02*
X140947438Y-101032475D01*
X140947438Y-101032475D02*
X140899819Y-100937237D01*
X140899819Y-100937237D02*
X140899819Y-100746761D01*
X140899819Y-100746761D02*
X140947438Y-100651523D01*
X140947438Y-100651523D02*
X140995057Y-100603904D01*
X140995057Y-100603904D02*
X141090295Y-100556285D01*
X141090295Y-100556285D02*
X141137914Y-100556285D01*
X141137914Y-100556285D02*
X141233152Y-100603904D01*
X141233152Y-100603904D02*
X141280771Y-100651523D01*
X141280771Y-100651523D02*
X141328390Y-100746761D01*
X141328390Y-100746761D02*
X141328390Y-100937237D01*
X141328390Y-100937237D02*
X141376009Y-101032475D01*
X141376009Y-101032475D02*
X141423628Y-101080094D01*
X141423628Y-101080094D02*
X141518866Y-101127713D01*
X141518866Y-101127713D02*
X141709342Y-101127713D01*
X141709342Y-101127713D02*
X141804580Y-101080094D01*
X141804580Y-101080094D02*
X141852200Y-101032475D01*
X141852200Y-101032475D02*
X141899819Y-100937237D01*
X141899819Y-100937237D02*
X141899819Y-100746761D01*
X141899819Y-100746761D02*
X141852200Y-100651523D01*
X141852200Y-100651523D02*
X141804580Y-100603904D01*
X141804580Y-100603904D02*
X141709342Y-100556285D01*
X141709342Y-100556285D02*
X141518866Y-100556285D01*
X141518866Y-100556285D02*
X141423628Y-100603904D01*
X141423628Y-100603904D02*
X141376009Y-100651523D01*
X141376009Y-100651523D02*
X141328390Y-100746761D01*
X104180819Y-89574666D02*
X103704628Y-89907999D01*
X104180819Y-90146094D02*
X103180819Y-90146094D01*
X103180819Y-90146094D02*
X103180819Y-89765142D01*
X103180819Y-89765142D02*
X103228438Y-89669904D01*
X103228438Y-89669904D02*
X103276057Y-89622285D01*
X103276057Y-89622285D02*
X103371295Y-89574666D01*
X103371295Y-89574666D02*
X103514152Y-89574666D01*
X103514152Y-89574666D02*
X103609390Y-89622285D01*
X103609390Y-89622285D02*
X103657009Y-89669904D01*
X103657009Y-89669904D02*
X103704628Y-89765142D01*
X103704628Y-89765142D02*
X103704628Y-90146094D01*
X103180819Y-88669904D02*
X103180819Y-89146094D01*
X103180819Y-89146094D02*
X103657009Y-89193713D01*
X103657009Y-89193713D02*
X103609390Y-89146094D01*
X103609390Y-89146094D02*
X103561771Y-89050856D01*
X103561771Y-89050856D02*
X103561771Y-88812761D01*
X103561771Y-88812761D02*
X103609390Y-88717523D01*
X103609390Y-88717523D02*
X103657009Y-88669904D01*
X103657009Y-88669904D02*
X103752247Y-88622285D01*
X103752247Y-88622285D02*
X103990342Y-88622285D01*
X103990342Y-88622285D02*
X104085580Y-88669904D01*
X104085580Y-88669904D02*
X104133200Y-88717523D01*
X104133200Y-88717523D02*
X104180819Y-88812761D01*
X104180819Y-88812761D02*
X104180819Y-89050856D01*
X104180819Y-89050856D02*
X104133200Y-89146094D01*
X104133200Y-89146094D02*
X104085580Y-89193713D01*
X125607761Y-88612057D02*
X125512523Y-88564438D01*
X125512523Y-88564438D02*
X125417285Y-88469200D01*
X125417285Y-88469200D02*
X125274428Y-88326342D01*
X125274428Y-88326342D02*
X125179190Y-88278723D01*
X125179190Y-88278723D02*
X125083952Y-88278723D01*
X125131571Y-88516819D02*
X125036333Y-88469200D01*
X125036333Y-88469200D02*
X124941095Y-88373961D01*
X124941095Y-88373961D02*
X124893476Y-88183485D01*
X124893476Y-88183485D02*
X124893476Y-87850152D01*
X124893476Y-87850152D02*
X124941095Y-87659676D01*
X124941095Y-87659676D02*
X125036333Y-87564438D01*
X125036333Y-87564438D02*
X125131571Y-87516819D01*
X125131571Y-87516819D02*
X125322047Y-87516819D01*
X125322047Y-87516819D02*
X125417285Y-87564438D01*
X125417285Y-87564438D02*
X125512523Y-87659676D01*
X125512523Y-87659676D02*
X125560142Y-87850152D01*
X125560142Y-87850152D02*
X125560142Y-88183485D01*
X125560142Y-88183485D02*
X125512523Y-88373961D01*
X125512523Y-88373961D02*
X125417285Y-88469200D01*
X125417285Y-88469200D02*
X125322047Y-88516819D01*
X125322047Y-88516819D02*
X125131571Y-88516819D01*
X126464904Y-87516819D02*
X125988714Y-87516819D01*
X125988714Y-87516819D02*
X125941095Y-87993009D01*
X125941095Y-87993009D02*
X125988714Y-87945390D01*
X125988714Y-87945390D02*
X126083952Y-87897771D01*
X126083952Y-87897771D02*
X126322047Y-87897771D01*
X126322047Y-87897771D02*
X126417285Y-87945390D01*
X126417285Y-87945390D02*
X126464904Y-87993009D01*
X126464904Y-87993009D02*
X126512523Y-88088247D01*
X126512523Y-88088247D02*
X126512523Y-88326342D01*
X126512523Y-88326342D02*
X126464904Y-88421580D01*
X126464904Y-88421580D02*
X126417285Y-88469200D01*
X126417285Y-88469200D02*
X126322047Y-88516819D01*
X126322047Y-88516819D02*
X126083952Y-88516819D01*
X126083952Y-88516819D02*
X125988714Y-88469200D01*
X125988714Y-88469200D02*
X125941095Y-88421580D01*
X138091392Y-81580257D02*
X138139012Y-81627876D01*
X138139012Y-81627876D02*
X138186631Y-81770733D01*
X138186631Y-81770733D02*
X138186631Y-81865971D01*
X138186631Y-81865971D02*
X138139012Y-82008828D01*
X138139012Y-82008828D02*
X138043773Y-82104066D01*
X138043773Y-82104066D02*
X137948535Y-82151685D01*
X137948535Y-82151685D02*
X137758059Y-82199304D01*
X137758059Y-82199304D02*
X137615202Y-82199304D01*
X137615202Y-82199304D02*
X137424726Y-82151685D01*
X137424726Y-82151685D02*
X137329488Y-82104066D01*
X137329488Y-82104066D02*
X137234250Y-82008828D01*
X137234250Y-82008828D02*
X137186631Y-81865971D01*
X137186631Y-81865971D02*
X137186631Y-81770733D01*
X137186631Y-81770733D02*
X137234250Y-81627876D01*
X137234250Y-81627876D02*
X137281869Y-81580257D01*
X137281869Y-81199304D02*
X137234250Y-81151685D01*
X137234250Y-81151685D02*
X137186631Y-81056447D01*
X137186631Y-81056447D02*
X137186631Y-80818352D01*
X137186631Y-80818352D02*
X137234250Y-80723114D01*
X137234250Y-80723114D02*
X137281869Y-80675495D01*
X137281869Y-80675495D02*
X137377107Y-80627876D01*
X137377107Y-80627876D02*
X137472345Y-80627876D01*
X137472345Y-80627876D02*
X137615202Y-80675495D01*
X137615202Y-80675495D02*
X138186631Y-81246923D01*
X138186631Y-81246923D02*
X138186631Y-80627876D01*
X137519964Y-79770733D02*
X138186631Y-79770733D01*
X137139012Y-80008828D02*
X137853297Y-80246923D01*
X137853297Y-80246923D02*
X137853297Y-79627876D01*
X103592333Y-102910819D02*
X103259000Y-102434628D01*
X103020905Y-102910819D02*
X103020905Y-101910819D01*
X103020905Y-101910819D02*
X103401857Y-101910819D01*
X103401857Y-101910819D02*
X103497095Y-101958438D01*
X103497095Y-101958438D02*
X103544714Y-102006057D01*
X103544714Y-102006057D02*
X103592333Y-102101295D01*
X103592333Y-102101295D02*
X103592333Y-102244152D01*
X103592333Y-102244152D02*
X103544714Y-102339390D01*
X103544714Y-102339390D02*
X103497095Y-102387009D01*
X103497095Y-102387009D02*
X103401857Y-102434628D01*
X103401857Y-102434628D02*
X103020905Y-102434628D01*
X103925667Y-101910819D02*
X104544714Y-101910819D01*
X104544714Y-101910819D02*
X104211381Y-102291771D01*
X104211381Y-102291771D02*
X104354238Y-102291771D01*
X104354238Y-102291771D02*
X104449476Y-102339390D01*
X104449476Y-102339390D02*
X104497095Y-102387009D01*
X104497095Y-102387009D02*
X104544714Y-102482247D01*
X104544714Y-102482247D02*
X104544714Y-102720342D01*
X104544714Y-102720342D02*
X104497095Y-102815580D01*
X104497095Y-102815580D02*
X104449476Y-102863200D01*
X104449476Y-102863200D02*
X104354238Y-102910819D01*
X104354238Y-102910819D02*
X104068524Y-102910819D01*
X104068524Y-102910819D02*
X103973286Y-102863200D01*
X103973286Y-102863200D02*
X103925667Y-102815580D01*
X118498580Y-76207857D02*
X118546200Y-76255476D01*
X118546200Y-76255476D02*
X118593819Y-76398333D01*
X118593819Y-76398333D02*
X118593819Y-76493571D01*
X118593819Y-76493571D02*
X118546200Y-76636428D01*
X118546200Y-76636428D02*
X118450961Y-76731666D01*
X118450961Y-76731666D02*
X118355723Y-76779285D01*
X118355723Y-76779285D02*
X118165247Y-76826904D01*
X118165247Y-76826904D02*
X118022390Y-76826904D01*
X118022390Y-76826904D02*
X117831914Y-76779285D01*
X117831914Y-76779285D02*
X117736676Y-76731666D01*
X117736676Y-76731666D02*
X117641438Y-76636428D01*
X117641438Y-76636428D02*
X117593819Y-76493571D01*
X117593819Y-76493571D02*
X117593819Y-76398333D01*
X117593819Y-76398333D02*
X117641438Y-76255476D01*
X117641438Y-76255476D02*
X117689057Y-76207857D01*
X118593819Y-75255476D02*
X118593819Y-75826904D01*
X118593819Y-75541190D02*
X117593819Y-75541190D01*
X117593819Y-75541190D02*
X117736676Y-75636428D01*
X117736676Y-75636428D02*
X117831914Y-75731666D01*
X117831914Y-75731666D02*
X117879533Y-75826904D01*
X117593819Y-74922142D02*
X117593819Y-74255476D01*
X117593819Y-74255476D02*
X118593819Y-74684047D01*
X157995580Y-96781857D02*
X158043200Y-96829476D01*
X158043200Y-96829476D02*
X158090819Y-96972333D01*
X158090819Y-96972333D02*
X158090819Y-97067571D01*
X158090819Y-97067571D02*
X158043200Y-97210428D01*
X158043200Y-97210428D02*
X157947961Y-97305666D01*
X157947961Y-97305666D02*
X157852723Y-97353285D01*
X157852723Y-97353285D02*
X157662247Y-97400904D01*
X157662247Y-97400904D02*
X157519390Y-97400904D01*
X157519390Y-97400904D02*
X157328914Y-97353285D01*
X157328914Y-97353285D02*
X157233676Y-97305666D01*
X157233676Y-97305666D02*
X157138438Y-97210428D01*
X157138438Y-97210428D02*
X157090819Y-97067571D01*
X157090819Y-97067571D02*
X157090819Y-96972333D01*
X157090819Y-96972333D02*
X157138438Y-96829476D01*
X157138438Y-96829476D02*
X157186057Y-96781857D01*
X158090819Y-95829476D02*
X158090819Y-96400904D01*
X158090819Y-96115190D02*
X157090819Y-96115190D01*
X157090819Y-96115190D02*
X157233676Y-96210428D01*
X157233676Y-96210428D02*
X157328914Y-96305666D01*
X157328914Y-96305666D02*
X157376533Y-96400904D01*
X157186057Y-95448523D02*
X157138438Y-95400904D01*
X157138438Y-95400904D02*
X157090819Y-95305666D01*
X157090819Y-95305666D02*
X157090819Y-95067571D01*
X157090819Y-95067571D02*
X157138438Y-94972333D01*
X157138438Y-94972333D02*
X157186057Y-94924714D01*
X157186057Y-94924714D02*
X157281295Y-94877095D01*
X157281295Y-94877095D02*
X157376533Y-94877095D01*
X157376533Y-94877095D02*
X157519390Y-94924714D01*
X157519390Y-94924714D02*
X158090819Y-95496142D01*
X158090819Y-95496142D02*
X158090819Y-94877095D01*
X130127476Y-92589819D02*
X130127476Y-93304104D01*
X130127476Y-93304104D02*
X130079857Y-93446961D01*
X130079857Y-93446961D02*
X129984619Y-93542200D01*
X129984619Y-93542200D02*
X129841762Y-93589819D01*
X129841762Y-93589819D02*
X129746524Y-93589819D01*
X131127476Y-93589819D02*
X130556048Y-93589819D01*
X130841762Y-93589819D02*
X130841762Y-92589819D01*
X130841762Y-92589819D02*
X130746524Y-92732676D01*
X130746524Y-92732676D02*
X130651286Y-92827914D01*
X130651286Y-92827914D02*
X130556048Y-92875533D01*
X132079857Y-93589819D02*
X131508429Y-93589819D01*
X131794143Y-93589819D02*
X131794143Y-92589819D01*
X131794143Y-92589819D02*
X131698905Y-92732676D01*
X131698905Y-92732676D02*
X131603667Y-92827914D01*
X131603667Y-92827914D02*
X131508429Y-92875533D01*
X146160261Y-99238057D02*
X146065023Y-99190438D01*
X146065023Y-99190438D02*
X145969785Y-99095200D01*
X145969785Y-99095200D02*
X145826928Y-98952342D01*
X145826928Y-98952342D02*
X145731690Y-98904723D01*
X145731690Y-98904723D02*
X145636452Y-98904723D01*
X145684071Y-99142819D02*
X145588833Y-99095200D01*
X145588833Y-99095200D02*
X145493595Y-98999961D01*
X145493595Y-98999961D02*
X145445976Y-98809485D01*
X145445976Y-98809485D02*
X145445976Y-98476152D01*
X145445976Y-98476152D02*
X145493595Y-98285676D01*
X145493595Y-98285676D02*
X145588833Y-98190438D01*
X145588833Y-98190438D02*
X145684071Y-98142819D01*
X145684071Y-98142819D02*
X145874547Y-98142819D01*
X145874547Y-98142819D02*
X145969785Y-98190438D01*
X145969785Y-98190438D02*
X146065023Y-98285676D01*
X146065023Y-98285676D02*
X146112642Y-98476152D01*
X146112642Y-98476152D02*
X146112642Y-98809485D01*
X146112642Y-98809485D02*
X146065023Y-98999961D01*
X146065023Y-98999961D02*
X145969785Y-99095200D01*
X145969785Y-99095200D02*
X145874547Y-99142819D01*
X145874547Y-99142819D02*
X145684071Y-99142819D01*
X146969785Y-98476152D02*
X146969785Y-99142819D01*
X146731690Y-98095200D02*
X146493595Y-98809485D01*
X146493595Y-98809485D02*
X147112642Y-98809485D01*
X137271095Y-79210819D02*
X137271095Y-80020342D01*
X137271095Y-80020342D02*
X137318714Y-80115580D01*
X137318714Y-80115580D02*
X137366333Y-80163200D01*
X137366333Y-80163200D02*
X137461571Y-80210819D01*
X137461571Y-80210819D02*
X137652047Y-80210819D01*
X137652047Y-80210819D02*
X137747285Y-80163200D01*
X137747285Y-80163200D02*
X137794904Y-80115580D01*
X137794904Y-80115580D02*
X137842523Y-80020342D01*
X137842523Y-80020342D02*
X137842523Y-79210819D01*
X138747285Y-79544152D02*
X138747285Y-80210819D01*
X138509190Y-79163200D02*
X138271095Y-79877485D01*
X138271095Y-79877485D02*
X138890142Y-79877485D01*
X109003580Y-85142666D02*
X109051200Y-85190285D01*
X109051200Y-85190285D02*
X109098819Y-85333142D01*
X109098819Y-85333142D02*
X109098819Y-85428380D01*
X109098819Y-85428380D02*
X109051200Y-85571237D01*
X109051200Y-85571237D02*
X108955961Y-85666475D01*
X108955961Y-85666475D02*
X108860723Y-85714094D01*
X108860723Y-85714094D02*
X108670247Y-85761713D01*
X108670247Y-85761713D02*
X108527390Y-85761713D01*
X108527390Y-85761713D02*
X108336914Y-85714094D01*
X108336914Y-85714094D02*
X108241676Y-85666475D01*
X108241676Y-85666475D02*
X108146438Y-85571237D01*
X108146438Y-85571237D02*
X108098819Y-85428380D01*
X108098819Y-85428380D02*
X108098819Y-85333142D01*
X108098819Y-85333142D02*
X108146438Y-85190285D01*
X108146438Y-85190285D02*
X108194057Y-85142666D01*
X108098819Y-84285523D02*
X108098819Y-84475999D01*
X108098819Y-84475999D02*
X108146438Y-84571237D01*
X108146438Y-84571237D02*
X108194057Y-84618856D01*
X108194057Y-84618856D02*
X108336914Y-84714094D01*
X108336914Y-84714094D02*
X108527390Y-84761713D01*
X108527390Y-84761713D02*
X108908342Y-84761713D01*
X108908342Y-84761713D02*
X109003580Y-84714094D01*
X109003580Y-84714094D02*
X109051200Y-84666475D01*
X109051200Y-84666475D02*
X109098819Y-84571237D01*
X109098819Y-84571237D02*
X109098819Y-84380761D01*
X109098819Y-84380761D02*
X109051200Y-84285523D01*
X109051200Y-84285523D02*
X109003580Y-84237904D01*
X109003580Y-84237904D02*
X108908342Y-84190285D01*
X108908342Y-84190285D02*
X108670247Y-84190285D01*
X108670247Y-84190285D02*
X108575009Y-84237904D01*
X108575009Y-84237904D02*
X108527390Y-84285523D01*
X108527390Y-84285523D02*
X108479771Y-84380761D01*
X108479771Y-84380761D02*
X108479771Y-84571237D01*
X108479771Y-84571237D02*
X108527390Y-84666475D01*
X108527390Y-84666475D02*
X108575009Y-84714094D01*
X108575009Y-84714094D02*
X108670247Y-84761713D01*
X137200819Y-89669857D02*
X136724628Y-90003190D01*
X137200819Y-90241285D02*
X136200819Y-90241285D01*
X136200819Y-90241285D02*
X136200819Y-89860333D01*
X136200819Y-89860333D02*
X136248438Y-89765095D01*
X136248438Y-89765095D02*
X136296057Y-89717476D01*
X136296057Y-89717476D02*
X136391295Y-89669857D01*
X136391295Y-89669857D02*
X136534152Y-89669857D01*
X136534152Y-89669857D02*
X136629390Y-89717476D01*
X136629390Y-89717476D02*
X136677009Y-89765095D01*
X136677009Y-89765095D02*
X136724628Y-89860333D01*
X136724628Y-89860333D02*
X136724628Y-90241285D01*
X137200819Y-88717476D02*
X137200819Y-89288904D01*
X137200819Y-89003190D02*
X136200819Y-89003190D01*
X136200819Y-89003190D02*
X136343676Y-89098428D01*
X136343676Y-89098428D02*
X136438914Y-89193666D01*
X136438914Y-89193666D02*
X136486533Y-89288904D01*
X136200819Y-87812714D02*
X136200819Y-88288904D01*
X136200819Y-88288904D02*
X136677009Y-88336523D01*
X136677009Y-88336523D02*
X136629390Y-88288904D01*
X136629390Y-88288904D02*
X136581771Y-88193666D01*
X136581771Y-88193666D02*
X136581771Y-87955571D01*
X136581771Y-87955571D02*
X136629390Y-87860333D01*
X136629390Y-87860333D02*
X136677009Y-87812714D01*
X136677009Y-87812714D02*
X136772247Y-87765095D01*
X136772247Y-87765095D02*
X137010342Y-87765095D01*
X137010342Y-87765095D02*
X137105580Y-87812714D01*
X137105580Y-87812714D02*
X137153200Y-87860333D01*
X137153200Y-87860333D02*
X137200819Y-87955571D01*
X137200819Y-87955571D02*
X137200819Y-88193666D01*
X137200819Y-88193666D02*
X137153200Y-88288904D01*
X137153200Y-88288904D02*
X137105580Y-88336523D01*
X107402333Y-88058319D02*
X107069000Y-87582128D01*
X106830905Y-88058319D02*
X106830905Y-87058319D01*
X106830905Y-87058319D02*
X107211857Y-87058319D01*
X107211857Y-87058319D02*
X107307095Y-87105938D01*
X107307095Y-87105938D02*
X107354714Y-87153557D01*
X107354714Y-87153557D02*
X107402333Y-87248795D01*
X107402333Y-87248795D02*
X107402333Y-87391652D01*
X107402333Y-87391652D02*
X107354714Y-87486890D01*
X107354714Y-87486890D02*
X107307095Y-87534509D01*
X107307095Y-87534509D02*
X107211857Y-87582128D01*
X107211857Y-87582128D02*
X106830905Y-87582128D01*
X108259476Y-87058319D02*
X108069000Y-87058319D01*
X108069000Y-87058319D02*
X107973762Y-87105938D01*
X107973762Y-87105938D02*
X107926143Y-87153557D01*
X107926143Y-87153557D02*
X107830905Y-87296414D01*
X107830905Y-87296414D02*
X107783286Y-87486890D01*
X107783286Y-87486890D02*
X107783286Y-87867842D01*
X107783286Y-87867842D02*
X107830905Y-87963080D01*
X107830905Y-87963080D02*
X107878524Y-88010700D01*
X107878524Y-88010700D02*
X107973762Y-88058319D01*
X107973762Y-88058319D02*
X108164238Y-88058319D01*
X108164238Y-88058319D02*
X108259476Y-88010700D01*
X108259476Y-88010700D02*
X108307095Y-87963080D01*
X108307095Y-87963080D02*
X108354714Y-87867842D01*
X108354714Y-87867842D02*
X108354714Y-87629747D01*
X108354714Y-87629747D02*
X108307095Y-87534509D01*
X108307095Y-87534509D02*
X108259476Y-87486890D01*
X108259476Y-87486890D02*
X108164238Y-87439271D01*
X108164238Y-87439271D02*
X107973762Y-87439271D01*
X107973762Y-87439271D02*
X107878524Y-87486890D01*
X107878524Y-87486890D02*
X107830905Y-87534509D01*
X107830905Y-87534509D02*
X107783286Y-87629747D01*
X86561905Y-80222819D02*
X86561905Y-79222819D01*
X86561905Y-79222819D02*
X86800000Y-79222819D01*
X86800000Y-79222819D02*
X86942857Y-79270438D01*
X86942857Y-79270438D02*
X87038095Y-79365676D01*
X87038095Y-79365676D02*
X87085714Y-79460914D01*
X87085714Y-79460914D02*
X87133333Y-79651390D01*
X87133333Y-79651390D02*
X87133333Y-79794247D01*
X87133333Y-79794247D02*
X87085714Y-79984723D01*
X87085714Y-79984723D02*
X87038095Y-80079961D01*
X87038095Y-80079961D02*
X86942857Y-80175200D01*
X86942857Y-80175200D02*
X86800000Y-80222819D01*
X86800000Y-80222819D02*
X86561905Y-80222819D01*
X88085714Y-80222819D02*
X87514286Y-80222819D01*
X87800000Y-80222819D02*
X87800000Y-79222819D01*
X87800000Y-79222819D02*
X87704762Y-79365676D01*
X87704762Y-79365676D02*
X87609524Y-79460914D01*
X87609524Y-79460914D02*
X87514286Y-79508533D01*
X90848095Y-79902819D02*
X90848095Y-78902819D01*
X91419523Y-79902819D02*
X90990952Y-79331390D01*
X91419523Y-78902819D02*
X90848095Y-79474247D01*
X125595142Y-91099819D02*
X125261809Y-90623628D01*
X125023714Y-91099819D02*
X125023714Y-90099819D01*
X125023714Y-90099819D02*
X125404666Y-90099819D01*
X125404666Y-90099819D02*
X125499904Y-90147438D01*
X125499904Y-90147438D02*
X125547523Y-90195057D01*
X125547523Y-90195057D02*
X125595142Y-90290295D01*
X125595142Y-90290295D02*
X125595142Y-90433152D01*
X125595142Y-90433152D02*
X125547523Y-90528390D01*
X125547523Y-90528390D02*
X125499904Y-90576009D01*
X125499904Y-90576009D02*
X125404666Y-90623628D01*
X125404666Y-90623628D02*
X125023714Y-90623628D01*
X125976095Y-90195057D02*
X126023714Y-90147438D01*
X126023714Y-90147438D02*
X126118952Y-90099819D01*
X126118952Y-90099819D02*
X126357047Y-90099819D01*
X126357047Y-90099819D02*
X126452285Y-90147438D01*
X126452285Y-90147438D02*
X126499904Y-90195057D01*
X126499904Y-90195057D02*
X126547523Y-90290295D01*
X126547523Y-90290295D02*
X126547523Y-90385533D01*
X126547523Y-90385533D02*
X126499904Y-90528390D01*
X126499904Y-90528390D02*
X125928476Y-91099819D01*
X125928476Y-91099819D02*
X126547523Y-91099819D01*
X127452285Y-90099819D02*
X126976095Y-90099819D01*
X126976095Y-90099819D02*
X126928476Y-90576009D01*
X126928476Y-90576009D02*
X126976095Y-90528390D01*
X126976095Y-90528390D02*
X127071333Y-90480771D01*
X127071333Y-90480771D02*
X127309428Y-90480771D01*
X127309428Y-90480771D02*
X127404666Y-90528390D01*
X127404666Y-90528390D02*
X127452285Y-90576009D01*
X127452285Y-90576009D02*
X127499904Y-90671247D01*
X127499904Y-90671247D02*
X127499904Y-90909342D01*
X127499904Y-90909342D02*
X127452285Y-91004580D01*
X127452285Y-91004580D02*
X127404666Y-91052200D01*
X127404666Y-91052200D02*
X127309428Y-91099819D01*
X127309428Y-91099819D02*
X127071333Y-91099819D01*
X127071333Y-91099819D02*
X126976095Y-91052200D01*
X126976095Y-91052200D02*
X126928476Y-91004580D01*
X117213142Y-90845819D02*
X116879809Y-90369628D01*
X116641714Y-90845819D02*
X116641714Y-89845819D01*
X116641714Y-89845819D02*
X117022666Y-89845819D01*
X117022666Y-89845819D02*
X117117904Y-89893438D01*
X117117904Y-89893438D02*
X117165523Y-89941057D01*
X117165523Y-89941057D02*
X117213142Y-90036295D01*
X117213142Y-90036295D02*
X117213142Y-90179152D01*
X117213142Y-90179152D02*
X117165523Y-90274390D01*
X117165523Y-90274390D02*
X117117904Y-90322009D01*
X117117904Y-90322009D02*
X117022666Y-90369628D01*
X117022666Y-90369628D02*
X116641714Y-90369628D01*
X117594095Y-89941057D02*
X117641714Y-89893438D01*
X117641714Y-89893438D02*
X117736952Y-89845819D01*
X117736952Y-89845819D02*
X117975047Y-89845819D01*
X117975047Y-89845819D02*
X118070285Y-89893438D01*
X118070285Y-89893438D02*
X118117904Y-89941057D01*
X118117904Y-89941057D02*
X118165523Y-90036295D01*
X118165523Y-90036295D02*
X118165523Y-90131533D01*
X118165523Y-90131533D02*
X118117904Y-90274390D01*
X118117904Y-90274390D02*
X117546476Y-90845819D01*
X117546476Y-90845819D02*
X118165523Y-90845819D01*
X119117904Y-90845819D02*
X118546476Y-90845819D01*
X118832190Y-90845819D02*
X118832190Y-89845819D01*
X118832190Y-89845819D02*
X118736952Y-89988676D01*
X118736952Y-89988676D02*
X118641714Y-90083914D01*
X118641714Y-90083914D02*
X118546476Y-90131533D01*
X113276142Y-78211819D02*
X112942809Y-77735628D01*
X112704714Y-78211819D02*
X112704714Y-77211819D01*
X112704714Y-77211819D02*
X113085666Y-77211819D01*
X113085666Y-77211819D02*
X113180904Y-77259438D01*
X113180904Y-77259438D02*
X113228523Y-77307057D01*
X113228523Y-77307057D02*
X113276142Y-77402295D01*
X113276142Y-77402295D02*
X113276142Y-77545152D01*
X113276142Y-77545152D02*
X113228523Y-77640390D01*
X113228523Y-77640390D02*
X113180904Y-77688009D01*
X113180904Y-77688009D02*
X113085666Y-77735628D01*
X113085666Y-77735628D02*
X112704714Y-77735628D01*
X114228523Y-78211819D02*
X113657095Y-78211819D01*
X113942809Y-78211819D02*
X113942809Y-77211819D01*
X113942809Y-77211819D02*
X113847571Y-77354676D01*
X113847571Y-77354676D02*
X113752333Y-77449914D01*
X113752333Y-77449914D02*
X113657095Y-77497533D01*
X114561857Y-77211819D02*
X115180904Y-77211819D01*
X115180904Y-77211819D02*
X114847571Y-77592771D01*
X114847571Y-77592771D02*
X114990428Y-77592771D01*
X114990428Y-77592771D02*
X115085666Y-77640390D01*
X115085666Y-77640390D02*
X115133285Y-77688009D01*
X115133285Y-77688009D02*
X115180904Y-77783247D01*
X115180904Y-77783247D02*
X115180904Y-78021342D01*
X115180904Y-78021342D02*
X115133285Y-78116580D01*
X115133285Y-78116580D02*
X115085666Y-78164200D01*
X115085666Y-78164200D02*
X114990428Y-78211819D01*
X114990428Y-78211819D02*
X114704714Y-78211819D01*
X114704714Y-78211819D02*
X114609476Y-78164200D01*
X114609476Y-78164200D02*
X114561857Y-78116580D01*
X120310580Y-80906857D02*
X120358200Y-80954476D01*
X120358200Y-80954476D02*
X120405819Y-81097333D01*
X120405819Y-81097333D02*
X120405819Y-81192571D01*
X120405819Y-81192571D02*
X120358200Y-81335428D01*
X120358200Y-81335428D02*
X120262961Y-81430666D01*
X120262961Y-81430666D02*
X120167723Y-81478285D01*
X120167723Y-81478285D02*
X119977247Y-81525904D01*
X119977247Y-81525904D02*
X119834390Y-81525904D01*
X119834390Y-81525904D02*
X119643914Y-81478285D01*
X119643914Y-81478285D02*
X119548676Y-81430666D01*
X119548676Y-81430666D02*
X119453438Y-81335428D01*
X119453438Y-81335428D02*
X119405819Y-81192571D01*
X119405819Y-81192571D02*
X119405819Y-81097333D01*
X119405819Y-81097333D02*
X119453438Y-80954476D01*
X119453438Y-80954476D02*
X119501057Y-80906857D01*
X120405819Y-79954476D02*
X120405819Y-80525904D01*
X120405819Y-80240190D02*
X119405819Y-80240190D01*
X119405819Y-80240190D02*
X119548676Y-80335428D01*
X119548676Y-80335428D02*
X119643914Y-80430666D01*
X119643914Y-80430666D02*
X119691533Y-80525904D01*
X120405819Y-79478285D02*
X120405819Y-79287809D01*
X120405819Y-79287809D02*
X120358200Y-79192571D01*
X120358200Y-79192571D02*
X120310580Y-79144952D01*
X120310580Y-79144952D02*
X120167723Y-79049714D01*
X120167723Y-79049714D02*
X119977247Y-79002095D01*
X119977247Y-79002095D02*
X119596295Y-79002095D01*
X119596295Y-79002095D02*
X119501057Y-79049714D01*
X119501057Y-79049714D02*
X119453438Y-79097333D01*
X119453438Y-79097333D02*
X119405819Y-79192571D01*
X119405819Y-79192571D02*
X119405819Y-79383047D01*
X119405819Y-79383047D02*
X119453438Y-79478285D01*
X119453438Y-79478285D02*
X119501057Y-79525904D01*
X119501057Y-79525904D02*
X119596295Y-79573523D01*
X119596295Y-79573523D02*
X119834390Y-79573523D01*
X119834390Y-79573523D02*
X119929628Y-79525904D01*
X119929628Y-79525904D02*
X119977247Y-79478285D01*
X119977247Y-79478285D02*
X120024866Y-79383047D01*
X120024866Y-79383047D02*
X120024866Y-79192571D01*
X120024866Y-79192571D02*
X119977247Y-79097333D01*
X119977247Y-79097333D02*
X119929628Y-79049714D01*
X119929628Y-79049714D02*
X119834390Y-79002095D01*
X106879580Y-103512857D02*
X106927200Y-103560476D01*
X106927200Y-103560476D02*
X106974819Y-103703333D01*
X106974819Y-103703333D02*
X106974819Y-103798571D01*
X106974819Y-103798571D02*
X106927200Y-103941428D01*
X106927200Y-103941428D02*
X106831961Y-104036666D01*
X106831961Y-104036666D02*
X106736723Y-104084285D01*
X106736723Y-104084285D02*
X106546247Y-104131904D01*
X106546247Y-104131904D02*
X106403390Y-104131904D01*
X106403390Y-104131904D02*
X106212914Y-104084285D01*
X106212914Y-104084285D02*
X106117676Y-104036666D01*
X106117676Y-104036666D02*
X106022438Y-103941428D01*
X106022438Y-103941428D02*
X105974819Y-103798571D01*
X105974819Y-103798571D02*
X105974819Y-103703333D01*
X105974819Y-103703333D02*
X106022438Y-103560476D01*
X106022438Y-103560476D02*
X106070057Y-103512857D01*
X106070057Y-103131904D02*
X106022438Y-103084285D01*
X106022438Y-103084285D02*
X105974819Y-102989047D01*
X105974819Y-102989047D02*
X105974819Y-102750952D01*
X105974819Y-102750952D02*
X106022438Y-102655714D01*
X106022438Y-102655714D02*
X106070057Y-102608095D01*
X106070057Y-102608095D02*
X106165295Y-102560476D01*
X106165295Y-102560476D02*
X106260533Y-102560476D01*
X106260533Y-102560476D02*
X106403390Y-102608095D01*
X106403390Y-102608095D02*
X106974819Y-103179523D01*
X106974819Y-103179523D02*
X106974819Y-102560476D01*
X105974819Y-101655714D02*
X105974819Y-102131904D01*
X105974819Y-102131904D02*
X106451009Y-102179523D01*
X106451009Y-102179523D02*
X106403390Y-102131904D01*
X106403390Y-102131904D02*
X106355771Y-102036666D01*
X106355771Y-102036666D02*
X106355771Y-101798571D01*
X106355771Y-101798571D02*
X106403390Y-101703333D01*
X106403390Y-101703333D02*
X106451009Y-101655714D01*
X106451009Y-101655714D02*
X106546247Y-101608095D01*
X106546247Y-101608095D02*
X106784342Y-101608095D01*
X106784342Y-101608095D02*
X106879580Y-101655714D01*
X106879580Y-101655714D02*
X106927200Y-101703333D01*
X106927200Y-101703333D02*
X106974819Y-101798571D01*
X106974819Y-101798571D02*
X106974819Y-102036666D01*
X106974819Y-102036666D02*
X106927200Y-102131904D01*
X106927200Y-102131904D02*
X106879580Y-102179523D01*
X137200819Y-86654857D02*
X136724628Y-86988190D01*
X137200819Y-87226285D02*
X136200819Y-87226285D01*
X136200819Y-87226285D02*
X136200819Y-86845333D01*
X136200819Y-86845333D02*
X136248438Y-86750095D01*
X136248438Y-86750095D02*
X136296057Y-86702476D01*
X136296057Y-86702476D02*
X136391295Y-86654857D01*
X136391295Y-86654857D02*
X136534152Y-86654857D01*
X136534152Y-86654857D02*
X136629390Y-86702476D01*
X136629390Y-86702476D02*
X136677009Y-86750095D01*
X136677009Y-86750095D02*
X136724628Y-86845333D01*
X136724628Y-86845333D02*
X136724628Y-87226285D01*
X137200819Y-85702476D02*
X137200819Y-86273904D01*
X137200819Y-85988190D02*
X136200819Y-85988190D01*
X136200819Y-85988190D02*
X136343676Y-86083428D01*
X136343676Y-86083428D02*
X136438914Y-86178666D01*
X136438914Y-86178666D02*
X136486533Y-86273904D01*
X136534152Y-84845333D02*
X137200819Y-84845333D01*
X136153200Y-85083428D02*
X136867485Y-85321523D01*
X136867485Y-85321523D02*
X136867485Y-84702476D01*
X95984539Y-95696131D02*
X95984539Y-96410416D01*
X95984539Y-96410416D02*
X95936920Y-96553273D01*
X95936920Y-96553273D02*
X95841682Y-96648512D01*
X95841682Y-96648512D02*
X95698825Y-96696131D01*
X95698825Y-96696131D02*
X95603587Y-96696131D01*
X96984539Y-96696131D02*
X96413111Y-96696131D01*
X96698825Y-96696131D02*
X96698825Y-95696131D01*
X96698825Y-95696131D02*
X96603587Y-95838988D01*
X96603587Y-95838988D02*
X96508349Y-95934226D01*
X96508349Y-95934226D02*
X96413111Y-95981845D01*
X97365492Y-95791369D02*
X97413111Y-95743750D01*
X97413111Y-95743750D02*
X97508349Y-95696131D01*
X97508349Y-95696131D02*
X97746444Y-95696131D01*
X97746444Y-95696131D02*
X97841682Y-95743750D01*
X97841682Y-95743750D02*
X97889301Y-95791369D01*
X97889301Y-95791369D02*
X97936920Y-95886607D01*
X97936920Y-95886607D02*
X97936920Y-95981845D01*
X97936920Y-95981845D02*
X97889301Y-96124702D01*
X97889301Y-96124702D02*
X97317873Y-96696131D01*
X97317873Y-96696131D02*
X97936920Y-96696131D01*
X117760761Y-92450057D02*
X117665523Y-92402438D01*
X117665523Y-92402438D02*
X117570285Y-92307200D01*
X117570285Y-92307200D02*
X117427428Y-92164342D01*
X117427428Y-92164342D02*
X117332190Y-92116723D01*
X117332190Y-92116723D02*
X117236952Y-92116723D01*
X117284571Y-92354819D02*
X117189333Y-92307200D01*
X117189333Y-92307200D02*
X117094095Y-92211961D01*
X117094095Y-92211961D02*
X117046476Y-92021485D01*
X117046476Y-92021485D02*
X117046476Y-91688152D01*
X117046476Y-91688152D02*
X117094095Y-91497676D01*
X117094095Y-91497676D02*
X117189333Y-91402438D01*
X117189333Y-91402438D02*
X117284571Y-91354819D01*
X117284571Y-91354819D02*
X117475047Y-91354819D01*
X117475047Y-91354819D02*
X117570285Y-91402438D01*
X117570285Y-91402438D02*
X117665523Y-91497676D01*
X117665523Y-91497676D02*
X117713142Y-91688152D01*
X117713142Y-91688152D02*
X117713142Y-92021485D01*
X117713142Y-92021485D02*
X117665523Y-92211961D01*
X117665523Y-92211961D02*
X117570285Y-92307200D01*
X117570285Y-92307200D02*
X117475047Y-92354819D01*
X117475047Y-92354819D02*
X117284571Y-92354819D01*
X118046476Y-91354819D02*
X118713142Y-91354819D01*
X118713142Y-91354819D02*
X118284571Y-92354819D01*
X104089396Y-97566819D02*
X103756063Y-97090628D01*
X103517968Y-97566819D02*
X103517968Y-96566819D01*
X103517968Y-96566819D02*
X103898920Y-96566819D01*
X103898920Y-96566819D02*
X103994158Y-96614438D01*
X103994158Y-96614438D02*
X104041777Y-96662057D01*
X104041777Y-96662057D02*
X104089396Y-96757295D01*
X104089396Y-96757295D02*
X104089396Y-96900152D01*
X104089396Y-96900152D02*
X104041777Y-96995390D01*
X104041777Y-96995390D02*
X103994158Y-97043009D01*
X103994158Y-97043009D02*
X103898920Y-97090628D01*
X103898920Y-97090628D02*
X103517968Y-97090628D01*
X104946539Y-96900152D02*
X104946539Y-97566819D01*
X104708444Y-96519200D02*
X104470349Y-97233485D01*
X104470349Y-97233485D02*
X105089396Y-97233485D01*
X164284819Y-98909094D02*
X163284819Y-98909094D01*
X163284819Y-98909094D02*
X163284819Y-98670999D01*
X163284819Y-98670999D02*
X163332438Y-98528142D01*
X163332438Y-98528142D02*
X163427676Y-98432904D01*
X163427676Y-98432904D02*
X163522914Y-98385285D01*
X163522914Y-98385285D02*
X163713390Y-98337666D01*
X163713390Y-98337666D02*
X163856247Y-98337666D01*
X163856247Y-98337666D02*
X164046723Y-98385285D01*
X164046723Y-98385285D02*
X164141961Y-98432904D01*
X164141961Y-98432904D02*
X164237200Y-98528142D01*
X164237200Y-98528142D02*
X164284819Y-98670999D01*
X164284819Y-98670999D02*
X164284819Y-98909094D01*
X163284819Y-98004332D02*
X163284819Y-97385285D01*
X163284819Y-97385285D02*
X163665771Y-97718618D01*
X163665771Y-97718618D02*
X163665771Y-97575761D01*
X163665771Y-97575761D02*
X163713390Y-97480523D01*
X163713390Y-97480523D02*
X163761009Y-97432904D01*
X163761009Y-97432904D02*
X163856247Y-97385285D01*
X163856247Y-97385285D02*
X164094342Y-97385285D01*
X164094342Y-97385285D02*
X164189580Y-97432904D01*
X164189580Y-97432904D02*
X164237200Y-97480523D01*
X164237200Y-97480523D02*
X164284819Y-97575761D01*
X164284819Y-97575761D02*
X164284819Y-97861475D01*
X164284819Y-97861475D02*
X164237200Y-97956713D01*
X164237200Y-97956713D02*
X164189580Y-98004332D01*
X105736580Y-97276857D02*
X105784200Y-97324476D01*
X105784200Y-97324476D02*
X105831819Y-97467333D01*
X105831819Y-97467333D02*
X105831819Y-97562571D01*
X105831819Y-97562571D02*
X105784200Y-97705428D01*
X105784200Y-97705428D02*
X105688961Y-97800666D01*
X105688961Y-97800666D02*
X105593723Y-97848285D01*
X105593723Y-97848285D02*
X105403247Y-97895904D01*
X105403247Y-97895904D02*
X105260390Y-97895904D01*
X105260390Y-97895904D02*
X105069914Y-97848285D01*
X105069914Y-97848285D02*
X104974676Y-97800666D01*
X104974676Y-97800666D02*
X104879438Y-97705428D01*
X104879438Y-97705428D02*
X104831819Y-97562571D01*
X104831819Y-97562571D02*
X104831819Y-97467333D01*
X104831819Y-97467333D02*
X104879438Y-97324476D01*
X104879438Y-97324476D02*
X104927057Y-97276857D01*
X104927057Y-96895904D02*
X104879438Y-96848285D01*
X104879438Y-96848285D02*
X104831819Y-96753047D01*
X104831819Y-96753047D02*
X104831819Y-96514952D01*
X104831819Y-96514952D02*
X104879438Y-96419714D01*
X104879438Y-96419714D02*
X104927057Y-96372095D01*
X104927057Y-96372095D02*
X105022295Y-96324476D01*
X105022295Y-96324476D02*
X105117533Y-96324476D01*
X105117533Y-96324476D02*
X105260390Y-96372095D01*
X105260390Y-96372095D02*
X105831819Y-96943523D01*
X105831819Y-96943523D02*
X105831819Y-96324476D01*
X104831819Y-95467333D02*
X104831819Y-95657809D01*
X104831819Y-95657809D02*
X104879438Y-95753047D01*
X104879438Y-95753047D02*
X104927057Y-95800666D01*
X104927057Y-95800666D02*
X105069914Y-95895904D01*
X105069914Y-95895904D02*
X105260390Y-95943523D01*
X105260390Y-95943523D02*
X105641342Y-95943523D01*
X105641342Y-95943523D02*
X105736580Y-95895904D01*
X105736580Y-95895904D02*
X105784200Y-95848285D01*
X105784200Y-95848285D02*
X105831819Y-95753047D01*
X105831819Y-95753047D02*
X105831819Y-95562571D01*
X105831819Y-95562571D02*
X105784200Y-95467333D01*
X105784200Y-95467333D02*
X105736580Y-95419714D01*
X105736580Y-95419714D02*
X105641342Y-95372095D01*
X105641342Y-95372095D02*
X105403247Y-95372095D01*
X105403247Y-95372095D02*
X105308009Y-95419714D01*
X105308009Y-95419714D02*
X105260390Y-95467333D01*
X105260390Y-95467333D02*
X105212771Y-95562571D01*
X105212771Y-95562571D02*
X105212771Y-95753047D01*
X105212771Y-95753047D02*
X105260390Y-95848285D01*
X105260390Y-95848285D02*
X105308009Y-95895904D01*
X105308009Y-95895904D02*
X105403247Y-95943523D01*
X103592333Y-101259819D02*
X103259000Y-100783628D01*
X103020905Y-101259819D02*
X103020905Y-100259819D01*
X103020905Y-100259819D02*
X103401857Y-100259819D01*
X103401857Y-100259819D02*
X103497095Y-100307438D01*
X103497095Y-100307438D02*
X103544714Y-100355057D01*
X103544714Y-100355057D02*
X103592333Y-100450295D01*
X103592333Y-100450295D02*
X103592333Y-100593152D01*
X103592333Y-100593152D02*
X103544714Y-100688390D01*
X103544714Y-100688390D02*
X103497095Y-100736009D01*
X103497095Y-100736009D02*
X103401857Y-100783628D01*
X103401857Y-100783628D02*
X103020905Y-100783628D01*
X103973286Y-100355057D02*
X104020905Y-100307438D01*
X104020905Y-100307438D02*
X104116143Y-100259819D01*
X104116143Y-100259819D02*
X104354238Y-100259819D01*
X104354238Y-100259819D02*
X104449476Y-100307438D01*
X104449476Y-100307438D02*
X104497095Y-100355057D01*
X104497095Y-100355057D02*
X104544714Y-100450295D01*
X104544714Y-100450295D02*
X104544714Y-100545533D01*
X104544714Y-100545533D02*
X104497095Y-100688390D01*
X104497095Y-100688390D02*
X103925667Y-101259819D01*
X103925667Y-101259819D02*
X104544714Y-101259819D01*
X114604819Y-96734238D02*
X114128628Y-97067571D01*
X114604819Y-97305666D02*
X113604819Y-97305666D01*
X113604819Y-97305666D02*
X113604819Y-96924714D01*
X113604819Y-96924714D02*
X113652438Y-96829476D01*
X113652438Y-96829476D02*
X113700057Y-96781857D01*
X113700057Y-96781857D02*
X113795295Y-96734238D01*
X113795295Y-96734238D02*
X113938152Y-96734238D01*
X113938152Y-96734238D02*
X114033390Y-96781857D01*
X114033390Y-96781857D02*
X114081009Y-96829476D01*
X114081009Y-96829476D02*
X114128628Y-96924714D01*
X114128628Y-96924714D02*
X114128628Y-97305666D01*
X113604819Y-96448523D02*
X114604819Y-96115190D01*
X114604819Y-96115190D02*
X113604819Y-95781857D01*
X113938152Y-95019952D02*
X114604819Y-95019952D01*
X113557200Y-95258047D02*
X114271485Y-95496142D01*
X114271485Y-95496142D02*
X114271485Y-94877095D01*
X112694819Y-95964333D02*
X113409104Y-95964333D01*
X113409104Y-95964333D02*
X113551961Y-96011952D01*
X113551961Y-96011952D02*
X113647200Y-96107190D01*
X113647200Y-96107190D02*
X113694819Y-96250047D01*
X113694819Y-96250047D02*
X113694819Y-96345285D01*
X112790057Y-95535761D02*
X112742438Y-95488142D01*
X112742438Y-95488142D02*
X112694819Y-95392904D01*
X112694819Y-95392904D02*
X112694819Y-95154809D01*
X112694819Y-95154809D02*
X112742438Y-95059571D01*
X112742438Y-95059571D02*
X112790057Y-95011952D01*
X112790057Y-95011952D02*
X112885295Y-94964333D01*
X112885295Y-94964333D02*
X112980533Y-94964333D01*
X112980533Y-94964333D02*
X113123390Y-95011952D01*
X113123390Y-95011952D02*
X113694819Y-95583380D01*
X113694819Y-95583380D02*
X113694819Y-94964333D01*
X138374631Y-81580257D02*
X137898440Y-81913590D01*
X138374631Y-82151685D02*
X137374631Y-82151685D01*
X137374631Y-82151685D02*
X137374631Y-81770733D01*
X137374631Y-81770733D02*
X137422250Y-81675495D01*
X137422250Y-81675495D02*
X137469869Y-81627876D01*
X137469869Y-81627876D02*
X137565107Y-81580257D01*
X137565107Y-81580257D02*
X137707964Y-81580257D01*
X137707964Y-81580257D02*
X137803202Y-81627876D01*
X137803202Y-81627876D02*
X137850821Y-81675495D01*
X137850821Y-81675495D02*
X137898440Y-81770733D01*
X137898440Y-81770733D02*
X137898440Y-82151685D01*
X138374631Y-80627876D02*
X138374631Y-81199304D01*
X138374631Y-80913590D02*
X137374631Y-80913590D01*
X137374631Y-80913590D02*
X137517488Y-81008828D01*
X137517488Y-81008828D02*
X137612726Y-81104066D01*
X137612726Y-81104066D02*
X137660345Y-81199304D01*
X137374631Y-79770733D02*
X137374631Y-79961209D01*
X137374631Y-79961209D02*
X137422250Y-80056447D01*
X137422250Y-80056447D02*
X137469869Y-80104066D01*
X137469869Y-80104066D02*
X137612726Y-80199304D01*
X137612726Y-80199304D02*
X137803202Y-80246923D01*
X137803202Y-80246923D02*
X138184154Y-80246923D01*
X138184154Y-80246923D02*
X138279392Y-80199304D01*
X138279392Y-80199304D02*
X138327012Y-80151685D01*
X138327012Y-80151685D02*
X138374631Y-80056447D01*
X138374631Y-80056447D02*
X138374631Y-79865971D01*
X138374631Y-79865971D02*
X138327012Y-79770733D01*
X138327012Y-79770733D02*
X138279392Y-79723114D01*
X138279392Y-79723114D02*
X138184154Y-79675495D01*
X138184154Y-79675495D02*
X137946059Y-79675495D01*
X137946059Y-79675495D02*
X137850821Y-79723114D01*
X137850821Y-79723114D02*
X137803202Y-79770733D01*
X137803202Y-79770733D02*
X137755583Y-79865971D01*
X137755583Y-79865971D02*
X137755583Y-80056447D01*
X137755583Y-80056447D02*
X137803202Y-80151685D01*
X137803202Y-80151685D02*
X137850821Y-80199304D01*
X137850821Y-80199304D02*
X137946059Y-80246923D01*
X109874698Y-73206507D02*
X109541365Y-72730316D01*
X109303270Y-73206507D02*
X109303270Y-72206507D01*
X109303270Y-72206507D02*
X109684222Y-72206507D01*
X109684222Y-72206507D02*
X109779460Y-72254126D01*
X109779460Y-72254126D02*
X109827079Y-72301745D01*
X109827079Y-72301745D02*
X109874698Y-72396983D01*
X109874698Y-72396983D02*
X109874698Y-72539840D01*
X109874698Y-72539840D02*
X109827079Y-72635078D01*
X109827079Y-72635078D02*
X109779460Y-72682697D01*
X109779460Y-72682697D02*
X109684222Y-72730316D01*
X109684222Y-72730316D02*
X109303270Y-72730316D01*
X110160413Y-72206507D02*
X110493746Y-73206507D01*
X110493746Y-73206507D02*
X110827079Y-72206507D01*
X111684222Y-73206507D02*
X111112794Y-73206507D01*
X111398508Y-73206507D02*
X111398508Y-72206507D01*
X111398508Y-72206507D02*
X111303270Y-72349364D01*
X111303270Y-72349364D02*
X111208032Y-72444602D01*
X111208032Y-72444602D02*
X111112794Y-72492221D01*
X143837819Y-73874857D02*
X143361628Y-74208190D01*
X143837819Y-74446285D02*
X142837819Y-74446285D01*
X142837819Y-74446285D02*
X142837819Y-74065333D01*
X142837819Y-74065333D02*
X142885438Y-73970095D01*
X142885438Y-73970095D02*
X142933057Y-73922476D01*
X142933057Y-73922476D02*
X143028295Y-73874857D01*
X143028295Y-73874857D02*
X143171152Y-73874857D01*
X143171152Y-73874857D02*
X143266390Y-73922476D01*
X143266390Y-73922476D02*
X143314009Y-73970095D01*
X143314009Y-73970095D02*
X143361628Y-74065333D01*
X143361628Y-74065333D02*
X143361628Y-74446285D01*
X143837819Y-72922476D02*
X143837819Y-73493904D01*
X143837819Y-73208190D02*
X142837819Y-73208190D01*
X142837819Y-73208190D02*
X142980676Y-73303428D01*
X142980676Y-73303428D02*
X143075914Y-73398666D01*
X143075914Y-73398666D02*
X143123533Y-73493904D01*
X143837819Y-72446285D02*
X143837819Y-72255809D01*
X143837819Y-72255809D02*
X143790200Y-72160571D01*
X143790200Y-72160571D02*
X143742580Y-72112952D01*
X143742580Y-72112952D02*
X143599723Y-72017714D01*
X143599723Y-72017714D02*
X143409247Y-71970095D01*
X143409247Y-71970095D02*
X143028295Y-71970095D01*
X143028295Y-71970095D02*
X142933057Y-72017714D01*
X142933057Y-72017714D02*
X142885438Y-72065333D01*
X142885438Y-72065333D02*
X142837819Y-72160571D01*
X142837819Y-72160571D02*
X142837819Y-72351047D01*
X142837819Y-72351047D02*
X142885438Y-72446285D01*
X142885438Y-72446285D02*
X142933057Y-72493904D01*
X142933057Y-72493904D02*
X143028295Y-72541523D01*
X143028295Y-72541523D02*
X143266390Y-72541523D01*
X143266390Y-72541523D02*
X143361628Y-72493904D01*
X143361628Y-72493904D02*
X143409247Y-72446285D01*
X143409247Y-72446285D02*
X143456866Y-72351047D01*
X143456866Y-72351047D02*
X143456866Y-72160571D01*
X143456866Y-72160571D02*
X143409247Y-72065333D01*
X143409247Y-72065333D02*
X143361628Y-72017714D01*
X143361628Y-72017714D02*
X143266390Y-71970095D01*
X140341819Y-92916333D02*
X141056104Y-92916333D01*
X141056104Y-92916333D02*
X141198961Y-92963952D01*
X141198961Y-92963952D02*
X141294200Y-93059190D01*
X141294200Y-93059190D02*
X141341819Y-93202047D01*
X141341819Y-93202047D02*
X141341819Y-93297285D01*
X140341819Y-91963952D02*
X140341819Y-92440142D01*
X140341819Y-92440142D02*
X140818009Y-92487761D01*
X140818009Y-92487761D02*
X140770390Y-92440142D01*
X140770390Y-92440142D02*
X140722771Y-92344904D01*
X140722771Y-92344904D02*
X140722771Y-92106809D01*
X140722771Y-92106809D02*
X140770390Y-92011571D01*
X140770390Y-92011571D02*
X140818009Y-91963952D01*
X140818009Y-91963952D02*
X140913247Y-91916333D01*
X140913247Y-91916333D02*
X141151342Y-91916333D01*
X141151342Y-91916333D02*
X141246580Y-91963952D01*
X141246580Y-91963952D02*
X141294200Y-92011571D01*
X141294200Y-92011571D02*
X141341819Y-92106809D01*
X141341819Y-92106809D02*
X141341819Y-92344904D01*
X141341819Y-92344904D02*
X141294200Y-92440142D01*
X141294200Y-92440142D02*
X141246580Y-92487761D01*
X114292142Y-82622580D02*
X114244523Y-82670200D01*
X114244523Y-82670200D02*
X114101666Y-82717819D01*
X114101666Y-82717819D02*
X114006428Y-82717819D01*
X114006428Y-82717819D02*
X113863571Y-82670200D01*
X113863571Y-82670200D02*
X113768333Y-82574961D01*
X113768333Y-82574961D02*
X113720714Y-82479723D01*
X113720714Y-82479723D02*
X113673095Y-82289247D01*
X113673095Y-82289247D02*
X113673095Y-82146390D01*
X113673095Y-82146390D02*
X113720714Y-81955914D01*
X113720714Y-81955914D02*
X113768333Y-81860676D01*
X113768333Y-81860676D02*
X113863571Y-81765438D01*
X113863571Y-81765438D02*
X114006428Y-81717819D01*
X114006428Y-81717819D02*
X114101666Y-81717819D01*
X114101666Y-81717819D02*
X114244523Y-81765438D01*
X114244523Y-81765438D02*
X114292142Y-81813057D01*
X114673095Y-81813057D02*
X114720714Y-81765438D01*
X114720714Y-81765438D02*
X114815952Y-81717819D01*
X114815952Y-81717819D02*
X115054047Y-81717819D01*
X115054047Y-81717819D02*
X115149285Y-81765438D01*
X115149285Y-81765438D02*
X115196904Y-81813057D01*
X115196904Y-81813057D02*
X115244523Y-81908295D01*
X115244523Y-81908295D02*
X115244523Y-82003533D01*
X115244523Y-82003533D02*
X115196904Y-82146390D01*
X115196904Y-82146390D02*
X114625476Y-82717819D01*
X114625476Y-82717819D02*
X115244523Y-82717819D01*
X115815952Y-82146390D02*
X115720714Y-82098771D01*
X115720714Y-82098771D02*
X115673095Y-82051152D01*
X115673095Y-82051152D02*
X115625476Y-81955914D01*
X115625476Y-81955914D02*
X115625476Y-81908295D01*
X115625476Y-81908295D02*
X115673095Y-81813057D01*
X115673095Y-81813057D02*
X115720714Y-81765438D01*
X115720714Y-81765438D02*
X115815952Y-81717819D01*
X115815952Y-81717819D02*
X116006428Y-81717819D01*
X116006428Y-81717819D02*
X116101666Y-81765438D01*
X116101666Y-81765438D02*
X116149285Y-81813057D01*
X116149285Y-81813057D02*
X116196904Y-81908295D01*
X116196904Y-81908295D02*
X116196904Y-81955914D01*
X116196904Y-81955914D02*
X116149285Y-82051152D01*
X116149285Y-82051152D02*
X116101666Y-82098771D01*
X116101666Y-82098771D02*
X116006428Y-82146390D01*
X116006428Y-82146390D02*
X115815952Y-82146390D01*
X115815952Y-82146390D02*
X115720714Y-82194009D01*
X115720714Y-82194009D02*
X115673095Y-82241628D01*
X115673095Y-82241628D02*
X115625476Y-82336866D01*
X115625476Y-82336866D02*
X115625476Y-82527342D01*
X115625476Y-82527342D02*
X115673095Y-82622580D01*
X115673095Y-82622580D02*
X115720714Y-82670200D01*
X115720714Y-82670200D02*
X115815952Y-82717819D01*
X115815952Y-82717819D02*
X116006428Y-82717819D01*
X116006428Y-82717819D02*
X116101666Y-82670200D01*
X116101666Y-82670200D02*
X116149285Y-82622580D01*
X116149285Y-82622580D02*
X116196904Y-82527342D01*
X116196904Y-82527342D02*
X116196904Y-82336866D01*
X116196904Y-82336866D02*
X116149285Y-82241628D01*
X116149285Y-82241628D02*
X116101666Y-82194009D01*
X116101666Y-82194009D02*
X116006428Y-82146390D01*
D12*
X115488000Y-100807436D02*
X115488000Y-102261564D01*
X113668000Y-100807436D02*
X113668000Y-102261564D01*
X118178000Y-69098000D02*
X118178000Y-74168000D01*
X118178000Y-69098000D02*
X127948000Y-69098000D01*
X118178000Y-74168000D02*
X127948000Y-74168000D01*
X127948000Y-69098000D02*
X127948000Y-74168000D01*
X122068000Y-100807436D02*
X122068000Y-102261564D01*
X120248000Y-100807436D02*
X120248000Y-102261564D01*
D13*
X139340000Y-85940000D02*
X140740000Y-85940000D01*
D12*
X75886000Y-97730000D02*
X77216000Y-97730000D01*
X75886000Y-99060000D02*
X75886000Y-97730000D01*
X75886000Y-100330000D02*
X75886000Y-105470000D01*
X75886000Y-100330000D02*
X78486000Y-100330000D01*
X75886000Y-105470000D02*
X81086000Y-105470000D01*
X78486000Y-97730000D02*
X81086000Y-97730000D01*
X78486000Y-100330000D02*
X78486000Y-97730000D01*
X81086000Y-97730000D02*
X81086000Y-105470000D01*
X132350000Y-77656228D02*
G75*
G03*
X134417982Y-77715747I1000000J-1210772D01*
G01*
X154829000Y-86497000D02*
X154829000Y-91567000D01*
X154829000Y-86497000D02*
X164599000Y-86497000D01*
X154829000Y-91567000D02*
X164599000Y-91567000D01*
X164599000Y-86497000D02*
X164599000Y-91567000D01*
D13*
X140554812Y-80065400D02*
X141954812Y-80065400D01*
D12*
X158122252Y-100103000D02*
X157599748Y-100103000D01*
X158122252Y-101573000D02*
X157599748Y-101573000D01*
X132902000Y-99120000D02*
X131572000Y-99120000D01*
X132902000Y-97790000D02*
X132902000Y-99120000D01*
X132902000Y-96520000D02*
X132902000Y-93920000D01*
X132902000Y-96520000D02*
X130242000Y-96520000D01*
X132902000Y-93920000D02*
X130242000Y-93920000D01*
X130242000Y-96520000D02*
X130242000Y-93920000D01*
X145174580Y-79377000D02*
X144893420Y-79377000D01*
X145174580Y-78357000D02*
X144893420Y-78357000D01*
X98444000Y-75068000D02*
X93803000Y-75068000D01*
X98444000Y-75068000D02*
X98444000Y-85308000D01*
X96934000Y-75068000D02*
X96934000Y-85308000D01*
X93803000Y-75068000D02*
X93803000Y-85308000D01*
X98444000Y-78338000D02*
X96934000Y-78338000D01*
X98444000Y-82039000D02*
X96934000Y-82039000D01*
X98444000Y-85308000D02*
X93803000Y-85308000D01*
X125300500Y-84927000D02*
X123625500Y-84927000D01*
X125300500Y-84927000D02*
X125950500Y-84927000D01*
X125300500Y-88047000D02*
X124650500Y-88047000D01*
X125300500Y-88047000D02*
X125950500Y-88047000D01*
X86058742Y-93711500D02*
X86533258Y-93711500D01*
X86058742Y-94756500D02*
X86533258Y-94756500D01*
X84760000Y-66218000D02*
X84760000Y-73838000D01*
X84760000Y-73838000D02*
X94920000Y-73838000D01*
X94920000Y-66218000D02*
X84760000Y-66218000D01*
X94920000Y-72568000D02*
X84760000Y-72568000D01*
X94920000Y-73838000D02*
X94920000Y-66218000D01*
X102843000Y-99822000D02*
X105453000Y-99822000D01*
X102843000Y-99822000D02*
G75*
G03*
X102843000Y-99822000I-1370000J0D01*
G01*
X141336500Y-77630928D02*
X141336500Y-77156412D01*
X142381500Y-77630928D02*
X142381500Y-77156412D01*
X89118000Y-103505000D02*
X89118000Y-105180000D01*
X89118000Y-103505000D02*
X89118000Y-102855000D01*
X92238000Y-103505000D02*
X92238000Y-104155000D01*
X92238000Y-103505000D02*
X92238000Y-102855000D01*
X137162000Y-88886420D02*
X137162000Y-89167580D01*
X136142000Y-88886420D02*
X136142000Y-89167580D01*
X122703000Y-81949000D02*
X124623000Y-81949000D01*
X124623000Y-81949000D02*
X124623000Y-79264000D01*
X122703000Y-79264000D02*
X122703000Y-81949000D01*
X103978000Y-87269000D02*
X107428000Y-87269000D01*
X103978000Y-87269000D02*
X102028000Y-87269000D01*
X103978000Y-82149000D02*
X105928000Y-82149000D01*
X103978000Y-82149000D02*
X102028000Y-82149000D01*
X78874252Y-96874000D02*
X78351748Y-96874000D01*
X78874252Y-95404000D02*
X78351748Y-95404000D01*
X142388000Y-94522936D02*
X142388000Y-95977064D01*
X140568000Y-94522936D02*
X140568000Y-95977064D01*
X109206420Y-80516000D02*
X109487580Y-80516000D01*
X109206420Y-81536000D02*
X109487580Y-81536000D01*
X158302000Y-82871000D02*
X158302000Y-84201000D01*
X156972000Y-82871000D02*
X158302000Y-82871000D01*
X155702000Y-82871000D02*
X153102000Y-82871000D01*
X155702000Y-82871000D02*
X155702000Y-85531000D01*
X153102000Y-82871000D02*
X153102000Y-85531000D01*
X155702000Y-85531000D02*
X153102000Y-85531000D01*
X90070000Y-82474000D02*
X89420000Y-82474000D01*
X89420000Y-83594000D02*
X89420000Y-81354000D01*
X89420000Y-81354000D02*
X85180000Y-81354000D01*
X88820000Y-83594000D02*
X88820000Y-81354000D01*
X88700000Y-83594000D02*
X88700000Y-81354000D01*
X88580000Y-83594000D02*
X88580000Y-81354000D01*
X85180000Y-83594000D02*
X89420000Y-83594000D01*
X85180000Y-81354000D02*
X85180000Y-83594000D01*
X84530000Y-82474000D02*
X85180000Y-82474000D01*
X105677580Y-81536000D02*
X105396420Y-81536000D01*
X105677580Y-80516000D02*
X105396420Y-80516000D01*
X116551000Y-82570000D02*
X118501000Y-82570000D01*
X116551000Y-82570000D02*
X114601000Y-82570000D01*
X116551000Y-77450000D02*
X118501000Y-77450000D01*
X116551000Y-77450000D02*
X113101000Y-77450000D01*
X157206000Y-96012000D02*
X157206000Y-99462000D01*
X157206000Y-96012000D02*
X157206000Y-94062000D01*
X162326000Y-96012000D02*
X162326000Y-97962000D01*
X162326000Y-96012000D02*
X162326000Y-94062000D01*
X125492742Y-82662500D02*
X125967258Y-82662500D01*
X125492742Y-83707500D02*
X125967258Y-83707500D01*
X138335812Y-80796820D02*
X138335812Y-81077980D01*
X137315812Y-80796820D02*
X137315812Y-81077980D01*
X138571070Y-83999900D02*
X138096554Y-83999900D01*
X138571070Y-82954900D02*
X138096554Y-82954900D01*
X137162000Y-85871420D02*
X137162000Y-86152580D01*
X136142000Y-85871420D02*
X136142000Y-86152580D01*
X132307000Y-101338748D02*
X132307000Y-101861252D01*
X130837000Y-101338748D02*
X130837000Y-101861252D01*
X102094420Y-87755000D02*
X102375580Y-87755000D01*
X102094420Y-88775000D02*
X102375580Y-88775000D01*
X81975000Y-86173000D02*
X81975000Y-87503000D01*
X80645000Y-86173000D02*
X81975000Y-86173000D01*
X79375000Y-86173000D02*
X76775000Y-86173000D01*
X79375000Y-86173000D02*
X79375000Y-88833000D01*
X76775000Y-86173000D02*
X76775000Y-88833000D01*
X79375000Y-88833000D02*
X76775000Y-88833000D01*
X151705000Y-92904000D02*
X153035000Y-92904000D01*
X151705000Y-94234000D02*
X151705000Y-92904000D01*
X151705000Y-95504000D02*
X151705000Y-103184000D01*
X151705000Y-95504000D02*
X154365000Y-95504000D01*
X151705000Y-103184000D02*
X154365000Y-103184000D01*
X154365000Y-95504000D02*
X154365000Y-103184000D01*
X146937000Y-81293580D02*
X146937000Y-81012420D01*
X147957000Y-81293580D02*
X147957000Y-81012420D01*
X104253420Y-96899000D02*
X104534580Y-96899000D01*
X104253420Y-97919000D02*
X104534580Y-97919000D01*
X119380580Y-76710000D02*
X119099420Y-76710000D01*
X119380580Y-75690000D02*
X119099420Y-75690000D01*
X83606000Y-94710000D02*
X83606000Y-90069000D01*
X83606000Y-94710000D02*
X73366000Y-94710000D01*
X83606000Y-93200000D02*
X73366000Y-93200000D01*
X83606000Y-90069000D02*
X73366000Y-90069000D01*
X80336000Y-94710000D02*
X80336000Y-93200000D01*
X76635000Y-94710000D02*
X76635000Y-93200000D01*
X73366000Y-94710000D02*
X73366000Y-90069000D01*
X128746000Y-93178000D02*
X124105000Y-93178000D01*
X128746000Y-93178000D02*
X128746000Y-103418000D01*
X127236000Y-93178000D02*
X127236000Y-103418000D01*
X124105000Y-93178000D02*
X124105000Y-103418000D01*
X128746000Y-96448000D02*
X127236000Y-96448000D01*
X128746000Y-100149000D02*
X127236000Y-100149000D01*
X128746000Y-103418000D02*
X124105000Y-103418000D01*
X131437748Y-81942000D02*
X131960252Y-81942000D01*
X131437748Y-83412000D02*
X131960252Y-83412000D01*
X151444000Y-89341000D02*
X150114000Y-89341000D01*
X151444000Y-88011000D02*
X151444000Y-89341000D01*
X151444000Y-86741000D02*
X151444000Y-79061000D01*
X151444000Y-86741000D02*
X148784000Y-86741000D01*
X151444000Y-79061000D02*
X148784000Y-79061000D01*
X148784000Y-86741000D02*
X148784000Y-79061000D01*
X140383000Y-74856000D02*
X140383000Y-74656000D01*
X140383000Y-74656000D02*
X140833000Y-74656000D01*
X140383000Y-72156000D02*
X140383000Y-71956000D01*
X140383000Y-71956000D02*
X135683000Y-71956000D01*
X135683000Y-74856000D02*
X140383000Y-74856000D01*
X135683000Y-74656000D02*
X135683000Y-74856000D01*
X135683000Y-71956000D02*
X135683000Y-72156000D01*
X150897000Y-98521436D02*
X150897000Y-99975564D01*
X149077000Y-98521436D02*
X149077000Y-99975564D01*
X131124000Y-80832000D02*
X129794000Y-80832000D01*
X131124000Y-79502000D02*
X131124000Y-80832000D01*
X131124000Y-78232000D02*
X131124000Y-75632000D01*
X131124000Y-78232000D02*
X128464000Y-78232000D01*
X131124000Y-75632000D02*
X128464000Y-75632000D01*
X128464000Y-78232000D02*
X128464000Y-75632000D01*
X96282742Y-95235500D02*
X96757258Y-95235500D01*
X96282742Y-96280500D02*
X96757258Y-96280500D01*
X118778000Y-100807436D02*
X118778000Y-102261564D01*
X116958000Y-100807436D02*
X116958000Y-102261564D01*
X145667000Y-87503580D02*
X145667000Y-87222420D01*
X146687000Y-87503580D02*
X146687000Y-87222420D01*
X92623000Y-101187000D02*
X92623000Y-96546000D01*
X92623000Y-101187000D02*
X82383000Y-101187000D01*
X92623000Y-99677000D02*
X82383000Y-99677000D01*
X92623000Y-96546000D02*
X82383000Y-96546000D01*
X89353000Y-101187000D02*
X89353000Y-99677000D01*
X85652000Y-101187000D02*
X85652000Y-99677000D01*
X82383000Y-101187000D02*
X82383000Y-96546000D01*
X121947000Y-76842252D02*
X121947000Y-76319748D01*
X123417000Y-76842252D02*
X123417000Y-76319748D01*
X109074742Y-82154500D02*
X109549258Y-82154500D01*
X109074742Y-83199500D02*
X109549258Y-83199500D01*
X145055000Y-94522936D02*
X145055000Y-95977064D01*
X143235000Y-94522936D02*
X143235000Y-95977064D01*
X114156258Y-75198500D02*
X113681742Y-75198500D01*
X114156258Y-74153500D02*
X113681742Y-74153500D01*
X86949000Y-102705000D02*
X87549000Y-102705000D01*
X86749000Y-104305000D02*
X87949000Y-104305000D01*
X109060000Y-85838420D02*
X109060000Y-86119580D01*
X108040000Y-85838420D02*
X108040000Y-86119580D01*
X142352500Y-101579258D02*
X142352500Y-101104742D01*
X143397500Y-101579258D02*
X143397500Y-101104742D01*
X104633500Y-89645258D02*
X104633500Y-89170742D01*
X105678500Y-89645258D02*
X105678500Y-89170742D01*
X125903000Y-90462000D02*
X125303000Y-90462000D01*
X126103000Y-88862000D02*
X124903000Y-88862000D01*
X136811812Y-80796820D02*
X136811812Y-81077980D01*
X135791812Y-80796820D02*
X135791812Y-81077980D01*
X103521742Y-103363500D02*
X103996258Y-103363500D01*
X103521742Y-104408500D02*
X103996258Y-104408500D01*
X117194000Y-75303748D02*
X117194000Y-75826252D01*
X115724000Y-75303748D02*
X115724000Y-75826252D01*
X156691000Y-95877748D02*
X156691000Y-96400252D01*
X155221000Y-95877748D02*
X155221000Y-96400252D01*
X133537000Y-92135000D02*
X132207000Y-92135000D01*
X133537000Y-90805000D02*
X133537000Y-92135000D01*
X133537000Y-89535000D02*
X133537000Y-84395000D01*
X133537000Y-89535000D02*
X130937000Y-89535000D01*
X133537000Y-84395000D02*
X128337000Y-84395000D01*
X130937000Y-92135000D02*
X128337000Y-92135000D01*
X130937000Y-89535000D02*
X130937000Y-92135000D01*
X128337000Y-92135000D02*
X128337000Y-84395000D01*
X146255500Y-99528000D02*
X144580500Y-99528000D01*
X146255500Y-99528000D02*
X146905500Y-99528000D01*
X146255500Y-102648000D02*
X145605500Y-102648000D01*
X146255500Y-102648000D02*
X146905500Y-102648000D01*
X140383000Y-78666000D02*
X140383000Y-78466000D01*
X140383000Y-78466000D02*
X140833000Y-78466000D01*
X140383000Y-75966000D02*
X140383000Y-75766000D01*
X140383000Y-75766000D02*
X135683000Y-75766000D01*
X135683000Y-78666000D02*
X140383000Y-78666000D01*
X135683000Y-78466000D02*
X135683000Y-78666000D01*
X135683000Y-75766000D02*
X135683000Y-75966000D01*
X109564000Y-85116580D02*
X109564000Y-84835420D01*
X110584000Y-85116580D02*
X110584000Y-84835420D01*
X137653500Y-89264258D02*
X137653500Y-88789742D01*
X138698500Y-89264258D02*
X138698500Y-88789742D01*
X107331742Y-88511000D02*
X107806258Y-88511000D01*
X107331742Y-89556000D02*
X107806258Y-89556000D01*
X90070000Y-77648000D02*
X89420000Y-77648000D01*
X89420000Y-78768000D02*
X89420000Y-76528000D01*
X89420000Y-76528000D02*
X85180000Y-76528000D01*
X88820000Y-78768000D02*
X88820000Y-76528000D01*
X88700000Y-78768000D02*
X88700000Y-76528000D01*
X88580000Y-78768000D02*
X88580000Y-76528000D01*
X85180000Y-78768000D02*
X89420000Y-78768000D01*
X85180000Y-76528000D02*
X85180000Y-78768000D01*
X84530000Y-77648000D02*
X85180000Y-77648000D01*
X126000742Y-91552500D02*
X126475258Y-91552500D01*
X126000742Y-92597500D02*
X126475258Y-92597500D01*
X117618742Y-91298500D02*
X118093258Y-91298500D01*
X117618742Y-92343500D02*
X118093258Y-92343500D01*
X114156258Y-76849500D02*
X113681742Y-76849500D01*
X114156258Y-75804500D02*
X113681742Y-75804500D01*
X120896000Y-80525252D02*
X120896000Y-80002748D01*
X122366000Y-80525252D02*
X122366000Y-80002748D01*
X107440000Y-103010580D02*
X107440000Y-102729420D01*
X108460000Y-103010580D02*
X108460000Y-102729420D01*
X137653500Y-86249258D02*
X137653500Y-85774742D01*
X138698500Y-86249258D02*
X138698500Y-85774742D01*
X94194063Y-97241312D02*
X95524063Y-97241312D01*
X94194063Y-98571312D02*
X94194063Y-97241312D01*
X94194063Y-99841312D02*
X94194063Y-104981312D01*
X94194063Y-99841312D02*
X96794063Y-99841312D01*
X94194063Y-104981312D02*
X99394063Y-104981312D01*
X96794063Y-97241312D02*
X99394063Y-97241312D01*
X96794063Y-99841312D02*
X96794063Y-97241312D01*
X99394063Y-97241312D02*
X99394063Y-104981312D01*
X122976000Y-90900000D02*
X122976000Y-86259000D01*
X122976000Y-90900000D02*
X112736000Y-90900000D01*
X122976000Y-89390000D02*
X112736000Y-89390000D01*
X122976000Y-86259000D02*
X112736000Y-86259000D01*
X119706000Y-90900000D02*
X119706000Y-89390000D01*
X116005000Y-90900000D02*
X116005000Y-89390000D01*
X112736000Y-90900000D02*
X112736000Y-86259000D01*
X104631258Y-96280500D02*
X104156742Y-96280500D01*
X104631258Y-95235500D02*
X104156742Y-95235500D01*
X164663000Y-93184000D02*
X162743000Y-93184000D01*
X162743000Y-93184000D02*
X162743000Y-95869000D01*
X164663000Y-95869000D02*
X164663000Y-93184000D01*
X106297000Y-96774580D02*
X106297000Y-96493420D01*
X107317000Y-96774580D02*
X107317000Y-96493420D01*
X103521742Y-101712500D02*
X103996258Y-101712500D01*
X103521742Y-102757500D02*
X103996258Y-102757500D01*
X113020000Y-91254000D02*
X107950000Y-91254000D01*
X113020000Y-91254000D02*
X113020000Y-101024000D01*
X107950000Y-91254000D02*
X107950000Y-101024000D01*
X113020000Y-101024000D02*
X107950000Y-101024000D01*
X114240000Y-98231000D02*
X114240000Y-96901000D01*
X115570000Y-98231000D02*
X114240000Y-98231000D01*
X116840000Y-98231000D02*
X121980000Y-98231000D01*
X116840000Y-98231000D02*
X116840000Y-95631000D01*
X121980000Y-98231000D02*
X121980000Y-93031000D01*
X114240000Y-95631000D02*
X114240000Y-93031000D01*
X116840000Y-95631000D02*
X114240000Y-95631000D01*
X114240000Y-93031000D02*
X121980000Y-93031000D01*
X138827312Y-81174658D02*
X138827312Y-80700142D01*
X139872312Y-81174658D02*
X139872312Y-80700142D01*
X102049000Y-74305000D02*
X102049000Y-79375000D01*
X102049000Y-74305000D02*
X111819000Y-74305000D01*
X102049000Y-79375000D02*
X111819000Y-79375000D01*
X111819000Y-74305000D02*
X111819000Y-79375000D01*
X141463500Y-73516258D02*
X141463500Y-73041742D01*
X142508500Y-73516258D02*
X142508500Y-73041742D01*
X139887000Y-91253000D02*
X139887000Y-92583000D01*
X138557000Y-91253000D02*
X139887000Y-91253000D01*
X137287000Y-91253000D02*
X134687000Y-91253000D01*
X137287000Y-91253000D02*
X137287000Y-93913000D01*
X134687000Y-91253000D02*
X134687000Y-93913000D01*
X137287000Y-93913000D02*
X134687000Y-93913000D01*
X114794420Y-83183000D02*
X115075580Y-83183000D01*
X114794420Y-84203000D02*
X115075580Y-84203000D01*
%LPC*%
D14*
X162687000Y-103742000D03*
X71581000Y-103742000D03*
X162687000Y-66742000D03*
X71581000Y-66742000D03*
D15*
X114578000Y-100072000D03*
X114578000Y-102997000D03*
D16*
X125603000Y-71628000D03*
X123063000Y-71628000D03*
X120523000Y-71628000D03*
D15*
X121158000Y-100072000D03*
X121158000Y-102997000D03*
D17*
X140040000Y-86515000D03*
X140040000Y-87165000D03*
X140040000Y-87815000D03*
X140040000Y-88465000D03*
X144440000Y-88465000D03*
X144440000Y-87815000D03*
X144440000Y-87165000D03*
X144440000Y-86515000D03*
D18*
X142240000Y-87490000D03*
D19*
X77216000Y-99060000D03*
D20*
X79756000Y-99060000D03*
X77216000Y-101600000D03*
X79756000Y-101600000D03*
X77216000Y-104140000D03*
X79756000Y-104140000D03*
D21*
X133350000Y-78867000D03*
D22*
X133350000Y-76327000D03*
D16*
X162254000Y-89027000D03*
X159714000Y-89027000D03*
X157174000Y-89027000D03*
D17*
X141254812Y-80640400D03*
X141254812Y-81290400D03*
X141254812Y-81940400D03*
X141254812Y-82590400D03*
X145654812Y-82590400D03*
X145654812Y-81940400D03*
X145654812Y-81290400D03*
X145654812Y-80640400D03*
D18*
X143454812Y-81615400D03*
D23*
X156911000Y-100838000D03*
X158811000Y-100838000D03*
D19*
X131572000Y-97790000D03*
D20*
X131572000Y-95250000D03*
D24*
X145809000Y-78867000D03*
X144259000Y-78867000D03*
D25*
X95174000Y-77648000D03*
D26*
X95174000Y-80188000D03*
X95174000Y-82728000D03*
D27*
X124363000Y-85537000D03*
X124363000Y-87437000D03*
X126238000Y-86487000D03*
D28*
X85471000Y-94234000D03*
X87121000Y-94234000D03*
D29*
X87300000Y-70028000D03*
D30*
X92380000Y-70028000D03*
D31*
X101473000Y-99822000D03*
D32*
X106553000Y-99822000D03*
D33*
X141859000Y-78218670D03*
X141859000Y-76568670D03*
D34*
X89728000Y-104442500D03*
X91628000Y-104442500D03*
X90678000Y-102567500D03*
D35*
X136652000Y-88252000D03*
X136652000Y-89802000D03*
D36*
X123663000Y-81201500D03*
X123663000Y-79326500D03*
D37*
X106553000Y-86614000D03*
X106553000Y-85344000D03*
X106553000Y-84074000D03*
X106553000Y-82804000D03*
X101403000Y-82804000D03*
X101403000Y-84074000D03*
X101403000Y-85344000D03*
X101403000Y-86614000D03*
D23*
X79563000Y-96139000D03*
X77663000Y-96139000D03*
D15*
X141478000Y-93787500D03*
X141478000Y-96712500D03*
D38*
X108572000Y-81026000D03*
X110122000Y-81026000D03*
D19*
X156972000Y-84201000D03*
D20*
X154432000Y-84201000D03*
D39*
X91110000Y-82474000D03*
D32*
X83490000Y-82474000D03*
D24*
X106312000Y-81026000D03*
X104762000Y-81026000D03*
D40*
X119126000Y-78105000D03*
X119126000Y-79375000D03*
X119126000Y-80645000D03*
X119126000Y-81915000D03*
X113976000Y-81915000D03*
X113976000Y-80645000D03*
X113976000Y-79375000D03*
X113976000Y-78105000D03*
D41*
X157861000Y-98487000D03*
X159131000Y-98487000D03*
X160401000Y-98487000D03*
X161671000Y-98487000D03*
X161671000Y-93537000D03*
X160401000Y-93537000D03*
X159131000Y-93537000D03*
X157861000Y-93537000D03*
D28*
X124905000Y-83185000D03*
X126555000Y-83185000D03*
D35*
X137825812Y-80162400D03*
X137825812Y-81712400D03*
D42*
X139158812Y-83477400D03*
X137508812Y-83477400D03*
D35*
X136652000Y-85237000D03*
X136652000Y-86787000D03*
D43*
X131572000Y-100650000D03*
X131572000Y-102550000D03*
D38*
X101460000Y-88265000D03*
X103010000Y-88265000D03*
D19*
X80645000Y-87503000D03*
D20*
X78105000Y-87503000D03*
D19*
X153035000Y-94234000D03*
D20*
X153035000Y-96774000D03*
X153035000Y-99314000D03*
X153035000Y-101854000D03*
D44*
X147447000Y-81928000D03*
X147447000Y-80378000D03*
D38*
X103619000Y-97409000D03*
X105169000Y-97409000D03*
D24*
X120015000Y-76200000D03*
X118465000Y-76200000D03*
D45*
X81026000Y-91440000D03*
D46*
X78486000Y-91440000D03*
X75946000Y-91440000D03*
D25*
X125476000Y-95758000D03*
D26*
X125476000Y-98298000D03*
X125476000Y-100838000D03*
D47*
X130749000Y-82677000D03*
X132649000Y-82677000D03*
D19*
X150114000Y-88011000D03*
D20*
X150114000Y-85471000D03*
X150114000Y-82931000D03*
X150114000Y-80391000D03*
D48*
X140208000Y-74041000D03*
X140208000Y-72771000D03*
X135858000Y-72771000D03*
X135858000Y-74041000D03*
D15*
X149987000Y-97786000D03*
X149987000Y-100711000D03*
D19*
X129794000Y-79502000D03*
D20*
X129794000Y-76962000D03*
D28*
X95695000Y-95758000D03*
X97345000Y-95758000D03*
D15*
X117868000Y-100072000D03*
X117868000Y-102997000D03*
D44*
X146177000Y-88138000D03*
X146177000Y-86588000D03*
D45*
X90043000Y-97917000D03*
D46*
X87503000Y-97917000D03*
X84963000Y-97917000D03*
D49*
X122682000Y-77531000D03*
X122682000Y-75631000D03*
D28*
X108487000Y-82677000D03*
X110137000Y-82677000D03*
D15*
X144145000Y-93787500D03*
X144145000Y-96712500D03*
D42*
X114744000Y-74676000D03*
X113094000Y-74676000D03*
D50*
X87824000Y-103905000D03*
X87824000Y-103105000D03*
D51*
X86674000Y-103505000D03*
D35*
X108550000Y-85204000D03*
X108550000Y-86754000D03*
D33*
X142875000Y-102167000D03*
X142875000Y-100517000D03*
X105156000Y-90233000D03*
X105156000Y-88583000D03*
D50*
X125028000Y-89262000D03*
X125028000Y-90062000D03*
D51*
X126178000Y-89662000D03*
D35*
X136301812Y-80162400D03*
X136301812Y-81712400D03*
D28*
X102934000Y-103886000D03*
X104584000Y-103886000D03*
D43*
X116459000Y-74615000D03*
X116459000Y-76515000D03*
X155956000Y-95189000D03*
X155956000Y-97089000D03*
D19*
X132207000Y-90805000D03*
D20*
X129667000Y-90805000D03*
X132207000Y-88265000D03*
X129667000Y-88265000D03*
X132207000Y-85725000D03*
X129667000Y-85725000D03*
D27*
X145318000Y-100138000D03*
X145318000Y-102038000D03*
X147193000Y-101088000D03*
D48*
X140208000Y-77851000D03*
X140208000Y-76581000D03*
X135858000Y-76581000D03*
X135858000Y-77851000D03*
D44*
X110074000Y-85751000D03*
X110074000Y-84201000D03*
D33*
X138176000Y-89852000D03*
X138176000Y-88202000D03*
D28*
X106744000Y-89033500D03*
X108394000Y-89033500D03*
D39*
X91110000Y-77648000D03*
D32*
X83490000Y-77648000D03*
D28*
X125413000Y-92075000D03*
X127063000Y-92075000D03*
X117031000Y-91821000D03*
X118681000Y-91821000D03*
D42*
X114744000Y-76327000D03*
X113094000Y-76327000D03*
D49*
X121631000Y-81214000D03*
X121631000Y-79314000D03*
D44*
X107950000Y-103645000D03*
X107950000Y-102095000D03*
D33*
X138176000Y-86837000D03*
X138176000Y-85187000D03*
D19*
X95524063Y-98571312D03*
D20*
X98064063Y-98571312D03*
X95524063Y-101111312D03*
X98064063Y-101111312D03*
X95524063Y-103651312D03*
X98064063Y-103651312D03*
D45*
X120396000Y-87630000D03*
D46*
X117856000Y-87630000D03*
X115316000Y-87630000D03*
D42*
X105219000Y-95758000D03*
X103569000Y-95758000D03*
D52*
X163703000Y-93931500D03*
X163703000Y-95806500D03*
D44*
X106807000Y-97409000D03*
X106807000Y-95859000D03*
D28*
X102934000Y-102235000D03*
X104584000Y-102235000D03*
D16*
X110490000Y-98679000D03*
X110490000Y-96139000D03*
X110490000Y-93599000D03*
D19*
X115570000Y-96901000D03*
D20*
X115570000Y-94361000D03*
X118110000Y-96901000D03*
X118110000Y-94361000D03*
X120650000Y-96901000D03*
X120650000Y-94361000D03*
D33*
X139349812Y-81762400D03*
X139349812Y-80112400D03*
D16*
X109474000Y-76835000D03*
X106934000Y-76835000D03*
X104394000Y-76835000D03*
D33*
X141986000Y-74104000D03*
X141986000Y-72454000D03*
D19*
X138557000Y-92583000D03*
D20*
X136017000Y-92583000D03*
D38*
X114160000Y-83693000D03*
X115710000Y-83693000D03*
D39*
X97714000Y-87848063D03*
X99314000Y-88519000D03*
D31*
X99314000Y-91019000D03*
X100914000Y-91689937D03*
D39*
X136195000Y-97373063D03*
X137795000Y-98044000D03*
D31*
X137795000Y-100544000D03*
X139395000Y-101214937D03*
D39*
X86030000Y-87975063D03*
X87630000Y-88646000D03*
D31*
X87630000Y-91146000D03*
X89230000Y-91816937D03*
%LPD*%
M02*
